<?xml version="1.0" encoding="UTF-8" standalone="no"?>
<!DOCTYPE svg PUBLIC "-//W3C//DTD SVG 1.1//EN"
"http://www.w3.org/Graphics/SVG/1.1/DTD/svg11.dtd">
<svg viewBox="0 0 1274 1824" version="1.1" xmlns="http://www.w3.org/2000/svg" xmlns:xlink="http://www.w3.org/1999/xlink">
<defs>
<clipPath id="c0_4"><path d="M86.8 1596.9V100.5H1187.4V1596.9Z"/></clipPath>
<clipPath id="c1_4"><path d="M203.2 1466.7c-13.5 0 -24.4 -11 -24.4 -24.5V178.8c0 -13.6 10.9 -24.5 24.4 -24.5H1071c13.5 0 24.4 10.9 24.4 24.5V1442.2c0 13.5 -10.9 24.5 -24.4 24.5Z"/></clipPath>
<style type="text/css"><![CDATA[
.g0_4{
fill: #FFF;
}
.g1_4{
fill: #000;
fill-opacity: 0.02;
}
.g2_4{
fill: #2EA4AB;
fill-opacity: 0.01;
}
.g3_4{
fill: #2EA4AB;
}
.g4_4{
fill: #1C1F1F;
}
]]></style>
</defs>
<path d="M0 1824.2H1274.2V0H0V1824.2Z" class="g0_4"/>
<path d="M0 1824.2H1274.2V0H0V1824.2Z" class="g1_4"/>
<path d="M0 1824.2H1274.2V0H0V1824.2Z" class="g2_4"/>
<path d="M303.2 1572.7c0 10.4 -2.5 19.1 -15.1 25.3l-2.7 -4c5.3 -2.6 8.5 -5.5 10.4 -9l-9.4 .9l-.7 -4.3l11.8 -.7c.3 -1.3 .5 -2.6 .6 -4H287.5v-4.2h15.7Zm4.6 30.1v-33.1h5.1v33.1h-5.1ZM332.3 1571.2c7.1 0 12.5 3.7 12.5 9.2c0 5 -4.1 8.4 -9.9 9.1v5.4h12.4v4.1H317.4v-4.1h12.3v-5.4c-5.8 -.8 -9.8 -4.1 -9.8 -9.1c0 -5.5 5.3 -9.2 12.4 -9.2Zm-7.3 9.2c0 3.3 2.9 5.2 7.3 5.2c4.4 0 7.4 -1.9 7.4 -5.2c0 -3.2 -3 -5.1 -7.4 -5.1c-4.4 0 -7.3 1.9 -7.3 5.1ZM361.5 1571.5H367v2.3c0 4.7 3.6 9.9 11.5 11.2l-2.2 4.2c-5.9 -1.1 -10 -4.2 -12.1 -8.2c-2.1 4 -6.2 7.1 -12 8.2L350 1585c7.8 -1.3 11.5 -6.6 11.5 -11.2v-2.3Zm-12.1 27.3v-4.2h30v4.2h-30ZM384.8 1572.4h23.7v3.8c0 4.8 0 9.4 -1.5 16.7l-5.1 -.4c.6 -2.7 .9 -5 1.2 -7.2l-18.7 .9l-.6 -4.1l19.6 -.6c0 -1.7 0 -3.3 0 -4.9H384.8v-4.2Zm-3.3 26.6v-4.2h29.9v4.2H381.5Z" class="g3_4"/>
<path d="M424.2 1572.2c5.1 0 8.9 3.2 8.9 7.8c0 4.7 -3.8 7.9 -8.9 7.9c-5.1 0 -8.9 -3.2 -8.9 -7.9c0 -4.6 3.8 -7.8 8.9 -7.8Zm-10.4 20.3c5.8 0 13.9 0 20.9 -1.1l.3 2.9c-7.1 1.4 -15 1.4 -20.7 1.4l-.5 -3.2Zm5.4 -12.5c0 2.8 2.1 4.6 5 4.6c2.8 0 5 -1.8 5 -4.6c0 -2.7 -2.2 -4.4 -5 -4.4c-2.9 0 -5 1.7 -5 4.4Zm17.5 22.6v-32.7h3.9v32.7h-3.9ZM477.2 1569.9h3.9v32.6h-3.9v-32.6Zm-22.8 23.7c8.5 -4.1 12.4 -9.6 13.1 -17.1H456v-3.2h15.5c0 9.8 -3.7 18 -15 23.5l-2.1 -3.2ZM490.1 1571.2H494v3.5h14v-3.5h3.9v13.1h-9v3.1h12.8v3.2H486.2v-3.2H499v-3.1h-8.9v-13.1Zm-.2 30.7v-9.1h4v5.9h18.5v3.2H489.9Zm4.1 -20.7h14v-3.4H494v3.4ZM534.3 1571.6h3.9v3.5c0 4.1 2.6 8 7.6 9.6l-2.1 3.1c-3.5 -1.2 -6 -3.6 -7.4 -6.7c-1.4 3.5 -4.1 6.2 -7.8 7.6l-2.1 -3.1c5.2 -1.8 7.9 -6.2 7.9 -10.9v-3.1Zm-3.5 24.8c0 -3.9 4.2 -6.2 10.9 -6.2c6.7 0 10.9 2.3 10.9 6.2c0 3.8 -4.2 6.1 -10.9 6.1c-6.7 0 -10.9 -2.3 -10.9 -6.1Zm3.9 0c0 2 2.6 3 7 3c4.5 0 7 -1 7 -3c0 -2.1 -2.5 -3.1 -7 -3.1c-4.4 0 -7 1 -7 3.1Zm13.6 -7v-19.5h3.9v7.9h4.6v3.3h-4.6v8.3h-3.9ZM560 1573.4h12.9v3.2h-9.2v5.4h8.7v3.1h-8.7v6.5c4.1 -.1 6.8 -.2 10.1 -.8l.4 3.2c-3.8 .7 -7 .8 -12 .8H560v-21.4Zm15.8 27.6v-30.5h3.7v12.2h3.4v-12.8h3.8v32.6h-3.8v-16.6h-3.4V1601h-3.7ZM596.2 1596.2l-2.5 8.4h-2.8l1.4 -8.4h3.9ZM619.2 1571c4.9 0 8.6 3 8.6 7.3c0 4.3 -3.7 7.4 -8.6 7.4c-5 0 -8.6 -3.1 -8.6 -7.4c0 -4.3 3.6 -7.3 8.6 -7.3Zm-4.8 7.3c0 2.5 2 4.2 4.8 4.2c2.7 0 4.8 -1.7 4.8 -4.2c0 -2.5 -2.1 -4.1 -4.8 -4.1c-2.8 0 -4.8 1.6 -4.8 4.1Zm1.1 12.6v-3h21.4v8.4H619.4v2.7h18.5v3.1H615.6v-8.6H633v-2.6H615.5Zm17.5 -4.5v-16.5h3.9v16.5H633ZM665.2 1569.9h3.9v19.2h-3.9v-4.5h-6.5v2.5H643.5v-14.8h15.2v2.6h6.5v-5Zm-18 26.3c0 -3.9 4.2 -6.2 11 -6.2c6.9 0 11.1 2.3 11.1 6.2c0 4 -4.2 6.3 -11.1 6.3c-6.8 0 -11 -2.3 -11 -6.3Zm.2 -12.2h7.4v-8.5h-7.4v8.5Zm3.7 12.2c0 2.1 2.6 3.3 7.1 3.3c4.6 0 7.1 -1.2 7.1 -3.3c0 -2 -2.5 -3.1 -7.1 -3.1c-4.5 0 -7.1 1.1 -7.1 3.1Zm7.6 -14.8h6.5V1578h-6.5v3.4ZM682.6 1586.9h12.7V1584c-5.9 -.5 -9.6 -2.9 -9.6 -6.6c0 -4.1 4.6 -6.6 11.6 -6.6c7.1 0 11.7 2.5 11.7 6.6c0 3.8 -3.8 6.2 -9.8 6.6v2.9H712v3.2H682.6v-3.2Zm3.6 15v-9.4h4v6.2h18.6v3.2H686.2Zm3.5 -24.5c0 2.3 2.9 3.5 7.6 3.5c4.7 0 7.6 -1.2 7.6 -3.5c0 -2.2 -2.9 -3.4 -7.6 -3.4c-4.7 0 -7.6 1.2 -7.6 3.4ZM714.6 1595.3h12.8v-6.4h-9.5v-16.8h3.9v5.3h15.1v-5.3h3.9v16.8h-9.5v6.4h12.8v3.3H714.6v-3.3Zm7.2 -9.5h15.1v-5.2H721.8v5.2ZM769.6 1569.9h4v19.7h-4v-19.7Zm-21 17.3v-14.8H764v3.2H752.5v8.4c6.4 0 10.1 -.2 14.3 -1.1l.4 3.2c-4.5 .9 -8.6 1.1 -15.9 1.1h-2.7Zm3 9c0 -4 4.2 -6.4 11.1 -6.4c6.8 0 11 2.4 11 6.4c0 4 -4.2 6.3 -11 6.3c-6.9 0 -11.1 -2.3 -11.1 -6.3Zm4 0c0 2.1 2.5 3.3 7.1 3.3c4.5 0 7.1 -1.2 7.1 -3.3c0 -2.2 -2.6 -3.3 -7.1 -3.3c-4.6 0 -7.1 1.1 -7.1 3.3ZM811.5 1569.9h3.8v32.6h-3.8v-32.6Zm-24.7 21.7h2.9V1577h-2.3v-3.2h14.9v3.2h-2.4v14.2c1.1 -.2 2 -.2 3 -.4l.2 2.9c-5.1 1 -11.7 1.2 -15.9 1.2l-.4 -3.3Zm6.5 -.1c1 0 2 -.1 3.1 -.1V1577h-3.1v14.5Zm8.1 -6V1582h3.7v-11.4h3.7v30.3h-3.7v-15.4h-3.7ZM842.1 1569.9h4v32.7h-4v-32.7Zm-21.9 13.9c0 -7.1 3.6 -11.5 8.5 -11.5c4.9 0 8.4 4.4 8.4 11.5c0 7.1 -3.5 11.6 -8.4 11.6c-4.9 0 -8.5 -4.5 -8.5 -11.6Zm3.9 0c0 5 1.8 8 4.6 8c2.7 0 4.6 -3 4.6 -8c0 -5 -1.9 -7.9 -4.6 -7.9c-2.8 0 -4.6 2.9 -4.6 7.9ZM852.3 1573.1h18.3v3.3h-7.2v2.8c0 5.4 3.2 11 8.4 13.2l-2.2 3.1c-3.8 -1.7 -6.6 -5.1 -8.1 -9.3c-1.5 4.5 -4.4 8.3 -8.2 10.1l-2.2 -3.1c5.1 -2.3 8.3 -8.4 8.3 -14v-2.8h-7.1v-3.3Zm21.8 29.4v-32.6h4v32.6h-4ZM906.3 1569.9h3.9v17.5h-3.9v-17.5Zm-22.4 9c0 -4.4 3.7 -7.5 8.7 -7.5c5 0 8.7 3.1 8.7 7.5c0 4.6 -3.7 7.7 -8.7 7.7c-5 0 -8.7 -3.1 -8.7 -7.7Zm3.8 0c0 2.7 2.1 4.4 4.9 4.4c2.8 0 4.8 -1.7 4.8 -4.4c0 -2.6 -2 -4.3 -4.8 -4.3c-2.8 0 -4.9 1.7 -4.9 4.3Zm1.1 23.2V1589h3.9v3.4h13.6V1589h3.9v13.1H888.8Zm3.9 -3.1h13.6v-3.6H892.7v3.6ZM938.4 1569.9h3.9v32.6h-3.9v-32.6Zm-21.2 24.4V1573h4v18c4.5 -.1 9.3 -.5 14.3 -1.5l.5 3.3c-5.6 1.1 -11 1.5 -15.9 1.5h-2.9ZM968.8 1569.9h4v12.4h4.9v3.3h-4.9v17h-4v-32.7Zm-20 24.7V1573h15.1v3.2H952.7v15.1c5.2 0 9.1 -.2 13.5 -1.1l.4 3.3c-4.9 1 -9.3 1.1 -15.2 1.1h-2.6ZM982.4 1595.9c1.3 0 2.3 .9 2.3 2.3c0 1.3 -1 2.2 -2.3 2.2c-1.3 0 -2.2 -.9 -2.2 -2.2c0 -1.4 .9 -2.3 2.2 -2.3ZM362.1 1624.9H366v16.5h-3.9v-2.8h-7.8v-3h7.8v-3.3h-7.4c-2 5 -6.8 8.2 -14 9.9l-1.3 -3.2c7.6 -1.7 11.5 -5.1 12 -9.5H341.2v-3.2h14.5c0 1 0 2 -.2 3h6.6v-4.4Zm-17.4 20.9v-3.1H366v8.6H348.7v2.8h18.2v3.1H344.8v-8.9h17.3v-2.5H344.7ZM395.1 1624.9h3.7v32.6h-3.7v-32.6Zm-24.7 23.5c4.7 -3 6.7 -8.8 6.7 -14.6v-2.2h-5.6v-3.2h14.7v3.2H381v2.2c0 5.5 2 11.1 6.5 13.8l-2.3 2.9c-3 -1.8 -5 -5 -6.1 -8.7c-1.1 4.1 -3.2 7.5 -6.3 9.4l-2.4 -2.8Zm13.4 -8.9v-3.2h4.7v-10.8h3.7v30.4h-3.7v-16.4h-4.7ZM424.6 1624.8h4v7.4h4.5v3.2h-4.5v7.2h-4v-17.8Zm-21.5 5.7v-3h7.6v-2.9h4v2.9h7.6v3H403.1Zm1.7 6.5c0 -3.4 3.1 -5.4 7.9 -5.4c4.8 0 7.9 2 7.9 5.4c0 3.2 -3.1 5.3 -7.9 5.3c-4.8 0 -7.9 -2.1 -7.9 -5.3Zm2.6 10v-2.9h21.2v7.8H411.4v2.4h18.2v3H407.5v-8.1h17.1V1647H407.4Zm1.1 -10c0 1.6 1.7 2.5 4.2 2.5c2.5 0 4.1 -.9 4.1 -2.5c0 -1.7 -1.6 -2.6 -4.1 -2.6c-2.5 0 -4.2 .9 -4.2 2.6ZM451.1 1626.6H455v3.5c0 4.1 2.6 8 7.6 9.6l-2.1 3.1c-3.5 -1.2 -6 -3.6 -7.4 -6.7c-1.4 3.5 -4.1 6.2 -7.8 7.6l-2.1 -3.1c5.2 -1.8 7.9 -6.2 7.9 -10.9v-3.1Zm-3.5 24.8c0 -3.9 4.2 -6.2 10.9 -6.2c6.8 0 10.9 2.3 10.9 6.2c0 3.8 -4.1 6.1 -10.9 6.1c-6.7 0 -10.9 -2.3 -10.9 -6.1Zm3.9 0c0 2 2.6 3 7 3c4.5 0 7 -1 7 -3c0 -2.1 -2.5 -3.1 -7 -3.1c-4.4 0 -7 1 -7 3.1Zm13.6 -7v-19.5H469v7.9h4.6v3.3H469v8.3h-3.9ZM475.6 1640.4H505v3.1H492.3v3.2h9.2v10.4H479.1v-10.4h9.3v-3.2H475.6v-3.1Zm2.6 -11.3v-3.2h24.2v3.2h-4.5v5.7h4.2v3.1H478.4v-3.1h4.3v-5.7h-4.5ZM483 1654h14.6v-4.2H483v4.2Zm3.7 -19.2h7.2v-5.7h-7.2v5.7ZM522.4 1625.4c7.3 0 11.6 2 11.6 5.6c0 3.6 -4.3 5.6 -11.6 5.6c-7.4 0 -11.7 -2 -11.7 -5.6c0 -3.6 4.3 -5.6 11.7 -5.6Zm-14.8 16.2v-3.1h29.5v3.1H507.6Zm3.5 5.2v-3h22.3v7.9H515v2.6h19.4v3H511.2V1649h18.4v-2.2H511.1Zm3.7 -15.8c0 1.8 2.6 2.7 7.6 2.7c4.9 0 7.6 -.9 7.6 -2.7c0 -1.8 -2.7 -2.7 -7.6 -2.7c-5 0 -7.6 .9 -7.6 2.7ZM569.6 1624.9h3.9v12.5h5v3.3h-5v16.8h-3.9v-32.6Zm-20.3 25v-22.3h3.9v8.2h7.7v-8.2h4v22.3H549.3Zm3.9 -3.2h7.7v-7.8h-7.7v7.8ZM583.6 1627.8h22.9v3c0 3.9 0 8.5 -1.4 15.4l-3.9 -.5c.5 -2.6 .9 -4.9 1.1 -7l-19.1 1l-.5 -3.3l19.8 -.7c.1 -1.7 .1 -3.3 .1 -4.7h-19v-3.2Zm-3.4 25.6v-3.1h10.9v-8.1H595v8.1h14.6v3.1H580.2ZM615.8 1627.7h22.4v3.2H619.7v9.3h18.8v3.2H615.8v-15.7Zm-3.6 25.7v-3.3h29.5v3.3H612.2ZM675.7 1624.9h4v32.6h-4v-32.6Zm-22.8 23.7c8.5 -4.1 12.4 -9.6 13.1 -17.1H654.6v-3.2H670c0 9.8 -3.7 18 -15 23.5l-2.1 -3.2ZM697.1 1641.9h5.2v-5h-4.6c-1.5 5.4 -4.9 10.1 -11 13.8l-2.2 -2.9c6.6 -4 9.7 -9.1 10.3 -15.7h-8.7v-3.2h12.6c0 1.6 -.1 3.2 -.3 4.8h3.9v-8H706v30.2h-3.7V1645h-5.2v-3.1Zm11.8 15.6v-32.6h3.7v32.6h-3.7ZM740.9 1624.9h3.8v32.6h-3.8v-32.6ZM717.2 1639c0 -7.2 2.7 -11.6 6.9 -11.6c3.9 0 6.6 3.7 7 9.8h3.3v-11.7h3.7V1656h-3.7v-15.6h-3.3c-.3 6.4 -3 10.3 -7 10.3c-4.2 0 -6.9 -4.5 -6.9 -11.7Zm3.5 0c0 5.1 1.3 8 3.4 8c2.2 0 3.5 -2.9 3.5 -8c0 -5.1 -1.3 -7.9 -3.5 -7.9c-2.1 0 -3.4 2.8 -3.4 7.9ZM762 1645.9h22.8v11.6h-4V1649H762v-3.1Zm-5.2 -5.4c3.7 -1.9 5 -6 5 -9.5v-.7H758v-3.1h9.6v3.1h-2.1v.7c0 2.6 .6 5.9 2.8 8.4c2.1 -2.5 2.7 -5.7 2.7 -8.4v-.7h-2.1v-3.1h9.3v3.1h-3.5v.7c0 3.5 1.3 7.6 5 9.5l-2.1 2.9c-2.4 -1.3 -3.8 -3.5 -4.7 -5.9c-.8 2.5 -2.2 4.8 -4.7 6.2c-2.4 -1.4 -3.8 -3.7 -4.6 -6.3c-.8 2.5 -2.3 4.7 -4.7 6l-2.1 -2.9Zm24 3.9v-19.5h4v19.5h-4ZM798.2 1627.3c4.3 0 7.6 3.7 8.2 9.6h6.1v-12h4v32.7h-4v-17.5h-6.1c-.4 6.3 -3.7 10.3 -8.2 10.3c-4.8 0 -8.3 -4.5 -8.3 -11.6c0 -7.1 3.5 -11.5 8.3 -11.5Zm-4.6 11.5c0 5 1.9 8 4.6 8c2.7 0 4.5 -3 4.5 -8c0 -5 -1.8 -7.9 -4.5 -7.9c-2.7 0 -4.6 2.9 -4.6 7.9ZM829.9 1643.2h29.4v3.2H846.5v11.2h-3.9v-11.2H829.9v-3.2Zm1.5 -5.4c6.4 -.8 10.7 -4.3 11 -7.9h-9.8v-3.1h24v3.1h-9.7c.3 3.6 4.6 7.1 10.9 7.9l-1.5 3.1c-5.4 -.8 -9.7 -3.3 -11.7 -6.8c-2 3.5 -6.3 6 -11.7 6.8l-1.5 -3.1ZM874.8 1636.2h4.6v-10.7H883V1656h-3.6v-16.6h-4.6v-3.2Zm-13.4 11.6c4.6 -2.7 6.8 -8.6 6.8 -14.2v-5.7H872v5.6c0 5.2 1.8 10.7 6.2 13.5l-2.2 3.1c-2.9 -1.8 -4.8 -4.9 -5.9 -8.5c-1.1 4 -3.2 7.3 -6.3 9.2l-2.4 -3Zm24.6 9.7v-32.6h3.8v32.6H886ZM894 1650.3h6.8V1642c-2.6 -1.5 -4.1 -3.8 -4.1 -6.7c0 -5.2 5 -8.6 12 -8.6c7 0 12 3.4 12 8.6c0 2.9 -1.5 5.2 -4 6.7v8.3h6.8v3.2H894v-3.2Zm6.5 -15c0 3.4 3.4 5.5 8.2 5.5c4.8 0 8.2 -2.1 8.2 -5.5c0 -3.4 -3.4 -5.5 -8.2 -5.5c-4.8 0 -8.2 2.1 -8.2 5.5Zm4.2 15h8v-6.9c-1.2 .3 -2.6 .4 -4 .4c-1.4 0 -2.7 -.1 -4 -.4v6.9ZM929 1650.9c1.3 0 2.2 .9 2.2 2.3c0 1.3 -.9 2.2 -2.2 2.2c-1.3 0 -2.3 -.9 -2.3 -2.2c0 -1.4 1 -2.3 2.3 -2.3Z" class="g4_4"/>
<path fill-rule="evenodd" d="M45.9 1788.1l8.6 2.3l5.2 -19.6c2.2 -8.5 -2.7 -17.2 -11 -19.4c-8.3 -2.3 -16.8 2.7 -19 11.2l-5.3 19.7l8.6 2.3l-1.7 6.6c-1 3.6 1.1 7.3 4.7 8.3c3.6 1 7.2 -1.2 8.2 -4.8l1.7 -6.6Zm5.5 -3.2l4 -15.3c1.6 -6 -1.9 -12.2 -7.8 -13.9c-6 -1.6 -12.1 2 -13.7 8.1l-4 15.3l8.6 2.3l-2.9 10.9c-.3 1.3 .4 2.5 1.6 2.8c1.1 .3 2.4 -.4 2.7 -1.6l2.9 -10.9l8.6 2.3Z" class="g3_4"/>
<image clip-path="url(#c0_4)" preserveAspectRatio="none" x="87" y="101" width="1100" height="1496" xlink:href="img/1.png"/>
<image clip-path="url(#c1_4)" preserveAspectRatio="none" x="179" y="154" width="916" height="1313" xlink:href="img/2.jpg"/>
</svg>