<?xml version="1.0" encoding="UTF-8" standalone="no"?>
<!DOCTYPE svg PUBLIC "-//W3C//DTD SVG 1.1//EN"
"http://www.w3.org/Graphics/SVG/1.1/DTD/svg11.dtd">
<svg viewBox="0 0 1274 1824" version="1.1" xmlns="http://www.w3.org/2000/svg" xmlns:xlink="http://www.w3.org/1999/xlink">
<defs>
<clipPath id="c0_12"><path d="M86.8 1596.9V100.5H1187.4V1596.9Z"/></clipPath>
<clipPath id="c1_12"><path d="M203.2 1466.7c-13.5 0 -24.4 -11 -24.4 -24.5V178.8c0 -13.6 10.9 -24.5 24.4 -24.5H1071c13.5 0 24.4 10.9 24.4 24.5V1442.2c0 13.5 -10.9 24.5 -24.4 24.5Z"/></clipPath>
<style type="text/css"><![CDATA[
.g0_12{
fill: #FFF;
}
.g1_12{
fill: #000;
fill-opacity: 0.02;
}
.g2_12{
fill: #2EA4AB;
fill-opacity: 0.01;
}
.g3_12{
fill: #2EA4AB;
}
.g4_12{
fill: #1C1F1F;
}
]]></style>
</defs>
<path d="M0 1824.2H1274.2V0H0V1824.2Z" class="g0_12"/>
<path d="M0 1824.2H1274.2V0H0V1824.2Z" class="g1_12"/>
<path d="M0 1824.2H1274.2V0H0V1824.2Z" class="g2_12"/>
<path d="M345.1 1569.7h5.2v24.4h-5.2v-7.9h-5.5v2.8H323.8v-17.2h5.1v4.9h5.7v-4.9h5v3.3h5.5v-5.4Zm-16.9 32.5v-10.5h5.1v6.5h17.6v4H328.2Zm.7 -17.2h5.7v-4.4h-5.7v4.4Zm10.7 -2.8h5.5v-3h-5.5v3ZM370.2 1581.5h6.9v-2.7h-6.6c-2 5.2 -6.5 8.7 -13.9 10.7l-1.9 -4.1c7.5 -1.9 10.8 -5.2 11.4 -9.5h-9.6v-4.1h15.2c0 1 -.1 2 -.2 2.9h5.6v-5h5.2v18.8h-5.2v-2.9h-6.9v-4.1ZM360 1595.8c0 -4.2 4.5 -6.8 11.3 -6.8c6.7 0 11.2 2.6 11.2 6.8c0 4.2 -4.5 6.8 -11.2 6.8c-6.8 0 -11.3 -2.6 -11.3 -6.8Zm5.1 0c0 1.9 2.3 2.9 6.2 2.9c3.8 0 6.1 -1 6.1 -2.9c0 -1.9 -2.3 -2.9 -6.1 -2.9c-3.9 0 -6.2 1 -6.2 2.9ZM349.6 1624.7h5.1v16.5h-5.1V1639h-7.1v-3.9h7.1v-2.6h-6.8c-2 4.9 -6.6 7.9 -13.9 9.5l-1.6 -4.1c7.4 -1.5 10.5 -4.4 11 -8h-9.1v-4.1h14.9c0 1 -.1 2 -.2 2.9h5.7v-4Zm-16.9 21.7v-4h22v9.3H337.9v1.7h17.4v4H332.8v-9.5h16.8v-1.5H332.7ZM382.6 1624.7h4.8v33.1h-4.8v-33.1Zm-24.4 23.2c4.9 -3.1 6.4 -9 6.4 -14.5V1632h-5.1v-4.1h14.7v4.1h-4.6v1.4c0 5.4 1.4 11 6.3 13.8l-3 3.7c-2.8 -1.7 -4.6 -4.4 -5.7 -7.8c-1.1 3.7 -3 6.8 -5.9 8.6l-3.1 -3.8Zm13.7 -7.9v-4.2h4v-10.7h4.8v31.2h-4.8V1640h-4ZM412 1624.7h5.1v12.7h4.7v4.3h-4.7v16.1H412v-33.1Zm-21.1 8.8v-4H398v-4.2h5.1v4.2h7v4H390.9Zm1.2 9.7c0 -4.7 3.6 -8 8.5 -8c4.8 0 8.4 3.3 8.4 8c0 4.6 -3.6 7.9 -8.4 7.9c-4.9 0 -8.5 -3.3 -8.5 -7.9Zm4.9 0c0 2.4 1.4 3.8 3.6 3.8c2 0 3.5 -1.4 3.5 -3.8c0 -2.5 -1.5 -3.8 -3.5 -3.8c-2.2 0 -3.6 1.3 -3.6 3.8ZM445.6 1624.7h5.1v33.1h-5.1v-33.1Zm-22.5 23.5c8.3 -4 11.8 -8.9 12.5 -16.1H424.9V1628h16c0 10.3 -3.2 18.6 -15.1 24.3l-2.7 -4.1Z" class="g3_12"/>
<path d="M418.4 1569.9h3.9v32.7h-3.9v-17.8h-6.6v9.9H396.4v-22.2h4v8.1h7.5v-8.1h3.9v9.2h6.6v-11.8Zm-18 21.6h7.5v-7.8h-7.5v7.8ZM427.2 1587.7h29.5v3.2H427.2v-3.2Zm3.7 14.2v-9.1h3.9v5.9h18.9v3.2H430.9Zm.1 -16.6V1571h22.2v3.1H434.9v2.6h17.5v2.9H434.9v2.7h18.6v3H431ZM474 1570.4c7.3 0 11.7 2 11.7 5.6c0 3.6 -4.4 5.6 -11.7 5.6c-7.3 0 -11.6 -2 -11.6 -5.6c0 -3.6 4.3 -5.6 11.6 -5.6Zm-14.7 16.2v-3.1h29.4v3.1H459.3Zm3.4 5.2v-3h22.4v7.9H466.7v2.6H486v3H462.8V1594h18.4v-2.2H462.7Zm3.7 -15.8c0 1.8 2.7 2.7 7.6 2.7c5 0 7.6 -.9 7.6 -2.7c0 -1.8 -2.6 -2.7 -7.6 -2.7c-4.9 0 -7.6 .9 -7.6 2.7ZM503.6 1570.3h3.9v6.7h18.4v3.1H503.6v-9.8Zm-3.8 15.2v-3.1h29.5v3.1H516.4v3h9.3v8.1H507.3v2.6h19.4v3.1H503.3v-8.5h18.5v-2.3H503.3v-3h9.2v-3H499.8ZM555 1569.9h3.9v32.7H555v-17.4h-5.6V1582H555v-12.1Zm-22.1 6.1v-3.2h14.6v11.9H536.9v6.9c4.9 0 8.7 -.2 13.1 -.9l.3 3.2c-4.8 .8 -9.1 1 -14.7 1H533v-13.4h10.6V1576H532.9ZM595.4 1569.9h4v16.5h-4v-2.8h-7.7v-3h7.7v-3.3h-7.3c-2.1 5 -6.8 8.2 -14 9.9l-1.3 -3.2c7.6 -1.7 11.4 -5.1 12 -9.5H574.6v-3.2h14.5c0 1 -.1 2 -.2 3h6.5v-4.4Zm-17.3 20.9v-3.1h21.3v8.6H582.1v2.8h18.1v3.1h-22v-8.9h17.2v-2.5H578.1ZM628.4 1569.9h3.8v32.6h-3.8v-32.6Zm-24.6 23.5c4.7 -3 6.7 -8.8 6.7 -14.6v-2.2h-5.7v-3.2h14.8v3.2h-5.3v2.2c0 5.5 2 11.1 6.6 13.8l-2.3 2.9c-3 -1.8 -5 -5 -6.1 -8.7c-1.2 4.1 -3.3 7.5 -6.3 9.4l-2.4 -2.8Zm13.4 -8.9v-3.2h4.7v-10.8h3.7v30.4h-3.7v-16.4h-4.7ZM658 1569.8h3.9v7.4h4.6v3.2h-4.6v7.2H658v-17.8Zm-21.5 5.7v-3h7.6v-2.9H648v2.9h7.7v3H636.5Zm1.7 6.5c0 -3.4 3.1 -5.4 7.9 -5.4c4.7 0 7.9 2 7.9 5.4c0 3.2 -3.2 5.3 -7.9 5.3c-4.8 0 -7.9 -2.1 -7.9 -5.3Zm2.6 10v-2.9h21.1v7.8H644.7v2.4H663v3H640.9v-8.1H658V1592H640.8Zm1.1 -10c0 1.6 1.6 2.5 4.2 2.5c2.5 0 4.1 -.9 4.1 -2.5c0 -1.7 -1.6 -2.6 -4.1 -2.6c-2.6 0 -4.2 .9 -4.2 2.6ZM689.6 1571h4.1v1.6c0 4.1 4.7 8.3 11.5 9.3l-1.6 3.1c-5.4 -.8 -9.8 -3.6 -11.9 -7.3c-2.1 3.8 -6.5 6.5 -12 7.3l-1.5 -3.1c6.8 -1 11.4 -5.1 11.4 -9.3V1571Zm-12.7 20.2v-3.3h29.5v3.3H693.5v11.3h-3.9v-11.3H676.9ZM730.6 1569.9h3.9v9.3H739v3.2h-4.5v11.1h-3.9v-23.6ZM710.4 1588v-15.4h14.4v3.2H714.3v9c6.1 -.1 9.5 -.2 13.3 -1.1l.4 3.2c-4.2 .9 -7.9 1.1 -15 1.1h-2.6Zm3.4 13.9v-10.8h3.9v7.6h18.1v3.2h-22ZM755.8 1570.4c7.2 0 11.6 2 11.6 5.6c0 3.6 -4.4 5.6 -11.6 5.6c-7.4 0 -11.7 -2 -11.7 -5.6c0 -3.6 4.3 -5.6 11.7 -5.6ZM741 1586.6v-3.1h29.5v3.1H741Zm3.5 5.2v-3h22.3v7.9H748.4v2.6h19.3v3H744.5V1594h18.4v-2.2H744.5Zm3.7 -15.8c0 1.8 2.6 2.7 7.6 2.7c4.9 0 7.5 -.9 7.5 -2.7c0 -1.8 -2.6 -2.7 -7.5 -2.7c-5 0 -7.6 .9 -7.6 2.7ZM798.2 1577.1h6.4V1570h4v24.1h-4v-13.7h-6.4v-3.3Zm-16.8 9.7c5.1 -1.8 7.8 -6.4 7.8 -11.2v-3.7h4v3.8c0 4.3 2.6 8.6 7.6 10.4l-2.1 3c-3.5 -1.4 -6 -3.9 -7.4 -7.1c-1.4 3.6 -4 6.4 -7.8 7.9l-2.1 -3.1Zm5.9 15.1v-10.3h3.9v7.1h18.1v3.2h-22ZM814.8 1572.2h12.7v3.1h-8.9v3.3h8.6v3h-8.6v3.5c3.9 0 6.7 -.2 9.9 -.7l.3 3.1c-3.7 .7 -6.8 .8 -11.8 .8h-2.2v-16.1Zm4.2 22.3v-3.2h22.2v11.2h-3.9v-8H819Zm11.4 -4.9v-19.1h3.7v7.6h3.4v-8.2h3.7v19.9h-3.7v-8.5h-3.4v8.3h-3.7ZM867 1569.9h4v13h4.9v3.3H871v16.3h-4v-32.6Zm-21.6 8.2v-3.2h7.7v-4.5h4v4.5h7.5v3.2H845.4Zm1.6 9.8c0 -4.4 3.4 -7.6 8.1 -7.6c4.7 0 8.1 3.2 8.1 7.6c0 4.5 -3.4 7.7 -8.1 7.7c-4.7 0 -8.1 -3.2 -8.1 -7.7Zm3.7 0c0 2.7 1.8 4.5 4.4 4.5c2.5 0 4.3 -1.8 4.3 -4.5c0 -2.7 -1.8 -4.4 -4.3 -4.4c-2.6 0 -4.4 1.7 -4.4 4.4ZM885.8 1572.6h4v5.2c0 6 3.1 12 8.4 14.3l-2.4 3.2c-3.7 -1.8 -6.4 -5.3 -7.9 -9.6c-1.5 4.6 -4.3 8.4 -8.2 10.3l-2.4 -3.3c5.3 -2.4 8.5 -8.7 8.5 -14.9v-5.2Zm14.7 30v-32.7h4v32.7h-4ZM912.8 1572.9h23.3v3.1c0 4.1 0 8.6 -1.3 15.4l-3.9 -.4c1.2 -6.4 1.2 -11 1.2 -14.9H912.8v-3.2Zm-3.1 25.4v-3.2h10.9v-11.4h3.9v11.4h14.7v3.2H909.7ZM947.1 1596.2l-2.5 8.4h-2.8l1.4 -8.4h3.9ZM487 1624.9h3.9v32.7H487v-17.8h-6.6v9.9H465v-22.2h4v8.1h7.5v-8.1h3.9v9.2H487v-11.8Zm-18 21.6h7.5v-7.8H469v7.8ZM495.8 1642.7h29.5v3.2H495.8v-3.2Zm3.7 14.2v-9.1h3.9v5.9h18.9v3.2H499.5Zm.1 -16.6V1626h22.2v3.1H503.5v2.6H521v2.9H503.5v2.7h18.6v3H499.6ZM542.6 1625.4c7.3 0 11.7 2 11.7 5.6c0 3.6 -4.4 5.6 -11.7 5.6c-7.3 0 -11.6 -2 -11.6 -5.6c0 -3.6 4.3 -5.6 11.6 -5.6Zm-14.7 16.2v-3.1h29.4v3.1H527.9Zm3.4 5.2v-3h22.4v7.9H535.3v2.6h19.3v3H531.4V1649h18.4v-2.2H531.3ZM535 1631c0 1.8 2.7 2.7 7.6 2.7c5 0 7.6 -.9 7.6 -2.7c0 -1.8 -2.6 -2.7 -7.6 -2.7c-4.9 0 -7.6 .9 -7.6 2.7ZM572.2 1625.3h3.9v6.7h18.4v3.1H572.2v-9.8Zm-3.8 15.2v-3.1h29.5v3.1H585v3h9.3v8.1H575.9v2.6h19.4v3.1H571.9v-8.5h18.5v-2.3H571.9v-3h9.2v-3H568.4ZM623.6 1624.9h3.9v32.7h-3.9v-17.4H618V1637h5.6v-12.1Zm-22.1 6.1v-3.2h14.6v11.9H605.5v6.9c4.9 0 8.7 -.2 13.1 -.9l.3 3.2c-4.8 .8 -9.1 1 -14.7 1h-2.6v-13.4h10.6V1631H601.5ZM664 1624.9h4v16.5h-4v-2.8h-7.7v-3H664v-3.3h-7.3c-2.1 5 -6.8 8.2 -14 9.9l-1.3 -3.2c7.6 -1.7 11.4 -5.1 12 -9.5H643.2v-3.2h14.5c0 1 0 2 -.2 3H664v-4.4Zm-17.3 20.9v-3.1H668v8.6H650.7v2.8h18.1v3.1h-22v-8.9H664v-2.5H646.7ZM697 1624.9h3.8v32.6H697v-32.6Zm-24.6 23.5c4.7 -3 6.7 -8.8 6.7 -14.6v-2.2h-5.6v-3.2h14.7v3.2H683v2.2c0 5.5 1.9 11.1 6.5 13.8l-2.3 2.9c-3 -1.8 -5 -5 -6.1 -8.7c-1.2 4.1 -3.2 7.5 -6.3 9.4l-2.4 -2.8Zm13.4 -8.9v-3.2h4.7v-10.8h3.7v30.4h-3.7v-16.4h-4.7ZM705 1639.8h29.5v2.9H705v-2.9Zm3.4 7.7v-2.8H731v7.5H712.4v2.2h19.5v2.8H708.5v-7.6h18.6v-2.1H708.4Zm.3 -19.1v-2.7h22.2v7.3H712.7v2.1h18.8v2.8H708.8v-7.5H727v-2H708.7ZM746.8 1627.4h17.8v3.2h-6.8v.9c0 4.1 2.8 8.1 7.9 9.8l-2 3c-3.7 -1.2 -6.4 -3.7 -7.9 -6.8c-1.4 3.4 -4.1 6.1 -8 7.4l-2.1 -3.1c5.3 -1.7 8.1 -6 8.1 -10.3v-.9h-7v-3.2Zm4.3 29.5v-10.5H755v7.3h18.4v3.2H751.1Zm17.4 -8.3V1625h3.9v23.6h-3.9ZM801.4 1624.9h3.8v20.5h-3.8v-8.9h-3.1v7.8h-3.7v-18.7h3.7v7.7h3.1v-8.4Zm-24 6.7v-3.1h6.1v-3.3h3.9v3.3h6.1v3.1H777.4Zm1.1 6.9c0 -3.3 2.9 -5.6 7 -5.6c4.1 0 7 2.3 7 5.6c0 3.4 -2.9 5.7 -7 5.7c-4.1 0 -7 -2.3 -7 -5.7Zm3.5 0c0 1.8 1.4 2.8 3.5 2.8c2 0 3.5 -1 3.5 -2.8c0 -1.7 -1.5 -2.7 -3.5 -2.7c-2.1 0 -3.5 1 -3.5 2.7Zm1.3 13.2c0 -3.8 4.1 -5.8 11 -5.8c6.9 0 11.1 2 11.1 5.8c0 3.7 -4.2 5.8 -11.1 5.8c-6.9 0 -11 -2.1 -11 -5.8Zm3.8 0c0 1.9 2.6 2.8 7.2 2.8c4.6 0 7.1 -.9 7.1 -2.8c0 -1.9 -2.5 -2.9 -7.1 -2.9c-4.6 0 -7.2 1 -7.2 2.9ZM809.5 1630.1h6.1v-4.3h3.9v4.3h5.9v3.2H809.5v-3.2Zm1 12.6c0 -4.5 2.9 -7.7 7 -7.7c4.1 0 7.1 3.2 7.1 7.7c0 4.5 -3 7.6 -7.1 7.6c-4.1 0 -7 -3.1 -7 -7.6Zm3.4 0c0 2.6 1.5 4.3 3.6 4.3c2.1 0 3.6 -1.7 3.6 -4.3c0 -2.7 -1.5 -4.4 -3.6 -4.4c-2.1 0 -3.6 1.7 -3.6 4.4Zm12.8 13.3v-30.4h3.7v12.8h3.3v-13.5h3.7v32.6h-3.7v-15.9h-3.3V1656h-3.7ZM841.7 1643.2h29.4v3.2H858.3v11.2h-3.9v-11.2H841.7v-3.2Zm1.5 -5.4c6.4 -.8 10.7 -4.3 11 -7.9h-9.8v-3.1h24v3.1h-9.7c.3 3.6 4.6 7.1 10.9 7.9l-1.5 3.1c-5.4 -.8 -9.7 -3.3 -11.7 -6.8c-2 3.5 -6.3 6 -11.7 6.8l-1.5 -3.1ZM886.5 1636.2h4.7v-10.7h3.6V1656h-3.6v-16.6h-4.7v-3.2Zm-13.3 11.6c4.6 -2.7 6.7 -8.6 6.7 -14.2v-5.7h3.9v5.6c0 5.2 1.8 10.7 6.2 13.5l-2.2 3.1c-2.9 -1.8 -4.8 -4.9 -5.9 -8.5c-1.1 4 -3.2 7.3 -6.3 9.2l-2.4 -3Zm24.6 9.7v-32.6h3.8v32.6h-3.8ZM905.8 1650.3h6.8V1642c-2.6 -1.5 -4.1 -3.8 -4.1 -6.7c0 -5.2 5 -8.6 12 -8.6c7 0 12 3.4 12 8.6c0 2.9 -1.5 5.2 -4 6.7v8.3h6.8v3.2H905.8v-3.2Zm6.5 -15c0 3.4 3.4 5.5 8.2 5.5c4.8 0 8.2 -2.1 8.2 -5.5c0 -3.4 -3.4 -5.5 -8.2 -5.5c-4.8 0 -8.2 2.1 -8.2 5.5Zm4.2 15h8v-6.9c-1.2 .3 -2.6 .4 -4 .4c-1.4 0 -2.7 -.1 -4 -.4v6.9ZM940.8 1650.9c1.3 0 2.2 .9 2.2 2.3c0 1.3 -.9 2.2 -2.2 2.2c-1.3 0 -2.3 -.9 -2.3 -2.2c0 -1.4 1 -2.3 2.3 -2.3Z" class="g4_12"/>
<path fill-rule="evenodd" d="M48.6 1792.8l9.7 2.6l5.8 -22.1c2.5 -9.6 -3 -19.3 -12.3 -21.9c-9.4 -2.5 -19 3.2 -21.5 12.7l-5.9 22.1l9.7 2.6l-1.9 7.4c-1.1 4.1 1.2 8.3 5.2 9.4c4 1.1 8.2 -1.4 9.2 -5.4l2 -7.4Zm6.1 -3.6l4.6 -17.3c1.8 -6.8 -2.2 -13.7 -8.8 -15.5c-6.7 -1.9 -13.6 2.2 -15.4 9l-4.5 17.2l9.6 2.6L37 1797.5c-.4 1.4 .4 2.8 1.7 3.2c1.4 .3 2.8 -.5 3.1 -1.9l3.3 -12.3l9.6 2.7Z" class="g3_12"/>
<image clip-path="url(#c0_12)" preserveAspectRatio="none" x="87" y="101" width="1100" height="1496" xlink:href="img/1.png"/>
<image clip-path="url(#c1_12)" preserveAspectRatio="none" x="179" y="154" width="916" height="1313" xlink:href="img/2.jpg"/>
</svg>