<?xml version="1.0" encoding="UTF-8" standalone="no"?>
<!DOCTYPE svg PUBLIC "-//W3C//DTD SVG 1.1//EN"
"http://www.w3.org/Graphics/SVG/1.1/DTD/svg11.dtd">
<svg viewBox="0 0 1274 1824" version="1.1" xmlns="http://www.w3.org/2000/svg" xmlns:xlink="http://www.w3.org/1999/xlink">
<defs>
<clipPath id="c0_9"><path d="M86.8 1596.9V100.5H1187.4V1596.9Z"/></clipPath>
<clipPath id="c1_9"><path d="M203.2 1466.7c-13.5 0 -24.4 -11 -24.4 -24.5V178.8c0 -13.6 10.9 -24.5 24.4 -24.5H1071c13.5 0 24.4 10.9 24.4 24.5V1442.2c0 13.5 -10.9 24.5 -24.4 24.5Z"/></clipPath>
<style type="text/css"><![CDATA[
.g0_9{
fill: #FFF;
}
.g1_9{
fill: #000;
fill-opacity: 0.02;
}
.g2_9{
fill: #2EA4AB;
fill-opacity: 0.01;
}
.g3_9{
fill: #2EA4AB;
}
.g4_9{
fill: #1C1F1F;
}
]]></style>
</defs>
<path d="M0 1824.2H1274.2V0H0V1824.2Z" class="g0_9"/>
<path d="M0 1824.2H1274.2V0H0V1824.2Z" class="g1_9"/>
<path d="M0 1824.2H1274.2V0H0V1824.2Z" class="g2_9"/>
<path d="M510.7 1590.5c.5 -1.1 .8 -2.8 .8 -4.1c0 -5.9 -3.4 -9.7 -8.9 -9.7c-5.4 0 -8.8 3.8 -8.8 9.7c0 5.9 3.4 9.7 8.8 9.7c2 0 4 -.7 5.1 -1.6l-3.7 -4.1l3.6 -3.3l3.1 3.4Zm-21.9 -4.1c0 -8.3 5.7 -14.1 13.8 -14.1c8.2 0 13.9 5.8 13.9 14.1c-.1 2.6 -1 5.8 -2.3 7.9l2.7 2.9l-3.6 3.3l-2.5 -2.8c-2 1.6 -5.4 2.7 -8.2 2.7c-8.1 0 -13.8 -5.8 -13.8 -14ZM532.2 1587.1c2.7 0 4.5 -2 4.5 -5.1c0 -3.1 -1.8 -5.1 -4.5 -5.1h-7v10.2h7Zm-12 13v-27.5h12.9c5 0 8.6 3.8 8.6 9.2c0 3.4 -1.4 6.6 -5.8 8.8l7 9.5h-6.1l-6.4 -8.7h-5.2v8.7h-5ZM576.9 1569.7H582v16.5h-5.1V1584h-7.1v-3.9h7.1v-2.6h-6.7c-2.1 4.9 -6.7 7.9 -13.9 9.5l-1.7 -4.1c7.4 -1.5 10.5 -4.4 11 -8h-9.1v-4.1h14.9c0 1 -.1 2 -.2 2.9h5.7v-4ZM560 1591.4v-4h22v9.3H565.2v1.7h17.4v4H560.1v-9.5h16.8v-1.5H560ZM609.9 1569.7h4.8v33.1h-4.8v-33.1Zm-24.3 23.2c4.8 -3.1 6.3 -9 6.3 -14.5V1577h-5.1v-4.1h14.7v4.1h-4.6v1.4c0 5.4 1.4 11 6.3 13.8l-3 3.7c-2.8 -1.7 -4.6 -4.4 -5.7 -7.8c-1.1 3.7 -3 6.8 -5.9 8.6l-3 -3.8Zm13.6 -7.9v-4.2h4v-10.7H608v31.2h-4.8V1585h-4ZM650.7 1569.7h4.9v33.1h-4.9v-33.1Zm-24.2 21.6h2.4v-13.9H627v-4.1h15v4.1h-1.9v13.4c.8 -.1 1.6 -.2 2.4 -.3l.3 3.7c-5.1 1.1 -11.8 1.2 -15.8 1.2l-.5 -4.1Zm7 -.1c.6 0 1.3 -.1 2 -.1v-13.7h-2v13.8Zm7.8 -5.1v-4.5h2.8v-11.3h4.8v31h-4.8v-15.2h-2.8ZM681.2 1569.6h5.2v33.2h-5.2v-33.2Zm-21.5 14.1c0 -7.2 3.7 -11.8 8.8 -11.8c5 0 8.7 4.6 8.7 11.8c0 7.4 -3.7 12 -8.7 12c-5.1 0 -8.8 -4.6 -8.8 -12Zm5 0c0 4.9 1.5 7.3 3.8 7.3c2.2 0 3.8 -2.4 3.8 -7.3c0 -4.7 -1.6 -7.1 -3.8 -7.1c-2.3 0 -3.8 2.4 -3.8 7.1ZM691.9 1572.8h18.6v4.2h-6.6v1.4c0 5.3 2.3 11 8 13.3l-2.8 4.1c-3.8 -1.6 -6.3 -4.8 -7.8 -8.6c-1.4 4.2 -4 7.7 -7.9 9.4l-2.9 -4.1c5.7 -2.5 8.1 -8.6 8.1 -14.1V1577h-6.7v-4.2Zm21.3 30v-33.1h5.2v33.1h-5.2ZM601.8 1626.5H607v3.3c0 3.9 1.9 7.7 7.3 9.3l-2.7 3.9c-3.5 -1.1 -5.8 -3.2 -7.2 -5.9c-1.4 3.1 -3.9 5.6 -7.6 6.9l-2.7 -4c5.6 -1.9 7.7 -6.3 7.7 -10.7v-2.8Zm-3.2 24.8c0 -4 4.4 -6.5 11.4 -6.5c6.9 0 11.2 2.5 11.2 6.5c0 4.1 -4.3 6.5 -11.2 6.5c-7 0 -11.4 -2.4 -11.4 -6.5Zm5.2 0c0 1.7 2.1 2.6 6.2 2.6c4 0 6.1 -.9 6.1 -2.6c0 -1.7 -2.1 -2.5 -6.1 -2.5c-4.1 0 -6.2 .8 -6.2 2.5Zm11.9 -7.2v-19.4h5.1v7.4h4.3v4.3h-4.3v7.7h-5.1ZM626.7 1640.1h29.9v4H644.3v2.5h8.8v10.8H630.2v-10.8h8.9v-2.5H626.7v-4Zm2.6 -10.5v-4H654v4h-4v4.6h3.8v4H629.6v-4h3.7v-4.6h-4Zm5.9 23.8h12.9v-2.8H635.2v2.8Zm3.3 -19.2h6.4v-4.6h-6.4v4.6ZM689.7 1624.7h5.1v23.7h-5.1v-23.7Zm-22.1 10.5c0 -5 4 -8.5 9.1 -8.5c5.2 0 9.1 3.5 9.1 8.5c0 4.9 -3.9 8.5 -9.1 8.5c-5.1 0 -9.1 -3.6 -9.1 -8.5Zm5 22V1646h5.1v7.2h17.9v4h-23Zm.1 -22c0 2.5 1.8 4 4 4c2.3 0 4.1 -1.5 4.1 -4c0 -2.6 -1.8 -4 -4.1 -4c-2.2 0 -4 1.4 -4 4ZM706.8 1626.2H712v3.1c0 4 2.1 7.9 7.6 9.5l-2.5 4.1c-3.7 -1.2 -6.2 -3.4 -7.6 -6.2c-1.5 3 -4.1 5.5 -8 6.7l-2.5 -4.1c5.7 -1.7 7.8 -6 7.8 -10v-3.1Zm-2.6 23.6v-4h22.6v12h-5.1v-8H704.2Zm17.5 -5.4v-19.7h5.1v19.7h-5.1ZM763.7 1624.7h4.9v33.1h-4.9v-33.1Zm-24.3 21.6h2.5v-13.9H740v-4.1h15v4.1h-1.9v13.4c.8 -.1 1.6 -.2 2.4 -.3l.3 3.7c-5.1 1.1 -11.8 1.2 -15.8 1.2l-.6 -4.1Zm7 -.1c.7 0 1.4 -.1 2.1 -.1v-13.7h-2.1v13.8Zm7.9 -5.1v-4.5h2.8v-11.3h4.8v31h-4.8v-15.2h-2.8ZM794.2 1624.6h5.2v33.2h-5.2v-33.2Zm-21.5 14.1c0 -7.2 3.7 -11.8 8.8 -11.8c5 0 8.7 4.6 8.7 11.8c0 7.4 -3.7 12 -8.7 12c-5.1 0 -8.8 -4.6 -8.8 -12Zm5 0c0 4.9 1.5 7.3 3.8 7.3c2.2 0 3.8 -2.4 3.8 -7.3c0 -4.7 -1.6 -7.1 -3.8 -7.1c-2.3 0 -3.8 2.4 -3.8 7.1ZM804.9 1627.8h18.6v4.2h-6.7v1.4c0 5.3 2.4 11 8.1 13.3l-2.8 4.1c-3.8 -1.6 -6.3 -4.8 -7.8 -8.6c-1.4 4.2 -4 7.7 -7.9 9.4l-2.9 -4.1c5.7 -2.5 8.1 -8.6 8.1 -14.1V1632h-6.7v-4.2Zm21.3 30v-33.1h5.2v33.1h-5.2Z" class="g3_9"/>
<path d="M747.2 1569.9H751v32.6h-3.8v-32.6ZM723.5 1584c0 -7.2 2.7 -11.6 6.9 -11.6c4 0 6.6 3.7 7 9.8h3.3v-11.7h3.7V1601h-3.7v-15.6h-3.3c-.3 6.4 -3 10.3 -7 10.3c-4.2 0 -6.9 -4.5 -6.9 -11.7Zm3.6 0c0 5.1 1.2 8 3.3 8c2.2 0 3.5 -2.9 3.5 -8c0 -5.1 -1.3 -7.9 -3.5 -7.9c-2.1 0 -3.3 2.8 -3.3 7.9ZM771.5 1580.5h6.9v-10.6h3.9v32.7h-3.9v-18.9h-6.9v-3.2Zm-16.6 12.2c5.2 -2.5 8.2 -8.8 8.2 -14.9v-5.3h4v5.3c0 6 2.9 12 8 14.3l-2.3 3.2c-3.7 -1.8 -6.3 -5.3 -7.7 -9.6c-1.4 4.5 -4.1 8.2 -7.7 10.1l-2.5 -3.1ZM242.6 1640.9c2.4 1.4 3.9 4 3.9 6.2c0 4.6 -3.7 7.8 -9 7.8c-5.3 0 -9 -3.3 -9 -8h3.8c0 2.7 2.2 4.6 5.2 4.6c3.1 0 5.3 -1.9 5.3 -4.5c0 -2.7 -2.2 -4.5 -5.2 -4.5h-1.9v-3.2h1.9c2.8 0 4.8 -1.7 4.8 -4.1c0 -2.4 -1.9 -4 -4.7 -4c-2.7 0 -4.6 1.7 -4.6 4.1h-3.8c0 -4.4 3.5 -7.5 8.4 -7.5c4.9 0 8.4 3 8.4 7.2c0 2.1 -1.3 4.5 -3.5 5.9ZM259.8 1651.6c3.7 0 6.2 -4.2 6.2 -10.3c0 -6.1 -2.5 -10.2 -6.2 -10.2c-3.7 0 -6.2 4.1 -6.2 10.2c0 6.1 2.5 10.3 6.2 10.3Zm-10 -10.3c0 -7.9 4.1 -13.6 10 -13.6c5.9 0 10 5.7 10 13.6c0 8 -4.1 13.6 -10 13.6c-5.9 0 -10 -5.6 -10 -13.6ZM272.7 1650.4h12.8v-6.8h3.9v6.8h12.8v3.2H272.7v-3.2Zm1.2 -8.8c7 -.9 11.3 -4.7 11.6 -8.8H275.3v-3.2h10.2v-4.2h3.9v4.2h10.1v3.2H289.4c.3 4.1 4.5 7.9 11.5 8.8l-1.4 3.1c-5.6 -.8 -9.9 -3.3 -12.1 -6.9c-2.1 3.6 -6.4 6.1 -12 6.9l-1.5 -3.1ZM326.1 1624.9h4v12.8h4.8v3.2h-4.8v16.6h-4v-32.6Zm-21.5 23.7c7.9 -4 12.1 -9.6 12.9 -17.1H306.3v-3.2h15.2c0 9.6 -3.9 18 -14.7 23.3l-2.2 -3ZM368.1 1624.9h4v32.7h-4v-32.7Zm-21.9 13.9c0 -7.1 3.6 -11.5 8.5 -11.5c4.9 0 8.4 4.4 8.4 11.5c0 7.1 -3.5 11.6 -8.4 11.6c-4.9 0 -8.5 -4.5 -8.5 -11.6Zm3.9 0c0 5 1.8 8 4.6 8c2.7 0 4.6 -3 4.6 -8c0 -5 -1.9 -7.9 -4.6 -7.9c-2.8 0 -4.6 2.9 -4.6 7.9ZM384.8 1626.6h3.9v3.5c0 4.1 2.6 8 7.6 9.6l-2.1 3.1c-3.4 -1.2 -6 -3.6 -7.4 -6.7c-1.4 3.5 -4 6.2 -7.8 7.6l-2.1 -3.1c5.2 -1.8 7.9 -6.2 7.9 -10.9v-3.1Zm-3.5 24.8c0 -3.9 4.2 -6.2 10.9 -6.2c6.8 0 10.9 2.3 10.9 6.2c0 3.8 -4.1 6.1 -10.9 6.1c-6.7 0 -10.9 -2.3 -10.9 -6.1Zm3.9 0c0 2 2.6 3 7 3c4.5 0 7 -1 7 -3c0 -2.1 -2.5 -3.1 -7 -3.1c-4.4 0 -7 1 -7 3.1Zm13.6 -7v-19.5h3.9v7.9h4.6v3.3h-4.6v8.3h-3.9ZM433.1 1637.2h7.8v-3.6h-7.4c-2.1 5.2 -6.8 8.8 -13.9 10.8l-1.5 -3.1c7.6 -2.1 11.7 -6 12.2 -10.9H419.8v-3.2h14.8c0 1.2 0 2.2 -.2 3.3h6.5v-5.6h3.9V1644h-3.9v-3.6h-7.8v-3.2Zm-9.9 13.7c0 -4.1 4.3 -6.5 10.9 -6.5c6.6 0 10.9 2.4 10.9 6.5c0 4 -4.3 6.5 -10.9 6.5c-6.6 0 -10.9 -2.5 -10.9 -6.5Zm3.9 0c0 2.1 2.7 3.4 7 3.4c4.4 0 7 -1.3 7 -3.4c0 -2.2 -2.6 -3.4 -7 -3.4c-4.3 0 -7 1.2 -7 3.4ZM451.2 1628.3h16.7v2.3c0 2.9 0 7 -.9 12.7l-3.9 -.4c.8 -4.9 .9 -8.6 .9 -11.5H451.2v-3.1Zm-1.7 19.2c1.9 0 4.1 0 6.3 -.1v-9.8h3.9v9.7c3.3 -.1 6.7 -.3 9.8 -.7l.2 2.9c-6.7 1.1 -14.1 1.2 -19.8 1.2l-.4 -3.2Zm21.7 10v-32.6h3.9v13.4h4.8v3.2h-4.8v16h-3.9ZM503.4 1624.8h4v7.4h4.5v3.2h-4.5v7.2h-4v-17.8Zm-21.5 5.7v-3h7.7v-2.9h3.9v2.9h7.6v3H481.9Zm1.7 6.5c0 -3.4 3.1 -5.4 7.9 -5.4c4.8 0 8 2 8 5.4c0 3.2 -3.2 5.3 -8 5.3c-4.8 0 -7.9 -2.1 -7.9 -5.3Zm2.6 10v-2.9h21.2v7.8H490.2v2.4h18.2v3H486.3v-8.1h17.2V1647H486.2Zm1.2 -10c0 1.6 1.6 2.5 4.1 2.5c2.5 0 4.1 -.9 4.1 -2.5c0 -1.7 -1.6 -2.6 -4.1 -2.6c-2.5 0 -4.1 .9 -4.1 2.6ZM537.7 1637.2h7.8v-3.6h-7.4c-2.1 5.2 -6.8 8.8 -13.9 10.8l-1.6 -3.1c7.7 -2.1 11.7 -6 12.3 -10.9H524.4v-3.2h14.8c0 1.2 -.1 2.2 -.2 3.3h6.5v-5.6h3.9V1644h-3.9v-3.6h-7.8v-3.2Zm-9.9 13.7c0 -4.1 4.3 -6.5 10.9 -6.5c6.6 0 10.9 2.4 10.9 6.5c0 4 -4.3 6.5 -10.9 6.5c-6.6 0 -10.9 -2.5 -10.9 -6.5Zm3.9 0c0 2.1 2.6 3.4 7 3.4c4.4 0 7 -1.3 7 -3.4c0 -2.2 -2.6 -3.4 -7 -3.4c-4.4 0 -7 1.2 -7 3.4ZM554.4 1643.4h29.5v3.2H571v11h-3.9v-11H554.4v-3.2Zm3 -10c0 -4.4 4.8 -7.2 11.7 -7.2c6.9 0 11.6 2.8 11.6 7.2c0 4.4 -4.7 7.2 -11.6 7.2c-6.9 0 -11.7 -2.8 -11.7 -7.2Zm4.1 0c0 2.6 3 4.1 7.6 4.1c4.6 0 7.6 -1.5 7.6 -4.1c0 -2.6 -3 -4.1 -7.6 -4.1c-4.6 0 -7.6 1.5 -7.6 4.1ZM836.1 1650.5h12.8v-5.4h-9.2v-10.6h18.6v-4.2H839.6v-3.2h22.6v10.5H843.6v4.3h19.3v3.2H852.8v5.4h12.9v3.2H836.1v-3.2ZM880.4 1626.1h21.9v3.1h-18v3.8h18.3v3.1h-9.2v2.5h12.7v3.1H876.6v-3.1h12.8v-2.5h-9v-10Zm-.3 20.7v-3h22.3v8H884v2.4h19.4v3.1H880.2V1649h18.4v-2.2H880.1ZM917.4 1627.3c4.9 0 8.4 4.4 8.4 11.5c0 7.1 -3.5 11.6 -8.4 11.6c-4.9 0 -8.4 -4.5 -8.4 -11.6c0 -7.1 3.5 -11.5 8.4 -11.5Zm-4.6 11.5c0 5 1.9 8 4.6 8c2.8 0 4.6 -3 4.6 -8c0 -5 -1.8 -7.9 -4.6 -7.9c-2.7 0 -4.6 2.9 -4.6 7.9Zm17.3 18.7v-32.6h4v12.6H939v3.3h-4.9v16.7h-4ZM962.3 1624.9h3.9v7.3h4.6v3.2h-4.6v7.2h-3.9v-17.7Zm-21.6 14.9c7.7 -1.8 11.7 -5.4 12.3 -9.9H942.2v-3.1h15.1c0 8.4 -5.5 13.9 -15.2 16.1l-1.4 -3.1Zm4.5 17.3V1644h4v3.5h13.1V1644h3.9v13.1h-21Zm4 -3.1h13.1v-3.4H949.2v3.4ZM995.8 1624.9h4v32.6h-4v-32.6Zm-21.2 24.4V1628h4v18c4.5 -.1 9.3 -.5 14.3 -1.5l.5 3.3c-5.6 1.1 -10.9 1.5 -15.9 1.5h-2.9ZM1026.2 1624.9h4v12.4h4.9v3.3h-4.9v17h-4v-32.7Zm-20 24.7V1628h15.2v3.2h-11.3v15.1c5.2 0 9.1 -.2 13.5 -1.1l.4 3.3c-4.9 1 -9.3 1.1 -15.2 1.1h-2.6ZM1039.8 1650.9c1.4 0 2.3 .9 2.3 2.3c0 1.3 -.9 2.2 -2.3 2.2c-1.3 0 -2.2 -.9 -2.2 -2.2c0 -1.4 .9 -2.3 2.2 -2.3Z" class="g4_9"/>
<path fill-rule="evenodd" d="M48.6 1792.8l9.7 2.6l5.8 -22.1c2.5 -9.6 -3 -19.3 -12.3 -21.9c-9.4 -2.5 -19 3.2 -21.5 12.7l-5.9 22.1l9.7 2.6l-1.9 7.4c-1.1 4.1 1.2 8.3 5.2 9.4c4 1.1 8.2 -1.4 9.2 -5.4l2 -7.4Zm6.1 -3.6l4.6 -17.3c1.8 -6.8 -2.2 -13.7 -8.8 -15.5c-6.7 -1.9 -13.6 2.2 -15.4 9l-4.5 17.2l9.6 2.6L37 1797.5c-.4 1.4 .4 2.8 1.7 3.2c1.4 .3 2.8 -.5 3.1 -1.9l3.3 -12.3l9.6 2.7Z" class="g3_9"/>
<image clip-path="url(#c0_9)" preserveAspectRatio="none" x="87" y="101" width="1100" height="1496" xlink:href="img/1.png"/>
<image clip-path="url(#c1_9)" preserveAspectRatio="none" x="179" y="154" width="916" height="1313" xlink:href="img/2.jpg"/>
</svg>