<?xml version="1.0" encoding="UTF-8" standalone="no"?>
<!DOCTYPE svg PUBLIC "-//W3C//DTD SVG 1.1//EN"
"http://www.w3.org/Graphics/SVG/1.1/DTD/svg11.dtd">
<svg viewBox="0 0 1274 1824" version="1.1" xmlns="http://www.w3.org/2000/svg" xmlns:xlink="http://www.w3.org/1999/xlink">
<defs>
<clipPath id="c0_11"><path d="M86.8 1596.9V100.5H1187.4V1596.9Z"/></clipPath>
<clipPath id="c1_11"><path d="M203.2 1466.7c-13.5 0 -24.4 -11 -24.4 -24.5V178.8c0 -13.6 10.9 -24.5 24.4 -24.5H1071c13.5 0 24.4 10.9 24.4 24.5V1442.2c0 13.5 -10.9 24.5 -24.4 24.5Z"/></clipPath>
<style type="text/css"><![CDATA[
.g0_11{
fill: #FFF;
}
.g1_11{
fill: #000;
fill-opacity: 0.02;
}
.g2_11{
fill: #2EA4AB;
fill-opacity: 0.01;
}
.g3_11{
fill: #1C1F1F;
}
.g4_11{
fill: #D76263;
}
.g5_11{
fill: #2EA4AB;
}
]]></style>
</defs>
<path d="M0 1824.2H1274.2V0H0V1824.2Z" class="g0_11"/>
<path d="M0 1824.2H1274.2V0H0V1824.2Z" class="g1_11"/>
<path d="M0 1824.2H1274.2V0H0V1824.2Z" class="g2_11"/>
<path d="M436 1572.7h15.3v15.5H436v-15.5Zm3.7 29.2v-10.5h3.9v7.3h18v3.2H439.7Zm.2 -16.9h7.5v-9.2h-7.5v9.2Zm16.5 8.7v-23.8h4v9.6h4.5v3.3h-4.5v10.9h-4ZM488.4 1569.9h4v4.6h4.4v3.2h-4.4v3.8h4.4v3.2h-4.4v4.5h-4v-19.3Zm-21.1 9.7c0 -4.5 3.7 -7.8 8.7 -7.8c5 0 8.7 3.3 8.7 7.8c0 4.7 -3.7 7.9 -8.7 7.9c-5 0 -8.7 -3.2 -8.7 -7.9Zm3.6 14.2v-3.2h21.5v11.9h-4v-8.7H470.9Zm.2 -14.2c0 2.8 2.1 4.6 4.9 4.6c2.8 0 4.8 -1.8 4.8 -4.6c0 -2.7 -2 -4.5 -4.8 -4.5c-2.8 0 -4.9 1.8 -4.9 4.5ZM638 1584.8h29.6v2.9H638v-2.9Zm3.4 7.7v-2.8H664v7.5H645.4v2.2h19.5v2.8H641.5v-7.6h18.6v-2.1H641.4Zm.3 -19.1v-2.7h22.2v7.3H645.7v2.1h18.8v2.8H641.8v-7.5H660v-2H641.7ZM701.7 1569.9h3.9v24.8h-3.9v-3h-6.4V1589h6.4v-19.1Zm-23.3 14.7c5.9 0 14 -.1 20.9 -.9l.2 2.8c-2.7 .4 -5.5 .7 -8.2 .9v6.3h-4v-6.1c-3 .2 -5.9 .2 -8.4 .2l-.5 -3.2Zm2.4 -7.7c0 -3.5 3.3 -5.8 8.1 -5.8c4.8 0 8.1 2.3 8.1 5.8c0 3.5 -3.3 5.7 -8.1 5.7c-4.8 0 -8.1 -2.2 -8.1 -5.7Zm1.9 25v-9.6h3.9v6.4h19.8v3.2H682.7Zm1.8 -25c0 1.8 1.8 2.8 4.4 2.8c2.6 0 4.3 -1 4.3 -2.8c0 -1.8 -1.7 -2.9 -4.3 -2.9c-2.6 0 -4.4 1.1 -4.4 2.9ZM732 1569.9h4v13h4.9v3.3H736v16.3h-4v-32.6Zm-21.6 8.2v-3.2h7.7v-4.5h4v4.5h7.4v3.2H710.4Zm1.5 9.8c0 -4.4 3.5 -7.6 8.2 -7.6c4.7 0 8.1 3.2 8.1 7.6c0 4.5 -3.4 7.7 -8.1 7.7c-4.7 0 -8.2 -3.2 -8.2 -7.7Zm3.8 0c0 2.7 1.8 4.5 4.4 4.5c2.5 0 4.3 -1.8 4.3 -4.5c0 -2.7 -1.8 -4.4 -4.3 -4.4c-2.6 0 -4.4 1.7 -4.4 4.4ZM765.6 1570h3.9v23.7h-3.9V1570Zm-22.9 16.1c5.2 -1.9 7.9 -6.5 7.9 -11.2v-3.2h4v3.2c0 4.6 2.7 8.9 7.8 10.6l-2 3.2c-3.7 -1.4 -6.3 -4 -7.7 -7.3c-1.5 3.6 -4.2 6.4 -8 7.8l-2 -3.1Zm5.5 15.8v-10.4h3.9v7.2h18.4v3.2H748.2ZM796.1 1569.9h4v12.4H805v3.3h-4.9v17h-4v-32.7ZM776 1594.6V1573h15.2v3.2H780v15.1c5.1 0 9.1 -.2 13.5 -1.1l.4 3.3c-5 1 -9.4 1.1 -15.2 1.1H776ZM808.2 1572.6h15.1v2.7h6.6V1570h3.9v23.7h-3.9v-8.2h-6.6v2.8H808.2v-15.7Zm3.8 12.5h7.4v-9.3H812v9.3Zm.5 16.8v-10.4h3.9v7.2h18.1v3.2h-22Zm10.8 -19.6h6.6v-3.8h-6.6v3.8ZM276.7 1624.9h3.8v32.6h-3.8v-32.6ZM252.9 1639c0 -7.2 2.8 -11.6 7 -11.6c3.9 0 6.6 3.7 7 9.8h3.2v-11.7h3.7V1656h-3.7v-15.6h-3.2c-.3 6.4 -3 10.3 -7 10.3c-4.2 0 -7 -4.5 -7 -11.7Zm3.6 0c0 5.1 1.3 8 3.4 8c2.2 0 3.5 -2.9 3.5 -8c0 -5.1 -1.3 -7.9 -3.5 -7.9c-2.1 0 -3.4 2.8 -3.4 7.9ZM301 1635.5h6.8v-10.6h4v32.7h-4v-18.9H301v-3.2Zm-16.6 12.2c5.1 -2.5 8.2 -8.8 8.2 -14.9v-5.3h3.9v5.3c0 6 2.9 12 8 14.3l-2.3 3.2c-3.6 -1.8 -6.2 -5.3 -7.6 -9.6c-1.5 4.5 -4.1 8.2 -7.8 10.1l-2.4 -3.1ZM346.6 1624.9h3.9v12.5h5v3.3h-5v16.8h-3.9v-32.6Zm-20.3 25v-22.3h3.9v8.2H338v-8.2h3.9v22.3H326.3Zm3.9 -3.2H338v-7.8h-7.8v7.8ZM357.2 1650.5H370v-5.4h-9.3v-10.6h18.7v-4.2H360.7v-3.2h22.6v10.5H364.6v4.3H384v3.2H373.9v5.4h12.8v3.2H357.2v-3.2ZM987 1627.6h3.9v5.2c0 6 3.2 12 8.4 14.3l-2.3 3.2c-3.8 -1.8 -6.5 -5.3 -8 -9.6c-1.5 4.6 -4.3 8.4 -8.2 10.3l-2.4 -3.3c5.3 -2.4 8.6 -8.7 8.6 -14.9v-5.2Zm14.7 30v-32.7h3.9v32.7h-3.9ZM1025.9 1642.5h8v-5.6h-7.6c-1.6 6.1 -5.5 11.4 -13.5 15.5l-2.2 -3c5.5 -2.8 8.8 -6.1 10.8 -10l-10.1 .9l-.5 -3.3l11.8 -.7c.4 -1.6 .7 -3.2 .8 -5h-10.9v-3.1h14.8c0 1.9 -.1 3.8 -.3 5.6h6.9v-8.9h4v32.6h-4v-11.8h-8v-3.2ZM1051.3 1643.2h29.5v3.2h-12.9v11.2H1064v-11.2h-12.7v-3.2Zm1.6 -5.4c6.3 -.8 10.6 -4.3 10.9 -7.9H1054v-3.1h24.1v3.1h-9.8c.3 3.6 4.6 7.1 11 7.9l-1.5 3.1c-5.4 -.8 -9.7 -3.3 -11.7 -6.8c-2 3.5 -6.3 6 -11.7 6.8l-1.5 -3.1ZM1096.2 1636.2h4.6v-10.7h3.7V1656h-3.7v-16.6h-4.6v-3.2Zm-13.4 11.6c4.7 -2.7 6.8 -8.6 6.8 -14.2v-5.7h3.8v5.6c0 5.2 1.9 10.7 6.3 13.5l-2.2 3.1c-2.9 -1.8 -4.9 -4.9 -6 -8.5c-1.1 4 -3.2 7.3 -6.3 9.2l-2.4 -3Zm24.7 9.7v-32.6h3.7v32.6h-3.7ZM1115.4 1650.3h6.8V1642c-2.5 -1.5 -4.1 -3.8 -4.1 -6.7c0 -5.2 5.1 -8.6 12.1 -8.6c7 0 12 3.4 12 8.6c0 2.9 -1.6 5.2 -4.1 6.7v8.3h6.8v3.2h-29.5v-3.2Zm6.6 -15c0 3.4 3.3 5.5 8.2 5.5c4.8 0 8.1 -2.1 8.1 -5.5c0 -3.4 -3.3 -5.5 -8.1 -5.5c-4.9 0 -8.2 2.1 -8.2 5.5Zm4.2 15h8v-6.9c-1.3 .3 -2.6 .4 -4 .4c-1.5 0 -2.8 -.1 -4 -.4v6.9ZM1150.4 1650.9c1.4 0 2.3 .9 2.3 2.3c0 1.3 -.9 2.2 -2.3 2.2c-1.3 0 -2.2 -.9 -2.2 -2.2c0 -1.4 .9 -2.3 2.2 -2.3Z" class="g3_11"/>
<path d="M530.1 1590.5c.6 -1.1 .9 -2.8 .9 -4.1c0 -5.9 -3.5 -9.7 -8.9 -9.7c-5.4 0 -8.9 3.8 -8.9 9.7c0 5.9 3.5 9.7 8.9 9.7c2 0 4 -.7 5.1 -1.6l-3.8 -4.1l3.7 -3.3l3 3.4Zm-21.8 -4.1c0 -8.3 5.7 -14.1 13.8 -14.1c8.2 0 13.9 5.8 13.9 14.1c-.1 2.6 -1 5.8 -2.3 7.9l2.7 2.9l-3.6 3.3l-2.5 -2.8c-2 1.6 -5.4 2.7 -8.2 2.7c-8.1 0 -13.8 -5.8 -13.8 -14ZM551.7 1587.1c2.7 0 4.5 -2 4.5 -5.1c0 -3.1 -1.8 -5.1 -4.5 -5.1h-7v10.2h7Zm-12 13v-27.5h12.9c5 0 8.6 3.8 8.6 9.2c0 3.4 -1.4 6.6 -5.8 8.8l7 9.5h-6.1l-6.4 -8.7h-5.2v8.7h-5ZM596.3 1569.7h5.2v16.5h-5.2V1584h-7v-3.9h7v-2.6h-6.7c-2 4.9 -6.6 7.9 -13.9 9.5l-1.6 -4.1c7.4 -1.5 10.5 -4.4 11 -8H576v-4.1h14.8c0 1 0 2 -.1 2.9h5.6v-4Zm-16.8 21.7v-4h22v9.3H584.7v1.7h17.4v4H579.6v-9.5h16.7v-1.5H579.5ZM629.3 1569.7h4.9v33.1h-4.9v-33.1ZM605 1592.9c4.9 -3.1 6.4 -9 6.4 -14.5V1577h-5.1v-4.1H621v4.1h-4.6v1.4c0 5.4 1.4 11 6.3 13.8l-3 3.7c-2.8 -1.7 -4.7 -4.4 -5.8 -7.8c-1.1 3.7 -2.9 6.8 -5.9 8.6l-3 -3.8Zm13.7 -7.9v-4.2h4v-10.7h4.7v31.2h-4.7V1585h-4ZM126.4 1625.9c5.1 0 8.8 2.9 8.8 7.2c0 4.1 -3.7 7.1 -8.8 7.1c-5 0 -8.7 -3 -8.7 -7.1c0 -4.3 3.7 -7.2 8.7 -7.2ZM115.9 1642c5.6 0 13.8 -.1 20.7 -1.2l.4 3.8c-2.6 .5 -5.3 .8 -7.9 1.1v11.1H124V1646c-2.7 .1 -5.3 .1 -7.6 .1l-.5 -4.1Zm6.7 -8.9c0 1.9 1.7 2.9 3.8 2.9c2.3 0 3.9 -1 3.9 -2.9c0 -2 -1.6 -3 -3.9 -3c-2.1 0 -3.8 1 -3.8 3Zm15.8 24.7v-33.1h5.2v33.1h-5.2ZM180.2 1624.7h4.9v33.1h-4.9v-33.1Zm-24.3 21.6h2.4v-13.9h-1.8v-4.1h15v4.1h-1.9v13.4c.8 -.1 1.6 -.2 2.4 -.3l.3 3.7c-5.2 1.1 -11.8 1.2 -15.9 1.2l-.5 -4.1Zm7 -.1c.7 0 1.4 -.1 2.1 -.1v-13.7h-2.1v13.8Zm7.8 -5.1v-4.5h2.9v-11.3h4.8v31h-4.8v-15.2h-2.9ZM210.7 1624.6h5.2v33.2h-5.2v-33.2Zm-21.6 14.1c0 -7.2 3.8 -11.8 8.8 -11.8c5.1 0 8.8 4.6 8.8 11.8c0 7.4 -3.7 12 -8.8 12c-5 0 -8.8 -4.6 -8.8 -12Zm5 0c0 4.9 1.5 7.3 3.8 7.3c2.3 0 3.8 -2.4 3.8 -7.3c0 -4.7 -1.5 -7.1 -3.8 -7.1c-2.3 0 -3.8 2.4 -3.8 7.1ZM221.4 1627.8H240v4.2h-6.7v1.4c0 5.3 2.4 11 8.1 13.3l-2.8 4.1c-3.8 -1.6 -6.3 -4.8 -7.8 -8.6c-1.4 4.2 -4 7.7 -7.9 9.4l-2.9 -4.1c5.7 -2.5 8.1 -8.6 8.1 -14.1V1632h-6.7v-4.2Zm21.3 30v-33.1h5.2v33.1h-5.2ZM419.9 1624.7h5.2v33.2h-5.2v-33.2ZM399.5 1650v-22.4h16v4.1H404.6v14.1c5.6 -.1 9.2 -.2 13 -1l.5 4.2c-4.4 .9 -8.6 1 -15.7 1h-2.9ZM431.1 1627.6h16V1650h-16v-22.4Zm5.1 18.4h5.9v-14.4h-5.9V1646Zm15.7 11.8v-33.2h5.2v33.2h-5.2ZM485.5 1624.7h4.9v33.1h-4.9v-33.1Zm-24.3 21.6h2.5v-13.9h-1.9v-4.1h15v4.1h-1.9v13.4c.8 -.1 1.6 -.2 2.4 -.3l.3 3.7c-5.1 1.1 -11.8 1.2 -15.8 1.2l-.6 -4.1Zm7 -.1c.7 0 1.4 -.1 2.1 -.1v-13.7h-2.1v13.8Zm7.9 -5.1v-4.5h2.8v-11.3h4.8v31h-4.8v-15.2h-2.8ZM516 1624.6h5.2v33.2H516v-33.2Zm-21.5 14.1c0 -7.2 3.7 -11.8 8.8 -11.8c5 0 8.7 4.6 8.7 11.8c0 7.4 -3.7 12 -8.7 12c-5.1 0 -8.8 -4.6 -8.8 -12Zm5 0c0 4.9 1.5 7.3 3.8 7.3c2.2 0 3.8 -2.4 3.8 -7.3c0 -4.7 -1.6 -7.1 -3.8 -7.1c-2.3 0 -3.8 2.4 -3.8 7.1ZM541.7 1626.4c4.5 0 7.6 3.2 7.6 7.8c0 4.5 -3.1 7.7 -7.6 7.7c-4.4 0 -7.5 -3.2 -7.5 -7.7c0 -4.6 3.1 -7.8 7.5 -7.8Zm-2.9 7.8c0 2.3 1.2 3.6 2.9 3.6c1.8 0 3 -1.3 3 -3.6c0 -2.4 -1.2 -3.6 -3 -3.6c-1.7 0 -2.9 1.2 -2.9 3.6Zm.9 23.2V1644h5.1v2.8h12.5V1644h5.1v13.4H539.7Zm5.1 -4.1h12.5v-2.6H544.8v2.6Zm5.7 -10.9v-17.1h4.8v6.1h2.2v-6.7h4.9v18h-4.9v-7.1h-2.2v6.8h-4.8ZM576.8 1626.8c5.2 0 9.1 3.4 9.1 8.2c0 4.8 -3.9 8.3 -9.1 8.3c-5.2 0 -9.2 -3.5 -9.2 -8.3c0 -4.8 4 -8.2 9.2 -8.2Zm-10.5 20.3c5.7 0 13.8 0 20.7 -1.1l.4 3.7c-7.1 1.4 -14.9 1.5 -20.5 1.5l-.6 -4.1Zm6.3 -12.1c0 2.5 1.8 3.9 4.2 3.9c2.3 0 4.1 -1.4 4.1 -3.9c0 -2.5 -1.8 -3.8 -4.1 -3.8c-2.4 0 -4.2 1.3 -4.2 3.8Zm16.2 22.8v-33.2h5.1v33.2h-5.1ZM629.7 1645.5c.5 -1.1 .8 -2.8 .8 -4.1c0 -5.9 -3.4 -9.7 -8.9 -9.7c-5.4 0 -8.8 3.8 -8.8 9.7c0 5.9 3.4 9.7 8.8 9.7c2 0 4 -.7 5.1 -1.6l-3.8 -4.1l3.7 -3.3l3.1 3.4Zm-21.9 -4.1c0 -8.3 5.7 -14.1 13.8 -14.1c8.2 0 13.9 5.8 13.9 14.1c-.1 2.6 -1 5.8 -2.3 7.9l2.7 2.9l-3.6 3.3l-2.5 -2.8c-2 1.6 -5.4 2.7 -8.2 2.7c-8.1 0 -13.8 -5.8 -13.8 -14ZM651.2 1642.1c2.7 0 4.5 -2 4.5 -5.1c0 -3.1 -1.8 -5.1 -4.5 -5.1h-7v10.2h7Zm-12 13v-27.5h12.9c5 0 8.6 3.8 8.6 9.2c0 3.4 -1.4 6.6 -5.8 8.8l7 9.5h-6.1l-6.4 -8.7h-5.2v8.7h-5ZM679.8 1625.1c7.6 0 12 2 12 5.7c0 3.6 -4.4 5.6 -12 5.6c-7.6 0 -12.1 -2 -12.1 -5.6c0 -3.7 4.5 -5.7 12.1 -5.7Zm-15 16.7v-4h29.9v4H664.8Zm3.4 5.5v-3.9h22.9v8.8H673.3v1.6H692v3.8H668.2v-9h17.9v-1.3H668.2Zm4.8 -16.5c0 1.3 2.1 1.9 6.8 1.9c4.6 0 6.7 -.6 6.7 -1.9c0 -1.4 -2.1 -2 -6.7 -2c-4.7 0 -6.8 .6 -6.8 2ZM726.2 1624.7h5.1v12.1H736v4.3h-4.7v16.7h-5.1v-33.1Zm-19.9 25.5v-23h5v7.9h6.1v-7.9h5.1v23H706.3Zm5 -4.1h6.1v-7h-6.1v7ZM740.7 1627.3h23.8v2.9c0 3.9 .1 8.7 -1.5 16l-5.1 -.6c.5 -2.3 .9 -4.5 1.1 -6.4l-18.7 1l-.7 -4.4l19.7 -.5c.1 -1.4 .1 -2.7 .1 -3.9H740.7v-4.1Zm-3.4 26.8V1650h10.4v-7.8h5.1v7.8h14.4v4.1H737.3ZM772.8 1627.3H796v4.1H777.9v8.4h18.3v4H772.8v-16.5Zm-3.4 26.6v-4.2h30v4.2h-30ZM832.4 1624.7h5.1v33.1h-5.1v-33.1Zm-22.5 23.5c8.3 -4 11.8 -8.9 12.5 -16.1H811.7V1628h16c0 10.3 -3.2 18.6 -15.2 24.3l-2.6 -4.1ZM854.5 1641.5h4.2v-4.1h-3.5c-1.5 5.4 -4.8 10 -11 13.6l-2.9 -3.6c6.4 -3.9 9.2 -8.4 9.8 -14.8h-7.8v-4.1h12.9c0 1.7 -.1 3.3 -.3 4.8h2.8v-7.9h4.8v30.9h-4.8v-10.7h-4.2v-4.1Zm11.1 16.3v-33.1h4.9v33.1h-4.9ZM897.6 1624.7h4.9v33.1h-4.9v-33.1ZM874.2 1639c0 -7.6 2.8 -12.1 7.2 -12.1c3.9 0 6.6 3.6 7.1 9.8h2.3v-11.6h4.8v31.2h-4.8v-15.5h-2.2c-.4 6.5 -3.2 10.4 -7.2 10.4c-4.4 0 -7.2 -4.6 -7.2 -12.2Zm4.7 0c0 5 .9 7.3 2.5 7.3c1.7 0 2.5 -2.3 2.5 -7.3c0 -5 -.8 -7.3 -2.5 -7.3c-1.6 0 -2.5 2.3 -2.5 7.3ZM936.9 1624.7h5.2v23.7h-5.2v-23.7Zm-22 10.5c0 -5 4 -8.5 9.1 -8.5c5.1 0 9.1 3.5 9.1 8.5c0 4.9 -4 8.5 -9.1 8.5c-5.1 0 -9.1 -3.6 -9.1 -8.5Zm5 22V1646H925v7.2h17.8v4H919.9Zm0 -22c0 2.5 1.8 4 4.1 4c2.2 0 4 -1.5 4 -4c0 -2.6 -1.8 -4 -4 -4c-2.3 0 -4.1 1.4 -4.1 4ZM954 1626.2h5.3v3.1c0 4 2.1 7.9 7.6 9.5l-2.5 4.1c-3.7 -1.2 -6.2 -3.4 -7.7 -6.2c-1.5 3 -4.1 5.5 -8 6.7l-2.4 -4.1c5.6 -1.7 7.7 -6 7.7 -10v-3.1Zm-2.6 23.6v-4h22.7v12h-5.2v-8H951.4Zm17.5 -5.4v-19.7h5.2v19.7h-5.2Z" class="g4_11"/>
<path fill-rule="evenodd" d="M48.6 1792.8l9.7 2.6l5.8 -22.1c2.5 -9.6 -3 -19.3 -12.3 -21.9c-9.4 -2.5 -19 3.2 -21.5 12.7l-5.9 22.1l9.7 2.6l-1.9 7.4c-1.1 4.1 1.2 8.3 5.2 9.4c4 1.1 8.2 -1.4 9.2 -5.4l2 -7.4Zm6.1 -3.6l4.6 -17.3c1.8 -6.8 -2.2 -13.7 -8.8 -15.5c-6.7 -1.9 -13.6 2.2 -15.4 9l-4.5 17.2l9.6 2.6L37 1797.5c-.4 1.4 .4 2.8 1.7 3.2c1.4 .3 2.8 -.5 3.1 -1.9l3.3 -12.3l9.6 2.7Z" class="g5_11"/>
<image clip-path="url(#c0_11)" preserveAspectRatio="none" x="87" y="101" width="1100" height="1496" xlink:href="img/1.png"/>
<image clip-path="url(#c1_11)" preserveAspectRatio="none" x="179" y="154" width="916" height="1313" xlink:href="img/2.jpg"/>
</svg>