<?xml version="1.0" encoding="UTF-8" standalone="no"?>
<!DOCTYPE svg PUBLIC "-//W3C//DTD SVG 1.1//EN"
"http://www.w3.org/Graphics/SVG/1.1/DTD/svg11.dtd">
<svg viewBox="0 0 1274 1824" version="1.1" xmlns="http://www.w3.org/2000/svg" xmlns:xlink="http://www.w3.org/1999/xlink">
<defs>
<clipPath id="c0_7"><path d="M86.8 1596.9V100.5H1187.4V1596.9Z"/></clipPath>
<clipPath id="c1_7"><path d="M203.2 1466.7c-13.5 0 -24.4 -11 -24.4 -24.5V178.8c0 -13.6 10.9 -24.5 24.4 -24.5H1071c13.5 0 24.4 10.9 24.4 24.5V1442.2c0 13.5 -10.9 24.5 -24.4 24.5Z"/></clipPath>
<style type="text/css"><![CDATA[
.g0_7{
fill: #FFF;
}
.g1_7{
fill: #000;
fill-opacity: 0.02;
}
.g2_7{
fill: #2EA4AB;
fill-opacity: 0.01;
}
.g3_7{
fill: #D76263;
}
.g4_7{
fill: #1C1F1F;
}
.g5_7{
fill: #2EA4AB;
}
]]></style>
</defs>
<path d="M0 1824.2H1274.2V0H0V1824.2Z" class="g0_7"/>
<path d="M0 1824.2H1274.2V0H0V1824.2Z" class="g1_7"/>
<path d="M0 1824.2H1274.2V0H0V1824.2Z" class="g2_7"/>
<path d="M293.9 1569.7h5.2v16.4h-5.2v-5.9h-5c-.9 3.3 -4.2 5.6 -8.5 5.6c-5 0 -8.8 -3.2 -8.8 -7.6c0 -4.5 3.8 -7.7 8.8 -7.7c4.2 0 7.5 2.2 8.5 5.6h5v-6.4Zm-17.4 8.5c0 2.2 1.7 3.5 3.9 3.5c2.3 0 3.9 -1.3 3.9 -3.5c0 -2.3 -1.6 -3.5 -3.9 -3.5c-2.2 0 -3.9 1.2 -3.9 3.5Zm.6 13.2v-4h22v9.3H282.2v1.8h17.7v3.9H277.1V1593H294v-1.6H277.1ZM307 1570.9h22.9v2.3c0 2 0 4.6 -.6 7.7h4v4H320.8v2.8h9v9.1h-18v1.8h18.8v4H306.7v-9.2h17.9v-1.7h-18v-4h9.1v-2.8H303.4v-4h20.8c.4 -2.4 .6 -4.3 .6 -6H307v-4ZM366.3 1569.7h5.1v23.7h-5.1v-23.7Zm-22.1 10.5c0 -5 4 -8.5 9.1 -8.5c5.1 0 9.1 3.5 9.1 8.5c0 4.9 -4 8.5 -9.1 8.5c-5.1 0 -9.1 -3.6 -9.1 -8.5Zm5 22V1591h5.1v7.2h17.9v4h-23Zm0 -22c0 2.5 1.8 4 4.1 4c2.3 0 4.1 -1.5 4.1 -4c0 -2.6 -1.8 -4 -4.1 -4c-2.3 0 -4.1 1.4 -4.1 4ZM383.4 1571.2h5.2v3.1c0 4 2.1 7.9 7.6 9.5l-2.5 4.1c-3.7 -1.2 -6.2 -3.4 -7.6 -6.2c-1.5 3 -4.1 5.5 -8 6.7l-2.5 -4.1c5.7 -1.7 7.8 -6 7.8 -10v-3.1Zm-2.7 23.6v-4h22.7v12h-5.1v-8H380.7Zm17.6 -5.4v-19.7h5.1v19.7h-5.1ZM431.5 1569.7h4.9v33.1h-4.9v-33.1ZM408.1 1584c0 -7.6 2.9 -12.1 7.2 -12.1c4 0 6.7 3.6 7.2 9.8h2.2v-11.6h4.8v31.2h-4.8v-15.5h-2.2c-.4 6.5 -3.1 10.4 -7.2 10.4c-4.3 0 -7.2 -4.6 -7.2 -12.2Zm4.7 0c0 5 .9 7.3 2.5 7.3c1.7 0 2.6 -2.3 2.6 -7.3c0 -5 -.9 -7.3 -2.6 -7.3c-1.6 0 -2.5 2.3 -2.5 7.3ZM470.8 1569.7H476v16.6h-5.2v-16.6Zm-22.6 12.8c5.6 -1.7 7.8 -5.8 7.8 -9.6v-2.5h5.2v2.5c0 3.7 2.1 7.5 7.6 9.1l-2.5 3.9c-3.7 -1 -6.2 -3.2 -7.7 -5.9c-1.5 3 -4.1 5.4 -8 6.6l-2.4 -4.1Zm5.6 9.1v-3.9H476v9.2H458.9v1.7h17.9v4h-23v-9.4h17.1v-1.6H453.8ZM504.1 1569.7h4.8v33.1h-4.8v-16.4h-2.2v14.8h-4.8v-31h4.8v12h2.2v-12.5Zm-24 21.6h2.4v-14h-1.8v-4h15v4h-1.9v13.4c.7 0 1.4 -.1 2.1 -.2l.4 3.7c-5.1 1.1 -11.7 1.2 -15.7 1.2l-.5 -4.1Zm7.1 -.1c.7 -.1 1.4 -.1 2.1 -.1v-13.8h-2.1v13.9ZM648.2 1569.7h5.1v16.5h-5.1V1584h-7.1v-3.9h7.1v-2.6h-6.7c-2.1 4.9 -6.7 7.9 -13.9 9.5l-1.7 -4.1c7.4 -1.5 10.5 -4.4 11.1 -8h-9.2v-4.1h14.9c0 1 -.1 2 -.2 2.9h5.7v-4Zm-16.9 21.7v-4h22v9.3H636.5v1.7h17.4v4H631.4v-9.5h16.8v-1.5H631.3ZM681.2 1569.7H686v33.1h-4.8v-33.1Zm-24.3 23.2c4.8 -3.1 6.3 -9 6.3 -14.5V1577h-5.1v-4.1h14.7v4.1h-4.6v1.4c0 5.4 1.5 11 6.3 13.8l-3 3.7c-2.8 -1.7 -4.6 -4.4 -5.7 -7.8c-1.1 3.7 -3 6.8 -5.9 8.6l-3 -3.8Zm13.6 -7.9v-4.2h4v-10.7h4.8v31.2h-4.8V1585h-4ZM710.4 1570.6h5.4v1.5c0 3.7 3.4 8.1 11.3 9.2l-2 4.1c-5.9 -.9 -9.9 -3.6 -12 -7c-2.1 3.5 -6.1 6.1 -12 7l-2 -4.1c8 -1.1 11.3 -5.5 11.3 -9.2v-1.5Zm-12.3 21.1v-4.2H728v4.2H715.5v11.1h-5.1v-11.1H698.1ZM751.2 1569.7h5.1v8.8h4.3v4.2h-4.3v10.9h-5.1v-23.9Zm-19.8 18.6v-16.1h14.8v4.1h-9.7v7.8c5.7 0 8.9 -.2 12.3 -.9l.5 4c-3.9 .9 -7.6 1.1 -15.2 1.1h-2.7Zm3.4 13.9V1591H740v7.2h17.4v4H734.8ZM784.6 1569.6h5.2v33.2h-5.2v-33.2ZM763 1583.7c0 -7.2 3.8 -11.8 8.8 -11.8c5.1 0 8.8 4.6 8.8 11.8c0 7.4 -3.7 12 -8.8 12c-5 0 -8.8 -4.6 -8.8 -12Zm5 0c0 4.9 1.5 7.3 3.8 7.3c2.3 0 3.8 -2.4 3.8 -7.3c0 -4.7 -1.5 -7.1 -3.8 -7.1c-2.3 0 -3.8 2.4 -3.8 7.1ZM806.3 1589.1h4.8v3h2.7v-3h4.7v9.5c3.5 -1.6 4.9 -4.6 4.9 -7.4v-2.4h5.1v2.4c0 3.4 1.4 6.4 5.5 7.7l-2.5 3.8c-2.8 -.9 -4.6 -2.6 -5.6 -4.9c-1.1 2.2 -2.9 3.9 -5.5 4.9l-1.9 -2.8v2.5H806.3v-13.3Zm-3.2 -10.4c0 -4.6 3.8 -7.9 8.8 -7.9c4.2 0 7.5 2.3 8.5 5.8h5v-6.9h5.2v17.5h-5.2v-6.5h-5c-.9 3.5 -4.3 5.9 -8.5 5.9c-5 0 -8.8 -3.3 -8.8 -7.9Zm4.9 0c0 2.3 1.6 3.7 3.9 3.7c2.2 0 3.9 -1.4 3.9 -3.7c0 -2.3 -1.7 -3.6 -3.9 -3.6c-2.3 0 -3.9 1.3 -3.9 3.6Zm3.1 19.9h2.7v-2.8h-2.7v2.8ZM838.4 1570.8h5.1v7.6h17.9v4h-23v-11.6Zm-3.6 18.9v-4h29.9v4H834.8Zm3.2 12.4v-9.9h5.2v5.8h18.4v4.1H838ZM882.3 1571.5h5.2v3.3c0 3.9 2 7.7 7.3 9.3l-2.7 3.9c-3.4 -1.1 -5.7 -3.2 -7.1 -5.9c-1.4 3.1 -3.9 5.6 -7.6 6.9l-2.8 -4c5.7 -1.9 7.7 -6.3 7.7 -10.7v-2.8Zm-3.1 24.8c0 -4 4.4 -6.5 11.3 -6.5c6.9 0 11.3 2.5 11.3 6.5c0 4.1 -4.4 6.5 -11.3 6.5c-6.9 0 -11.3 -2.4 -11.3 -6.5Zm5.1 0c0 1.7 2.2 2.6 6.2 2.6c4.1 0 6.2 -.9 6.2 -2.6c0 -1.7 -2.1 -2.5 -6.2 -2.5c-4 0 -6.2 .8 -6.2 2.5Zm11.9 -7.2v-19.4h5.1v7.4h4.4v4.3h-4.4v7.7h-5.1ZM928.5 1569.7h5.2v9.2h4v4.2h-4v8.9h-5.2v-22.3Zm-21.7 17.7c2.4 0 5 0 7.7 0v-1.8c-3.4 -.5 -5.6 -2.2 -5.6 -4.6c0 -2.9 3.2 -4.7 8.2 -4.7c4.9 0 8.1 1.8 8.1 4.7c0 2.4 -2.1 4.1 -5.6 4.6v1.6c2.6 -.2 5.2 -.3 7.6 -.6l.4 3.4c-6.9 1.2 -14.4 1.3 -20.2 1.3l-.6 -3.9Zm.9 -11.8v-3.7h6.8v-2.5h5.1v2.5h6.9v3.7H907.7Zm3.5 22c0 -3.4 4.1 -5.3 11.3 -5.3c7.2 0 11.4 1.9 11.4 5.3c0 3.4 -4.2 5.2 -11.4 5.2c-7.2 0 -11.3 -1.8 -11.3 -5.2Zm2.6 -16.6c0 1.1 1.2 1.5 3.3 1.5c2.1 0 3.2 -.4 3.2 -1.5c0 -1 -1.1 -1.4 -3.2 -1.4c-2.1 0 -3.3 .4 -3.3 1.4Zm2.5 16.6c0 1.1 1.8 1.5 6.2 1.5c4.3 0 6.2 -.4 6.2 -1.5c0 -1.2 -1.9 -1.6 -6.2 -1.6c-4.4 0 -6.2 .4 -6.2 1.6Z" class="g3_7"/>
<path d="M542.6 1569.9h3.9v13h5v3.3h-5v16.3h-3.9v-32.6Zm-21.6 8.2v-3.2h7.7v-4.5h4v4.5h7.4v3.2H521Zm1.5 9.8c0 -4.4 3.5 -7.6 8.2 -7.6c4.7 0 8.1 3.2 8.1 7.6c0 4.5 -3.4 7.7 -8.1 7.7c-4.7 0 -8.2 -3.2 -8.2 -7.7Zm3.8 0c0 2.7 1.8 4.5 4.4 4.5c2.5 0 4.3 -1.8 4.3 -4.5c0 -2.7 -1.8 -4.4 -4.3 -4.4c-2.6 0 -4.4 1.7 -4.4 4.4ZM576.3 1569.9h3.9v32.6h-3.9v-16.6h-6.8v-3.3h6.8v-12.7ZM553 1593.6c8.4 -4.2 12 -9.7 12.6 -17.1H554.4v-3.2h15.2c0 9.7 -3.4 17.8 -14.5 23.4l-2.1 -3.1ZM606.7 1569.9h3.9v12.6h4.8v3.3h-4.8v16.7h-3.9v-32.6Zm-20.3 24.5V1573h4v18.2c4.3 -.1 8.9 -.5 13.8 -1.5l.4 3.3c-5.5 1.1 -10.6 1.4 -15.4 1.4h-2.8ZM963.6 1569.9h3.8v32.6h-3.8v-32.6ZM939.9 1584c0 -7.2 2.7 -11.6 6.9 -11.6c4 0 6.6 3.7 7 9.8h3.3v-11.7h3.7V1601h-3.7v-15.6h-3.3c-.3 6.4 -3 10.3 -7 10.3c-4.2 0 -6.9 -4.5 -6.9 -11.7Zm3.6 0c0 5.1 1.2 8 3.3 8c2.2 0 3.5 -2.9 3.5 -8c0 -5.1 -1.3 -7.9 -3.5 -7.9c-2.1 0 -3.3 2.8 -3.3 7.9ZM987.9 1580.5h6.9v-10.6h3.9v32.7h-3.9v-18.9h-6.9v-3.2Zm-16.6 12.2c5.2 -2.5 8.2 -8.8 8.2 -14.9v-5.3h4v5.3c0 6 2.9 12 8 14.3l-2.3 3.2c-3.7 -1.8 -6.3 -5.3 -7.7 -9.6c-1.4 4.5 -4.1 8.2 -7.7 10.1l-2.5 -3.1ZM344.9 1624.9h3.9v32.7h-3.9v-17.8h-6.6v9.9H322.9v-22.2h4v8.1h7.5v-8.1h3.9v9.2h6.6v-11.8Zm-18 21.6h7.5v-7.8h-7.5v7.8ZM353.7 1642.7h29.5v3.2H353.7v-3.2Zm3.7 14.2v-9.1h3.9v5.9h18.9v3.2H357.4Zm.1 -16.6V1626h22.2v3.1H361.4v2.6h17.5v2.9H361.4v2.7H380v3H357.5ZM400.5 1625.4c7.3 0 11.7 2 11.7 5.6c0 3.6 -4.4 5.6 -11.7 5.6c-7.3 0 -11.6 -2 -11.6 -5.6c0 -3.6 4.3 -5.6 11.6 -5.6Zm-14.7 16.2v-3.1h29.4v3.1H385.8Zm3.4 5.2v-3h22.4v7.9H393.2v2.6h19.3v3H389.3V1649h18.4v-2.2H389.2Zm3.7 -15.8c0 1.8 2.7 2.7 7.6 2.7c5 0 7.6 -.9 7.6 -2.7c0 -1.8 -2.6 -2.7 -7.6 -2.7c-4.9 0 -7.6 .9 -7.6 2.7ZM430 1626.5h4v8.9h18.6v3.2H430v-12.1Zm-3.7 19.5v-3.1h29.5v3.1H442.9v11.6H439V1646H426.3ZM458.3 1639.8h29.5v2.9H458.3v-2.9Zm3.4 7.7v-2.8h22.6v7.5H465.7v2.2h19.5v2.8H461.8v-7.6h18.6v-2.1H461.7Zm.3 -19.1v-2.7h22.2v7.3H466v2.1h18.8v2.8H462.1v-7.5h18.2v-2H462ZM514.2 1637.2h7.7v-3.6h-7.3c-2.1 5.2 -6.9 8.8 -13.9 10.8l-1.6 -3.1c7.7 -2.1 11.7 -6 12.3 -10.9H500.9v-3.2h14.8c0 1.2 -.1 2.2 -.3 3.3h6.5v-5.6h4V1644h-4v-3.6h-7.7v-3.2Zm-9.9 13.7c0 -4.1 4.2 -6.5 10.9 -6.5c6.6 0 10.9 2.4 10.9 6.5c0 4 -4.3 6.5 -10.9 6.5c-6.7 0 -10.9 -2.5 -10.9 -6.5Zm3.9 0c0 2.1 2.6 3.4 7 3.4c4.3 0 7 -1.3 7 -3.4c0 -2.2 -2.7 -3.4 -7 -3.4c-4.4 0 -7 1.2 -7 3.4ZM530.9 1643.4h29.5v3.2H547.5v11h-3.9v-11H530.9v-3.2Zm3 -10c0 -4.4 4.8 -7.2 11.6 -7.2c7 0 11.7 2.8 11.7 7.2c0 4.4 -4.7 7.2 -11.7 7.2c-6.8 0 -11.6 -2.8 -11.6 -7.2Zm4.1 0c0 2.6 3 4.1 7.5 4.1c4.7 0 7.6 -1.5 7.6 -4.1c0 -2.6 -2.9 -4.1 -7.6 -4.1c-4.5 0 -7.5 1.5 -7.5 4.1ZM806.6 1650.5h12.8v-5.4h-9.2v-10.6h18.6v-4.2H810.1v-3.2h22.6v10.5H814.1v4.3h19.3v3.2H823.3v5.4h12.8v3.2H806.6v-3.2ZM870 1624.9h4v32.7h-4v-32.7Zm-21.8 13.9c0 -7.1 3.5 -11.5 8.4 -11.5c4.9 0 8.4 4.4 8.4 11.5c0 7.1 -3.5 11.6 -8.4 11.6c-4.9 0 -8.4 -4.5 -8.4 -11.6Zm3.8 0c0 5 1.8 8 4.6 8c2.7 0 4.6 -3 4.6 -8c0 -5 -1.9 -7.9 -4.6 -7.9c-2.8 0 -4.6 2.9 -4.6 7.9ZM879.2 1640.6H892v-3.1h-9.2v-11.1h22.3v3.1H886.8v4.8h18.5v3.2h-9.4v3.1h12.8v3.1H879.2v-3.1Zm3.4 11c0 -3.8 4.2 -5.9 11.3 -5.9c6.9 0 11.2 2.1 11.2 5.9c0 3.8 -4.3 5.9 -11.2 5.9c-7.1 0 -11.3 -2.1 -11.3 -5.9Zm4 0c0 2 2.6 2.9 7.3 2.9c4.6 0 7.2 -.9 7.2 -2.9c0 -1.9 -2.6 -2.9 -7.2 -2.9c-4.7 0 -7.3 1 -7.3 2.9ZM932.6 1624.9h4v13h4.9v3.3h-4.9v16.3h-4v-32.6Zm-21.6 8.2v-3.2h7.7v-4.5h4v4.5h7.5v3.2H911Zm1.6 9.8c0 -4.4 3.5 -7.6 8.1 -7.6c4.7 0 8.1 3.2 8.1 7.6c0 4.5 -3.4 7.7 -8.1 7.7c-4.6 0 -8.1 -3.2 -8.1 -7.7Zm3.8 0c0 2.7 1.8 4.5 4.3 4.5c2.5 0 4.3 -1.8 4.3 -4.5c0 -2.7 -1.8 -4.4 -4.3 -4.4c-2.5 0 -4.3 1.7 -4.3 4.4ZM967.4 1624.9h3.8v32.6h-3.8v-32.6ZM943 1647.8c6.7 -4 9.8 -9.1 10.4 -15.7h-8.8v-3.2h12.8c0 3.1 -.5 6.1 -1.3 8.9h4.5v-12.1h3.7v30.2h-3.7v-15h-5.8c-1.9 3.8 -4.9 7 -9.5 9.8l-2.3 -2.9ZM1006.8 1624.9h3.9v18.9h-3.9v-18.9Zm-23 15.2c2.6 0 5.6 0 8.7 -.1v-2.9h-5.8v-10.6h15.5v3.2H990.6v4.2h11.8v3.2h-5.9v2.7c2.7 -.1 5.4 -.3 8 -.7l.2 2.7c-6.9 1.3 -14.6 1.4 -20.4 1.4l-.5 -3.1Zm5.2 17v-12h3.9v2.9h13.9v-2.9h3.9v12H989Zm3.9 -3.1h13.9v-3H992.9v3ZM1038.9 1624.9h3.9v32.6h-3.9v-32.6Zm-21.3 24.4V1628h4v18c4.5 -.1 9.3 -.5 14.4 -1.5l.5 3.3c-5.7 1.1 -11 1.5 -16 1.5h-2.9ZM1069.3 1624.9h3.9v12.4h5v3.3h-5v17h-3.9v-32.7Zm-20.1 24.7V1628h15.2v3.2h-11.3v15.1c5.2 0 9.2 -.2 13.6 -1.1l.4 3.3c-5 1 -9.4 1.1 -15.2 1.1h-2.7ZM1082.9 1650.9c1.3 0 2.2 .9 2.2 2.3c0 1.3 -.9 2.2 -2.2 2.2c-1.3 0 -2.3 -.9 -2.3 -2.2c0 -1.4 1 -2.3 2.3 -2.3Z" class="g4_7"/>
<path d="M207.5 1624.7h5.1v16.5h-5.1V1639h-7.1v-3.9h7.1v-2.6h-6.8c-2 4.9 -6.6 7.9 -13.9 9.5l-1.6 -4.1c7.4 -1.5 10.5 -4.4 11 -8h-9.1v-4.1H202c0 1 -.1 2 -.2 2.9h5.7v-4Zm-16.9 21.7v-4h22v9.3H195.8v1.7h17.4v4H190.7v-9.5h16.8v-1.5H190.6ZM240.5 1624.7h4.8v33.1h-4.8v-33.1Zm-24.4 23.2c4.9 -3.1 6.4 -9 6.4 -14.5V1632h-5.1v-4.1h14.7v4.1h-4.6v1.4c0 5.4 1.4 11 6.3 13.8l-3 3.7c-2.8 -1.7 -4.6 -4.4 -5.7 -7.8c-1.1 3.7 -3 6.8 -5.9 8.6l-3.1 -3.8Zm13.7 -7.9v-4.2h4v-10.7h4.7v31.2h-4.7V1640h-4ZM269.9 1624.7H275v12.7h4.7v4.3H275v16.1h-5.1v-33.1Zm-21.1 8.8v-4h7.1v-4.2H261v4.2h7v4H248.8Zm1.2 9.7c0 -4.7 3.6 -8 8.5 -8c4.8 0 8.4 3.3 8.4 8c0 4.6 -3.6 7.9 -8.4 7.9c-4.9 0 -8.5 -3.3 -8.5 -7.9Zm4.9 0c0 2.4 1.4 3.8 3.6 3.8c2 0 3.5 -1.4 3.5 -3.8c0 -2.5 -1.5 -3.8 -3.5 -3.8c-2.2 0 -3.6 1.3 -3.6 3.8ZM303.5 1624.7h5.1v33.1h-5.1v-33.1ZM281 1648.2c8.3 -4 11.8 -8.9 12.5 -16.1H282.8V1628h16c0 10.3 -3.2 18.6 -15.1 24.3l-2.7 -4.1ZM594.1 1645.5c.6 -1.1 .9 -2.8 .9 -4.1c0 -5.9 -3.5 -9.7 -8.9 -9.7c-5.4 0 -8.9 3.8 -8.9 9.7c0 5.9 3.5 9.7 8.9 9.7c2 0 4 -.7 5.1 -1.6l-3.8 -4.1l3.7 -3.3l3 3.4Zm-21.8 -4.1c0 -8.3 5.7 -14.1 13.8 -14.1c8.2 0 13.9 5.8 13.9 14.1c-.1 2.6 -1.1 5.8 -2.3 7.9l2.7 2.9l-3.6 3.3l-2.5 -2.8c-2 1.6 -5.4 2.7 -8.2 2.7c-8.1 0 -13.8 -5.8 -13.8 -14ZM615.7 1642.1c2.7 0 4.5 -2 4.5 -5.1c0 -3.1 -1.8 -5.1 -4.5 -5.1h-7v10.2h7Zm-12 13v-27.5h12.9c5 0 8.6 3.8 8.6 9.2c0 3.4 -1.4 6.6 -5.8 8.8l7 9.5h-6.1l-6.4 -8.7h-5.2v8.7h-5ZM660.3 1624.7h5.2v16.5h-5.2V1639h-7v-3.9h7v-2.6h-6.7c-2 4.9 -6.6 7.9 -13.9 9.5l-1.6 -4.1c7.4 -1.5 10.5 -4.4 11 -8H640v-4.1h14.8c0 1 0 2 -.1 2.9h5.6v-4Zm-16.8 21.7v-4h22v9.3H648.7v1.7h17.4v4H643.6v-9.5h16.7v-1.5H643.5ZM693.3 1624.7h4.9v33.1h-4.9v-33.1ZM669 1647.9c4.9 -3.1 6.4 -9 6.4 -14.5V1632h-5.1v-4.1H685v4.1h-4.6v1.4c0 5.4 1.4 11 6.3 13.8l-3 3.7c-2.8 -1.7 -4.7 -4.4 -5.8 -7.8c-1.1 3.7 -2.9 6.8 -5.9 8.6l-3 -3.8Zm13.7 -7.9v-4.2h4v-10.7h4.7v31.2h-4.7V1640h-4ZM734.2 1624.7h4.9v33.1h-4.9v-33.1Zm-24.3 21.6h2.5v-13.9h-1.9v-4.1h15v4.1h-1.9v13.4c.8 -.1 1.6 -.2 2.4 -.3l.3 3.7c-5.1 1.1 -11.8 1.2 -15.8 1.2l-.6 -4.1Zm7 -.1c.7 0 1.4 -.1 2.1 -.1v-13.7h-2.1v13.8Zm7.9 -5.1v-4.5h2.8v-11.3h4.8v31h-4.8v-15.2h-2.8ZM764.7 1624.6h5.2v33.2h-5.2v-33.2Zm-21.5 14.1c0 -7.2 3.7 -11.8 8.8 -11.8c5 0 8.7 4.6 8.7 11.8c0 7.4 -3.7 12 -8.7 12c-5.1 0 -8.8 -4.6 -8.8 -12Zm4.9 0c0 4.9 1.5 7.3 3.9 7.3c2.2 0 3.8 -2.4 3.8 -7.3c0 -4.7 -1.6 -7.1 -3.8 -7.1c-2.4 0 -3.9 2.4 -3.9 7.1ZM775.4 1627.8H794v4.2h-6.7v1.4c0 5.3 2.4 11 8.1 13.3l-2.8 4.1c-3.8 -1.6 -6.3 -4.8 -7.8 -8.6c-1.4 4.2 -4 7.7 -7.9 9.4l-2.9 -4.1c5.7 -2.5 8.1 -8.6 8.1 -14.1V1632h-6.7v-4.2Zm21.3 30v-33.1h5.2v33.1h-5.2Z" class="g5_7"/>
<path fill-rule="evenodd" d="M48.6 1792.8l9.7 2.6l5.8 -22.1c2.5 -9.6 -3 -19.3 -12.3 -21.9c-9.4 -2.5 -19 3.2 -21.5 12.7l-5.9 22.1l9.7 2.6l-1.9 7.4c-1.1 4.1 1.2 8.3 5.2 9.4c4 1.1 8.2 -1.4 9.2 -5.4l2 -7.4Zm6.1 -3.6l4.6 -17.3c1.8 -6.8 -2.2 -13.7 -8.8 -15.5c-6.7 -1.9 -13.6 2.2 -15.4 9l-4.5 17.2l9.6 2.6L37 1797.5c-.4 1.4 .4 2.8 1.7 3.2c1.4 .3 2.8 -.5 3.1 -1.9l3.3 -12.3l9.6 2.7Z" class="g5_7"/>
<image clip-path="url(#c0_7)" preserveAspectRatio="none" x="87" y="101" width="1100" height="1496" xlink:href="img/1.png"/>
<image clip-path="url(#c1_7)" preserveAspectRatio="none" x="179" y="154" width="916" height="1313" xlink:href="img/2.jpg"/>
</svg>