<?xml version="1.0" encoding="UTF-8" standalone="no"?>
<!DOCTYPE svg PUBLIC "-//W3C//DTD SVG 1.1//EN"
"http://www.w3.org/Graphics/SVG/1.1/DTD/svg11.dtd">
<svg viewBox="0 0 1274 1824" version="1.1" xmlns="http://www.w3.org/2000/svg" xmlns:xlink="http://www.w3.org/1999/xlink">
<defs>
<clipPath id="c0_3"><path d="M219.7 1224.1V429h795.1v795.1Z"/></clipPath>
<clipPath id="c1_3"><path d="M360.6 1093.9c-27 0 -48.9 -21.9 -48.9 -48.9V531.7c0 -27 21.9 -48.9 48.9 -48.9H873.9c27 0 48.9 21.9 48.9 48.9V1045c0 27 -21.9 48.9 -48.9 48.9Z"/></clipPath>
<style type="text/css"><![CDATA[
.g0_3{
fill: #FFF;
}
.g1_3{
fill: #000;
fill-opacity: 0.02;
}
.g2_3{
fill: #2EA4AB;
fill-opacity: 0.01;
}
.g3_3{
fill: #1C1F1F;
}
.g4_3{
fill: #2EA4AB;
}
]]></style>
</defs>
<path d="M0 1824.2H1274.2V0H0V1824.2Z" class="g0_3"/>
<path d="M0 1824.2H1274.2V0H0V1824.2Z" class="g1_3"/>
<path d="M0 1824.2H1274.2V0H0V1824.2Z" class="g2_3"/>
<path d="M316.4 1237.6h5.3v43.6h-5.3v-43.6Zm-29.2 18.6c0 -9.4 4.7 -15.4 11.2 -15.4c6.6 0 11.3 6 11.3 15.4c0 9.4 -4.7 15.4 -11.3 15.4c-6.5 0 -11.2 -6 -11.2 -15.4Zm5.1 0c0 6.7 2.5 10.6 6.1 10.6c3.7 0 6.2 -3.9 6.2 -10.6c0 -6.7 -2.5 -10.6 -6.2 -10.6c-3.6 0 -6.1 3.9 -6.1 10.6ZM339.8 1259.5h39.3v4.2H362.6v7.9h-5.3v-7.9H339.8v-4.2Zm4.8 20.9v-12.7h5.2v8.4h25v4.3H344.6Zm.2 -25v-15.8h29.3v15.8H344.8Zm5.1 -4.2h19v-7.5h-19v7.5ZM404.4 1251.8h9v-14.2h5.3v43.6h-5.3V1256h-9v-4.2ZM382.2 1268c6.8 -3.3 10.9 -11.7 10.9 -19.9v-7h5.3v7c0 8.1 3.8 16.1 10.6 19.1l-3 4.3c-4.9 -2.4 -8.3 -7.1 -10.3 -12.8c-1.9 6 -5.4 11 -10.3 13.5l-3.2 -4.2ZM430.4 1239.2h5.1V1250h24.7v4.2H430.4v-15Zm-5.1 24.3v-4.2h39.3v4.2H425.3Zm4.7 16.7v-12.9h5.3v8.7h25.2v4.2H430ZM487.7 1241.6h5.1v7.4c0 7.3 2.6 14.5 8.6 17.8l-3.2 4.1c-3.9 -2.2 -6.5 -6.1 -7.9 -10.8c-1.6 5.1 -4.4 9.5 -8.4 12l-3.4 -3.9c6.3 -3.6 9.2 -11.5 9.2 -18.9v-7.7Zm14.2 37.5v-40.6h4.9v16.3h4.6v-17.1h5v43.4h-5v-22h-4.6v20h-4.9ZM522 1271.8h17v-7.2H526.7v-14.2h24.9v-5.6h-25v-4.2h30.2v13.9H531.9v5.9h25.8v4.2H544.2v7.2h17.2v4.2H522v-4.2ZM577.4 1241.7h5v10.1h7v-10.1h4.9v28.9H577.4v-28.9Zm5 24.7h7v-10.5h-7v10.5Zm16.2 12.7v-40.6h4.9v16h4.6v-16.8h5.1v43.4h-5.1v-22.3h-4.6v20.3h-4.9ZM618.7 1271.7h17V1263H622.2v-4.2h6v-13.1H622v-4.2h32.7v4.2h-6.3v13.1h6.2v4.2H640.9v8.7h17.2v4.3H618.7v-4.3Zm14.8 -12.9h9.7v-13.1h-9.7v13.1ZM690.2 1237.7h5.3v13.7h6v4.4h-6v14.4h-5.3v-32.5Zm-28.7 9v-4.2h10.2v-4.8H677v4.8h10.1v4.2H661.5Zm2.3 10.2c0 -5 4.3 -8.3 10.5 -8.3c6.3 0 10.6 3.3 10.6 8.3c0 4.9 -4.3 8.2 -10.6 8.2c-6.2 0 -10.5 -3.3 -10.5 -8.2Zm4.1 23.4v-12.6h5.2v8.3h24.1v4.3H667.9Zm.9 -23.4c0 2.6 2.2 4.2 5.5 4.2c3.3 0 5.5 -1.6 5.5 -4.2c0 -2.7 -2.2 -4.3 -5.5 -4.3c-3.3 0 -5.5 1.6 -5.5 4.3ZM746 1237.7h5.3v43.5H746v-43.5Zm-27.9 33v-29.1h20.8v4.3H723.4v20.4c7.9 -.1 13 -.3 18.8 -1.4l.5 4.4c-6.3 1.2 -11.8 1.4 -20.9 1.4h-3.7ZM760.4 1241.7h20.5v28.8H760.4v-28.8Zm5.2 24.7h10.2v-20.5H765.6v20.5Zm23.1 14.8v-43.6H794v43.6h-5.3ZM833.3 1237.7h5.1v43.4h-5.1v-43.4Zm-32.9 28.9h3.9v-19.5h-3v-4.3h19.8v4.3h-3.2V1266c1.4 -.2 2.7 -.3 3.9 -.5l.4 3.9c-6.8 1.4 -15.7 1.5 -21.2 1.5l-.6 -4.3Zm8.7 -.1c1.4 -.1 2.7 -.1 4.1 -.2v-19.2h-4.1v19.4Zm10.8 -8.1v-4.6h4.9v-15.2h4.9V1279h-4.9v-20.6h-4.9ZM874.2 1237.6h5.3v43.6h-5.3v-43.6ZM845 1256.2c0 -9.4 4.7 -15.4 11.3 -15.4c6.5 0 11.2 6 11.2 15.4c0 9.4 -4.7 15.4 -11.2 15.4c-6.6 0 -11.3 -6 -11.3 -15.4Zm5.1 0c0 6.7 2.5 10.6 6.2 10.6c3.6 0 6.2 -3.9 6.2 -10.6c0 -6.7 -2.6 -10.6 -6.2 -10.6c-3.7 0 -6.2 3.9 -6.2 10.6ZM921 1254.7l-9 23h-4.9l-9.7 -23h4.5l7.6 18.5l7 -18.5H921ZM924.4 1273.8c4.5 -4.4 10.2 -7.8 10.2 -11.3c0 -2.3 -1.5 -3.8 -3.4 -3.8c-1.7 0 -3.3 1.1 -4 2.7l-3.6 -1.6c1.4 -2.9 4.5 -5 7.6 -5c4.4 0 7.5 3.2 7.5 7.7c0 4.6 -4.3 8.2 -8.2 11.3H939v3.6H924.7l-.3 -3.6ZM962.9 1240.7c6.8 0 11.9 4.3 11.9 10.5c0 6.1 -5.1 10.5 -11.9 10.5c-6.8 0 -11.8 -4.4 -11.8 -10.5c0 -6.2 5 -10.5 11.8 -10.5Zm-13.8 27.1c7.8 0 18.6 -.1 27.9 -1.5l.3 3.8c-9.5 1.9 -19.9 2 -27.6 2l-.6 -4.3Zm7.1 -16.6c0 3.6 2.9 6 6.7 6c3.8 0 6.7 -2.4 6.7 -6c0 -3.7 -2.9 -6 -6.7 -6c-3.8 0 -6.7 2.3 -6.7 6Zm23.3 30v-43.6h5.3v43.6h-5.3ZM135.7 1297c0 13 -3.9 24.5 -20 32.4l-2.8 -4c7.5 -3.8 12.2 -8.2 14.8 -13.4l-13.7 1.3l-.8 -4.5l16.1 -1c.7 -2.1 1 -4.3 1.2 -6.6H115.4V1297h20.3Zm7.4 39.1v-43.4h5.2v43.4h-5.2ZM174.8 1295.1c9.2 0 16 4.7 16 11.7c0 6.5 -5.6 10.9 -13.4 11.6v8.2h17.1v4.2H155.1v-4.2h17v-8.2c-7.8 -.7 -13.3 -5.1 -13.3 -11.6c0 -7 6.7 -11.7 16 -11.7Zm-10.9 11.7c0 4.7 4.5 7.6 10.9 7.6c6.3 0 10.9 -2.9 10.9 -7.6c0 -4.6 -4.6 -7.5 -10.9 -7.5c-6.4 0 -10.9 2.9 -10.9 7.5ZM214.6 1295.4h5.6v3.2c0 6.8 6.6 13.5 15.5 15l-2.3 4.4c-7.3 -1.5 -13.2 -5.9 -16 -11.8c-2.9 5.9 -8.8 10.3 -16 11.8l-2.3 -4.4c8.8 -1.5 15.5 -8.3 15.5 -15v-3.2Zm-16.7 35.2v-4.3h39.3v4.3H197.9ZM245.1 1296.7h30.5v5.2c0 6.3 0 12.3 -2 21.5l-5.2 -.5c.9 -3.8 1.4 -7.2 1.6 -10.2l-25.4 1.2l-.7 -4.2l26.4 -1c.1 -2.3 .1 -4.6 .1 -6.8v-.9H245.1v-4.3Zm-4.5 33.9v-4.3h39.3v4.3H240.6ZM304.8 1296.2H310v6.9c0 7.8 3.8 15.7 10.5 19l-3.2 4.2c-4.7 -2.4 -8 -7.1 -9.9 -12.7c-1.9 6 -5.5 10.9 -10.4 13.5l-3.1 -4.3c6.8 -3.3 10.9 -11.6 10.9 -19.7v-6.9Zm18.3 39.9v-43.4h5.3v17.1H335v4.4h-6.6v21.9h-5.3ZM337.3 1313.7h9.2v-5.6c-3.2 -1.4 -5.1 -3.6 -5.1 -6.5c0 -5.2 6 -8.2 15.6 -8.2c9.5 0 15.5 3 15.5 8.2c0 2.9 -1.8 5.1 -5.2 6.5v5.6h9.3v4.1H337.3v-4.1Zm4.6 14.6c0 -5 5.6 -7.8 15 -7.8c9.4 0 15 2.8 15 7.8c0 5 -5.6 7.8 -15 7.8c-9.4 0 -15 -2.8 -15 -7.8Zm5 -26.7c0 2.7 3.7 4.2 10.1 4.2c6.3 0 10.1 -1.5 10.1 -4.2c0 -2.7 -3.8 -4.2 -10.1 -4.2c-6.4 0 -10.1 1.5 -10.1 4.2Zm.3 26.7c0 2.6 3.4 3.8 9.7 3.8c6.2 0 9.7 -1.2 9.7 -3.8c0 -2.5 -3.5 -3.8 -9.7 -3.8c-6.3 0 -9.7 1.3 -9.7 3.8Zm4.5 -14.6h10.4v-4.2c-1.6 .2 -3.3 .3 -5.1 .3c-1.9 0 -3.6 -.1 -5.3 -.3v4.2ZM411.3 1319.5c9 0 14.5 3.1 14.5 8.3c0 5.3 -5.5 8.3 -14.5 8.3c-8.9 0 -14.5 -3 -14.5 -8.3c0 -5.2 5.6 -8.3 14.5 -8.3Zm-18.4 -3.8v-20.3h5.2v5.9h10.1v-5.9h5.2v20.3H392.9Zm5.2 -4.2h10.1v-6.1H398.1v6.1Zm3.9 16.3c0 2.8 3.3 4.2 9.3 4.2c5.9 0 9.3 -1.4 9.3 -4.2c0 -2.7 -3.4 -4.1 -9.3 -4.1c-6 0 -9.3 1.4 -9.3 4.1Zm18.1 -9.3v-25.8h5.2v10.4h6.1v4.4h-6.1v11h-5.2ZM436 1294.9h5.2v6H451v-6h5.2v8h8.7v-10.2h5.2v23.7h-5.2v-9.3h-8.7v8H436v-20.2Zm5.2 15.9H451v-5.9h-9.8v5.9Zm.5 24.7v-17.1H447v4.4h17.9v-4.4h5.2v17.1H441.7Zm5.3 -4.2h17.9V1327H447v4.3ZM496.4 1293.4c9.8 0 15.6 2.6 15.6 7.4c0 4.8 -5.8 7.5 -15.6 7.5c-9.7 0 -15.5 -2.7 -15.5 -7.5c0 -4.8 5.8 -7.4 15.5 -7.4Zm-19.6 21.5v-4.2H516v4.2H476.8Zm4.6 6.9v-4h29.7v10.6H486.7v3.4h25.7v4H481.5v-11.1H506v-2.9H481.4Zm4.9 -21c0 2.4 3.5 3.6 10.1 3.6c6.6 0 10.2 -1.2 10.2 -3.6c0 -2.4 -3.6 -3.6 -10.2 -3.6c-6.6 0 -10.1 1.2 -10.1 3.6ZM559.5 1292.7h5.3v8.8h6v4.3h-6v8.7h-5.3v-21.8Zm-28.2 11.1c0 -5.7 4.9 -9.8 11.4 -9.8c6.6 0 11.5 4.1 11.5 9.8c0 5.8 -4.9 9.8 -11.5 9.8c-6.5 0 -11.4 -4 -11.4 -9.8Zm5.1 0c0 3.4 2.7 5.6 6.3 5.6c3.7 0 6.4 -2.2 6.4 -5.6c0 -3.3 -2.7 -5.5 -6.4 -5.5c-3.6 0 -6.3 2.2 -6.3 5.5Zm.2 16.7v-4.1h28.2v11.4H541.9v3.6h24.3v4.2H536.7v-11.7h22.9v-3.4h-23ZM604.4 1292.6h5.2v43.6h-5.2v-17.9h-8v-4.2h8v-7.6h-7.8v-4.3h7.8v-9.6Zm-29.5 8v-4.2h19.3v16.3H580.3v9.3c5.7 0 10.7 -.3 16.5 -1.2l.4 4.3c-6.5 1.1 -12.1 1.3 -18.8 1.3H575v-17.9h14v-7.9H574.9ZM621 1296.4h29.8v4.3H626.2v12.4h25.1v4.2H621v-20.9Zm-4.8 34.2v-4.3h39.4v4.3H616.2ZM689.6 1292.6h5.3v43.6h-5.3v-43.6Zm-28.3 8.1v-4.2h20.3v16.3H666.7v8.8c6.8 0 12.7 -.4 19.4 -1.5l.6 4.3c-7.4 1.3 -13.9 1.5 -21.6 1.5h-3.7v-17.3h14.9v-7.9h-15ZM732.3 1292.7h5.3v43.4h-5.3v-43.4Zm-30.4 31.6c11.4 -5.5 16.6 -12.9 17.5 -22.9H704.1v-4.2h20.7c0 13 -5 24 -20.1 31.3l-2.8 -4.2ZM769.8 1294.5c6.5 0 11.3 3.7 11.3 9.2c0 5.3 -4.8 9.1 -11.3 9.1c-6.5 0 -11.3 -3.8 -11.3 -9.1c0 -5.5 4.8 -9.2 11.3 -9.2Zm-14.1 21.3c7.8 0 18.7 -.1 28 -1.5l.3 3.9c-3.7 .7 -7.6 1.2 -11.4 1.5v15.1h-5.3V1320c-3.9 .1 -7.7 .2 -11 .2l-.6 -4.4Zm7.9 -12.1c0 3 2.6 4.8 6.2 4.8c3.6 0 6.2 -1.8 6.2 -4.8c0 -3 -2.6 -4.9 -6.2 -4.9c-3.6 0 -6.2 1.9 -6.2 4.9Zm22.9 32.4v-43.4h5.2v43.4h-5.2ZM798.3 1299.6h8.1v-5.8h5.2v5.8h7.8v4.2H798.3v-4.2Zm1.2 16.7c0 -5.9 4 -10.1 9.5 -10.1c5.5 0 9.4 4.2 9.4 10.1c0 6 -3.9 10.2 -9.4 10.2c-5.5 0 -9.5 -4.2 -9.5 -10.2Zm4.7 0c0 3.6 1.9 5.8 4.8 5.8c2.7 0 4.8 -2.2 4.8 -5.8c0 -3.5 -2.1 -5.7 -4.8 -5.7c-2.9 0 -4.8 2.2 -4.8 5.7Zm17.1 17.8v-40.5h4.9v17h4.3v-17.9h5v43.4h-5v-21.2h-4.3v19.2h-4.9ZM853.4 1295.5h23.5v4.2h-9v.5c0 5.4 3.4 10.7 10.2 12.9l-2.7 4.2c-4.8 -1.7 -8.2 -4.9 -10.1 -9c-1.9 4.5 -5.5 8 -10.5 9.7l-2.8 -4.1c6.9 -2.3 10.6 -7.9 10.6 -13.7v-.5h-9.2v-4.2Zm4.3 29.7v-4.3h28.7v15.2h-5.2v-10.9H857.7Zm23.5 -6.4v-26.1h5.2v10.9h6.1v4.4h-6.1v10.8h-5.2ZM905.6 1295h5.3v3.9c0 6 3.4 11.4 10.1 13.6l-2.8 4.1c-4.6 -1.7 -7.9 -4.9 -9.8 -9c-1.9 4.7 -5.6 8.4 -10.8 10.3l-2.7 -4.3c7 -2.4 10.7 -8.2 10.7 -14.5V1295Zm-3.7 32.8c0 -5.3 5.7 -8.4 14.8 -8.4c9.1 0 14.7 3.1 14.7 8.4c0 5.3 -5.6 8.3 -14.7 8.3c-9.1 0 -14.8 -3 -14.8 -8.3Zm5.3 0c0 2.7 3.4 4.2 9.5 4.2c6 0 9.4 -1.5 9.4 -4.2c0 -2.8 -3.4 -4.3 -9.4 -4.3c-6.1 0 -9.5 1.5 -9.5 4.3Zm10.1 -22.3v-4.4h8.6v-8.4h5.3v25.5h-5.3v-12.7h-8.6ZM966.4 1292.7h5.3V1310h6.6v4.4h-6.6v21.7h-5.3v-43.4Zm-28.8 10.8v-4.2h10.3v-6h5.3v6h10v4.2H937.6Zm2.1 13.2c0 -6 4.6 -10.2 10.8 -10.2c6.3 0 10.8 4.2 10.8 10.2c0 6 -4.5 10.2 -10.8 10.2c-6.2 0 -10.8 -4.2 -10.8 -10.2Zm5 0c0 3.6 2.4 5.9 5.8 5.9c3.4 0 5.8 -2.3 5.8 -5.9c0 -3.6 -2.4 -5.9 -5.8 -5.9c-3.4 0 -5.8 2.3 -5.8 5.9ZM991.3 1318.7h5.1v2.3c0 3.6 1.6 7.5 5.3 10c3.8 -2.7 5.5 -6.7 5.5 -10v-2.3h5.2v2.3c0 4.5 2.7 8.9 8.3 10.8l-2.6 3.8c-4.1 -1.5 -6.9 -4.3 -8.4 -7.8c-1.4 3.5 -3.9 6.6 -7.9 8.2c-4 -1.5 -6.6 -4.5 -8 -7.9c-1.5 3.3 -4.2 6 -8.3 7.5l-2.5 -3.8c5.5 -2 8.3 -6.6 8.3 -10.8v-2.3Zm-10 -13.4c0 -6.1 4.8 -10.4 11.3 -10.4c3.5 0 6.5 1.3 8.5 3.4h10.4v-5.6h5.2v24.5h-5.2v-5.1h-10.2c-2.1 2.2 -5.1 3.5 -8.7 3.5c-6.5 0 -11.3 -4.3 -11.3 -10.3Zm4.9 0c0 3.6 2.7 5.9 6.4 5.9c3.6 0 6.3 -2.3 6.3 -5.9c0 -3.7 -2.7 -6 -6.3 -6c-3.7 0 -6.4 2.3 -6.4 6Zm17.3 -2.9c.2 .9 .4 1.9 .4 2.9c0 .9 -.1 1.7 -.3 2.6h7.9v-5.5h-8ZM1028.1 1318.7h5.2v4.3h19.1v-4.3h5.2v16.9h-29.5v-16.9Zm-4.8 -2.5V1312h39.3v4.2h-39.3Zm2.1 -10.7c8.9 -1.1 14.9 -5.9 14.9 -10.8v-1.5h5.4v1.5c0 4.8 6 9.7 14.8 10.8l-1.8 4c-7.2 -.9 -12.9 -4.2 -15.7 -8.6c-2.7 4.5 -8.5 7.7 -15.7 8.6l-1.9 -4Zm7.9 25.9h19.1v-4.5h-19.1v4.5ZM1096.8 1292.7h5.3v43.4h-5.3v-43.4Zm-28.3 32.5v-28.4h5.3v23.9c6 -.1 12.4 -.6 19.2 -1.9l.6 4.4c-7.5 1.5 -14.6 2 -21.3 2h-3.8ZM1137.4 1292.6h5.2v16.6h6.6v4.3h-6.6v22.7h-5.2v-43.6Zm-26.8 33v-28.8h20.2v4.2h-15v20.2c6.9 -.1 12.2 -.3 18.1 -1.4l.5 4.4c-6.6 1.2 -12.4 1.4 -20.3 1.4h-3.5ZM1155.5 1327.3c1.7 0 3 1.3 3 3c0 1.8 -1.3 3 -3 3c-1.8 0 -3 -1.2 -3 -3c0 -1.7 1.2 -3 3 -3Z" class="g3_3"/>
<path fill-rule="evenodd" d="M45.9 1788.1l8.6 2.3l5.2 -19.6c2.2 -8.5 -2.7 -17.2 -11 -19.4c-8.3 -2.3 -16.8 2.7 -19 11.2l-5.3 19.7l8.6 2.3l-1.7 6.6c-1 3.6 1.1 7.3 4.7 8.3c3.6 1 7.2 -1.2 8.2 -4.8l1.7 -6.6Zm5.5 -3.2l4 -15.3c1.6 -6 -1.9 -12.2 -7.8 -13.9c-6 -1.6 -12.1 2 -13.7 8.1l-4 15.3l8.6 2.3l-2.9 10.9c-.3 1.3 .4 2.5 1.6 2.8c1.1 .3 2.4 -.4 2.7 -1.6l2.9 -10.9l8.6 2.3Z" class="g4_3"/>
<image clip-path="url(#c0_3)" preserveAspectRatio="none" x="220" y="429" width="794" height="795" xlink:href="img/1.png"/>
<image clip-path="url(#c1_3)" preserveAspectRatio="none" x="312" y="483" width="611" height="611" xlink:href="img/2.png"/>
</svg>