<?xml version="1.0" encoding="UTF-8" standalone="no"?>
<!DOCTYPE svg PUBLIC "-//W3C//DTD SVG 1.1//EN"
"http://www.w3.org/Graphics/SVG/1.1/DTD/svg11.dtd">
<svg viewBox="0 0 1274 1824" version="1.1" xmlns="http://www.w3.org/2000/svg" xmlns:xlink="http://www.w3.org/1999/xlink">
<defs>
<style type="text/css"><![CDATA[
.g0_17{
fill: #FFF;
}
.g1_17{
fill: #000;
fill-opacity: 0.02;
}
.g2_17{
fill: #2EA4AB;
fill-opacity: 0.01;
}
.g3_17{
fill: #2EA4AB;
}
.g4_17{
fill: #1C1F1F;
}
.g5_17{
fill: #000;
}
]]></style>
</defs>
<path d="M0 1824.2H1274.2V0H0V1824.2Z" class="g0_17"/>
<path d="M0 1824.2H1274.2V0H0V1824.2Z" class="g1_17"/>
<path d="M0 1824.2H1274.2V0H0V1824.2Z" class="g2_17"/>
<path fill-rule="evenodd" d="M654.8 884.6l42.7 11.7l26 -98.5c11.1 -42.3 -13.4 -85.7 -54.7 -96.9c-41.2 -11.3 -83.7 13.9 -94.9 56.2L548 855.5l42.7 11.6l-8.6 32.8c-4.8 18.2 5.7 36.8 23.4 41.6c17.7 4.8 35.9 -6 40.7 -24.1l8.6 -32.8Zm27.1 -16L702.1 792c7.9 -30.2 -9.5 -61.2 -39 -69.2c-29.5 -8.1 -59.9 9.9 -67.8 40.1l-20.2 76.5l42.8 11.7l-14.4 54.7c-1.6 6 1.9 12.2 7.8 13.8c5.9 1.6 11.9 -2 13.5 -8l14.4 -54.7l42.7 11.7Z" class="g3_17"/>
<path d="M253.6 1031.3h16.8v-9H257.8v-21.4h31.1v21.4H276.4v9h16.9v5H253.6v-5Zm10.2 -13.8H283v-11.8H263.8v11.8ZM301.4 1000h29.5v4.8H307.6v8.5h23.8v4.7h-30v-18Zm-5 27.4v-4.9H336v4.9H319.1v14.1H313v-14.1H296.4ZM353.1 1000.5c6.9 0 12 4.5 12 10.8c0 6.3 -5.1 10.8 -12 10.8c-6.9 0 -12 -4.5 -12 -10.8c0 -6.3 5.1 -10.8 12 -10.8Zm-13.9 27.1c7.7 0 18.5 0 27.8 -1.4l.4 4.4c-9.5 1.9 -19.9 2 -27.5 2l-.7 -5Zm7.8 -16.3c0 3.5 2.6 5.6 6.1 5.6c3.5 0 6.1 -2.1 6.1 -5.6c0 -3.5 -2.6 -5.6 -6.1 -5.6c-3.5 0 -6.1 2.1 -6.1 5.6Zm22.4 30.2V997.6h6.1v43.9h-6.1ZM424.9 997.6h5.7v43.8h-5.7v-22.1h-4v20.1h-5.6V998.3h5.6v16.1h4V997.6Zm-30.6 32.8v-28.2h17.2v28.2H394.3Zm5.6 -4.7h6v-18.8h-6v18.8ZM459.4 1007.8h6.8V997.7h6.2V1023h-6.2v-10.3h-6.8v-4.9Zm-23.9 10.4c7.1 -2.3 10.4 -7.9 10.5 -13.4h-8.8v-4.9h23.6v4.9h-8.7c.1 5.1 3.2 10.4 10 12.6l-3 4.8c-4.8 -1.7 -8.1 -4.9 -10 -8.8c-1.9 4.4 -5.3 7.9 -10.5 9.6l-3.1 -4.8Zm7.7 22.8v-16.2h29.2V1041H443.2Zm6 -4.8h17.2v-6.7H449.2v6.7ZM486.5 1032.6l-3.6 12.1h-4.3l1.9 -12.1h6ZM535.1 997.7h6.1v32.2h-6.1V1019h-5.5v-4.9h5.5v-3.9h-5.5v-4.9h5.5v-7.6Zm-30.5 21.9h4.7v-14h-3.6v-4.8h23.1v4.8h-3.5V1019c1.4 -.1 2.8 -.3 4.2 -.4l.3 4.4c-8.2 1.4 -17.6 1.6 -24.6 1.6l-.6 -5Zm7.8 21v-13.1h6v8.3h23.8v4.8H512.4Zm2.7 -21.1l4.3 -.1v-13.8h-4.3v13.9ZM577.7 997.6h6.1v43.9h-6.1V997.6Zm-28 8.6v-4.8h20.6v16.8H555.9v8.1c6.7 0 12.3 -.3 18.6 -1.4l.7 4.8c-7.2 1.3 -13.7 1.6 -21.6 1.6h-3.8v-17.9h14.3v-7.2H549.7ZM618.4 997.7h6.1v13.4h5.9v5h-5.9v14.3h-6.1V997.7Zm-28.3 9.3v-4.7H600v-4.7h6v4.7h9.9v4.7H590.1Zm2.2 10.1c0 -5 4.4 -8.4 10.7 -8.4c6.3 0 10.8 3.4 10.8 8.4c0 5.1 -4.5 8.4 -10.8 8.4c-6.3 0 -10.7 -3.3 -10.7 -8.4Zm4.1 23.5v-12.7h6.1v7.9h23.7v4.8H596.4Zm1.7 -23.5c0 2.5 2 3.8 4.9 3.8c2.9 0 4.9 -1.3 4.9 -3.8c0 -2.4 -2 -3.8 -4.9 -3.8c-2.9 0 -4.9 1.4 -4.9 3.8ZM675.9 997.6h5.7v43.8h-5.7v-22.1H672v20.1h-5.7V998.3H672v16.1h3.9V997.6Zm-30.5 32.8v-28.2h17.2v28.2H645.4Zm5.6 -4.7h5.9v-18.8H651v18.8ZM710.4 1007.8h6.9V997.7h6.1V1023h-6.1v-10.3h-6.9v-4.9Zm-23.8 10.4c7 -2.3 10.3 -7.9 10.4 -13.4h-8.8v-4.9h23.6v4.9h-8.7c.1 5.1 3.3 10.4 10.1 12.6l-3.1 4.8c-4.8 -1.7 -8 -4.9 -9.9 -8.8c-1.9 4.4 -5.4 7.9 -10.5 9.6l-3.1 -4.8Zm7.7 22.8v-16.2h29.1V1041H694.3Zm5.9 -4.8h17.3v-6.7H700.2v6.7ZM737.6 1032.6l-3.7 12.1h-4.3l2 -12.1h6ZM969.6 997.6h5.8v43.8h-5.8V997.6ZM937 1028.8c6.3 -4.1 8.7 -11.9 8.7 -19.5V1007h-7.2v-4.9h19.6v4.9h-6.5v2.3c0 7.4 2.2 14.8 8.5 18.5l-3.5 4.3c-3.8 -2.3 -6.4 -6.2 -7.9 -10.9c-1.5 5.2 -4.1 9.5 -8.1 12l-3.6 -4.4Zm18 -11.2v-4.9h5.8V998.4h5.6v41h-5.6v-21.8H955ZM1000.1 1025c9.5 0 15.6 3.1 15.6 8.3c0 5.1 -6.1 8.2 -15.6 8.2c-9.3 0 -15.4 -3.1 -15.4 -8.2c0 -5.2 6.1 -8.3 15.4 -8.3Zm-19.4 -2.9v-4.8h14.7v-7.7h6.1v7.7h18.6v4.8H980.7Zm4.4 -17.6v-4.8h30.3v3.5c0 3.5 0 7.2 -1.2 11.8l-5.9 -.7c.9 -3.9 1.1 -6.9 1.1 -9.8H985.1Zm5.6 28.8c0 2.4 3.5 3.6 9.4 3.6c6.1 0 9.6 -1.2 9.6 -3.6c0 -2.5 -3.5 -3.8 -9.6 -3.8c-5.9 0 -9.4 1.3 -9.4 3.8Z" class="g4_17"/>
<path d="M785.9 997.6h6v44h-6v-44Zm-27.5 33.5v-29.5h21v4.9H764.3V1026c7.8 0 12.7 -.2 18.2 -1.3l.5 5c-6 1.2 -11.6 1.4 -20.9 1.4h-3.7ZM800.6 1001.6h20.9V1031H800.6v-29.4Zm6 24.6h9v-19.8h-9v19.8Zm22 15.3V997.6h6.1v43.9h-6.1ZM873.3 997.7h5.8v43.8h-5.8V997.7Zm-32.6 28.8h3.5v-19.1h-2.8v-4.7h20v4.7h-2.9v18.5c1.3 -.1 2.4 -.3 3.5 -.4l.5 4.3c-6.9 1.5 -15.8 1.6 -21.2 1.6l-.6 -4.9Zm8.9 -.1c1.2 -.1 2.3 -.1 3.5 -.2v-18.8h-3.5v19Zm10.7 -7.4v-5.3h4.3V998.5h5.7v40.9h-5.7V1019h-4.3ZM914 997.6h6.1v43.9H914V997.6Zm-28.9 18.7c0 -9.6 4.9 -15.6 11.5 -15.6c6.6 0 11.5 6 11.5 15.6c0 9.6 -4.9 15.6 -11.5 15.6c-6.6 0 -11.5 -6 -11.5 -15.6Zm5.8 0c0 6.5 2.3 10.2 5.7 10.2c3.3 0 5.6 -3.7 5.6 -10.2c0 -6.6 -2.3 -10.1 -5.6 -10.1c-3.4 0 -5.7 3.5 -5.7 10.1Z" class="g3_17"/>
<path d="M506.8 1120.3c-5.3 0 -9 -3.8 -9 -9.3c0 -5.4 3.7 -9.3 9 -9.3c2.5 0 4.7 1.1 6.3 2.8l-1.9 1.9c-1 -1.3 -2.7 -2.1 -4.5 -2.1c-3.6 0 -6 2.7 -6 6.7c0 4.1 2.4 6.8 6 6.8c2 0 3.4 -1 4.4 -2.1l2 1.9c-1.6 1.7 -3.7 2.8 -6.3 2.7ZM521 1117.8c2 0 3.3 -1.6 3.3 -4.1c0 -2.5 -1.3 -4.2 -3.3 -4.2c-2 0 -3.4 1.7 -3.4 4.2c0 2.5 1.4 4.1 3.4 4.1Zm-6.3 -4.1c0 -3.9 2.6 -6.6 6.3 -6.6c3.7 0 6.3 2.7 6.3 6.6c0 3.8 -2.6 6.5 -6.3 6.5c-3.7 0 -6.3 -2.7 -6.3 -6.5ZM536.2 1117.8c2 0 3.4 -1.6 3.4 -4.1c0 -2.5 -1.4 -4.2 -3.4 -4.2c-2 0 -3.7 1.9 -3.7 4.2c0 2.3 1.7 4.1 3.7 4.1Zm-6.6 7.7v-18.4h2.9v2.1c1.1 -1.6 3 -2.1 3.9 -2.1c3.6 0 6.1 2.7 6.1 6.6c0 3.8 -2.5 6.5 -6.1 6.5c-.9 0 -2.8 -.4 -3.9 -2v7.3h-2.9ZM548.9 1125.3h-3.1l2.6 -6.3l-5.3 -11.9h3.2l3.6 8.7l3.5 -8.7h3.2l-7.7 18.2ZM561.4 1109.5c.7 -1.4 2.3 -2.4 3.9 -2.4v2.6c-2.4 0 -3.9 2.2 -3.9 4.1v6.3h-2.9v-13h2.9v2.4ZM567.9 1107.3h2.9v12.8h-2.9v-12.8Zm-.2 -4.1c0 -1 .7 -1.6 1.6 -1.6c1 0 1.6 .6 1.6 1.6c0 .9 -.6 1.6 -1.6 1.6c-.9 0 -1.6 -.7 -1.6 -1.6ZM579.9 1117.8c2.2 0 3.6 -1.9 3.6 -4.1c0 -2.2 -1.5 -4.1 -3.6 -4.1c-2 0 -3.4 1.6 -3.4 4.1c0 2.4 1.4 4.1 3.4 4.1Zm-6.3 -4.1c0 -3.8 2.5 -6.5 6.1 -6.5c1.2 0 2.9 .5 3.8 2v-2.1h3v12.2c-.1 3.6 -2.5 6.4 -6.6 6.4c-2.1 0 -4.3 -.9 -5.5 -2.9l2.3 -1.6c.9 1.3 1.8 1.9 3.2 1.9c2.4 0 3.6 -1.5 3.6 -3.5v-1.5c-1.1 1.5 -2.6 2.1 -3.8 2.1c-3.6 0 -6.1 -2.7 -6.1 -6.5ZM598.4 1113.4c0 -2.2 -1.1 -3.6 -2.7 -3.6c-1.9 0 -3.3 1.7 -3.3 3.8v6.5h-2.9v-18.2h2.9v7.2c.9 -1.2 2.3 -1.7 3.3 -1.7c3.3 0 5.6 2.3 5.6 5.6v7.1h-2.9v-6.7ZM609.4 1120.2c-2.3 0 -4 -1.7 -4.1 -4.2v-6.2h-2.2v-2.5h2.2v-3.6h3v3.6h3.2v2.5h-3.2v6.1c0 .8 .4 1.5 1.1 1.5c.5 0 .9 -.1 1.4 -.2l.6 2.7c-.6 .2 -1.3 .3 -2 .3ZM620.6 1111.3c0 -6.2 5 -11.2 11.2 -11.2c6.2 0 11.2 5 11.2 11.2c0 6.1 -5 11.1 -11.2 11.1c-6.2 0 -11.2 -5 -11.2 -11.1Zm2.5 0c0 4.7 3.9 8.6 8.7 8.6c4.8 0 8.6 -3.9 8.6 -8.6c0 -4.8 -3.8 -8.7 -8.6 -8.7c-4.8 0 -8.7 3.9 -8.7 8.7Zm3.1 -.1c0 -3.5 2.4 -6 5.9 -6c1.6 0 3.1 .6 4.1 1.7l-1.7 1.7c-.7 -.6 -1.5 -1.1 -2.5 -1.1c-2 0 -3.5 1.6 -3.5 3.7c0 2.2 1.5 3.7 3.5 3.7c1 0 1.8 -.4 2.5 -1.1l1.7 1.7c-1 1.1 -2.5 1.8 -4.1 1.8c-3.5 0 -5.9 -2.5 -5.9 -6.1ZM658.5 1117.6c3.7 0 6.2 -2.6 6.2 -6.6c0 -3.9 -2.5 -6.5 -6.2 -6.5h-3.2v13l3.2 .1Zm-6.1 2.5v-18.2h6.1c5.4 0 9.1 3.8 9.1 9.1c0 5.4 -3.7 9.1 -9.1 9.1h-6.1ZM670.3 1101.9h3v18.2h-3v-18.2ZM686.3 1117l-6.7 -10.1v13.2h-2.9v-18.2h3.2l6.4 10.2l6.4 -10.2H696v18.2h-3v-13.2l-6.7 10.1ZM699.4 1101.9h2.9v18.2h-2.9v-18.2ZM713.3 1111.5c1.9 0 3.1 -1.4 3.1 -3.5c0 -2.1 -1.2 -3.5 -3.2 -3.5h-4.5v7h4.6Zm-7.6 8.6v-18.2h7.7c3.5 0 6 2.5 6 6.1c0 3.6 -2.5 6 -6 6h-4.7v6.1h-3ZM729.4 1101.9l7.5 18.2h-3.2l-2 -4.8h-8.1l-2 4.8h-3.1l7.5 -18.2h3.4Zm-4.7 10.9h6l-3 -7.3l-3 7.3ZM752.9 1101.9l-7.2 11.1v7.1h-3V1113l-7.2 -11.1H739l5.2 8.4l5.2 -8.4h3.5ZM764 1098.7v2h-3.1v9h-2.1v-9h-3v-2H764Zm1.2 11v-10.9h2.1l3.5 5.9l3.4 -5.9h2.1v10.9h-2.1v-7.2l-2.7 4.9H770l-2.7 -4.9v7.2h-2.1Z" class="g5_17"/>
</svg>