<?xml version="1.0" encoding="UTF-8" standalone="no"?>
<!DOCTYPE svg PUBLIC "-//W3C//DTD SVG 1.1//EN"
"http://www.w3.org/Graphics/SVG/1.1/DTD/svg11.dtd">
<svg viewBox="0 0 1274 1824" version="1.1" xmlns="http://www.w3.org/2000/svg" xmlns:xlink="http://www.w3.org/1999/xlink">
<defs>
<clipPath id="c0_6"><path d="M86.8 1596.9V100.5H1187.4V1596.9Z"/></clipPath>
<clipPath id="c1_6"><path d="M203.2 1466.7c-13.5 0 -24.4 -11 -24.4 -24.5V178.8c0 -13.6 10.9 -24.5 24.4 -24.5H1071c13.5 0 24.4 10.9 24.4 24.5V1442.2c0 13.5 -10.9 24.5 -24.4 24.5Z"/></clipPath>
<style type="text/css"><![CDATA[
.g0_6{
fill: #FFF;
}
.g1_6{
fill: #000;
fill-opacity: 0.02;
}
.g2_6{
fill: #2EA4AB;
fill-opacity: 0.01;
}
.g3_6{
fill: #D76263;
}
.g4_6{
fill: #1C1F1F;
}
.g5_6{
fill: #2EA4AB;
}
]]></style>
</defs>
<path d="M0 1824.2H1274.2V0H0V1824.2Z" class="g0_6"/>
<path d="M0 1824.2H1274.2V0H0V1824.2Z" class="g1_6"/>
<path d="M0 1824.2H1274.2V0H0V1824.2Z" class="g2_6"/>
<path d="M464.9 1569.7h5.2v16.4h-5.2v-5.9h-5c-.9 3.3 -4.2 5.6 -8.5 5.6c-5 0 -8.8 -3.2 -8.8 -7.6c0 -4.5 3.8 -7.7 8.8 -7.7c4.2 0 7.5 2.2 8.5 5.6h5v-6.4Zm-17.4 8.5c0 2.2 1.7 3.5 3.9 3.5c2.3 0 3.9 -1.3 3.9 -3.5c0 -2.3 -1.6 -3.5 -3.9 -3.5c-2.2 0 -3.9 1.2 -3.9 3.5Zm.6 13.2v-4h22v9.3H453.2v1.8h17.7v3.9H448.1V1593H465v-1.6H448.1ZM478 1570.9h22.9v2.3c0 2 0 4.6 -.6 7.7h4v4H491.8v2.8h9v9.1h-18v1.8h18.8v4H477.7v-9.2h17.9v-1.7h-18v-4h9.1v-2.8H474.4v-4h20.8c.4 -2.4 .6 -4.3 .6 -6H478v-4ZM537.3 1569.7h5.1v23.7h-5.1v-23.7Zm-22.1 10.5c0 -5 4 -8.5 9.1 -8.5c5.1 0 9.1 3.5 9.1 8.5c0 4.9 -4 8.5 -9.1 8.5c-5.1 0 -9.1 -3.6 -9.1 -8.5Zm5 22V1591h5.1v7.2h17.9v4h-23Zm0 -22c0 2.5 1.8 4 4.1 4c2.3 0 4.1 -1.5 4.1 -4c0 -2.6 -1.8 -4 -4.1 -4c-2.3 0 -4.1 1.4 -4.1 4ZM554.4 1571.2h5.2v3.1c0 4 2.1 7.9 7.6 9.5l-2.5 4.1c-3.7 -1.2 -6.2 -3.4 -7.6 -6.2c-1.5 3 -4.1 5.5 -8 6.7l-2.5 -4.1c5.7 -1.7 7.8 -6 7.8 -10v-3.1Zm-2.7 23.6v-4h22.7v12h-5.1v-8H551.7Zm17.6 -5.4v-19.7h5.1v19.7h-5.1ZM602.5 1569.7h4.9v33.1h-4.9v-33.1ZM579.1 1584c0 -7.6 2.9 -12.1 7.2 -12.1c4 0 6.7 3.6 7.2 9.8h2.2v-11.6h4.8v31.2h-4.8v-15.5h-2.2c-.4 6.5 -3.1 10.4 -7.2 10.4c-4.3 0 -7.2 -4.6 -7.2 -12.2Zm4.7 0c0 5 .9 7.3 2.5 7.3c1.7 0 2.6 -2.3 2.6 -7.3c0 -5 -.9 -7.3 -2.6 -7.3c-1.6 0 -2.5 2.3 -2.5 7.3ZM641.8 1569.7H647v16.6h-5.2v-16.6Zm-22.6 12.8c5.6 -1.7 7.8 -5.8 7.8 -9.6v-2.5h5.2v2.5c0 3.7 2.1 7.5 7.6 9.1l-2.5 3.9c-3.7 -1 -6.2 -3.2 -7.7 -5.9c-1.5 3 -4.1 5.4 -8 6.6l-2.4 -4.1Zm5.6 9.1v-3.9H647v9.2H629.9v1.7h17.9v4h-23v-9.4h17.1v-1.6H624.8ZM675.1 1569.7H680v33.1h-4.9v-16.4h-2.2v14.8h-4.8v-31h4.8v12h2.2v-12.5Zm-24 21.6h2.5v-14h-1.9v-4h15.1v4h-2v13.4c.7 0 1.4 -.1 2.1 -.2l.4 3.7c-5.1 1.1 -11.7 1.2 -15.7 1.2l-.5 -4.1Zm7.1 -.1c.7 -.1 1.4 -.1 2.1 -.1v-13.8h-2.1v13.9Z" class="g3_6"/>
<path d="M713.6 1569.9h4v13h4.9v3.3h-4.9v16.3h-4v-32.6Zm-21.6 8.2v-3.2h7.7v-4.5h4v4.5h7.4v3.2H692Zm1.5 9.8c0 -4.4 3.5 -7.6 8.2 -7.6c4.7 0 8.1 3.2 8.1 7.6c0 4.5 -3.4 7.7 -8.1 7.7c-4.7 0 -8.2 -3.2 -8.2 -7.7Zm3.8 0c0 2.7 1.8 4.5 4.4 4.5c2.5 0 4.3 -1.8 4.3 -4.5c0 -2.7 -1.8 -4.4 -4.3 -4.4c-2.6 0 -4.4 1.7 -4.4 4.4ZM732.2 1589.4H736v1.8c0 2.7 1.3 5.6 4.1 7.4c2.8 -1.9 4.1 -5 4.1 -7.4v-1.8h3.9v1.8c0 3.4 2 6.7 6.2 8.1l-2 2.8c-3.1 -1.1 -5.1 -3.2 -6.3 -5.8c-1 2.6 -2.9 4.9 -5.9 6.1c-3 -1.1 -4.9 -3.3 -6 -5.9c-1.1 2.5 -3.2 4.5 -6.2 5.6l-1.9 -2.8c4.2 -1.5 6.2 -5 6.2 -8.1v-1.8Zm-7.5 -10c0 -4.6 3.6 -7.8 8.5 -7.8c2.6 0 4.9 1 6.4 2.5h7.8v-4.2h3.9v18.4h-3.9v-3.8h-7.7c-1.5 1.7 -3.8 2.7 -6.5 2.7c-4.9 0 -8.5 -3.3 -8.5 -7.8Zm3.7 0c0 2.7 2.1 4.5 4.8 4.5c2.7 0 4.7 -1.8 4.7 -4.5c0 -2.8 -2 -4.5 -4.7 -4.5c-2.7 0 -4.8 1.7 -4.8 4.5Zm13 -2.1c.2 .6 .3 1.3 .3 2.1c0 .7 -.1 1.3 -.2 1.9h5.9v-4h-6ZM777.7 1569.9h3.9v12.4h5v3.3h-5v17h-3.9v-32.7Zm-20.1 24.7V1573h15.2v3.2H761.6v15.1c5.1 0 9.1 -.2 13.5 -1.1l.4 3.3c-5 1 -9.4 1.1 -15.2 1.1h-2.7ZM789.8 1572.6h15.1v2.7h6.6V1570h3.9v23.7h-3.9v-8.2h-6.6v2.8H789.8v-15.7Zm3.8 12.5H801v-9.3h-7.4v9.3Zm.5 16.8v-10.4H798v7.2h18.1v3.2h-22Zm10.8 -19.6h6.6v-3.8h-6.6v3.8ZM825.7 1596.2l-2.4 8.4h-2.9l1.4 -8.4h3.9ZM123.5 1626.8c6.9 0 12 3.4 12 8.8c0 4.8 -4.2 8.1 -10.1 8.6v6.1h12.9v3.2H108.8v-3.2h12.7v-6.1c-5.9 -.5 -10 -3.8 -10 -8.6c0 -5.4 5.1 -8.8 12 -8.8Zm-8.2 8.8c0 3.4 3.4 5.6 8.2 5.6c4.8 0 8.2 -2.2 8.2 -5.6c0 -3.5 -3.4 -5.7 -8.2 -5.7c-4.8 0 -8.2 2.2 -8.2 5.7ZM140.8 1642.7h29.5v3.2H140.8v-3.2Zm3.7 -13.9v-3h22.1v8.7H148.4v2.8h18.9v3H144.5v-8.7h18.3v-2.8H144.5Zm.1 28.1V1648h3.9v5.7h18.9v3.2H144.6ZM174.8 1626.1h12.1v3.1h-3.6v.3c0 1.6 1.5 3.7 4.3 4.9c2.7 -1.2 4.2 -3.2 4.2 -4.9v-.3h-3.6v-3.1h12.1v3.1h-4.5v.4c0 2.3 1.9 4.7 5.8 5.6l-1.7 3c-3.1 -.9 -5.2 -2.8 -6.3 -5c-1 2 -3 3.7 -6 4.5c-3.1 -.8 -5.1 -2.5 -6.1 -4.5c-1.1 2.2 -3.2 4.1 -6.3 5l-1.6 -3c3.8 -1 5.8 -3.6 5.8 -5.6v-.4h-4.6v-3.1Zm-2 17.8v-3.1h12.8v-2.9h3.9v2.9h12.9v3.1H172.8Zm3.2 6.1v-3.1h22.7v10.6h-4V1650H176ZM223.9 1626.3c4.9 0 8.5 2.8 8.5 6.9c0 4 -3.6 6.8 -8.5 6.8c-4.9 0 -8.4 -2.8 -8.4 -6.8c0 -4.1 3.5 -6.9 8.4 -6.9Zm-10.6 16c5.9 0 14.1 -.1 21.1 -1.2l.2 3c-2.8 .5 -5.7 .8 -8.6 1.1v11.3h-3.9v-11.1c-3 .1 -5.8 .2 -8.3 .2l-.5 -3.3Zm5.9 -9.1c0 2.2 2 3.6 4.7 3.6c2.8 0 4.7 -1.4 4.7 -3.6c0 -2.3 -1.9 -3.7 -4.7 -3.7c-2.7 0 -4.7 1.4 -4.7 3.7Zm17.2 24.3v-32.6h3.9v32.6h-3.9ZM486.2 1624.9h4v32.7h-4v-17.8h-6.6v9.9H464.2v-22.2h4v8.1h7.6v-8.1h3.8v9.2h6.6v-11.8Zm-18 21.6h7.6v-7.8h-7.6v7.8ZM495.1 1642.7h29.4v3.2H495.1v-3.2Zm3.6 14.2v-9.1h3.9v5.9h18.9v3.2H498.7Zm.1 -16.6V1626H521v3.1H502.7v2.6h17.6v2.9H502.7v2.7h18.6v3H498.8ZM541.9 1625.4c7.3 0 11.6 2 11.6 5.6c0 3.6 -4.3 5.6 -11.6 5.6c-7.4 0 -11.7 -2 -11.7 -5.6c0 -3.6 4.3 -5.6 11.7 -5.6Zm-14.8 16.2v-3.1h29.5v3.1H527.1Zm3.5 5.2v-3h22.3v7.9H534.5v2.6h19.4v3H530.6V1649h18.5v-2.2H530.6Zm3.7 -15.8c0 1.8 2.6 2.7 7.6 2.7c4.9 0 7.6 -.9 7.6 -2.7c0 -1.8 -2.7 -2.7 -7.6 -2.7c-5 0 -7.6 .9 -7.6 2.7ZM571.4 1626.5h3.9v8.9h18.6v3.2H571.4v-12.1Zm-3.8 19.5v-3.1h29.5v3.1H584.2v11.6h-3.9V1646H567.6ZM599.7 1642.7h29.5v3.2H599.7v-3.2Zm3.7 -13.9v-3h22.1v8.7H607.3v2.8h18.9v3H603.4v-8.7h18.2v-2.8H603.4Zm0 28.1V1648h4v5.7h18.9v3.2H603.4ZM641.6 1628.4h11.3v-3.6h4v3.6h11.2v3.2H641.6v-3.2Zm-1.4 20.8V1646h29.5v3.2H656.9v8.4h-4v-8.4H640.2Zm3.8 -10.5c0 -3.6 4.1 -5.6 10.9 -5.6c6.9 0 10.9 2 10.9 5.6c0 3.5 -4 5.5 -10.9 5.5c-6.8 0 -10.9 -2 -10.9 -5.5Zm4.1 0c0 1.7 2.3 2.5 6.8 2.5c4.5 0 6.8 -.8 6.8 -2.5c0 -1.8 -2.3 -2.6 -6.8 -2.6c-4.5 0 -6.8 .8 -6.8 2.6ZM689.4 1627.3c4.9 0 8.4 4.4 8.4 11.5c0 7.1 -3.5 11.6 -8.4 11.6c-4.9 0 -8.4 -4.5 -8.4 -11.6c0 -7.1 3.5 -11.5 8.4 -11.5Zm-4.6 11.5c0 5 1.8 8 4.6 8c2.7 0 4.6 -3 4.6 -8c0 -5 -1.9 -7.9 -4.6 -7.9c-2.8 0 -4.6 2.9 -4.6 7.9Zm17.3 18.7v-32.6H706v12.6h5v3.3h-5v16.7h-3.9ZM735.6 1624.9h4v32.7h-4v-32.7Zm-21.9 13.9c0 -7.1 3.6 -11.5 8.5 -11.5c4.9 0 8.4 4.4 8.4 11.5c0 7.1 -3.5 11.6 -8.4 11.6c-4.9 0 -8.5 -4.5 -8.5 -11.6Zm3.9 0c0 5 1.8 8 4.6 8c2.7 0 4.6 -3 4.6 -8c0 -5 -1.9 -7.9 -4.6 -7.9c-2.8 0 -4.6 2.9 -4.6 7.9ZM768.9 1624.9h3.7v32.6h-3.7v-16.6h-3.3v15h-3.7v-30.4h3.7v12.2h3.3v-12.8Zm-24.5 21.7h3v-14.7H745v-3.1h15v3.1h-2.4v14.3l2.8 -.4l.2 2.9c-5 1 -11.7 1.2 -15.8 1.2l-.4 -3.3Zm6.5 -.1c1 0 2.1 -.1 3.1 -.1v-14.5h-3.1v14.6ZM780.4 1627.7h22.4v3.2H784.3v9.3h18.8v3.2H780.4v-15.7Zm-3.6 25.7v-3.3h29.5v3.3H776.8ZM818.5 1626.9c5.1 0 8.8 3.3 8.8 7.9c0 4 -2.8 7 -6.8 7.7v4.9c2.7 -.2 5.5 -.4 8 -.7l.3 2.9c-6.8 1.2 -14.2 1.2 -19.8 1.2l-.5 -3.2c2.4 0 5.2 0 8.1 -.1v-5c-4 -.7 -6.8 -3.7 -6.8 -7.7c0 -4.6 3.7 -7.9 8.7 -7.9Zm-4.9 7.9c0 2.7 2.1 4.5 4.9 4.5c2.9 0 4.9 -1.8 4.9 -4.5c0 -2.8 -2 -4.5 -4.9 -4.5c-2.8 0 -4.9 1.7 -4.9 4.5Zm16.7 22.7v-32.6h4V1638H839v3.2h-4.7v16.3h-4ZM866.9 1633h5.6v-8.1h3.9v19.5h-3.9v-8.1h-5.6V1633Zm-17.6 7.9c5.1 -1.8 7.9 -6 7.9 -10.4v-.4h-6.8v-3.2h17.5v3.2h-6.7v.4c0 4 2.6 8 7.6 9.7l-2 3.1c-3.6 -1.2 -6.1 -3.7 -7.5 -6.8c-1.5 3.4 -4.2 6.2 -8 7.5l-2 -3.1Zm5.1 8.2V1646h22v11.5h-3.9v-8.4H854.4ZM898.9 1631.9h5.6v-7h3.9v16.7h-3.9V1635h-5.6v-3.1Zm-17.6 7.2c5.1 -1.7 7.8 -5.7 7.8 -9.4v-.2h-6.7v-3.2h17.4v3.2h-6.7v.2c0 3.6 2.7 7.2 7.6 8.7l-1.8 3.1c-3.7 -1.1 -6.3 -3.5 -7.7 -6.4c-1.5 3.2 -4.2 5.9 -8 7.1l-1.9 -3.1Zm5.9 7v-3h21.2v8.3H891.1v2.7h18.4v3.1H887.2v-8.7h17.3v-2.4H887.2ZM935 1625h4v10.2h4.5v3.3H939v10.8h-4V1625Zm-21.5 6.7v-3.1h7.6v-3.7h4v3.7h7.6v3.1H913.5Zm1.7 7.6c0 -3.7 3.2 -6.2 7.9 -6.2c4.7 0 7.9 2.5 7.9 6.2c0 3.7 -3.2 6.2 -7.9 6.2c-4.7 0 -7.9 -2.5 -7.9 -6.2Zm3.1 17.6v-9.5h3.9v6.3h18.1v3.2h-22Zm.6 -17.6c0 2 1.7 3.2 4.2 3.2c2.4 0 4.1 -1.2 4.1 -3.2c0 -2 -1.7 -3.2 -4.1 -3.2c-2.5 0 -4.2 1.2 -4.2 3.2ZM977 1624.9h4v32.6h-4v-16.6h-6.8v-3.3H977v-12.7Zm-23.3 23.7c8.4 -4.2 12 -9.7 12.6 -17.1H955.2v-3.2h15.1c0 9.7 -3.4 17.8 -14.5 23.4l-2.1 -3.1ZM1009 1624.9h3.9v32.7H1009v-32.7Zm-21.2 6.1v-3.2H1003V1640H991.8v6.6c5.1 0 9.5 -.3 14.6 -1.1l.4 3.2c-5.6 1 -10.4 1.2 -16.2 1.2h-2.8v-13.1H999V1631H987.8ZM1018 1639.8h29.6v2.9H1018v-2.9Zm3.5 7.7v-2.8H1044v7.5h-18.6v2.2h19.5v2.8h-23.4v-7.6h18.6v-2.1h-18.6Zm.2 -19.1v-2.7h22.2v7.3h-18.2v2.1h18.8v2.8h-22.7v-7.5H1040v-2h-18.3ZM1062.4 1626.7h21.7v3.2h-17.7v6.8h18.1v3.2h-22.1v-13.2Zm-3.9 20.1v-3.3h29.6v3.3h-12.9v10.7h-3.9v-10.7h-12.8ZM1103.4 1636.2h4.6v-10.7h3.7V1656H1108v-16.6h-4.6v-3.2Zm-13.4 11.6c4.7 -2.7 6.8 -8.6 6.8 -14.2v-5.7h3.8v5.6c0 5.2 1.9 10.7 6.3 13.5l-2.2 3.1c-2.9 -1.8 -4.8 -4.9 -5.9 -8.5c-1.2 4 -3.3 7.3 -6.3 9.2l-2.5 -3Zm24.7 9.7v-32.6h3.8v32.6h-3.8ZM1122.6 1650.3h6.9V1642c-2.6 -1.5 -4.2 -3.8 -4.2 -6.7c0 -5.2 5.1 -8.6 12.1 -8.6c7 0 12 3.4 12 8.6c0 2.9 -1.5 5.2 -4.1 6.7v8.3h6.9v3.2h-29.6v-3.2Zm6.6 -15c0 3.4 3.3 5.5 8.2 5.5c4.8 0 8.2 -2.1 8.2 -5.5c0 -3.4 -3.4 -5.5 -8.2 -5.5c-4.9 0 -8.2 2.1 -8.2 5.5Zm4.2 15h8v-6.9c-1.3 .3 -2.6 .4 -4 .4c-1.5 0 -2.8 -.1 -4 -.4v6.9ZM1157.7 1650.9c1.3 0 2.2 .9 2.2 2.3c0 1.3 -.9 2.2 -2.2 2.2c-1.4 0 -2.3 -.9 -2.3 -2.2c0 -1.4 .9 -2.3 2.3 -2.3Z" class="g4_6"/>
<path d="M274.6 1624.6h5.1v12.1h4.6v4.2h-4.6v16.9h-5.1v-33.2Zm-19.7 25.3v-22.2h15.4v4.1H260v13.9c4.5 -.1 8.3 -.3 12.5 -1l.4 4.2c-4.9 .9 -9.5 1 -15.2 1h-2.8ZM293.6 1627.2h5.1v4.5c0 6.2 2.4 12.2 8.2 14.7l-3 4.2c-3.7 -1.7 -6.2 -4.9 -7.7 -8.7c-1.4 4.3 -4 7.7 -8 9.5l-3 -4.3c5.9 -2.5 8.4 -8.9 8.4 -15.4v-4.5Zm14.4 30.6v-33.2h5.2v33.2H308ZM348.6 1624.7h5.2v23.7h-5.2v-23.7Zm-22 10.5c0 -5 4 -8.5 9.1 -8.5c5.1 0 9.1 3.5 9.1 8.5c0 4.9 -4 8.5 -9.1 8.5c-5.1 0 -9.1 -3.6 -9.1 -8.5Zm5 22V1646h5.1v7.2h17.8v4H331.6Zm0 -22c0 2.5 1.8 4 4.1 4c2.2 0 4 -1.5 4 -4c0 -2.6 -1.8 -4 -4 -4c-2.3 0 -4.1 1.4 -4.1 4ZM365.7 1626.2H371v3.1c0 4 2.1 7.9 7.6 9.5l-2.5 4.1c-3.7 -1.2 -6.2 -3.4 -7.7 -6.2c-1.5 3 -4.1 5.5 -7.9 6.7l-2.5 -4.1c5.6 -1.7 7.7 -6 7.7 -10v-3.1Zm-2.6 23.6v-4h22.7v12h-5.2v-8H363.1Zm17.5 -5.4v-19.7h5.2v19.7h-5.2ZM411.2 1624.7h5.2v12.7H421v4.3h-4.6v16.1h-5.2v-33.1Zm-21.1 8.8v-4h7.1v-4.2h5.2v4.2h7v4H390.1Zm1.2 9.7c0 -4.7 3.6 -8 8.5 -8c4.8 0 8.5 3.3 8.5 8c0 4.6 -3.7 7.9 -8.5 7.9c-4.9 0 -8.5 -3.3 -8.5 -7.9Zm4.9 0c0 2.4 1.5 3.8 3.6 3.8c2.1 0 3.5 -1.4 3.5 -3.8c0 -2.5 -1.4 -3.8 -3.5 -3.8c-2.1 0 -3.6 1.3 -3.6 3.8ZM444.8 1624.7H450v33.1h-5.2v-33.1Zm-22.5 23.5c8.3 -4 11.8 -8.9 12.6 -16.1H424.1V1628h16c0 10.3 -3.2 18.6 -15.1 24.3l-2.7 -4.1Z" class="g5_6"/>
<path fill-rule="evenodd" d="M48.6 1792.8l9.7 2.6l5.8 -22.1c2.5 -9.6 -3 -19.3 -12.3 -21.9c-9.4 -2.5 -19 3.2 -21.5 12.7l-5.9 22.1l9.7 2.6l-1.9 7.4c-1.1 4.1 1.2 8.3 5.2 9.4c4 1.1 8.2 -1.4 9.2 -5.4l2 -7.4Zm6.1 -3.6l4.6 -17.3c1.8 -6.8 -2.2 -13.7 -8.8 -15.5c-6.7 -1.9 -13.6 2.2 -15.4 9l-4.5 17.2l9.6 2.6L37 1797.5c-.4 1.4 .4 2.8 1.7 3.2c1.4 .3 2.8 -.5 3.1 -1.9l3.3 -12.3l9.6 2.7Z" class="g5_6"/>
<image clip-path="url(#c0_6)" preserveAspectRatio="none" x="87" y="101" width="1100" height="1496" xlink:href="img/1.png"/>
<image clip-path="url(#c1_6)" preserveAspectRatio="none" x="179" y="154" width="916" height="1313" xlink:href="img/2.jpg"/>
</svg>