<?xml version="1.0" encoding="UTF-8" standalone="no"?>
<!DOCTYPE svg PUBLIC "-//W3C//DTD SVG 1.1//EN"
"http://www.w3.org/Graphics/SVG/1.1/DTD/svg11.dtd">
<svg viewBox="0 0 1274 1824" version="1.1" xmlns="http://www.w3.org/2000/svg" xmlns:xlink="http://www.w3.org/1999/xlink">
<defs>
<style type="text/css"><![CDATA[
.g0_1{
fill: #FFF;
}
.g1_1{
fill: #000;
fill-opacity: 0.02;
}
.g2_1{
fill: #2EA4AB;
fill-opacity: 0.01;
}
.g3_1{
fill: #2EA4AB;
}
.g4_1{
fill: #1C1F1F;
}
]]></style>
</defs>
<path d="M0 1824.2H1274.2V0H0V1824.2Z" class="g0_1"/>
<path d="M0 1824.2H1274.2V0H0V1824.2Z" class="g1_1"/>
<path d="M0 1824.2H1274.2V0H0V1824.2Z" class="g2_1"/>
<path fill-rule="evenodd" d="M654.8 872.4L697.5 884l26 -98.4c11.1 -42.3 -13.4 -85.7 -54.7 -96.9c-41.2 -11.3 -83.7 13.8 -94.9 56.1L548 843.3l42.7 11.6l-8.6 32.8c-4.8 18.1 5.7 36.7 23.4 41.6c17.7 4.8 35.9 -6 40.7 -24.1l8.6 -32.8Zm27.1 -16.1l20.2 -76.5c7.9 -30.2 -9.5 -61.2 -39 -69.3c-29.5 -8 -59.9 10 -67.8 40.2l-20.2 76.5l42.8 11.7l-14.4 54.6c-1.6 6.1 1.9 12.3 7.8 13.9c5.9 1.6 11.9 -2 13.5 -8l14.4 -54.7l42.7 11.6Z" class="g3_1"/>
<path d="M160.6 985.6h5.1v43.5h-5.1v-22.4H156V1027h-4.9V986.4H156v16.1h4.6V985.6Zm-30.7 32.3V990.3h16.9v27.6H129.9Zm4.9 -4.2h7.1V994.4h-7.1v19.3ZM194.6 996H202V985.6h5.3v25.2H202v-10.5h-7.4V996Zm-23.4 10.6c6.8 -2.4 10.5 -8.1 10.5 -13.9v-.5h-9V988h23.2v4.2H187v.5c0 5.3 3.5 10.7 10.2 13l-2.6 4.1c-4.9 -1.6 -8.2 -5 -10.2 -9.1c-1.9 4.6 -5.5 8.3 -10.6 10.1l-2.6 -4.2Zm7.4 21.9v-15.7h28.7v15.7H178.6Zm5.2 -4.1h18.3v-7.5H183.8v7.5ZM225.2 1019.5h17.1v-9h5.2v9h17.1v4.3H225.2v-4.3Zm1.7 -11.7c9.3 -1.2 15.1 -6.2 15.4 -11.7H228.8v-4.3h13.5v-5.6h5.2v5.6h13.6v4.3H247.6c.3 5.5 6 10.5 15.3 11.7L261 1012c-7.4 -1.1 -13.2 -4.5 -16.1 -9.3c-2.8 4.8 -8.6 8.2 -16 9.3l-2 -4.2ZM268 1019.5h17v-8.6H272.4V988.5h5.2v7.1h20.1v-7.1h5.2v22.4H290.2v8.6h17.1v4.3H268v-4.3Zm9.6 -12.8h20.1v-6.9H277.6v6.9ZM310.8 1003h39.3v4.2H310.8V1003Zm4.5 11.2v-4h29.8v11H320.6v3.4h25.7v4.1H315.4v-11.3h24.5v-3.2H315.3Zm.5 -14V986.7H345v4.2H321v5.2h24.4v4.1H315.8ZM373.1 986.3c9.7 0 15.5 2.6 15.5 7.4c0 4.8 -5.8 7.5 -15.5 7.5c-9.8 0 -15.6 -2.7 -15.6 -7.5c0 -4.8 5.8 -7.4 15.6 -7.4Zm-19.7 21.5v-4.2h39.3v4.2H353.4Zm4.6 6.9v-3.9h29.8v10.5H363.3v3.4h25.8v4h-31v-11h24.6v-3H358Zm5 -21c0 2.4 3.5 3.6 10.1 3.6c6.6 0 10.1 -1.2 10.1 -3.6c0 -2.3 -3.5 -3.6 -10.1 -3.6c-6.6 0 -10.1 1.3 -10.1 3.6ZM421.5 987.4c6.6 0 11.3 3.8 11.3 9.2c0 5.3 -4.7 9.1 -11.3 9.1c-6.5 0 -11.2 -3.8 -11.2 -9.1c0 -5.4 4.7 -9.2 11.2 -9.2Zm-14.1 21.4c7.8 0 18.7 -.1 28 -1.6l.4 3.9c-3.8 .7 -7.6 1.2 -11.5 1.5v15.1h-5.2v-14.8c-4 .2 -7.8 .2 -11 .2l-.7 -4.3Zm7.9 -12.2c0 3 2.6 4.8 6.2 4.8c3.7 0 6.3 -1.8 6.3 -4.8c0 -3 -2.6 -4.9 -6.3 -4.9c-3.6 0 -6.2 1.9 -6.2 4.9Zm22.9 32.5V985.6h5.2v43.5h-5.2ZM478.9 985.6h5.3v13.7h6v4.4h-6v14.4h-5.3V985.6Zm-28.7 9v-4.2h10.2v-4.8h5.3v4.8h10.1v4.2H450.2Zm2.3 10.2c0 -4.9 4.3 -8.3 10.5 -8.3c6.3 0 10.6 3.4 10.6 8.3c0 4.9 -4.3 8.3 -10.6 8.3c-6.2 0 -10.5 -3.4 -10.5 -8.3Zm4.1 23.4v-12.6h5.2v8.4h24.1v4.2H456.6Zm.9 -23.4c0 2.6 2.2 4.2 5.5 4.2c3.3 0 5.5 -1.6 5.5 -4.2c0 -2.7 -2.2 -4.3 -5.5 -4.3c-3.3 0 -5.5 1.6 -5.5 4.3ZM533.7 985.2h6.9v44.3h-6.9V985.2Zm-27.2 33.9v-30h21.4v5.5H513.3v18.8c7.6 0 12.3 -.3 17.5 -1.3l.5 5.7c-5.8 1.1 -11.3 1.3 -20.9 1.3h-3.9ZM548.7 989.1h21.4V1019H548.7V989.1Zm6.7 24.5h8V994.5h-8v19.1Zm21.1 15.9V985.2h6.9v44.3h-6.9ZM621.3 985.2h6.5v44.2h-6.5V985.2ZM588.9 1014h3.2V995.5h-2.5v-5.4h20.1v5.4h-2.6v17.9c1.1 -.1 2.2 -.2 3.2 -.4l.4 4.9c-6.9 1.5 -15.7 1.7 -21.1 1.7l-.7 -5.6Zm9.3 -.1c.9 0 1.8 -.1 2.8 -.1V995.5h-2.8v18.4Zm10.4 -6.7v-6h3.9V986.1h6.3v41.3h-6.3v-20.2h-3.9ZM661.9 985.2h6.9v44.3h-6.9V985.2ZM633.2 1004c0 -9.7 5 -15.8 11.7 -15.8c6.8 0 11.7 6.1 11.7 15.8c0 9.8 -4.9 16 -11.7 16c-6.7 0 -11.7 -6.2 -11.7 -16Zm6.6 0c0 6.5 2 9.7 5.1 9.7c3 0 5.1 -3.2 5.1 -9.7c0 -6.3 -2.1 -9.6 -5.1 -9.6c-3.1 0 -5.1 3.3 -5.1 9.6ZM709.7 1002.7l-9 22.9h-4.9l-9.7 -22.9h4.5l7.6 18.4l7 -18.4h4.5ZM713.1 1021.7c4.5 -4.4 10.2 -7.8 10.2 -11.3c0 -2.2 -1.5 -3.8 -3.4 -3.8c-1.7 0 -3.3 1.1 -4 2.7l-3.6 -1.6c1.4 -2.9 4.5 -5 7.6 -5c4.4 0 7.5 3.2 7.5 7.7c0 4.6 -4.3 8.2 -8.2 11.3h8.5v3.6H713.4l-.3 -3.6ZM765.5 989.4c0 13.8 -3.4 25.3 -20.2 33.7l-3.5 -5.3c7 -3.5 11.3 -7.4 13.9 -12.1l-12.7 1.2l-.8 -5.8l15.6 -.8c.4 -1.8 .7 -3.6 .9 -5.5H744.5v-5.4h21Zm6.1 40V985.2h6.8v44.2h-6.8ZM804.3 987.3c9.4 0 16.6 4.9 16.6 12.3c0 6.6 -5.5 11.1 -13.2 12.1v7.1h16.6v5.6H784.4v-5.6h16.4v-7.1c-7.7 -1 -13.1 -5.5 -13.1 -12.1c0 -7.4 7.1 -12.3 16.6 -12.3Zm-9.8 12.3c0 4.4 3.9 6.9 9.8 6.9c5.8 0 9.8 -2.5 9.8 -6.9c0 -4.3 -4 -6.9 -9.8 -6.9c-5.9 0 -9.8 2.6 -9.8 6.9ZM843.2 987.6h7.3v3.2c0 6.2 4.8 13.1 15.3 14.8l-2.9 5.8c-7.9 -1.6 -13.3 -5.7 -16.1 -11.1c-2.9 5.4 -8.2 9.6 -16.1 11.1l-2.8 -5.8c10.4 -1.7 15.3 -8.8 15.3 -14.8v-3.2Zm-16.1 36.5v-5.6H867v5.6H827.1ZM874.2 988.9h31.7v5c0 6.5 0 12.6 -2.1 22.4l-6.8 -.6c.8 -3.6 1.3 -6.7 1.7 -9.6l-25 1.2l-.8 -5.4l26.1 -.8c.1 -2.3 .1 -4.5 .1 -6.7H874.2v-5.5Zm-4.4 35.5v-5.6h39.9v5.6H869.8ZM934.2 989.1h5.3v7c0 7.7 3.8 15.6 10.4 18.9l-3.2 4.2c-4.6 -2.4 -8 -7.1 -9.8 -12.6c-1.9 5.9 -5.5 10.9 -10.4 13.4l-3.2 -4.3c6.9 -3.3 10.9 -11.6 10.9 -19.6v-7Zm18.4 40V985.6h5.2v17.1h6.7v4.4h-6.7v22h-5.2ZM966.8 1006.6H976V1001c-3.3 -1.4 -5.1 -3.6 -5.1 -6.5c0 -5.1 6 -8.2 15.5 -8.2c9.5 0 15.6 3.1 15.6 8.2c0 2.9 -1.9 5.1 -5.2 6.5v5.6h9.2v4.1H966.8v-4.1Zm4.6 14.6c0 -5 5.6 -7.8 15 -7.8c9.3 0 14.9 2.8 14.9 7.8c0 5 -5.6 7.9 -14.9 7.9c-9.4 0 -15 -2.9 -15 -7.9Zm4.9 -26.7c0 2.7 3.8 4.2 10.1 4.2c6.4 0 10.2 -1.5 10.2 -4.2c0 -2.7 -3.8 -4.2 -10.2 -4.2c-6.3 0 -10.1 1.5 -10.1 4.2Zm.4 26.7c0 2.6 3.4 3.8 9.7 3.8c6.2 0 9.6 -1.2 9.6 -3.8c0 -2.5 -3.4 -3.8 -9.6 -3.8c-6.3 0 -9.7 1.3 -9.7 3.8Zm4.5 -14.6h10.4v-4.2c-1.6 .3 -3.3 .3 -5.2 .3c-1.9 0 -3.6 0 -5.2 -.3v4.2ZM1049.3 985.5h5.3v17.1h6.4v4.4h-6.4v22h-5.3V985.5Zm-28.7 31.7c10.5 -5.4 16.2 -12.8 17.2 -22.8h-14.9v-4.3h20.3c0 12.8 -5.3 23.9 -19.6 31.1l-3 -4ZM1094.1 985.5h5.2v43.6h-5.2V985.5Zm-29.2 18.6c0 -9.4 4.7 -15.4 11.2 -15.4c6.6 0 11.3 6 11.3 15.4c0 9.4 -4.7 15.4 -11.3 15.4c-6.5 0 -11.2 -6 -11.2 -15.4Zm5.1 0c0 6.7 2.5 10.6 6.1 10.6c3.7 0 6.2 -3.9 6.2 -10.6c0 -6.7 -2.5 -10.6 -6.2 -10.6c-3.6 0 -6.1 3.9 -6.1 10.6ZM1111 989.3h29.9v4.3h-24.7V1006h25.1v4.2H1111V989.3Zm-4.8 34.2v-4.3h39.4v4.3h-39.4Z" class="g4_1"/>
<path d="M350.3 1121.8c-1.3 0 -3.5 -.6 -5 -2.8v2.6h-3.2v-22.5h3.2v9.3c1.5 -2.3 3.7 -2.8 5 -2.8c4.5 0 7.6 3.4 7.6 8.1c0 4.7 -3.1 8.1 -7.6 8.1Zm-5 -8.1c0 3 2.2 5.5 4.8 5.5c2.8 0 4.6 -2.2 4.6 -5.5c0 -3.2 -1.8 -5.4 -4.6 -5.4c-2.6 0 -4.8 2.4 -4.8 5.4ZM365.6 1128.1h-3.4l3.2 -7.6l-6.6 -14.9h3.5l4.7 11.3l4.5 -11.3H375l-6.1 14.5l-3.3 8ZM398.6 1098.1c0 7.3 -4.6 12.2 -12.8 14.3l-1.4 -2.9c6.1 -1.6 9.6 -4.6 10.1 -8.4h-8.6v-3h12.7Zm-9.7 25.5V1113h18v10.6h-18Zm3.7 -2.9h10.6V1116H392.6v4.7Zm10.5 -8.9v-15.3h3.8v15.3h-3.8ZM426.4 1102.6H430v-6.1h3.8V1114H430v-2.9h-3.7v-3H430v-2.5h-3.6v-3ZM411 1102v-2.9h5.8v-2.8h3.8v2.8h5.5v2.9H411Zm1.3 6.2c0 -3.1 2.7 -5.1 6.4 -5.1c3.7 0 6.4 2 6.4 5.1c0 3 -2.7 5.1 -6.4 5.1c-3.7 0 -6.4 -2.1 -6.4 -5.1Zm2.9 11c0 -3 3.6 -4.8 9.4 -4.8c5.7 0 9.3 1.8 9.3 4.8c0 3 -3.6 4.8 -9.3 4.8c-5.8 0 -9.4 -1.8 -9.4 -4.8Zm.6 -11c0 1.5 1.2 2.3 2.9 2.3c1.7 0 2.9 -.8 2.9 -2.3c0 -1.5 -1.2 -2.3 -2.9 -2.3c-1.7 0 -2.9 .8 -2.9 2.3Zm3.4 11c0 1.2 1.9 1.9 5.4 1.9c3.4 0 5.3 -.7 5.3 -1.9c0 -1.4 -1.9 -2 -5.3 -2c-3.5 0 -5.4 .6 -5.4 2ZM451.6 1101.7h5.1v-5.1h3.8v16.2h-3.8v-8h-5.1v-3.1Zm-14.1 7.7c4.5 -1.5 6.5 -5.1 6.5 -8.8V1098h3.8v2.8c0 3.4 1.9 6.8 6.2 8.2l-2 3c-2.9 -1 -5 -3 -6.1 -5.5c-1.2 2.7 -3.3 4.8 -6.4 5.9l-2 -3Zm4.4 7.7v-3h18.6v9.9h-3.8v-6.9H441.9ZM472.8 1105.7h3.1v15.9h-3.1v-15.9Zm-.3 -5.2c0 -1 .8 -1.8 1.8 -1.8c1.1 0 1.8 .8 1.8 1.8c0 1.1 -.7 1.8 -1.8 1.8c-1 0 -1.8 -.7 -1.8 -1.8ZM491.2 1112.7c0 -2.6 -1.5 -4.4 -3.8 -4.4c-2.4 0 -4.2 1.9 -4.2 4.4v8.9H480v-16h3.2v2.7c1 -1.5 2.9 -2.6 4.6 -2.6c3.1 0 6.6 2 6.6 6.9v9h-3.2v-8.9ZM512.9 1118.5c4.7 0 7.8 -3.2 7.8 -8.1c0 -5 -3.1 -8.2 -7.8 -8.2H509v16.3h3.9Zm-7.6 3.2V1099H513c6.7 0 11.3 4.7 11.3 11.4c0 6.7 -4.6 11.3 -11.3 11.3h-7.7ZM527.7 1099h3.7v22.7h-3.7V1099ZM547.7 1117.8l-8.4 -12.6v16.5h-3.7V1099h4.1l8 12.7l8 -12.7h4.1v22.7h-3.7v-16.5l-8.4 12.6ZM564.1 1099h3.7v22.7h-3.7V1099ZM581.4 1110.9c2.4 0 4 -1.7 4 -4.3c0 -2.7 -1.6 -4.4 -4 -4.4h-5.7v8.7h5.7Zm-9.4 10.8V1099h9.5c4.4 0 7.5 3.1 7.5 7.6c0 4.4 -3.1 7.5 -7.5 7.5h-5.8v7.6H572ZM601.6 1099l9.3 22.7H607l-2.5 -6H594.4l-2.5 6h-4l9.5 -22.7h4.2Zm-5.9 13.5h7.5l-3.7 -9l-3.8 9ZM630.9 1099l-9 13.8v8.9h-3.7v-8.9l-9 -13.8h4.4l6.5 10.4l6.4 -10.4h4.4ZM660.9 1099l-9 9.9l9.1 12.8h-4.5l-7.1 -10l-4.1 4.6v5.4h-3.6V1099h3.6v11.7L655.9 1099h5ZM664.8 1105.7h3.6v16h-3.6v-16Zm-.2 -5.2c0 -1.1 .8 -2 2 -2c1.2 0 2 .9 2 2c0 1.2 -.8 2 -2 2c-1.2 0 -2 -.8 -2 -2ZM679.7 1118.8c2.6 0 4.2 -2 4.2 -5.1c0 -3.1 -1.6 -5.2 -4.2 -5.2c-2.5 0 -4.2 2.1 -4.2 5.2c0 3.1 1.7 5.1 4.2 5.1Zm-7.8 -5.1c0 -4.8 3.2 -8.2 7.8 -8.2c4.6 0 7.9 3.4 7.9 8.2c0 4.8 -3.3 8.1 -7.9 8.1c-4.6 0 -7.8 -3.3 -7.8 -8.1ZM692.3 1117c.9 1.2 2.4 1.9 3.6 1.9c1.6 0 2.7 -.7 2.7 -2c.1 -2.2 -8.4 -1.6 -8.3 -6.8c.1 -2.9 2.6 -4.8 6.1 -4.7c1.8 0 4 1 5.3 2.6l-2.5 2c-.7 -1 -2 -1.6 -2.9 -1.6c-1.4 0 -2.3 .6 -2.3 1.7c0 2.3 8.4 1.6 8.3 6.9c0 3 -2.7 5 -6.5 4.9c-2.1 0 -4.5 -1.1 -6 -2.9l2.5 -2ZM709 1099v13.2l5.8 -6.7h4.9l-6.3 7.2l6.1 9h-4.4l-4.4 -6.3l-1.7 2.1v4.2h-3.7V1099H709ZM737.7 1118.5c4.6 0 7.7 -3.2 7.7 -8.1c0 -5 -3.1 -8.2 -7.7 -8.2h-4v16.3h4Zm-7.7 3.2V1099h7.7c6.7 0 11.4 4.7 11.4 11.4c0 6.7 -4.7 11.3 -11.4 11.3H730ZM763 1112.3c-.3 -1.8 -1.5 -3.8 -4.1 -3.8c-2.3 0 -4 1.7 -4.4 3.8H763Zm-11.9 1.4c0 -4.8 3.2 -8.2 7.8 -8.2c5 0 6.6 4.2 6.7 4.4c1 2.2 .7 4.7 .7 5.1H754.5c.4 2.2 2.3 3.8 4.4 3.8c2.9 0 3.8 -1.7 3.8 -1.8l3 1.2c0 0 -1.5 3.6 -6.8 3.6c-4.6 0 -7.8 -3.3 -7.8 -8.1ZM784.1 1105.5l-6.9 16.2H774l-6.9 -16.2h4l4.5 11.6l4.5 -11.6h4ZM796.6 1112.3c-.3 -1.8 -1.5 -3.8 -4.1 -3.8c-2.3 0 -4 1.7 -4.4 3.8h8.5Zm-11.9 1.4c0 -4.8 3.2 -8.2 7.8 -8.2c5.1 0 6.7 4.2 6.7 4.4c1 2.2 .7 4.7 .7 5.1H788.1c.4 2.2 2.4 3.8 4.4 3.8c2.9 0 3.8 -1.7 3.9 -1.8l2.9 1.2c0 0 -1.5 3.6 -6.8 3.6c-4.6 0 -7.8 -3.3 -7.8 -8.1ZM802.6 1099h3.7v22.7h-3.7V1099ZM816.6 1118.8c2.6 0 4.2 -2 4.2 -5.1c0 -3.1 -1.6 -5.2 -4.2 -5.2c-2.5 0 -4.2 2.1 -4.2 5.2c0 3.1 1.7 5.1 4.2 5.1Zm-7.8 -5.1c0 -4.8 3.2 -8.2 7.8 -8.2c4.6 0 7.9 3.4 7.9 8.2c0 4.8 -3.3 8.1 -7.9 8.1c-4.6 0 -7.8 -3.3 -7.8 -8.1ZM835.6 1118.8c2.6 0 4.3 -2 4.3 -5.2c0 -3.1 -1.7 -5.1 -4.3 -5.1c-2.5 0 -4.5 2.3 -4.5 5.1c0 2.9 2 5.2 4.5 5.2Zm-8.2 9.6v-22.9h3.7v2.5c1.3 -1.9 3.7 -2.5 4.8 -2.5c4.5 0 7.7 3.4 7.7 8.1c0 4.8 -3.2 8.2 -7.7 8.2c-1.1 0 -3.5 -.5 -4.8 -2.5v9.1h-3.7ZM870.4 1099v3.2h-6.6v19.5h-3.7v-19.5h-6.6V1099h16.9ZM881.8 1112.3c-.3 -1.8 -1.5 -3.8 -4.1 -3.8c-2.2 0 -4 1.7 -4.4 3.8h8.5Zm-11.9 1.4c0 -4.8 3.2 -8.2 7.8 -8.2c5.1 0 6.7 4.2 6.8 4.4c.9 2.2 .6 4.7 .6 5.1H873.3c.4 2.2 2.4 3.8 4.4 3.8c2.9 0 3.8 -1.7 3.9 -1.8l3 1.2c0 0 -1.5 3.6 -6.9 3.6c-4.6 0 -7.8 -3.3 -7.8 -8.1ZM895.7 1118.9c2.4 0 4.4 -2.2 4.5 -5.2c-.1 -2.9 -2.1 -5.1 -4.5 -5.1c-2.6 0 -4.3 2 -4.3 5.1c0 3.1 1.7 5.2 4.3 5.2Zm-8 -5.2c0 -4.8 3.2 -8.1 7.7 -8.1c1.7 0 3.5 .8 4.8 2.5v-2.6h3.6v16.2h-3.6v-2.4c-1.3 1.8 -3.1 2.5 -4.8 2.5c-4.5 0 -7.7 -3.3 -7.7 -8.1ZM928.5 1112.8c0 -2.5 -1.3 -4.2 -3.2 -4.2c-2.1 0 -3.6 1.9 -3.6 4.1v9h-3.6v-8.9c0 -2.5 -1.3 -4.2 -3.2 -4.2c-2.1 0 -3.6 1.9 -3.6 4.3v8.8h-3.7v-16.2h3.7v2.8c.9 -1.6 2.4 -2.7 4.1 -2.7c2 0 4 1.3 4.8 3.2c1.1 -1.9 3.4 -3.2 5.4 -3.2c4 0 6.6 2.9 6.6 7.1v9h-3.7v-8.9Z" class="g4_1"/>
</svg>