<?xml version="1.0" encoding="UTF-8" standalone="no"?>
<!DOCTYPE svg PUBLIC "-//W3C//DTD SVG 1.1//EN"
"http://www.w3.org/Graphics/SVG/1.1/DTD/svg11.dtd">
<svg viewBox="0 0 1274 1824" version="1.1" xmlns="http://www.w3.org/2000/svg" xmlns:xlink="http://www.w3.org/1999/xlink">
<defs>
<clipPath id="c0_10"><path d="M86.8 1596.9V100.5H1187.4V1596.9Z"/></clipPath>
<clipPath id="c1_10"><path d="M203.2 1466.7c-13.5 0 -24.4 -11 -24.4 -24.5V178.8c0 -13.6 10.9 -24.5 24.4 -24.5H1071c13.5 0 24.4 10.9 24.4 24.5V1442.2c0 13.5 -10.9 24.5 -24.4 24.5Z"/></clipPath>
<style type="text/css"><![CDATA[
.g0_10{
fill: #FFF;
}
.g1_10{
fill: #000;
fill-opacity: 0.02;
}
.g2_10{
fill: #2EA4AB;
fill-opacity: 0.01;
}
.g3_10{
fill: #1C1F1F;
}
.g4_10{
fill: #2EA4AB;
}
]]></style>
</defs>
<path d="M0 1824.2H1274.2V0H0V1824.2Z" class="g0_10"/>
<path d="M0 1824.2H1274.2V0H0V1824.2Z" class="g1_10"/>
<path d="M0 1824.2H1274.2V0H0V1824.2Z" class="g2_10"/>
<path d="M466.4 1569.9h3.9v16.4h-3.9v-6.4h-5.8c-.8 3.5 -4.1 5.9 -8.4 5.9c-4.9 0 -8.5 -3.1 -8.5 -7.4c0 -4.4 3.6 -7.5 8.5 -7.5c4.3 0 7.6 2.4 8.3 5.8h5.9v-6.8Zm-19 8.5c0 2.6 2.1 4.2 4.8 4.2c2.8 0 4.7 -1.6 4.7 -4.2c0 -2.6 -1.9 -4.3 -4.7 -4.3c-2.7 0 -4.8 1.7 -4.8 4.3ZM449 1591v-3.1h21.3v8.4H453v2.7h18.4v3.1H449.1v-8.7h17.3V1591H449ZM479 1571.2h22.2v2.2c0 2.1 0 4.7 -.6 8h4.2v3.1H492v3.5h9.2v8.4H482.7v2.7h19.4v3.2H478.8v-8.6h18.5v-2.6H478.7V1588h9.4v-3.5H475.3v-3.1h21.3c.6 -2.9 .7 -5.2 .7 -7.1H479v-3.1ZM538.8 1570h3.9v23.5h-3.9V1570Zm-22.4 10.3c0 -4.8 3.8 -8.2 8.7 -8.2c4.9 0 8.7 3.4 8.7 8.2c0 4.7 -3.8 8.1 -8.7 8.1c-4.9 0 -8.7 -3.4 -8.7 -8.1Zm3.8 0c0 2.8 2.1 4.7 4.9 4.7c2.7 0 4.9 -1.9 4.9 -4.7c0 -3 -2.2 -4.8 -4.9 -4.8c-2.8 0 -4.9 1.8 -4.9 4.8Zm1.2 21.6v-10.7h3.9v7.5h18.3v3.2H521.4ZM555.8 1571.4h4v3.2c0 4.3 2.8 8.4 7.9 10l-2 3.1c-3.7 -1.2 -6.4 -3.8 -7.8 -7c-1.5 3.5 -4.2 6.3 -8.1 7.6l-1.9 -3.2c5.2 -1.7 7.9 -6.1 7.9 -10.5v-3.2Zm-3.1 22.7V1591h22v11.5h-3.9v-8.4H552.7Zm18.1 -4.7v-19.5h3.9v19.5h-3.9ZM604 1569.9h3.8v32.6H604v-32.6ZM580.2 1584c0 -7.2 2.8 -11.6 7 -11.6c3.9 0 6.6 3.7 7 9.8h3.2v-11.7h3.7V1601h-3.7v-15.6h-3.2c-.3 6.4 -3 10.3 -7 10.3c-4.2 0 -7 -4.5 -7 -11.7Zm3.6 0c0 5.1 1.3 8 3.4 8c2.2 0 3.4 -2.9 3.4 -8c0 -5.1 -1.2 -7.9 -3.4 -7.9c-2.1 0 -3.4 2.8 -3.4 7.9ZM628.2 1571.7h4v2.9c0 4.5 2.6 8.5 7.6 10.2l-2.1 3.1c-3.5 -1.3 -6 -3.7 -7.4 -6.8c-1.4 3.6 -4.1 6.3 -8 7.7l-2.1 -3.1c5.3 -1.8 8 -6.2 8 -10.9v-3.1Zm-2.7 24.5c0 -3.9 4.2 -6.2 11.1 -6.2c6.8 0 11 2.3 11 6.2c0 4 -4.2 6.3 -11 6.3c-6.9 0 -11.1 -2.3 -11.1 -6.3Zm4 0c0 2.1 2.5 3.2 7.1 3.2c4.5 0 7 -1.1 7 -3.2c0 -2 -2.5 -3.1 -7 -3.1c-4.6 0 -7.1 1.1 -7.1 3.1Zm7.5 -16.7v-3.2h6.5v-6.4h3.9v19.2h-3.9v-9.6H637ZM667 1590.3c7 0 11.5 2.4 11.5 6.1c0 3.8 -4.5 6.1 -11.5 6.1c-7 0 -11.4 -2.3 -11.4 -6.1c0 -3.7 4.4 -6.1 11.4 -6.1Zm-14.5 -2.4v-3.1h11.4v-6h3.9v6h14.1v3.1H652.5Zm3.4 -13.3v-3.1h22.4v2.7c0 2.6 0 5.3 -.9 8.7l-3.9 -.4c.8 -3.2 .9 -5.5 .9 -7.9H655.9Zm3.6 21.8c0 2 2.8 3.1 7.5 3.1c4.8 0 7.6 -1.1 7.6 -3.1c0 -1.9 -2.8 -3 -7.6 -3c-4.7 0 -7.5 1.1 -7.5 3ZM714.4 1569.9h3.9v13h5v3.3h-5v16.3h-3.9v-32.6Zm-21.6 8.2v-3.2h7.6v-4.5h4v4.5h7.5v3.2H692.8Zm1.5 9.8c0 -4.4 3.5 -7.6 8.1 -7.6c4.7 0 8.1 3.2 8.1 7.6c0 4.5 -3.4 7.7 -8.1 7.7c-4.6 0 -8.1 -3.2 -8.1 -7.7Zm3.8 0c0 2.7 1.8 4.5 4.3 4.5c2.5 0 4.4 -1.8 4.4 -4.5c0 -2.7 -1.9 -4.4 -4.4 -4.4c-2.5 0 -4.3 1.7 -4.3 4.4ZM733 1589.4h3.8v1.8c0 2.7 1.2 5.6 4 7.4c2.9 -1.9 4.1 -5 4.1 -7.4v-1.8h3.9v1.8c0 3.4 2 6.7 6.3 8.1l-2 2.8c-3.1 -1.1 -5.2 -3.2 -6.3 -5.8c-1 2.6 -2.9 4.9 -5.9 6.1c-3 -1.1 -4.9 -3.3 -6 -5.9c-1.1 2.5 -3.2 4.5 -6.2 5.6l-2 -2.8c4.2 -1.5 6.3 -5 6.3 -8.1v-1.8Zm-7.5 -10c0 -4.6 3.6 -7.8 8.5 -7.8c2.6 0 4.8 1 6.4 2.5h7.7v-4.2h4v18.4h-4v-3.8h-7.6c-1.5 1.7 -3.9 2.7 -6.5 2.7c-4.9 0 -8.5 -3.3 -8.5 -7.8Zm3.7 0c0 2.7 2 4.5 4.8 4.5c2.7 0 4.7 -1.8 4.7 -4.5c0 -2.8 -2 -4.5 -4.7 -4.5c-2.8 0 -4.8 1.7 -4.8 4.5Zm12.9 -2.1c.2 .6 .3 1.3 .3 2.1c0 .7 0 1.3 -.2 1.9h5.9v-4h-6ZM778.5 1569.9h3.9v12.4h5v3.3h-5v17h-3.9v-32.7Zm-20.1 24.7V1573h15.2v3.2H762.3v15.1c5.2 0 9.1 -.2 13.5 -1.1l.5 3.3c-5 1 -9.4 1.1 -15.3 1.1h-2.6ZM790.5 1572.6h15.2v2.7h6.5V1570h3.9v23.7h-3.9v-8.2h-6.5v2.8H790.5v-15.7Zm3.9 12.5h7.4v-9.3h-7.4v9.3Zm.5 16.8v-10.4h3.9v7.2h18.1v3.2h-22Zm10.8 -19.6h6.5v-3.8h-6.5v3.8ZM826.5 1596.2l-2.5 8.4h-2.8l1.4 -8.4h3.9ZM352.9 1626.9c5 0 8.7 3.3 8.7 7.9c0 4 -2.8 7 -6.8 7.7v4.9c2.7 -.2 5.5 -.4 8 -.7l.3 2.9c-6.8 1.2 -14.2 1.2 -19.7 1.2l-.6 -3.2c2.4 0 5.2 0 8.1 -.1v-5c-4 -.7 -6.8 -3.7 -6.8 -7.7c0 -4.6 3.7 -7.9 8.8 -7.9Zm-5 7.9c0 2.7 2.1 4.5 5 4.5c2.8 0 4.8 -1.8 4.8 -4.5c0 -2.8 -2 -4.5 -4.8 -4.5c-2.9 0 -5 1.7 -5 4.5Zm16.8 22.7v-32.6h3.9V1638h4.7v3.2h-4.7v16.3h-3.9ZM744 1624.9h3.9v32.7H744v-32.7Zm-21.9 13.9c0 -7.1 3.5 -11.5 8.4 -11.5c4.9 0 8.4 4.4 8.4 11.5c0 7.1 -3.5 11.6 -8.4 11.6c-4.9 0 -8.4 -4.5 -8.4 -11.6Zm3.8 0c0 5 1.9 8 4.6 8c2.8 0 4.7 -3 4.7 -8c0 -5 -1.9 -7.9 -4.7 -7.9c-2.7 0 -4.6 2.9 -4.6 7.9ZM761.5 1643.4h29.6v3.2H778.2v11h-3.9v-11H761.5v-3.2Zm3.1 -10c0 -4.4 4.7 -7.2 11.6 -7.2c6.9 0 11.6 2.8 11.6 7.2c0 4.4 -4.7 7.2 -11.6 7.2c-6.9 0 -11.6 -2.8 -11.6 -7.2Zm4.1 0c0 2.6 2.9 4.1 7.5 4.1c4.6 0 7.6 -1.5 7.6 -4.1c0 -2.6 -3 -4.1 -7.6 -4.1c-4.6 0 -7.5 1.5 -7.5 4.1ZM810.3 1632.1h6.4V1625h4v24.1h-4v-13.7h-6.4v-3.3Zm-16.8 9.7c5.1 -1.8 7.8 -6.4 7.8 -11.2v-3.7h4v3.8c0 4.3 2.6 8.6 7.5 10.4l-2 3c-3.5 -1.4 -6 -3.9 -7.4 -7.1c-1.4 3.6 -4 6.4 -7.9 7.9l-2 -3.1Zm5.9 15.1v-10.3h3.9v7.1h18.1v3.2h-22ZM843.2 1633h5.5v-8.1h4v19.5h-4v-8.1h-5.5V1633Zm-17.6 7.9c5.1 -1.8 7.9 -6 7.9 -10.4v-.4h-6.8v-3.2h17.5v3.2h-6.7v.4c0 4 2.6 8 7.6 9.7l-2 3.1c-3.6 -1.2 -6.1 -3.7 -7.6 -6.8c-1.4 3.4 -4.1 6.2 -7.9 7.5l-2 -3.1Zm5.1 8.2V1646h22v11.5h-4v-8.4h-18ZM872.4 1626.7c6.9 0 12.1 3.7 12.1 9.3c0 5.5 -5.2 9.2 -12.1 9.2c-6.8 0 -12 -3.7 -12 -9.2c0 -5.6 5.2 -9.3 12 -9.3Zm-14.7 26.7v-3.3h29.5v3.3H857.7Zm6.5 -17.4c0 3.6 3.5 5.9 8.2 5.9c4.8 0 8.2 -2.3 8.2 -5.9c0 -3.7 -3.4 -6.1 -8.2 -6.1c-4.7 0 -8.2 2.4 -8.2 6.1ZM889.7 1650.5h12.8v-5.4h-9.2v-10.6h18.6v-4.2H893.2v-3.2h22.6v10.5H897.2v4.3h19.3v3.2H906.4v5.4h12.9v3.2H889.7v-3.2ZM930.3 1640.1h29.5v3.2H930.3v-3.2Zm3.4 11.5c0 -3.8 4.2 -6 11.2 -6c7 0 11.3 2.2 11.3 6c0 3.8 -4.3 5.9 -11.3 5.9c-7 0 -11.2 -2.1 -11.2 -5.9Zm.2 -14.1V1626h22.3v3.2H937.8v5.1h18.5v3.2H933.9Zm3.7 14.1c0 1.9 2.6 2.9 7.3 2.9c4.7 0 7.3 -1 7.3 -2.9c0 -1.9 -2.6 -3 -7.3 -3c-4.7 0 -7.3 1.1 -7.3 3ZM963.1 1627.2h17.5v3.2h-6.7v.4c0 4 2.5 7.8 7.6 9.3l-1.9 3.1c-3.6 -1.1 -6.2 -3.5 -7.6 -6.4c-1.4 3.4 -4.1 6.2 -8 7.5l-2 -3.1c5.2 -1.8 7.9 -6 7.9 -10.4v-.4h-6.8v-3.2Zm3.3 24.1c0 -3.9 4.2 -6.2 10.8 -6.2c6.8 0 10.9 2.3 10.9 6.2c0 3.9 -4.1 6.2 -10.9 6.2c-6.6 0 -10.8 -2.3 -10.8 -6.2Zm3.8 0c0 2 2.6 3.1 7 3.1c4.5 0 7 -1.1 7 -3.1c0 -2 -2.5 -3.1 -7 -3.1c-4.4 0 -7 1.1 -7 3.1Zm13.6 -6.9v-19.5h4v7.9h4.5v3.2h-4.5v8.4h-4ZM1015.9 1624.9h4v8.1h4.5v3.2h-4.5v7.8h-4v-19.1Zm-21.5 6.2V1628h7.6v-3.4h4v3.4h7.6v3.1H994.4Zm1.7 6.9c0 -3.5 3.2 -5.8 7.9 -5.8c4.7 0 7.9 2.3 7.9 5.8c0 3.5 -3.2 5.7 -7.9 5.7c-4.7 0 -7.9 -2.2 -7.9 -5.7Zm2.9 19.1v-11.8h3.8v2.9h13.1v-2.9h4v11.8H999Zm.8 -19.1c0 1.8 1.7 2.8 4.2 2.8c2.5 0 4.1 -1 4.1 -2.8c0 -1.8 -1.6 -2.8 -4.1 -2.8c-2.5 0 -4.2 1 -4.2 2.8Zm3 16h13.1v-2.8h-13.1v2.8ZM1049.4 1624.9h4v32.6h-4v-32.6Zm-21.2 24.4V1628h4v18c4.5 -.1 9.3 -.5 14.3 -1.5l.5 3.3c-5.6 1.1 -10.9 1.5 -15.9 1.5h-2.9ZM1079.8 1624.9h4v12.4h5v3.3h-5v17h-4v-32.7Zm-20 24.7V1628H1075v3.2h-11.3v15.1c5.2 0 9.1 -.2 13.5 -1.1l.4 3.3c-4.9 1 -9.3 1.1 -15.2 1.1h-2.6ZM1093.4 1650.9c1.4 0 2.3 .9 2.3 2.3c0 1.3 -.9 2.2 -2.3 2.2c-1.3 0 -2.2 -.9 -2.2 -2.2c0 -1.4 .9 -2.3 2.2 -2.3Z" class="g3_10"/>
<path d="M181.6 1627.2h5.1v4.5c0 5.9 2 12 7.5 14.6l-3.1 4.1c-3.4 -1.7 -5.6 -4.7 -6.9 -8.5c-1.5 4.1 -3.9 7.4 -7.6 9.2l-3.1 -4.2c5.8 -2.7 8.1 -9 8.1 -15.2v-4.5Zm13.6 30.6v-33.1h5.1v12.6H205v4.2h-4.7v16.3h-5.1ZM206.3 1640.2h6.6v-3.8c-2.4 -1.1 -3.7 -2.8 -3.7 -4.9c0 -3.9 4.7 -6.4 12.1 -6.4c7.3 0 12.1 2.5 12.1 6.4c0 2.2 -1.4 3.9 -3.8 5v3.7h6.6v4H206.3v-4Zm3.4 11.6c0 -3.9 4.3 -6.1 11.5 -6.1c7.2 0 11.5 2.2 11.5 6.1c0 3.8 -4.3 6 -11.5 6c-7.2 0 -11.5 -2.2 -11.5 -6Zm4.8 -20.3c0 1.7 2.4 2.6 6.8 2.6c4.3 0 6.8 -.9 6.8 -2.6c0 -1.7 -2.5 -2.5 -6.8 -2.5c-4.4 0 -6.8 .8 -6.8 2.5Zm.4 20.3c0 1.5 2 2.2 6.3 2.2c4.3 0 6.3 -.7 6.3 -2.2c0 -1.5 -2 -2.2 -6.3 -2.2c-4.3 0 -6.3 .7 -6.3 2.2Zm3.1 -11.6h6.4v-2.4c-1 .1 -2 .1 -3.1 .1c-1.2 0 -2.3 -.1 -3.3 -.2v2.5ZM238.9 1627.8h18.3v4.2h-6.4v1.4c0 4.9 2.3 10.8 7.9 13.3l-2.8 4.1c-3.7 -1.7 -6.2 -4.9 -7.6 -8.6c-1.5 4.1 -4 7.6 -7.8 9.4l-2.9 -4.1c5.6 -2.6 8 -8.8 8 -14.1V1632h-6.7v-4.2Zm20.4 30v-33.1h5.1v12.4h4.7v4.2h-4.7v16.5h-5.1ZM296.8 1632.5h4.7v-7.8h5.2v19.6h-5.2v-7.6h-4.7v-4.2Zm-18.2 7.9c5.2 -1.8 7.4 -5.9 7.7 -9.8H280v-4h17.8v4h-6.2c.2 3.6 2.3 7.3 7.3 9l-2.5 4c-3.6 -1.2 -6 -3.5 -7.4 -6.3c-1.4 3.2 -4 5.8 -7.8 7.1l-2.6 -4Zm5.3 11c0 -4 4.4 -6.4 11.5 -6.4c7 0 11.4 2.4 11.4 6.4c0 4.1 -4.4 6.4 -11.4 6.4c-7.1 0 -11.5 -2.3 -11.5 -6.4Zm5.2 0c0 1.8 2.1 2.6 6.3 2.6c4.1 0 6.2 -.8 6.2 -2.6c0 -1.7 -2.1 -2.5 -6.2 -2.5c-4.2 0 -6.3 .8 -6.3 2.5ZM310.9 1649.9h12.4V1644H314v-17.3h5.1v4.9h13.6v-4.9h5V1644h-9.3v5.9h12.5v4.1h-30v-4.1Zm8.2 -10h13.6v-4.3H319.1v4.3ZM384.4 1627.7h16v22.1h-16v-22.1Zm5.1 18h5.9v-14h-5.9v14Zm14.9 12.1v-33.1h5.1V1637h4.7v4.2h-4.7v16.6h-5.1ZM416.5 1627.8h18.6v4.2h-6.6v1.4c0 5.3 2.4 11 8 13.3l-2.8 4.1c-3.8 -1.6 -6.3 -4.8 -7.7 -8.6c-1.5 4.2 -4.1 7.7 -8 9.4l-2.9 -4.1c5.8 -2.5 8.1 -8.6 8.1 -14.1V1632h-6.7v-4.2Zm21.4 30v-33.1H443v33.1h-5.1ZM448.5 1627h15.8v15.6H448.5V1627Zm3 22.8v-4.1h22.2v12.1h-5.1v-8H451.5Zm2 -11.2h5.8V1631h-5.8v7.6Zm15.1 5.7v-19.6h5.1v7.7H478v4.2h-4.3v7.7h-5.1ZM494.6 1626.2c7 0 12.4 3.9 12.4 9.6c0 5.9 -5.4 9.7 -12.4 9.7c-7 0 -12.5 -3.8 -12.5 -9.7c0 -5.7 5.5 -9.6 12.5 -9.6Zm-15 27.7v-4.2h30v4.2h-30Zm7.6 -18.1c0 3.5 3 5.5 7.4 5.5c4.4 0 7.4 -2 7.4 -5.5c0 -3.4 -3 -5.5 -7.4 -5.5c-4.4 0 -7.4 2.1 -7.4 5.5ZM511.7 1650H524v-4.6h-8.9V1634h18.2v-3.2H515v-4.1h23.3V1638H520.2v3.3h18.9v4.1h-9.9v4.6h12.4v4.2H511.7V1650ZM574.8 1624.7h5.1v16.5h-5.1V1639h-7.1v-3.9h7.1v-2.6h-6.7c-2.1 4.9 -6.7 7.9 -13.9 9.5l-1.7 -4.1c7.4 -1.5 10.5 -4.4 11 -8h-9.1v-4.1h14.9c0 1 -.1 2 -.2 2.9h5.7v-4Zm-16.9 21.7v-4h22v9.3H563.1v1.7h17.4v4H558v-9.5h16.8v-1.5H557.9ZM607.8 1624.7h4.8v33.1h-4.8v-33.1Zm-24.3 23.2c4.8 -3.1 6.3 -9 6.3 -14.5V1632h-5.1v-4.1h14.7v4.1h-4.6v1.4c0 5.4 1.5 11 6.3 13.8l-3 3.7c-2.8 -1.7 -4.6 -4.4 -5.7 -7.8c-1.1 3.7 -3 6.8 -5.9 8.6l-3 -3.8Zm13.6 -7.9v-4.2h4v-10.7h4.8v31.2h-4.8V1640h-4ZM637.2 1624.7h5.2v9.9h4.3v4.2h-4.3v10.6h-5.2v-24.7Zm-21 7.3v-4h7.2v-3.4h5.1v3.4h7.2v4H616.2Zm1.6 7.5c0 -3.8 3.4 -6.4 8.2 -6.4c4.8 0 8.2 2.6 8.2 6.4c0 3.8 -3.4 6.4 -8.2 6.4c-4.8 0 -8.2 -2.6 -8.2 -6.4Zm3.1 17.7v-9.7H626v5.7h17.5v4H620.9Zm1.8 -17.7c0 1.7 1.3 2.5 3.3 2.5c1.9 0 3.2 -.8 3.2 -2.5c0 -1.7 -1.3 -2.6 -3.2 -2.6c-2 0 -3.3 .9 -3.3 2.6ZM669 1625.6h5.5v1.5c0 3.7 3.3 8.1 11.2 9.2l-1.9 4.1c-5.9 -.9 -9.9 -3.6 -12 -7c-2.2 3.5 -6.2 6.1 -12.1 7l-1.9 -4.1c7.9 -1.1 11.2 -5.5 11.2 -9.2v-1.5Zm-12.2 21.1v-4.2h29.9v4.2H674.2v11.1h-5.1v-11.1H656.8ZM709.8 1624.7h5.1v8.8h4.4v4.2h-4.4v10.9h-5.1v-23.9ZM690 1643.3v-16.1h14.8v4.1h-9.7v7.8c5.8 0 8.9 -.2 12.3 -.9l.5 4c-3.9 .9 -7.6 1.1 -15.1 1.1H690Zm3.4 13.9V1646h5.2v7.2h17.5v4H693.4Z" class="g4_10"/>
<path fill-rule="evenodd" d="M48.6 1792.8l9.7 2.6l5.8 -22.1c2.5 -9.6 -3 -19.3 -12.3 -21.9c-9.4 -2.5 -19 3.2 -21.5 12.7l-5.9 22.1l9.7 2.6l-1.9 7.4c-1.1 4.1 1.2 8.3 5.2 9.4c4 1.1 8.2 -1.4 9.2 -5.4l2 -7.4Zm6.1 -3.6l4.6 -17.3c1.8 -6.8 -2.2 -13.7 -8.8 -15.5c-6.7 -1.9 -13.6 2.2 -15.4 9l-4.5 17.2l9.6 2.6L37 1797.5c-.4 1.4 .4 2.8 1.7 3.2c1.4 .3 2.8 -.5 3.1 -1.9l3.3 -12.3l9.6 2.7Z" class="g4_10"/>
<image clip-path="url(#c0_10)" preserveAspectRatio="none" x="87" y="101" width="1100" height="1496" xlink:href="img/1.png"/>
<image clip-path="url(#c1_10)" preserveAspectRatio="none" x="179" y="154" width="916" height="1313" xlink:href="img/2.jpg"/>
</svg>