<?xml version="1.0" encoding="UTF-8" standalone="no"?>
<!DOCTYPE svg PUBLIC "-//W3C//DTD SVG 1.1//EN"
"http://www.w3.org/Graphics/SVG/1.1/DTD/svg11.dtd">
<svg viewBox="0 0 1274 1824" version="1.1" xmlns="http://www.w3.org/2000/svg" xmlns:xlink="http://www.w3.org/1999/xlink">
<defs>
<style type="text/css"><![CDATA[
.g0_16{
fill: #FFF;
}
.g1_16{
fill: #000;
fill-opacity: 0.02;
}
.g2_16{
fill: #2EA4AB;
fill-opacity: 0.01;
}
.g3_16{
fill: #1C1F1F;
}
.g4_16{
fill: #2EA4AB;
}
]]></style>
</defs>
<path d="M0 1824.2H1274.2V0H0V1824.2Z" class="g0_16"/>
<path d="M0 1824.2H1274.2V0H0V1824.2Z" class="g1_16"/>
<path d="M0 1824.2H1274.2V0H0V1824.2Z" class="g2_16"/>
<path d="M140.3 160.4h6.1v43.8h-6.1V160.4Zm-30.2 31.5c11.3 -5.3 16.2 -12.3 17.1 -22.1H112.4v-4.9h21c0 13.4 -4.6 24.3 -20.1 31.8l-3.2 -4.8ZM154.5 164.1h20.6V169H160.6v7.3h13.8V181H160.6v8.3c6.2 0 11.4 -.2 17.1 -1.1l.6 4.8c-6.6 1.1 -12.6 1.3 -20.2 1.3h-3.6V164.1Zm26.4 40.1V160.4H187v16.8h6.4v4.9H187v22.1h-6.1ZM216.7 163.9h6v6.4c0 7.9 3.3 15.9 10.3 19.3l-3.7 4.8c-4.6 -2.4 -7.8 -6.7 -9.6 -12c-1.9 5.7 -5.3 10.4 -10.2 12.8l-3.7 -4.9c7.3 -3.4 10.9 -11.8 10.9 -20v-6.4Zm18.2 40.3V160.4h6v17h6.5v5h-6.5v21.8h-6ZM277.8 160.4h6.1v11.3h5.9v4.9h-5.9v11.6h-6.1V160.4Zm-28.3 9v-4.8h9.8v-4.5h6.1v4.5h9.9v4.8H249.5Zm2.1 9.3c0 -4.6 4.4 -7.8 10.8 -7.8c6.3 0 10.7 3.2 10.7 7.8c0 4.8 -4.4 7.9 -10.7 7.9c-6.4 0 -10.8 -3.1 -10.8 -7.9Zm3.4 17.8c0 -4.9 5.7 -7.8 14.7 -7.8c9 0 14.7 2.9 14.7 7.8c0 4.9 -5.7 7.7 -14.7 7.7c-9 0 -14.7 -2.8 -14.7 -7.7Zm2.5 -17.8c0 2.2 1.9 3.5 4.9 3.5c2.9 0 4.9 -1.3 4.9 -3.5c0 -2.2 -2 -3.3 -4.9 -3.3c-3 0 -4.9 1.1 -4.9 3.3Zm3.6 17.8c0 2.1 3 3.2 8.6 3.2c5.7 0 8.7 -1.1 8.7 -3.2c0 -2.2 -3 -3.3 -8.7 -3.3c-5.6 0 -8.6 1.1 -8.6 3.3ZM141.3 280.5h3.9v16.4h-3.9v-2.8h-7.8v-3h7.8v-3.3h-7.4c-2 5 -6.8 8.3 -14 9.9l-1.3 -3.2c7.6 -1.6 11.5 -5.1 12 -9.5H120.4v-3.1H135c0 1 -.1 2 -.3 2.9h6.6v-4.3Zm-17.4 20.9v-3.1h21.3v8.5H127.9v2.8h18.2v3.1H124v-8.8h17.3v-2.5H123.9ZM174.3 280.5H178v32.6h-3.7V280.5Zm-24.6 23.4c4.6 -2.9 6.6 -8.8 6.6 -14.5v-2.2h-5.6V284h14.7v3.2h-5.2v2.2c0 5.5 2 11.1 6.6 13.7l-2.4 2.9c-3 -1.8 -5 -4.9 -6.1 -8.6c-1.1 4 -3.2 7.5 -6.3 9.4l-2.3 -2.9Zm13.4 -8.8v-3.2h4.6V281.1h3.7v30.4h-3.7V295.1h-4.6ZM206.4 280.5h3.7v32.6h-3.7V280.5Zm-23.8 14.1c0 -7.2 2.7 -11.7 7 -11.7c3.9 0 6.5 3.7 6.9 9.9h3.3V281.1h3.7v30.4h-3.7V295.9h-3.2c-.4 6.4 -3 10.3 -7 10.3c-4.3 0 -7 -4.4 -7 -11.6Zm3.6 0c0 5.1 1.2 7.9 3.4 7.9c2.2 0 3.4 -2.8 3.4 -7.9c0 -5.1 -1.2 -7.9 -3.4 -7.9c-2.2 0 -3.4 2.8 -3.4 7.9ZM245.7 280.5h3.9v16.6h-3.9V280.5Zm-22.9 13.4c5.2 -1.6 8 -5.8 8 -10.2v-2.4h4v2.4c0 4.2 2.7 8.1 7.8 9.7l-1.9 3.1c-3.7 -1.2 -6.4 -3.7 -7.9 -6.8c-1.5 3.4 -4.2 6.1 -8.1 7.4l-1.9 -3.2Zm5.4 7.8v-3h21.4v8.4H232.1v2.6h18.5v3.1H228.3v-8.6h17.5v-2.5H228.2ZM278.9 280.5h3.8v32.6h-3.8V296.5h-3.2v15h-3.8V281.1h3.8v12.2h3.2V280.5Zm-24.5 21.6h3V287.5h-2.3v-3.2H270v3.2h-2.4v14.2l2.8 -.3l.3 2.8c-5 1.1 -11.7 1.2 -15.8 1.2l-.5 -3.3Zm6.6 0c1 -.1 2.1 -.1 3.1 -.2V287.5H261v14.6ZM310.8 280.5h3.7v20.1h-3.7v-8.3h-3.2v7.9h-3.7V281h3.7v8.1h3.2v-8.6ZM286.7 287v-3.1h6.2v-3.2h3.8v3.2h6.1V287H286.7Zm1.1 6.9c0 -3.4 2.9 -5.7 7 -5.7c4.1 0 7 2.3 7 5.7c0 3.3 -2.9 5.6 -7 5.6c-4.1 0 -7 -2.3 -7 -5.6Zm1 15.9c4.1 -1.3 6.2 -4.5 6.2 -7.3v-.9h3.8v.9c0 2.5 1.3 5.1 4 6.8c2.8 -1.8 4.1 -4.6 4.1 -6.8v-.9h3.9v.9c0 3.1 2.1 6.1 6.3 7.3l-1.9 2.9c-3.2 -1.1 -5.3 -3 -6.4 -5.5c-1 2.5 -2.9 4.7 -5.9 5.8c-3 -1.1 -4.9 -3.2 -6 -5.6c-1.1 2.3 -3.2 4.2 -6.3 5.3l-1.8 -2.9Zm2.5 -15.9c0 1.7 1.5 2.7 3.5 2.7c2.1 0 3.5 -1 3.5 -2.7c0 -1.8 -1.4 -2.8 -3.5 -2.8c-2 0 -3.5 1 -3.5 2.8ZM333.6 281c7.3 0 11.7 2 11.7 5.6c0 3.6 -4.4 5.6 -11.7 5.6c-7.3 0 -11.6 -2 -11.6 -5.6c0 -3.6 4.3 -5.6 11.6 -5.6Zm-14.7 16.1V294h29.4v3.1H318.9Zm3.5 5.2v-2.9h22.3v7.9H326.3v2.5h19.3v3H322.4v-8.3h18.4v-2.2H322.4Zm3.7 -15.7c0 1.8 2.6 2.7 7.5 2.7c5 0 7.6 -.9 7.6 -2.7c0 -1.8 -2.6 -2.7 -7.6 -2.7c-4.9 0 -7.5 .9 -7.5 2.7ZM374.8 292.8h7.7v-3.7h-7.4c-2 5.2 -6.8 8.9 -13.9 10.9l-1.5 -3.1c7.7 -2.1 11.7 -6 12.3 -11H361.5v-3.1h14.8c0 1.1 -.1 2.2 -.3 3.2h6.5v-5.5h4v19.1h-4v-3.7h-7.7v-3.1Zm-10 13.6c0 -4 4.3 -6.5 11 -6.5c6.6 0 10.8 2.5 10.8 6.5c0 4 -4.2 6.5 -10.8 6.5c-6.7 0 -11 -2.5 -11 -6.5Zm4 0c0 2.2 2.6 3.4 7 3.4c4.3 0 7 -1.2 7 -3.4c0 -2.2 -2.7 -3.4 -7 -3.4c-4.4 0 -7 1.2 -7 3.4ZM391.5 298.9H421v3.2H408.1v11h-3.9v-11H391.5v-3.2Zm3 -10c0 -4.4 4.7 -7.2 11.6 -7.2c6.9 0 11.6 2.8 11.6 7.2c0 4.4 -4.7 7.3 -11.6 7.3c-6.9 0 -11.6 -2.9 -11.6 -7.3Zm4.1 0c0 2.6 2.9 4.2 7.5 4.2c4.6 0 7.6 -1.6 7.6 -4.2c0 -2.5 -3 -4.1 -7.6 -4.1c-4.6 0 -7.5 1.6 -7.5 4.1ZM455 280.5h4v16.4h-4v-2.8h-7.7v-3H455v-3.3h-7.3c-2 5 -6.8 8.3 -14 9.9l-1.3 -3.2c7.6 -1.6 11.5 -5.1 12 -9.5H434.2v-3.1h14.5c0 1 0 2 -.2 2.9H455v-4.3Zm-17.3 20.9v-3.1H459v8.5H441.7v2.8h18.2v3.1H437.8v-8.8H455v-2.5H437.7ZM488 280.5h3.8v32.6H488V280.5Zm-24.6 23.4c4.7 -2.9 6.7 -8.8 6.7 -14.5v-2.2h-5.6V284h14.7v3.2H474v2.2c0 5.5 1.9 11.1 6.5 13.7l-2.3 2.9c-3 -1.8 -5 -4.9 -6.1 -8.6c-1.1 4 -3.2 7.5 -6.3 9.4l-2.4 -2.9Zm13.4 -8.8v-3.2h4.7V281.1h3.7v30.4h-3.7V295.1h-4.7ZM517.2 281.5h4.1v1.7c0 4.1 4.7 8.3 11.5 9.2l-1.6 3.2c-5.4 -.9 -9.8 -3.6 -11.9 -7.3c-2.1 3.7 -6.5 6.4 -12 7.3l-1.5 -3.2c6.8 -.9 11.4 -5 11.4 -9.2v-1.7Zm-12.7 20.2v-3.2H534v3.2H521.1v11.4h-3.9V301.7H504.5ZM558.1 280.5h4v9.2h4.5v3.2h-4.5v11.2h-4V280.5Zm-20.2 18.1V283.1h14.5v3.2H541.9v9c6.1 0 9.5 -.2 13.3 -1l.4 3.2c-4.2 .8 -7.9 1.1 -15 1.1h-2.7Zm3.5 13.8V301.6h3.9v7.7h18v3.1H541.4ZM569.8 283.3h15.3v15.4H569.8V283.3Zm3.6 29.1V302h4v7.3h18v3.1h-22Zm.2 -16.8h7.6v-9.2h-7.6v9.2Zm16.6 8.7V280.5h3.9v9.6h4.5v3.2h-4.5v11h-3.9ZM630.5 280.5h4v12.4h4.9v3.3h-4.9v16.9h-4V280.5Zm-20.2 24.9V283.1h3.8v8.2h7.8v-8.2h3.9v22.3H610.3Zm3.8 -3.2h7.8v-7.8h-7.8v7.8ZM641.1 295.9h7.7c1.2 -4.4 1.4 -7.7 1.4 -10.1h-6.7v-3.2h10.6v1.7c0 2.4 0 6.2 -1.3 11.6h9.5c1 -4.4 1.1 -7.7 1.2 -10.1h-7.1v-3.2h11v1.9c0 2.5 0 6.3 -1.1 11.4h4.3v3.2H657.7v14h-3.9v-14H641.1v-3.2ZM676.3 283.4h23.2v3.2c0 4.1 0 8.6 -1.2 15.4l-4 -.4c1.3 -6.4 1.3 -11 1.3 -15H676.3v-3.2Zm-3.1 25.5v-3.3h10.9V294.2H688v11.4h14.7v3.3H673.2ZM736.8 280.5h3.9v16.4h-3.9v-2.8H729v-3h7.8v-3.3h-7.4c-2 5 -6.8 8.3 -14 9.9l-1.3 -3.2c7.6 -1.6 11.5 -5.1 12 -9.5H715.9v-3.1h14.6c0 1 -.1 2 -.3 2.9h6.6v-4.3Zm-17.4 20.9v-3.1h21.3v8.5H723.4v2.8h18.2v3.1H719.5v-8.8h17.3v-2.5H719.4ZM769.8 280.5h3.8v32.6h-3.8V280.5Zm-24.6 23.4c4.6 -2.9 6.7 -8.8 6.7 -14.5v-2.2h-5.7V284h14.7v3.2h-5.2v2.2c0 5.5 2 11.1 6.6 13.7l-2.4 2.9c-3 -1.8 -5 -4.9 -6.1 -8.6c-1.1 4 -3.2 7.5 -6.3 9.4l-2.3 -2.9Zm13.4 -8.8v-3.2h4.7V281.1h3.6v30.4h-3.6V295.1h-4.7ZM799.2 280.5h3.9v13h5v3.3h-5v16.3h-3.9V280.5Zm-21.6 8.1v-3.1h7.7V281h4v4.5h7.4v3.1H777.6Zm1.5 9.9c0 -4.5 3.5 -7.6 8.2 -7.6c4.7 0 8.1 3.1 8.1 7.6c0 4.5 -3.4 7.6 -8.1 7.6c-4.7 0 -8.2 -3.1 -8.2 -7.6Zm3.8 0c0 2.7 1.8 4.4 4.4 4.4c2.5 0 4.3 -1.7 4.3 -4.4c0 -2.7 -1.8 -4.4 -4.3 -4.4c-2.6 0 -4.4 1.7 -4.4 4.4ZM832.8 280.5h4v32.6h-4V280.5ZM810 304.2c8.5 -4.1 12.4 -9.7 13.1 -17.2H811.7v-3.1h15.4c0 9.7 -3.7 18 -15 23.4L810 304.2ZM873.5 280.4h4v32.7h-4V295.4h-6.6v9.8H851.5V283h4v8.1H863V283h3.9v9.2h6.6V280.4Zm-18 21.6H863v-7.7h-7.5V302ZM882.4 298.3h29.4v3.1H882.4v-3.1Zm3.6 14.2v-9.1h3.9v5.9h18.9v3.2H886Zm.1 -16.7V281.6h22.2v3H890v2.6h17.6v3H890v2.7h18.6v2.9H886.1ZM929.2 281c7.3 0 11.6 2 11.6 5.6c0 3.6 -4.3 5.6 -11.6 5.6c-7.4 0 -11.7 -2 -11.7 -5.6c0 -3.6 4.3 -5.6 11.7 -5.6Zm-14.8 16.1V294h29.5v3.1H914.4Zm3.5 5.2v-2.9h22.3v7.9H921.8v2.5h19.3v3H917.9v-8.3h18.4v-2.2H917.9Zm3.7 -15.7c0 1.8 2.6 2.7 7.6 2.7c4.9 0 7.5 -.9 7.5 -2.7c0 -1.8 -2.6 -2.7 -7.5 -2.7c-5 0 -7.6 .9 -7.6 2.7ZM958.7 282h3.9v9h18.6v3.2H958.7V282Zm-3.8 19.6v-3.2h29.5v3.2H971.5v11.5h-3.9V301.6H954.9ZM987 306h29.5v3.2H987V306Zm3.4 -20.1v-3.2H1013v10.5H994.4v4.4h19.4v3.2H990.5V290.1h18.6v-4.2H990.4ZM1020.4 283.2h15.2v2.7h6.5v-5.4h4v23.7h-4V296h-6.5v2.8h-15.2V283.2Zm3.9 12.5h7.4v-9.4h-7.4v9.4Zm.5 16.7V302h3.9v7.3h18.1v3.1h-22Zm10.8 -19.5h6.5V289h-6.5v3.9ZM1082.5 280.5h4v18.9h-4V280.5Zm-22.9 15.2c2.5 0 5.6 0 8.6 -.1v-3h-5.8V282h15.5v3.2h-11.6v4.3h11.9v3.1h-6v2.8c2.7 -.1 5.5 -.4 8 -.7l.3 2.7c-7 1.3 -14.7 1.4 -20.4 1.4l-.5 -3.1Zm5.1 17v-12h3.9v2.8h14v-2.8h3.9v12h-21.8Zm3.9 -3.1h14v-3.1h-14v3.1ZM1114.6 280.5h3.9v32.6h-3.9V280.5Zm-21.2 24.4V283.6h3.9v17.9c4.6 -.1 9.4 -.4 14.4 -1.4l.5 3.3c-5.6 1.1 -11 1.5 -16 1.5h-2.8ZM1145 280.4h4v12.5h4.9v3.2H1149v17h-4V280.4Zm-20 24.8V283.6h15.1v3.1h-11.2v15.2c5.2 -.1 9.1 -.3 13.5 -1.1l.4 3.3c-4.9 .9 -9.3 1.1 -15.2 1.1H1125ZM1158.6 306.5c1.3 0 2.3 .9 2.3 2.2c0 1.4 -1 2.3 -2.3 2.3c-1.3 0 -2.3 -.9 -2.3 -2.3c0 -1.3 1 -2.2 2.3 -2.2ZM132.7 335.5h3.9v24h-3.9v-24Zm-22.4 16.2H114V341.5h-2.9v-3.2h17.5v3.2h-2.8v9.7c1.4 -.1 2.9 -.2 4.2 -.4l.3 3c-6.5 1 -14 1.1 -19.6 1.1l-.4 -3.2Zm4.8 15.7V357.3h4v7h18.3v3.1H115.1Zm2.7 -15.8c1.4 0 2.8 0 4.2 -.1v-10h-4.2v10.1ZM173.4 335.5h3.9v24.1h-3.9V347.5h-6.6v6.8H151.7V337.6h3.9v5.3h7.3v-5.3h3.9v6.7h6.6v-8.8Zm-17.8 15.6h7.3V346h-7.3v5.1Zm.4 16.3V357.2h3.9v7.1H178v3.1H156ZM183.6 339.8H195v-3.9h3.9v3.9h11.4V343H183.6v-3.2Zm-1.3 24.7v-3.2H195v-4.1c-5.5 -.4 -8.9 -2.6 -8.9 -6.2c0 -4 4.2 -6.3 10.9 -6.3c6.6 0 10.8 2.3 10.8 6.3c0 3.6 -3.4 5.8 -8.9 6.2v4.1h12.9v3.2H182.3ZM190.1 351c0 2.1 2.5 3.2 6.9 3.2c4.3 0 6.8 -1.1 6.8 -3.2c0 -2.1 -2.5 -3.2 -6.8 -3.2c-4.4 0 -6.9 1.1 -6.9 3.2ZM245.7 335.5h3.9V353h-3.9V335.5Zm-22.4 9c0 -4.4 3.7 -7.6 8.7 -7.6c5 0 8.7 3.2 8.7 7.6c0 4.5 -3.7 7.6 -8.7 7.6c-5 0 -8.7 -3.1 -8.7 -7.6Zm3.9 0c0 2.7 2 4.4 4.8 4.4c2.9 0 4.9 -1.7 4.9 -4.4c0 -2.6 -2 -4.3 -4.9 -4.3c-2.8 0 -4.8 1.7 -4.8 4.3Zm1.1 23.2V354.5h3.9v3.4h13.6v-3.4h3.8v13.2H228.3Zm3.9 -3.2h13.6V361H232.2v3.5ZM256 337.4h14.2v9.8H260v4.1c5.3 -.1 8.2 -.2 11.7 -.8l.4 3.1c-3.9 .7 -7.2 .8 -13.6 .8h-2.4V344.2h10.3v-3.7H256v-3.1Zm3.8 22.9v-3.2h22.1v11h-4v-7.8H259.8Zm12.4 -10.2V347h5.7v-3.7h-5.7v-3.2h5.7v-4.6h4v20.1h-4v-5.5h-5.7ZM309.8 335.4h3.9v32.7h-3.9V335.4Zm-21.9 13.9c0 -7 3.5 -11.5 8.4 -11.5c4.9 0 8.5 4.5 8.5 11.5c0 7.1 -3.6 11.6 -8.5 11.6c-4.9 0 -8.4 -4.5 -8.4 -11.6Zm3.8 0c0 5.1 1.9 8 4.6 8c2.8 0 4.7 -2.9 4.7 -8c0 -5 -1.9 -7.9 -4.7 -7.9c-2.7 0 -4.6 2.9 -4.6 7.9ZM327.4 360.9h6.8v-8.4c-2.6 -1.5 -4.1 -3.8 -4.1 -6.6c0 -5.3 5 -8.7 12 -8.7c7 0 12 3.4 12 8.7c0 2.8 -1.5 5.1 -4 6.6v8.4h6.8v3.2H327.4v-3.2Zm6.5 -15c0 3.4 3.4 5.5 8.2 5.5c4.8 0 8.2 -2.1 8.2 -5.5c0 -3.5 -3.4 -5.5 -8.2 -5.5c-4.8 0 -8.2 2 -8.2 5.5Zm4.2 15h8V354c-1.3 .2 -2.6 .4 -4 .4c-1.4 0 -2.8 -.2 -4 -.4v6.9ZM363 337.5h22.3v2.9c0 3 0 6.4 -.9 11h4.5v3.3H376v13.4h-3.9V354.7H359.4v-3.3h21c.9 -4.4 1 -7.8 1 -10.8H363v-3.1ZM393.8 338.4h16.7v3.2H397.7V349h13v3.2h-6.6V358c2.8 -.2 5.7 -.3 8.4 -.6l.3 2.8c-7.1 1.1 -14.6 1.2 -20.8 1.2l-.4 -3.2c2.6 0 5.6 0 8.5 -.1v-5.9h-6.3V338.4Zm20.6 29.7V335.4h3.9v32.7h-3.9ZM424.5 338.7h18.3V342h-7.2v2.8c0 5.4 3.2 11 8.4 13.2l-2.2 3.1c-3.8 -1.7 -6.6 -5.2 -8.1 -9.3c-1.5 4.5 -4.3 8.3 -8.1 10.1l-2.3 -3.1c5.1 -2.4 8.3 -8.5 8.3 -14V342h-7.1v-3.3Zm21.9 29.4V335.5h3.9v32.6h-3.9ZM472.9 337.2c5 0 8.7 3.1 8.7 7.5c0 4.5 -3.7 7.6 -8.7 7.6c-4.8 0 -8.5 -3.1 -8.5 -7.6c0 -4.4 3.7 -7.5 8.5 -7.5Zm-5.8 30V354.9h3.8V364c1.9 -.1 3.8 -.4 5.7 -1l.6 3.1c-2.9 1 -5.6 1.1 -8.4 1.1h-1.7Zm1.1 -22.5c0 2.7 2.1 4.4 4.7 4.4c2.8 0 4.8 -1.7 4.8 -4.4c0 -2.6 -2 -4.3 -4.8 -4.3c-2.6 0 -4.7 1.7 -4.7 4.3Zm7.9 13.2v-2.8h6.2v-2.6h3.8v2.6h6.3v2.8H476.1Zm1.9 5.6c0 -2.8 2.6 -4.6 6.2 -4.6c3.6 0 6.2 1.8 6.2 4.6c0 2.8 -2.6 4.6 -6.2 4.6c-3.6 0 -6.2 -1.8 -6.2 -4.6Zm3.6 0c0 1.2 1.1 1.9 2.6 1.9c1.6 0 2.7 -.7 2.7 -1.9c0 -1.2 -1.1 -1.9 -2.7 -1.9c-1.5 0 -2.6 .7 -2.6 1.9Zm4 -11.9V335.5h3.9v7H494v3.2h-4.5v5.9h-3.9ZM499.6 355h3.9v3.2h14.3V355h3.9v12.7H499.6V355ZM496 353.1V350h29.5v3.1H496Zm1.6 -8c6.7 -.9 11.2 -4.4 11.2 -8.1v-1.2h4V337c0 3.6 4.5 7.3 11.1 8.1l-1.3 3c-5.4 -.7 -9.7 -3.1 -11.8 -6.4c-2.1 3.3 -6.4 5.7 -11.8 6.4l-1.4 -3Zm5.9 19.5h14.3v-3.4H503.5v3.4ZM551.2 335.5h3.9v32.6h-3.9V335.5Zm-21.3 24.4V338.6h4v17.9c4.5 -.1 9.3 -.4 14.4 -1.4l.4 3.3c-5.6 1.1 -10.9 1.5 -15.9 1.5h-2.9ZM581.6 335.4h3.9v12.5h5v3.2h-5v17h-3.9V335.4Zm-20.1 24.8V338.6h15.2v3.1H565.4v15.2c5.2 -.1 9.1 -.3 13.5 -1.1l.5 3.3c-5 .9 -9.4 1.1 -15.3 1.1h-2.6ZM595.2 361.5c1.3 0 2.2 .9 2.2 2.2c0 1.4 -.9 2.3 -2.2 2.3c-1.4 0 -2.3 -.9 -2.3 -2.3c0 -1.3 .9 -2.2 2.3 -2.2ZM141.3 445.5h3.9v16.4h-3.9v-6.5h-5.8c-.8 3.6 -4.1 6 -8.4 6c-4.9 0 -8.5 -3.1 -8.5 -7.5c0 -4.4 3.6 -7.5 8.5 -7.5c4.3 0 7.6 2.4 8.3 5.9h5.9v-6.8Zm-19 8.4c0 2.6 2.1 4.3 4.8 4.3c2.8 0 4.7 -1.7 4.7 -4.3c0 -2.6 -1.9 -4.2 -4.7 -4.2c-2.7 0 -4.8 1.6 -4.8 4.2Zm1.6 12.6v-3.1h21.3v8.5H127.9v2.7h18.4v3.1H124V469h17.3v-2.5H123.9ZM153.9 446.8h22.2v2.1c0 2.1 0 4.8 -.6 8h4.2v3.2H166.9v3.4h9.2V472H157.6v2.7H177v3.1H153.7v-8.6h18.5v-2.6H153.6v-3.1H163v-3.4H150.2v-3.2h21.4c.5 -2.9 .7 -5.1 .7 -7H153.9v-3.1ZM213.7 445.5h3.9v23.6h-3.9V445.5Zm-22.4 10.3c0 -4.8 3.8 -8.2 8.7 -8.2c4.9 0 8.7 3.4 8.7 8.2c0 4.7 -3.8 8.2 -8.7 8.2c-4.9 0 -8.7 -3.5 -8.7 -8.2Zm3.9 0c0 2.9 2 4.7 4.8 4.7c2.7 0 4.9 -1.8 4.9 -4.7c0 -2.9 -2.2 -4.8 -4.9 -4.8c-2.8 0 -4.8 1.9 -4.8 4.8Zm1.1 21.6V466.7h3.9v7.6h18.3v3.1H196.3ZM230.7 447h4v3.1c0 4.4 2.8 8.4 7.9 10l-1.9 3.2c-3.8 -1.3 -6.5 -3.8 -7.9 -7c-1.5 3.4 -4.2 6.2 -8.1 7.5l-1.9 -3.1c5.2 -1.8 7.9 -6.1 7.9 -10.6V447Zm-3.1 22.7v-3.2h22v11.6h-3.9v-8.4H227.6ZM245.7 465V445.5h3.9V465h-3.9ZM277.7 445.4h4v32.7h-4V445.4Zm-21.9 13.9c0 -7 3.6 -11.5 8.5 -11.5c4.9 0 8.4 4.5 8.4 11.5c0 7.1 -3.5 11.6 -8.4 11.6c-4.9 0 -8.5 -4.5 -8.5 -11.6Zm3.9 0c0 5.1 1.8 8 4.6 8c2.7 0 4.6 -2.9 4.6 -8c0 -5 -1.9 -7.9 -4.6 -7.9c-2.8 0 -4.6 2.9 -4.6 7.9ZM297.6 448.4h16.8v3.2H301.6V459h12.9v3.2H308V468c2.8 -.2 5.6 -.3 8.3 -.6l.3 2.8c-7.1 1.1 -14.5 1.2 -20.7 1.2l-.4 -3.2c2.6 0 5.5 0 8.5 -.1v-5.9h-6.4V448.4Zm20.7 29.7V445.4h3.9v32.7h-3.9ZM328.3 448.7h18.3V452h-7.1v2.8c0 5.4 3.2 11 8.4 13.2l-2.2 3.1c-3.8 -1.7 -6.6 -5.2 -8.2 -9.3c-1.4 4.5 -4.3 8.3 -8.1 10.1l-2.2 -3.1c5.1 -2.4 8.3 -8.5 8.3 -14V452h-7.2v-3.3Zm21.9 29.4V445.5h4v32.6h-4ZM376.8 447.2c5 0 8.6 3.1 8.6 7.5c0 4.5 -3.6 7.6 -8.6 7.6c-4.9 0 -8.5 -3.1 -8.5 -7.6c0 -4.4 3.6 -7.5 8.5 -7.5Zm-5.8 30V464.9h3.8V474c1.9 -.1 3.8 -.4 5.7 -1l.6 3.1c-2.9 1 -5.7 1.1 -8.4 1.1H371Zm1.1 -22.5c0 2.7 2 4.4 4.7 4.4c2.8 0 4.8 -1.7 4.8 -4.4c0 -2.6 -2 -4.3 -4.8 -4.3c-2.7 0 -4.7 1.7 -4.7 4.3Zm7.8 13.2v-2.8h6.3v-2.6H390v2.6h6.2v2.8H379.9Zm2 5.6c0 -2.8 2.5 -4.6 6.2 -4.6c3.6 0 6.2 1.8 6.2 4.6c0 2.8 -2.6 4.6 -6.2 4.6c-3.7 0 -6.2 -1.8 -6.2 -4.6Zm3.5 0c0 1.2 1.1 1.9 2.7 1.9c1.5 0 2.6 -.7 2.6 -1.9c0 -1.2 -1.1 -1.9 -2.6 -1.9c-1.6 0 -2.7 .7 -2.7 1.9Zm4 -11.9V445.5h4v7h4.5v3.2h-4.5v5.9h-4ZM409 447.3c5 0 8.7 3.2 8.7 7.8c0 4.6 -3.7 7.8 -8.7 7.8c-5 0 -8.7 -3.2 -8.7 -7.8c0 -4.6 3.7 -7.8 8.7 -7.8Zm-8 27.5c4.2 -1.5 6.2 -4.9 6.2 -8.1v-1.5H411v1.5c0 2.8 1.2 5.6 4 7.4c2.9 -1.9 4.2 -4.9 4.2 -7.4v-1.5H423v1.5c0 3.4 2 6.7 6.2 8.1l-1.9 2.9c-3.1 -1.1 -5.2 -3.2 -6.3 -5.8c-1 2.5 -2.9 4.9 -5.9 6.1c-3.1 -1.2 -5 -3.4 -6 -6c-1.1 2.5 -3.2 4.6 -6.2 5.7L401 474.8Zm3.2 -19.7c0 2.7 2 4.5 4.8 4.5c2.8 0 4.9 -1.8 4.9 -4.5c0 -2.8 -2.1 -4.5 -4.9 -4.5c-2.8 0 -4.8 1.7 -4.8 4.5Zm17.3 8.7V445.5h3.9v7.3h4.5V456h-4.5v7.8h-3.9ZM446.7 446c7.3 0 11.6 2 11.6 5.6c0 3.6 -4.3 5.6 -11.6 5.6c-7.3 0 -11.7 -2 -11.7 -5.6c0 -3.6 4.4 -5.6 11.7 -5.6Zm-14.8 16.1V459h29.5v3.1H431.9Zm3.5 5.2v-2.9h22.3v7.9H439.4v2.5h19.3v3H435.5v-8.3h18.4v-2.2H435.4Zm3.7 -15.7c0 1.8 2.6 2.7 7.6 2.7c4.9 0 7.6 -.9 7.6 -2.7c0 -1.8 -2.7 -2.7 -7.6 -2.7c-5 0 -7.6 .9 -7.6 2.7ZM490.4 446.1H494v12.3h3V445.5h3.7v32.6H497V461.6h-3v14.9h-3.6V446.1Zm-17.3 23.8V449.4h7v3.2h-3.3v14c1 0 2.1 -.2 3.4 -.5l.3 3.2c-2.5 .6 -4.4 .6 -6 .6h-1.4Zm8.3 0V449.4h7.1v3.2H485v14c1.2 0 2.6 -.2 4 -.6l.4 3.3c-2.6 .6 -4.7 .6 -6.6 .6h-1.4ZM118.4 502.8c4.9 0 8.4 4.5 8.4 11.5c0 7.1 -3.5 11.6 -8.4 11.6c-4.8 0 -8.4 -4.5 -8.4 -11.6c0 -7 3.6 -11.5 8.4 -11.5Zm-4.6 11.5c0 5.1 1.9 8 4.6 8c2.8 0 4.7 -2.9 4.7 -8c0 -5 -1.9 -7.9 -4.7 -7.9c-2.7 0 -4.6 2.9 -4.6 7.9Zm17.3 18.8V500.5h4v12.6H140v3.3h-4.9v16.7h-4ZM164.7 500.4h3.9v32.7h-3.9V500.4Zm-21.9 13.9c0 -7 3.5 -11.5 8.4 -11.5c4.9 0 8.5 4.5 8.5 11.5c0 7.1 -3.6 11.6 -8.5 11.6c-4.9 0 -8.4 -4.5 -8.4 -11.6Zm3.8 0c0 5.1 1.9 8 4.6 8c2.8 0 4.7 -2.9 4.7 -8c0 -5 -1.9 -7.9 -4.7 -7.9c-2.7 0 -4.6 2.9 -4.6 7.9ZM197.9 500.5h3.8v32.6h-3.8V516.5h-3.2v15h-3.8V501.1h3.8v12.2h3.2V500.5Zm-24.5 21.6h3V507.5h-2.3v-3.2H189v3.2h-2.4v14.2l2.8 -.3l.3 2.8c-5 1.1 -11.7 1.2 -15.8 1.2l-.5 -3.3Zm6.6 0c1 -.1 2.1 -.1 3.1 -.2V507.5H180v14.6ZM209.5 503.3h22.3v3.2H213.3v9.3h18.9v3.1H209.5V503.3Zm-3.6 25.6v-3.2h29.5v3.2H205.9ZM247.6 502.5c5 0 8.7 3.3 8.7 7.8c0 4 -2.7 7 -6.7 7.7v4.9c2.7 -.1 5.4 -.4 8 -.7l.3 2.9c-6.8 1.2 -14.3 1.3 -19.8 1.2l-.6 -3.2c2.5 0 5.2 0 8.1 0V518c-4 -.7 -6.8 -3.7 -6.8 -7.7c0 -4.5 3.7 -7.8 8.8 -7.8Zm-4.9 7.8c0 2.8 2 4.5 4.9 4.5c2.8 0 4.9 -1.7 4.9 -4.5c0 -2.7 -2.1 -4.5 -4.9 -4.5c-2.9 0 -4.9 1.8 -4.9 4.5Zm16.7 22.8V500.5h3.9v13H268v3.3h-4.7v16.3h-3.9ZM301.5 500.5h4v16.4h-4v-6.5h-5.8c-.8 3.6 -4.1 6 -8.3 6c-5 0 -8.6 -3.1 -8.6 -7.5c0 -4.4 3.6 -7.5 8.6 -7.5c4.2 0 7.5 2.4 8.3 5.9h5.8v-6.8Zm-18.9 8.4c0 2.6 2 4.3 4.8 4.3c2.7 0 4.7 -1.7 4.7 -4.3c0 -2.6 -2 -4.2 -4.7 -4.2c-2.8 0 -4.8 1.6 -4.8 4.2Zm1.6 12.6v-3.1h21.3v8.5H288.1v2.7h18.4v3.1H284.2V524h17.3v-2.5H284.2ZM314.2 501.8h22.2v2.1c0 2.1 0 4.8 -.6 8H340v3.2H327.1v3.4h9.3V527H317.8v2.7h19.4v3.1H313.9v-8.6h18.6v-2.6H313.8v-3.1h9.4v-3.4H310.5v-3.2h21.3c.6 -2.9 .7 -5.1 .7 -7H314.2v-3.1ZM374.1 500.5H378v32.6h-3.9V516.5h-6.9v-3.3h6.9V500.5Zm-23.4 23.7c8.4 -4.2 12 -9.8 12.6 -17.2H352.2v-3.1h15.1c0 9.6 -3.4 17.8 -14.5 23.3l-2.1 -3ZM406 500.4h4v32.7h-4V500.4Zm-21.2 6.1v-3.1H400v12.1H388.8v6.7c5.1 -.1 9.5 -.3 14.6 -1.2l.4 3.2c-5.5 1 -10.4 1.2 -16.2 1.2h-2.8v-13H396v-5.9H384.8ZM436.4 500.4h4v12.8h4.8v3.3h-4.8V533h-4V500.4Zm-21.5 23.8c7.9 -4 12.2 -9.6 12.9 -17.1H416.6v-3.2h15.2c0 9.6 -3.9 17.9 -14.6 23.3l-2.3 -3ZM464.3 518h3.9v5.3c2.9 -.2 5.7 -.5 8.4 -.9l.2 2.9c-7.1 1.4 -14.9 1.5 -20.7 1.5l-.4 -3.3c2.5 0 5.5 0 8.6 -.1V518Zm-7.8 -2.1c4.8 -1.3 7.6 -4.6 7.8 -8.3h-7v-3.1h7v-3.8h3.9v3.8h7v3.1h-7c.3 3.6 3.1 6.8 7.9 8.1l-1.8 3c-3.8 -1.1 -6.5 -3.3 -8 -6.2c-1.4 3 -4.2 5.4 -8 6.5l-1.8 -3.1Zm22 17.2V500.4h3.9v32.7h-3.9ZM487.6 525.8h12.7v-7.5h3.9v7.5h12.9V529H487.6v-3.2Zm.9 -10c6.7 -1.2 11.6 -6.1 11.6 -11v-2.4h4.2v2.4c0 5 5 9.8 11.7 11l-1.7 3.3c-5.5 -1.1 -10 -4.3 -12.1 -8.6c-2.1 4.3 -6.6 7.5 -12.1 8.6l-1.6 -3.3ZM533.4 518.3l-3.8 -.5l.9 -14.2h14.2v3.3H534.1l-.4 6.6c1.2 -.5 2.6 -.9 3.8 -.9c5.5 0 9.4 3.7 9.4 9c0 5.3 -3.9 9 -9.4 9c-4.3 0 -8 -2.9 -9 -7l3.7 -.8c.6 2.5 2.8 4.2 5.3 4.2c3.3 0 5.6 -2.2 5.6 -5.4c0 -3.2 -2.3 -5.4 -5.6 -5.4c-1.3 0 -3 .9 -4.1 2.1ZM560.2 527.1c3.7 0 6.2 -4.1 6.2 -10.2c0 -6.1 -2.5 -10.2 -6.2 -10.2c-3.7 0 -6.2 4.1 -6.2 10.2c0 6.1 2.5 10.2 6.2 10.2Zm-10 -10.2c0 -8 4.1 -13.6 10 -13.6c5.9 0 10 5.6 10 13.6c0 8 -4.1 13.6 -10 13.6c-5.9 0 -10 -5.6 -10 -13.6ZM582.4 526.9c1.5 0 3.3 -.7 4.5 -1.9l2.5 2.6c-1.7 1.7 -4.5 2.9 -6.9 2.9c-5.7 0 -9.7 -4 -9.7 -9.6c0 -5.7 4 -9.7 9.7 -9.7c2.5 0 5.2 1.2 6.9 2.9l-2.5 2.6c-1.2 -1.2 -3 -1.9 -4.5 -1.9c-3.4 0 -5.8 2.4 -5.8 6.1c0 3.6 2.4 6 5.8 6ZM617.4 519.4c0 -2.9 -1.7 -4.9 -4.1 -4.9c-2.6 0 -4.5 2.1 -4.5 4.7v11.2H605v-11c0 -2.9 -1.7 -4.9 -4 -4.9c-2.7 0 -4.6 2.3 -4.6 5.2v10.7h-3.8V511.2h3.8v3.3c1.1 -1.9 3 -3.2 5 -3.2c2.4 0 4.8 1.6 5.8 3.8c1.3 -2.2 4 -3.8 6.4 -3.8c4.5 0 7.6 3.3 7.6 7.9v11.2h-3.8v-11ZM656.2 500.4h4v32.7h-4V500.4Zm-21.9 13.9c0 -7 3.5 -11.5 8.5 -11.5c4.9 0 8.4 4.5 8.4 11.5c0 7.1 -3.5 11.6 -8.4 11.6c-5 0 -8.5 -4.5 -8.5 -11.6Zm3.8 0c0 5.1 1.9 8 4.7 8c2.7 0 4.6 -2.9 4.6 -8c0 -5 -1.9 -7.9 -4.6 -7.9c-2.8 0 -4.7 2.9 -4.7 7.9ZM672.9 502.2h3.9v3.4c0 4.2 2.6 8.1 7.6 9.7l-2.1 3c-3.5 -1.2 -6 -3.6 -7.4 -6.6c-1.4 3.4 -4.1 6.2 -7.8 7.6L665 516.2c5.2 -1.8 7.9 -6.2 7.9 -10.9v-3.1Zm-3.5 24.7c0 -3.8 4.2 -6.1 10.9 -6.1c6.7 0 10.9 2.3 10.9 6.1c0 3.9 -4.2 6.1 -10.9 6.1c-6.7 0 -10.9 -2.2 -10.9 -6.1Zm3.9 0c0 2 2.6 3.1 7 3.1c4.5 0 7 -1.1 7 -3.1c0 -2 -2.5 -3.1 -7 -3.1c-4.4 0 -7 1.1 -7 3.1ZM686.9 520V500.5h3.9v7.9h4.6v3.3h-4.6V520h-3.9ZM720.3 500.4h4v32.7h-4V500.4Zm-21.9 13.9c0 -7 3.5 -11.5 8.4 -11.5c5 0 8.5 4.5 8.5 11.5c0 7.1 -3.5 11.6 -8.5 11.6c-4.9 0 -8.4 -4.5 -8.4 -11.6Zm3.8 0c0 5.1 1.9 8 4.6 8c2.8 0 4.7 -2.9 4.7 -8c0 -5 -1.9 -7.9 -4.7 -7.9c-2.7 0 -4.6 2.9 -4.6 7.9ZM740.2 503.4H757v3.2H744.2V514h12.9v3.2h-6.6V523c2.9 -.2 5.7 -.3 8.4 -.6l.3 2.8c-7.1 1.1 -14.6 1.2 -20.7 1.2l-.5 -3.2c2.7 0 5.6 0 8.6 -.1v-5.9h-6.4V503.4Zm20.6 29.7V500.4h4v32.7h-4ZM773.5 502.9h22.4V506H777.5v9.3h18.7v3.2h-9.6V526h12.9v3.2H769.9V526h12.8v-7.5h-9.2V502.9ZM802 518.1h12.7v-2.8h-9v-8.5h18.2v-2.6H805.7v-3h22.1v8.4H809.6v2.7h18.9v3h-9.8v2.8h12.8v3.2H802v-3.2Zm3.2 8.5v-3.2H828v9.5h-3.9v-6.3H805.2ZM842.4 505.7h6.1v-4.3h3.8v4.3h5.9v3.1H842.4v-3.1Zm.9 12.5c0 -4.5 3 -7.6 7.1 -7.6c4.1 0 7.1 3.1 7.1 7.6c0 4.5 -3 7.6 -7.1 7.6c-4.1 0 -7.1 -3.1 -7.1 -7.6Zm3.5 0c0 2.7 1.5 4.3 3.6 4.3c2.1 0 3.6 -1.6 3.6 -4.3c0 -2.6 -1.5 -4.3 -3.6 -4.3c-2.1 0 -3.6 1.7 -3.6 4.3Zm12.8 13.4V501.1h3.7v12.8h3.2V500.5h3.8v32.6h-3.8v-16h-3.2v14.5h-3.7ZM874.5 518.7H904v3.2H891.1v11.2h-3.8V521.9H874.5v-3.2Zm1.6 -5.3c6.3 -.9 10.6 -4.3 10.9 -7.9h-9.8v-3.2h24.1v3.2h-9.8c.3 3.6 4.6 7 11 7.9l-1.5 3.1c-5.4 -.8 -9.7 -3.4 -11.7 -6.9c-2 3.5 -6.3 6.1 -11.7 6.9l-1.5 -3.1ZM919.4 511.7H924V501.1h3.7v30.4H924V515h-4.6v-3.3ZM906 523.4c4.7 -2.8 6.8 -8.6 6.8 -14.2v-5.8h3.8v5.7c0 5.2 1.9 10.7 6.3 13.5l-2.2 3c-2.9 -1.7 -4.8 -4.8 -5.9 -8.4c-1.2 3.9 -3.3 7.3 -6.4 9.2l-2.4 -3Zm24.7 9.7V500.5h3.7v32.6h-3.7ZM938.6 525.9h6.8v-8.4c-2.5 -1.5 -4.1 -3.8 -4.1 -6.6c0 -5.3 5.1 -8.7 12.1 -8.7c7 0 12 3.4 12 8.7c0 2.8 -1.6 5.1 -4.1 6.6v8.4h6.8v3.2H938.6v-3.2Zm6.6 -15c0 3.4 3.3 5.5 8.2 5.5c4.8 0 8.1 -2.1 8.1 -5.5c0 -3.5 -3.3 -5.5 -8.1 -5.5c-4.9 0 -8.2 2 -8.2 5.5Zm4.2 15h8V519c-1.3 .2 -2.6 .4 -4 .4c-1.5 0 -2.8 -.2 -4 -.4v6.9ZM973.6 526.5c1.4 0 2.3 .9 2.3 2.2c0 1.4 -.9 2.3 -2.3 2.3c-1.3 0 -2.2 -.9 -2.2 -2.3c0 -1.3 .9 -2.2 2.2 -2.2ZM135.6 613.7c0 9.8 -2.9 18.4 -14.9 24.3l-2.1 -3c5.6 -2.8 9.1 -6.1 11 -10l-10.3 .9l-.5 -3.4l12.1 -.7c.4 -1.5 .7 -3.2 .8 -4.9H120.4v-3.2h15.2Zm5.6 29.4V610.5h3.9v32.6h-3.9ZM165 612.3c6.9 0 12 3.5 12 8.8c0 4.8 -4.2 8.1 -10.1 8.7v6.1h12.8v3.2H150.2v-3.2H163v-6.1c-5.9 -.6 -10.1 -3.9 -10.1 -8.7c0 -5.3 5.1 -8.8 12.1 -8.8Zm-8.2 8.8c0 3.5 3.4 5.7 8.2 5.7c4.7 0 8.1 -2.2 8.1 -5.7c0 -3.5 -3.4 -5.7 -8.1 -5.7c-4.8 0 -8.2 2.2 -8.2 5.7ZM194.8 612.5H199v2.4c0 5.1 4.9 10.2 11.6 11.3l-1.7 3.3c-5.4 -1.2 -9.9 -4.5 -12 -8.9c-2.1 4.4 -6.6 7.8 -12 8.9l-1.7 -3.3c6.6 -1.2 11.6 -6.2 11.6 -11.3v-2.4Zm-12.5 26.4v-3.2h29.5v3.2H182.3ZM217.7 613.5h22.9v3.9c0 4.7 0 9.2 -1.5 16.1l-3.9 -.3c.6 -2.9 1 -5.4 1.2 -7.7l-19.1 .9l-.5 -3.2l19.8 -.7c0 -1.8 0 -3.4 0 -5.1v-.7H217.7v-3.2Zm-3.4 25.4v-3.2h29.5v3.2H214.3ZM256 612.5c5.1 0 8.8 3.3 8.8 7.8c0 4 -2.8 7 -6.8 7.7v4.9c2.7 -.1 5.5 -.4 8 -.7l.3 2.9c-6.8 1.2 -14.2 1.3 -19.8 1.2l-.5 -3.2c2.4 0 5.2 0 8.1 0V628c-4 -.7 -6.8 -3.7 -6.8 -7.7c0 -4.5 3.7 -7.8 8.7 -7.8Zm-4.9 7.8c0 2.8 2.1 4.5 4.9 4.5c2.9 0 4.9 -1.7 4.9 -4.5c0 -2.7 -2 -4.5 -4.9 -4.5c-2.8 0 -4.9 1.8 -4.9 4.5Zm16.7 22.8V610.5h4v13h4.7v3.3h-4.7v16.3h-4ZM288.5 612.9h16.4v1.9c0 2.2 0 5.4 -.8 9.6l-3.8 -.4c.6 -3.4 .7 -5.9 .8 -7.9H288.5v-3.2Zm-2 14.1c1.9 0 4.1 0 6.3 0v-6.7h4v6.6c3.3 -.2 6.8 -.4 9.9 -.9l.3 2.8c-6.8 1.3 -14.5 1.4 -20.1 1.4l-.4 -3.2Zm4.9 15.4v-9.7h3.9v6.6h18.4v3.1H291.4Zm17.2 -7.5V610.5h4v10.2h4.3v3.2h-4.3v11h-4ZM320.2 612.7h14.1v10.1H324.1v4.4c5 0 8.1 -.2 11.7 -.8l.4 3.1c-4.1 .7 -7.7 .9 -13.6 .9h-2.4V619.8h10.2v-3.9H320.2v-3.2Zm4.3 29.6v-9.6h3.9v6.4h18.4v3.2H324.5Zm11.9 -16.2V623H342v-4.2h-5.6v-3.2H342v-5.1h4v24h-4v-8.4h-5.6ZM372.5 610.5h4v10.3H381V624h-4.5v10.9h-4V610.5ZM351 617.2v-3.1h7.7v-3.6h3.9v3.6h7.6v3.1H351Zm1.7 7.7c0 -3.7 3.2 -6.2 7.9 -6.2c4.7 0 8 2.5 8 6.2c0 3.7 -3.3 6.2 -8 6.2c-4.7 0 -7.9 -2.5 -7.9 -6.2Zm3.1 17.5V633h3.9v6.3h18.1v3.1h-22Zm.7 -17.5c0 2 1.6 3.1 4.1 3.1c2.5 0 4.1 -1.1 4.1 -3.1c0 -2 -1.6 -3.2 -4.1 -3.2c-2.5 0 -4.1 1.2 -4.1 3.2ZM391.4 626.9h29.5V630H408.5v6h-4v-6H391.4v-3.1Zm3.6 15.6V633h3.9v6.3h18.8v3.2H395Zm.2 -18.8V611.9h22v11.8h-22Zm3.8 -3.1h14.3V615H399v5.6ZM447.6 610.5h3.7v32.6h-3.7V610.5Zm-24.7 23.4c4.7 -2.9 6.7 -8.8 6.7 -14.5v-2.2H424V614h14.7v3.2h-5.2v2.2c0 5.5 2 11.1 6.5 13.7l-2.3 2.9c-3 -1.8 -5 -4.9 -6.1 -8.6c-1.1 4 -3.2 7.5 -6.3 9.4l-2.4 -2.9Zm13.4 -8.8v-3.2H441V611.1h3.7v30.4H441V625.1h-4.7ZM476.9 610.4h4v12.8h4.8v3.3h-4.8V643h-4V610.4Zm-21.5 23.8c7.9 -4 12.2 -9.6 12.9 -17.1H457.1v-3.2h15.2c0 9.6 -3.9 17.9 -14.6 23.3l-2.3 -3ZM497.2 611.9h3.9v4.2h7.6v-4.2h3.9v14.2H497.2V611.9Zm3.2 19.7v-3.1h21.2V637H504.4v2.7h18.2v3.1H500.5v-8.7h17.2v-2.5H500.4Zm.7 -8.6h7.6v-3.9h-7.6V623Zm16.5 4.2V610.5h4v6.6h4.5v3.2h-4.5v6.9h-4ZM534.3 612.5h3.8v4c0 3.5 2.1 7.1 6.3 8.8l-2 3c-2.9 -1.1 -4.9 -3.2 -6.1 -5.8c-1.2 2.9 -3.3 5.4 -6.4 6.7l-2.1 -3c4.4 -1.9 6.5 -6 6.5 -9.7v-4Zm-.6 24.6c0 -3.8 4.3 -6 11.1 -6c6.8 0 11.1 2.2 11.1 6c0 3.7 -4.3 5.9 -11.1 5.9c-6.8 0 -11.1 -2.2 -11.1 -5.9Zm3.9 0c0 1.9 2.7 3 7.2 3c4.5 0 7.1 -1.1 7.1 -3c0 -2 -2.6 -3 -7.1 -3c-4.5 0 -7.2 1 -7.2 3Zm7.4 -7.6V611.1h3.7v7.7H552v-8.3h3.7v20H552V622h-3.3v7.5H545ZM581.7 610.4h4v7.3h4.5V621h-4.5v7.2h-4V610.4Zm-21.5 5.7v-3h7.6v-2.9h4v2.9h7.6v3H560.2Zm1.7 6.4c0 -3.3 3.1 -5.4 7.9 -5.4c4.7 0 7.9 2.1 7.9 5.4c0 3.3 -3.2 5.3 -7.9 5.3c-4.8 0 -7.9 -2 -7.9 -5.3Zm2.6 10v-2.8h21.2v7.8H568.5v2.3h18.2v3H564.6v-8.1h17.1v-2.2H564.5Zm1.1 -10c0 1.6 1.7 2.5 4.2 2.5c2.5 0 4.1 -.9 4.1 -2.5c0 -1.6 -1.6 -2.5 -4.1 -2.5c-2.5 0 -4.2 .9 -4.2 2.5ZM616 622.8h7.7v-3.7h-7.3c-2.1 5.2 -6.9 8.9 -13.9 10.9l-1.6 -3.1c7.7 -2.1 11.7 -6 12.3 -11H602.7v-3.1h14.8c0 1.1 -.1 2.2 -.3 3.2h6.5v-5.5h4v19.1h-4v-3.7H616v-3.1Zm-9.9 13.6c0 -4 4.3 -6.5 10.9 -6.5c6.6 0 10.9 2.5 10.9 6.5c0 4 -4.3 6.5 -10.9 6.5c-6.6 0 -10.9 -2.5 -10.9 -6.5Zm3.9 0c0 2.2 2.6 3.4 7 3.4c4.4 0 7 -1.2 7 -3.4c0 -2.2 -2.6 -3.4 -7 -3.4c-4.4 0 -7 1.2 -7 3.4ZM632.7 628.9h29.5v3.2H649.3v11h-3.9v-11H632.7v-3.2Zm3 -10c0 -4.4 4.8 -7.2 11.7 -7.2c6.9 0 11.6 2.8 11.6 7.2c0 4.4 -4.7 7.3 -11.6 7.3c-6.9 0 -11.7 -2.9 -11.7 -7.3Zm4.1 0c0 2.6 3 4.2 7.6 4.2c4.6 0 7.5 -1.6 7.5 -4.2c0 -2.5 -2.9 -4.1 -7.5 -4.1c-4.6 0 -7.6 1.6 -7.6 4.1ZM126.8 667.4c0 8.5 -5.7 14.4 -15.4 17l-1.5 -3.2c7.6 -1.9 12 -5.8 12.7 -10.6H111.7v-3.2h15.1Zm-11.5 30.3V685.2h21.3v12.5H115.3Zm3.8 -3.2h13.6v-6.2H119.1v6.2Zm13.6 -10.8V665.5h3.9v18.2h-3.9ZM160.1 672.9h4.8v-7.4h3.9v20.9h-3.9v-3.9h-4.8v-3.1h4.8v-3.3h-4.8v-3.2Zm-18.3 -1.1v-3.1h7.3v-3.5H153v3.5h6.9v3.1H141.8Zm1.7 7.4c0 -3.6 3.1 -6 7.5 -6c4.4 0 7.5 2.4 7.5 6c0 3.7 -3.1 6.1 -7.5 6.1c-4.4 0 -7.5 -2.4 -7.5 -6.1Zm3.4 13.2c0 -3.6 4.2 -5.7 11 -5.7c6.9 0 11.1 2.1 11.1 5.7c0 3.5 -4.2 5.6 -11.1 5.6c-6.8 0 -11 -2.1 -11 -5.6Zm.3 -13.2c0 2 1.5 3.2 3.8 3.2c2.3 0 3.9 -1.2 3.9 -3.2c0 -1.9 -1.6 -3.1 -3.9 -3.1c-2.3 0 -3.8 1.2 -3.8 3.1Zm3.8 13.2c0 1.7 2.6 2.6 6.9 2.6c4.4 0 6.9 -.9 6.9 -2.6c0 -1.8 -2.5 -2.6 -6.9 -2.6c-4.3 0 -6.9 .8 -6.9 2.6ZM190.5 671.9h6.4v-6.4h3.9v19.3h-3.9v-9.7h-6.4v-3.2Zm-16.8 9.2c5.2 -1.7 7.9 -6.1 7.9 -10.7v-3.3h3.9v3.5c0 4.2 2.6 8.3 7.6 9.9l-2.1 3.1c-3.5 -1.2 -6 -3.7 -7.4 -6.9c-1.5 3.5 -4.1 6.2 -7.9 7.5l-2 -3.1Zm5.1 8.5v-3.2h22v11.7h-3.9v-8.5H178.8ZM211.2 691.8l-2.4 8.3h-2.9l1.4 -8.3h3.9ZM235.4 692.1c3.7 0 6.2 -4.1 6.2 -10.2c0 -6.1 -2.5 -10.2 -6.2 -10.2c-3.7 0 -6.2 4.1 -6.2 10.2c0 6.1 2.5 10.2 6.2 10.2Zm-10 -10.2c0 -8 4.2 -13.6 10 -13.6c5.9 0 10 5.6 10 13.6c0 8 -4.1 13.6 -10 13.6c-5.8 0 -10 -5.6 -10 -13.6ZM258.5 668.6v26.6h-3.8V672.7l-4.6 2.6l-1.7 -3.2l6.3 -3.5h3.8ZM273.6 692.1c3.7 0 6.2 -4.1 6.2 -10.2c0 -6.1 -2.5 -10.2 -6.2 -10.2c-3.7 0 -6.2 4.1 -6.2 10.2c0 6.1 2.5 10.2 6.2 10.2Zm-10 -10.2c0 -8 4.1 -13.6 10 -13.6c5.9 0 10 5.6 10 13.6c0 8 -4.1 13.6 -10 13.6c-5.9 0 -10 -5.6 -10 -13.6ZM287.6 679.7h16v3.8h-16v-3.8ZM316.9 671.6c-3.2 0 -5.5 2.3 -5.5 5.5c0 3.3 2.3 5.6 5.5 5.6c3.1 0 5.3 -2.3 5.3 -5.6c0 -3.2 -2.2 -5.5 -5.3 -5.5Zm-9.3 5.5c0 -5.2 3.8 -8.8 9.3 -8.8c5.4 0 9.1 3.6 9.1 8.8c0 2 -.6 3.7 -1.4 5.1l-7.4 13.1h-4.3l5.3 -9.4c-.4 .1 -.9 .2 -1.4 .2c-5.4 -.1 -9.2 -3.8 -9.2 -9ZM336 695.3h-4.2l10.4 -23.5H330v-3.3h16.1l.3 3.3L336 695.3ZM359.7 692.1c3.7 0 6.2 -4.1 6.2 -10.2c0 -6.1 -2.5 -10.2 -6.2 -10.2c-3.7 0 -6.2 4.1 -6.2 10.2c0 6.1 2.5 10.2 6.2 10.2Zm-10 -10.2c0 -8 4.2 -13.6 10 -13.6c5.9 0 10 5.6 10 13.6c0 8 -4.1 13.6 -10 13.6c-5.8 0 -10 -5.6 -10 -13.6ZM382.2 692.2c3.1 0 5.4 -2.3 5.4 -5.6c0 -3.2 -2.3 -5.5 -5.4 -5.5c-3.2 0 -5.4 2.3 -5.4 5.5c0 3.3 2.2 5.6 5.4 5.6ZM373 686.6c0 -1.9 .7 -3.6 1.5 -5l7.3 -13.1h4.4l-5.4 9.4c.5 -.1 1 -.2 1.5 -.2c5.4 .1 9.1 3.7 9.1 8.9c0 5.2 -3.8 8.9 -9.2 8.9c-5.4 0 -9.2 -3.7 -9.2 -8.9ZM395.5 679.7h15.9v3.8H395.5v-3.8ZM429.6 681.5c2.4 1.4 3.9 4 3.9 6.2c0 4.5 -3.7 7.7 -9 7.7c-5.3 0 -9 -3.2 -9 -7.9h3.8c0 2.7 2.2 4.6 5.2 4.6c3.1 0 5.3 -1.9 5.3 -4.6c0 -2.6 -2.2 -4.5 -5.2 -4.5h-1.9v-3.2h1.9c2.8 0 4.8 -1.6 4.8 -4c0 -2.4 -1.9 -4.1 -4.7 -4.1c-2.7 0 -4.6 1.7 -4.6 4.1h-3.8c0 -4.4 3.5 -7.4 8.4 -7.4c4.9 0 8.4 2.9 8.4 7.2c0 2 -1.3 4.5 -3.5 5.9ZM446.7 668.6v26.6h-3.9V672.7l-4.6 2.6l-1.6 -3.2l6.3 -3.5h3.8ZM463.1 668.6v26.6h-3.9V672.7l-4.6 2.6L453 672.1l6.3 -3.5h3.8ZM473 683.3l-3.7 -.5l.8 -14.2h14.3v3.3H473.8l-.4 6.6c1.2 -.5 2.5 -.9 3.8 -.9c5.5 0 9.4 3.7 9.4 9c0 5.3 -3.9 9 -9.4 9c-4.3 0 -8 -2.9 -9 -7l3.7 -.8c.6 2.5 2.7 4.2 5.3 4.2c3.2 0 5.6 -2.2 5.6 -5.4c0 -3.2 -2.4 -5.4 -5.6 -5.4c-1.4 0 -3.1 .9 -4.2 2.1ZM497.9 691.1h12.8v-5.5h-9.2V675h18.6v-4.2H501.4v-3.1H524v10.4H505.4v4.4h19.3v3.1H514.6v5.5h12.9v3.2H497.9v-3.2ZM561.5 665.5h4v23.9h-4v-8.1h-7.6c-1.5 1.7 -3.9 2.8 -6.5 2.8c-4.9 0 -8.5 -3.4 -8.5 -8.3c0 -4.9 3.6 -8.3 8.5 -8.3c2.6 0 4.9 1 6.4 2.7h7.7v-4.7Zm-18.9 10.3c0 2.9 2 4.9 4.8 4.9c2.7 0 4.8 -2 4.8 -4.9c0 -3 -2.1 -4.9 -4.8 -4.9c-2.8 0 -4.8 1.9 -4.8 4.9Zm1.7 21.6V687h3.9v7.3h18.1v3.1h-22Zm11.3 -24c.2 .8 .3 1.6 .3 2.4c0 .8 -.1 1.6 -.3 2.3h5.9v-4.7h-5.9ZM571.7 667.3h14.8v9.6H575.7v3.8c5.5 0 9.3 -.2 13.7 -1l.4 3.2c-4.8 .8 -9 1 -15.4 1h-2.6v-10h10.8v-3.4H571.7v-3.2Zm2.8 22.7v-3.1H596v11.2h-3.9V690H574.5Zm17.6 -4.7V665.5H596v8h4.6v3.3H596v8.5h-3.9ZM602.5 670.7h6v-4.3h3.9v4.3h5.9v3.1H602.5v-3.1Zm.9 12.5c0 -4.5 2.9 -7.6 7.1 -7.6c4.1 0 7 3.1 7 7.6c0 4.5 -2.9 7.6 -7 7.6c-4.2 0 -7.1 -3.1 -7.1 -7.6Zm3.5 0c0 2.7 1.4 4.3 3.6 4.3c2 0 3.5 -1.6 3.5 -4.3c0 -2.6 -1.5 -4.3 -3.5 -4.3c-2.2 0 -3.6 1.7 -3.6 4.3Zm12.8 13.4V666.1h3.7v12.8h3.2V665.5h3.7v32.6h-3.7v-16h-3.2v14.5h-3.7ZM634.6 683.7h29.5v3.2H651.2v11.2h-3.9V686.9H634.6v-3.2Zm1.6 -5.3c6.3 -.9 10.6 -4.3 10.9 -7.9h-9.8v-3.2h24v3.2h-9.7c.3 3.6 4.6 7 10.9 7.9l-1.4 3.1c-5.5 -.8 -9.8 -3.4 -11.7 -6.9c-2.1 3.5 -6.3 6.1 -11.8 6.9l-1.4 -3.1ZM679.5 676.7h4.6V666.1h3.6v30.4h-3.6V680h-4.6v-3.3Zm-13.4 11.7c4.6 -2.8 6.8 -8.6 6.8 -14.2v-5.8h3.8v5.7c0 5.2 1.8 10.7 6.2 13.5l-2.2 3c-2.9 -1.7 -4.8 -4.8 -5.9 -8.4c-1.1 3.9 -3.2 7.3 -6.3 9.2l-2.4 -3Zm24.6 9.7V665.5h3.8v32.6h-3.8ZM698.7 690.9h6.8v-8.4c-2.6 -1.5 -4.1 -3.8 -4.1 -6.6c0 -5.3 5.1 -8.7 12 -8.7c7 0 12 3.4 12 8.7c0 2.8 -1.5 5.1 -4 6.6v8.4h6.8v3.2H698.7v-3.2Zm6.5 -15c0 3.4 3.4 5.5 8.2 5.5c4.8 0 8.2 -2.1 8.2 -5.5c0 -3.5 -3.4 -5.5 -8.2 -5.5c-4.8 0 -8.2 2 -8.2 5.5Zm4.2 15h8V684c-1.2 .2 -2.6 .4 -4 .4c-1.4 0 -2.7 -.2 -4 -.4v6.9ZM733.7 691.5c1.3 0 2.2 .9 2.2 2.2c0 1.4 -.9 2.3 -2.2 2.3c-1.3 0 -2.3 -.9 -2.3 -2.3c0 -1.3 1 -2.2 2.3 -2.2ZM751.9 681.9c0 -4.8 1.9 -11 4.5 -15.2h4.1c-3.1 4.1 -5.1 10.4 -5.1 15.2c0 4.8 2 11.1 5.1 15.2h-4.1c-2.6 -4.2 -4.5 -10.4 -4.5 -15.2ZM773.9 681.7c1.1 -2.8 3.9 -4.6 6.7 -4.5c1.1 .1 2.6 .6 3.6 1.3l3.1 1.9c.6 .4 1.4 .7 1.9 .7c1.2 0 2.3 -.8 2.9 -2.2l3.7 1.4c-1.1 2.9 -4 4.9 -6.9 4.7c-1 -.1 -2.5 -.6 -3.6 -1.2l-3.1 -2c-.6 -.3 -1.3 -.6 -1.9 -.6c-1.1 -.1 -2.3 .8 -2.8 2l-3.6 -1.5ZM809.2 691.9c5.3 -5.1 12.7 -10.4 12.7 -14.9c0 -3.1 -2 -5.2 -4.7 -5.2c-2.1 0 -4.3 1.5 -5.2 3.7L808.7 674c1.4 -3.4 5 -5.7 8.5 -5.7c4.9 0 8.5 3.6 8.5 8.7c0 5.6 -6.2 10.6 -11.1 14.9h11.5v3.3H809.5l-.3 -3.3ZM839.4 692.1c3.6 0 6.1 -4.1 6.1 -10.2c0 -6.1 -2.5 -10.2 -6.1 -10.2c-3.7 0 -6.2 4.1 -6.2 10.2c0 6.1 2.5 10.2 6.2 10.2ZM829.3 681.9c0 -8 4.2 -13.6 10.1 -13.6c5.8 0 9.9 5.6 9.9 13.6c0 8 -4.1 13.6 -9.9 13.6c-5.9 0 -10.1 -5.6 -10.1 -13.6ZM853.2 691.9c5.3 -5.1 12.7 -10.4 12.7 -14.9c0 -3.1 -1.9 -5.2 -4.7 -5.2c-2.1 0 -4.3 1.5 -5.2 3.7L852.7 674c1.4 -3.4 5 -5.7 8.5 -5.7c5 0 8.5 3.6 8.5 8.7c0 5.6 -6.2 10.6 -11.1 14.9h11.5v3.3H853.5l-.3 -3.3ZM878.3 683.3l-3.8 -.5l.9 -14.2h14.2v3.3H879l-.4 6.6c1.2 -.5 2.6 -.9 3.8 -.9c5.5 0 9.4 3.7 9.4 9c0 5.3 -3.9 9 -9.4 9c-4.3 0 -8 -2.9 -9 -7l3.7 -.8c.6 2.5 2.8 4.2 5.3 4.2c3.3 0 5.6 -2.2 5.6 -5.4c0 -3.2 -2.3 -5.4 -5.6 -5.4c-1.3 0 -3 .9 -4.1 2.1ZM925 665.5h3.9v13h4.6v3.3h-4.6v16.3H925V665.5Zm-22.3 23.3c4.6 -4.9 6.1 -10.2 6.4 -16.7H904v-3.2h8.9c0 8.5 -1.2 15.7 -7.1 22.1l-3.1 -2.2Zm9.3 2.1c4.6 -5.6 5.8 -11.7 6.1 -18.8h-4.2v-3.2h7.9c0 8.7 -.9 17.1 -6.7 24.2L912 690.9ZM936.2 668.7h18.3V672h-7.1v2.8c0 5.4 3.1 11 8.3 13.2l-2.2 3.1c-3.8 -1.7 -6.6 -5.2 -8.1 -9.3c-1.5 4.5 -4.3 8.3 -8.1 10.1L935 688.8c5.2 -2.4 8.4 -8.5 8.4 -14V672h-7.2v-3.3Zm21.9 29.4V665.5h4v32.6h-4ZM985.4 681.9c0 4.7 -1.9 11 -4.5 15.2h-4c2.9 -4.1 5 -10.4 5 -15.2c0 -4.8 -2.1 -11.1 -5 -15.2h4c2.6 4.2 4.5 10.5 4.5 15.2Z" class="g3_16"/>
<path fill-rule="evenodd" d="M48.6 1792.8l9.7 2.6l5.8 -22.1c2.5 -9.6 -3 -19.3 -12.3 -21.9c-9.4 -2.5 -19 3.2 -21.5 12.7l-5.9 22.1l9.7 2.6l-1.9 7.4c-1.1 4.1 1.2 8.3 5.2 9.4c4 1.1 8.2 -1.4 9.2 -5.4l2 -7.4Zm6.1 -3.6l4.6 -17.3c1.8 -6.8 -2.2 -13.7 -8.8 -15.5c-6.7 -1.9 -13.6 2.2 -15.4 9l-4.5 17.2l9.6 2.6L37 1797.5c-.4 1.4 .4 2.8 1.7 3.2c1.4 .3 2.8 -.5 3.1 -1.9l3.3 -12.3l9.6 2.7Z" class="g4_16"/>
</svg>