<?xml version="1.0" encoding="UTF-8" standalone="no"?>
<!DOCTYPE svg PUBLIC "-//W3C//DTD SVG 1.1//EN"
"http://www.w3.org/Graphics/SVG/1.1/DTD/svg11.dtd">
<svg viewBox="0 0 1274 1824" version="1.1" xmlns="http://www.w3.org/2000/svg" xmlns:xlink="http://www.w3.org/1999/xlink">
<defs>
<clipPath id="c0_13"><path d="M86.8 1596.9V100.5H1187.4V1596.9Z"/></clipPath>
<clipPath id="c1_13"><path d="M203.2 1466.7c-13.5 0 -24.4 -11 -24.4 -24.5V178.8c0 -13.6 10.9 -24.5 24.4 -24.5H1071c13.5 0 24.4 10.9 24.4 24.5V1442.2c0 13.5 -10.9 24.5 -24.4 24.5Z"/></clipPath>
<style type="text/css"><![CDATA[
.g0_13{
fill: #FFF;
}
.g1_13{
fill: #000;
fill-opacity: 0.02;
}
.g2_13{
fill: #2EA4AB;
fill-opacity: 0.01;
}
.g3_13{
fill: #1C1F1F;
}
.g4_13{
fill: #2EA4AB;
}
.g5_13{
fill: #D76263;
}
]]></style>
</defs>
<path d="M0 1824.2H1274.2V0H0V1824.2Z" class="g0_13"/>
<path d="M0 1824.2H1274.2V0H0V1824.2Z" class="g1_13"/>
<path d="M0 1824.2H1274.2V0H0V1824.2Z" class="g2_13"/>
<path d="M323.5 1569.9h3.9v9.6h4.5v3.2h-4.5v11.1h-3.9v-23.9Zm-21.2 10.4c0 -4.8 3.8 -8.2 8.7 -8.2c5 0 8.7 3.4 8.7 8.2c0 4.7 -3.7 8.1 -8.7 8.1c-4.9 0 -8.7 -3.4 -8.7 -8.1Zm3.9 0c0 2.9 2.1 4.7 4.8 4.7c2.8 0 4.9 -1.8 4.9 -4.7c0 -2.9 -2.1 -4.8 -4.9 -4.8c-2.7 0 -4.8 1.9 -4.8 4.8Zm.5 21.6v-10.6h3.9v7.4h18.1v3.2h-22ZM351.3 1578.6h5.8V1570H361v23.7h-3.9v-11.9h-5.8v-3.2Zm-17.4 8.2c5.1 -1.8 7.9 -6 7.9 -10.4v-.9H335v-3.2h17.5v3.2h-6.7v.9c0 4 2.6 8 7.6 9.7l-1.9 3.1c-3.6 -1.2 -6.2 -3.7 -7.6 -6.8c-1.4 3.4 -4.2 6.2 -8 7.5l-2 -3.1Zm5.9 15.1v-10.2h4v7h18.1v3.2H339.8ZM387.6 1570h3.9v10.2H396v3.3h-4.5v10.8h-3.9V1570Zm-21.6 6.7v-3.1h7.7v-3.7h3.9v3.7h7.7v3.1H366Zm1.8 7.6c0 -3.7 3.2 -6.2 7.9 -6.2c4.6 0 7.9 2.5 7.9 6.2c0 3.7 -3.3 6.2 -7.9 6.2c-4.7 0 -7.9 -2.5 -7.9 -6.2Zm3 17.6v-9.5h3.9v6.3h18.1v3.2h-22Zm.7 -17.6c0 2 1.7 3.2 4.2 3.2c2.4 0 4.1 -1.2 4.1 -3.2c0 -2 -1.7 -3.2 -4.1 -3.2c-2.5 0 -4.2 1.2 -4.2 3.2ZM429.6 1569.9h4v16.5h-4v-2.8h-7.8v-3h7.8v-3.3h-7.4c-2 5 -6.7 8.2 -13.9 9.9l-1.4 -3.2c7.7 -1.7 11.5 -5.1 12 -9.5H408.7v-3.2h14.6c0 1 -.1 2 -.3 3h6.6v-4.4Zm-17.3 20.9v-3.1h21.3v8.6H416.3v2.8h18.1v3.1H412.3v-8.9h17.3v-2.5H412.3ZM462.6 1569.9h3.8v32.6h-3.8v-32.6ZM438 1593.4c4.7 -3 6.7 -8.8 6.7 -14.6v-2.2H439v-3.2h14.7v3.2h-5.2v2.2c0 5.5 2 11.1 6.6 13.8l-2.4 2.9c-3 -1.8 -4.9 -5 -6 -8.7c-1.2 4.1 -3.3 7.5 -6.3 9.4l-2.4 -2.8Zm13.4 -8.9v-3.2h4.7v-10.8h3.6v30.4h-3.6v-16.4h-4.7ZM470.6 1584.8h29.5v2.9H470.6v-2.9Zm3.4 7.7v-2.8h22.5v7.5H478v2.2h19.5v2.8H474.1v-7.6h18.6v-2.1H474Zm.3 -19.1v-2.7h22.2v7.3H478.2v2.1H497v2.8H474.3v-7.5h18.3v-2H474.3ZM521.7 1571.3c4.9 0 8.4 2.8 8.4 6.9c0 4 -3.5 6.8 -8.4 6.8c-4.9 0 -8.5 -2.8 -8.5 -6.8c0 -4.1 3.6 -6.9 8.5 -6.9Zm-10.6 16c5.8 0 14 -.1 21 -1.2l.3 3c-2.9 .5 -5.8 .8 -8.6 1.1v11.3h-4v-11.1c-2.9 .1 -5.8 .2 -8.2 .2l-.5 -3.3Zm5.9 -9.1c0 2.2 2 3.6 4.7 3.6c2.7 0 4.7 -1.4 4.7 -3.6c0 -2.3 -2 -3.7 -4.7 -3.7c-2.7 0 -4.7 1.4 -4.7 3.7Zm17.2 24.3v-32.6h3.9v32.6h-3.9ZM543.1 1575.1h6v-4.3H553v4.3h5.9v3.2H543.1v-3.2Zm.9 12.6c0 -4.5 2.9 -7.7 7.1 -7.7c4.1 0 7 3.2 7 7.7c0 4.5 -2.9 7.6 -7 7.6c-4.2 0 -7.1 -3.1 -7.1 -7.6Zm3.5 0c0 2.6 1.4 4.3 3.6 4.3c2 0 3.6 -1.7 3.6 -4.3c0 -2.7 -1.6 -4.4 -3.6 -4.4c-2.2 0 -3.6 1.7 -3.6 4.4Zm12.8 13.3v-30.4H564v12.8h3.2v-13.5h3.7v32.6h-3.7v-15.9H564V1601h-3.7ZM703 1570.4c7.3 0 11.6 2 11.6 5.6c0 3.6 -4.3 5.6 -11.6 5.6c-7.4 0 -11.7 -2 -11.7 -5.6c0 -3.6 4.3 -5.6 11.7 -5.6Zm-14.8 16.2v-3.1h29.5v3.1H688.2Zm3.5 5.2v-3H714v7.9H695.6v2.6H715v3H691.8V1594h18.4v-2.2H691.7Zm3.7 -15.8c0 1.8 2.6 2.7 7.6 2.7c4.9 0 7.6 -.9 7.6 -2.7c0 -1.8 -2.7 -2.7 -7.6 -2.7c-5 0 -7.6 .9 -7.6 2.7ZM751.7 1569.9h3.9v17.5h-3.9v-17.5Zm-22.4 9c0 -4.4 3.7 -7.5 8.7 -7.5c5 0 8.7 3.1 8.7 7.5c0 4.6 -3.7 7.7 -8.7 7.7c-5 0 -8.7 -3.1 -8.7 -7.7Zm3.9 0c0 2.7 2 4.4 4.8 4.4c2.8 0 4.9 -1.7 4.9 -4.4c0 -2.6 -2.1 -4.3 -4.9 -4.3c-2.8 0 -4.8 1.7 -4.8 4.3Zm1.1 23.2V1589h3.9v3.4h13.5V1589h3.9v13.1H734.3Zm3.9 -3.1h13.5v-3.6H738.2v3.6ZM762 1571.8h14.2v9.9H766v4c5.2 0 8.2 -.2 11.7 -.8l.4 3.2c-3.9 .7 -7.2 .8 -13.6 .8h-2.4v-10.2h10.2V1575H762v-3.2Zm3.7 22.9v-3.1h22.1v11h-3.9v-7.9H765.7Zm12.5 -10.1v-3.2h5.7v-3.6h-5.7v-3.2h5.7V1570h3.9v20h-3.9v-5.4h-5.7ZM814.2 1569.9h4v13h5v3.3h-5v16.3h-4v-32.6Zm-21.6 8.2v-3.2h7.7v-4.5h4v4.5h7.5v3.2H792.6Zm1.6 9.8c0 -4.4 3.5 -7.6 8.1 -7.6c4.7 0 8.1 3.2 8.1 7.6c0 4.5 -3.4 7.7 -8.1 7.7c-4.6 0 -8.1 -3.2 -8.1 -7.7Zm3.8 0c0 2.7 1.8 4.5 4.3 4.5c2.5 0 4.4 -1.8 4.4 -4.5c0 -2.7 -1.9 -4.4 -4.4 -4.4c-2.5 0 -4.3 1.7 -4.3 4.4ZM833.7 1572.3c2.9 0 5.4 1.7 6.8 4.6h7.6v-7H852v32.7h-3.9v-12.4h-7.3c-1.5 3.3 -4 5.2 -7.1 5.2c-4.8 0 -8.3 -4.5 -8.3 -11.6c0 -7.1 3.5 -11.5 8.3 -11.5Zm-4.6 11.5c0 5 1.9 8 4.6 8c2.7 0 4.6 -3 4.6 -8c0 -5 -1.9 -7.9 -4.6 -7.9c-2.7 0 -4.6 2.9 -4.6 7.9Zm12.5 -3.8c.3 1.2 .4 2.4 .4 3.8c0 1.2 -.1 2.2 -.3 3.2h6.4v-7h-6.5ZM865.4 1588.2h29.5v3.2H882v11.2h-3.9v-11.2H865.4v-3.2Zm1.6 -5.4c6.3 -.8 10.6 -4.3 10.9 -7.9h-9.8v-3.1h24v3.1h-9.7c.3 3.6 4.6 7.1 10.9 7.9l-1.4 3.1c-5.5 -.8 -9.8 -3.3 -11.7 -6.8c-2.1 3.5 -6.4 6 -11.8 6.8l-1.4 -3.1ZM910.3 1581.2h4.6v-10.7h3.6V1601h-3.6v-16.6h-4.6v-3.2Zm-13.4 11.6c4.6 -2.7 6.8 -8.6 6.8 -14.2v-5.7h3.8v5.6c0 5.2 1.8 10.7 6.2 13.5l-2.2 3.1c-2.9 -1.8 -4.8 -4.9 -5.9 -8.5c-1.1 4 -3.2 7.3 -6.3 9.2l-2.4 -3Zm24.6 9.7v-32.6h3.8v32.6h-3.8ZM929.5 1595.3h6.8V1587c-2.6 -1.5 -4.1 -3.8 -4.1 -6.7c0 -5.2 5 -8.6 12 -8.6c7 0 12 3.4 12 8.6c0 2.9 -1.5 5.2 -4 6.7v8.3H959v3.2H929.5v-3.2Zm6.5 -15c0 3.4 3.4 5.5 8.2 5.5c4.8 0 8.2 -2.1 8.2 -5.5c0 -3.4 -3.4 -5.5 -8.2 -5.5c-4.8 0 -8.2 2.1 -8.2 5.5Zm4.2 15h8v-6.9c-1.2 .3 -2.6 .4 -4 .4c-1.4 0 -2.7 -.1 -4 -.4v6.9ZM964.5 1595.9c1.3 0 2.2 .9 2.2 2.3c0 1.3 -.9 2.2 -2.2 2.2c-1.3 0 -2.3 -.9 -2.3 -2.2c0 -1.4 1 -2.3 2.3 -2.3ZM125 1624.9h4v32.7h-4v-32.7Zm-21.2 25v-22.3h3.9v8.2h7.9v-8.2h4v22.3H103.8Zm3.9 -3.2h7.9v-7.8h-7.9v7.8ZM135.8 1626.6h15.6v13.6H135.8v-13.6Zm3.8 19.5V1643h21.5v8.4H143.5v2.7H162v3.2H139.7v-8.7h17.5v-2.5H139.6Zm.1 -9h7.8v-7.4h-7.8v7.4Zm17.4 4.4v-16.6h4v16.6h-4ZM189.3 1625h4v24h-4v-12h-6.5v6.7H167.7v-16.6h3.9v5.3h7.3v-5.3h3.9v6.7h6.5V1625Zm-17.7 15.6h7.3v-5.2h-7.3v5.2Zm.4 16.3v-10.2h3.9v7H194v3.2H172ZM199.6 1629.2H211v-3.9h3.9v3.9h11.4v3.2H199.6v-3.2Zm-1.3 24.8v-3.2H211v-4.1c-5.6 -.4 -8.9 -2.7 -8.9 -6.3c0 -3.9 4.1 -6.2 10.9 -6.2c6.6 0 10.8 2.3 10.8 6.2c0 3.6 -3.4 5.9 -8.9 6.3v4.1h12.9v3.2H198.3Zm7.8 -13.6c0 2.2 2.5 3.3 6.9 3.3c4.3 0 6.8 -1.1 6.8 -3.3c0 -2.1 -2.5 -3.2 -6.8 -3.2c-4.4 0 -6.9 1.1 -6.9 3.2ZM230.3 1639.8h29.5v2.9H230.3v-2.9Zm3.4 7.7v-2.8h22.5v7.5H237.7v2.2h19.5v2.8H233.8v-7.6h18.6v-2.1H233.7Zm.3 -19.1v-2.7h22.1v7.3H237.9v2.1h18.8v2.8H234v-7.5h18.3v-2H234ZM276.1 1642.7l-3.8 -.5l.9 -14.2h14.2v3.3H276.8l-.4 6.7c1.2 -.6 2.6 -.9 3.8 -.9c5.5 0 9.4 3.7 9.4 8.9c0 5.3 -3.9 9 -9.4 9c-4.3 0 -8 -2.8 -9 -6.9l3.7 -.9c.6 2.5 2.8 4.3 5.3 4.3c3.3 0 5.6 -2.3 5.6 -5.5c0 -3.1 -2.3 -5.3 -5.6 -5.3c-1.3 0 -3 .8 -4.1 2ZM315.5 1624.9h3.9v32.6h-3.9v-32.6Zm-22.8 23.6c2.5 0 5.4 0 8.5 -.1v-3.1c-3.6 -.5 -6 -2.8 -6 -5.9c0 -3.6 3.2 -6 8 -6c4.7 0 8 2.4 8 6c0 3.2 -2.4 5.4 -6.1 5.9v3c2.9 -.2 5.8 -.4 8.5 -.8l.3 2.9c-7.1 1.3 -14.9 1.4 -20.7 1.4l-.5 -3.3Zm.6 -16.7v-3.1h7.9V1625h4v3.7H313v3.1H293.3Zm5.6 7.6c0 1.9 1.8 3.1 4.3 3.1c2.5 0 4.2 -1.2 4.2 -3.1c0 -1.9 -1.7 -3.1 -4.2 -3.1c-2.5 0 -4.3 1.2 -4.3 3.1ZM355.9 1624.9h4v32.7h-4v-32.7Zm-21.8 13.9c0 -7.1 3.5 -11.5 8.4 -11.5c4.9 0 8.4 4.4 8.4 11.5c0 7.1 -3.5 11.6 -8.4 11.6c-4.9 0 -8.4 -4.5 -8.4 -11.6Zm3.8 0c0 5 1.8 8 4.6 8c2.7 0 4.6 -3 4.6 -8c0 -5 -1.9 -7.9 -4.6 -7.9c-2.8 0 -4.6 2.9 -4.6 7.9ZM372.6 1626.6h3.9v3.5c0 4.1 2.7 8 7.6 9.6l-2 3.1c-3.5 -1.2 -6.1 -3.6 -7.5 -6.7c-1.4 3.5 -4 6.2 -7.8 7.6l-2.1 -3.1c5.3 -1.8 7.9 -6.2 7.9 -10.9v-3.1Zm-3.5 24.8c0 -3.9 4.2 -6.2 10.9 -6.2c6.8 0 10.9 2.3 10.9 6.2c0 3.8 -4.1 6.1 -10.9 6.1c-6.7 0 -10.9 -2.3 -10.9 -6.1Zm3.9 0c0 2 2.6 3 7 3c4.5 0 7 -1 7 -3c0 -2.1 -2.5 -3.1 -7 -3.1c-4.4 0 -7 1 -7 3.1Zm13.6 -7v-19.5h4v7.9h4.5v3.3h-4.5v8.3h-4ZM409.3 1625.7h22.2v2.7H413.2v2h17.6v2.6H413.2v2.1h18.6v2.7H409.3v-12.1Zm-3.7 17v-3H435v3H405.6Zm3.4 4.7v-2.8h22.4v7.6H413v2.2h19.3v2.9H409.1v-7.8h18.4v-2.1H409ZM439.2 1626.5h15.1v8.5H443.1v3c6.1 0 9.9 -.2 14.3 -.9l.4 3c-4.8 .8 -8.9 .9 -15.8 .9h-2.7v-8.8h11.1v-2.8H439.2v-2.9Zm3.9 19.8v-3h21.4v8.2H447.1v2.7h18.4v3.1H443.2v-8.6h17.3v-2.4H443.1Zm17.5 -4.3v-17.1h3.9V1642h-3.9ZM493.5 1637.2h7.7v-3.6h-7.3c-2.1 5.2 -6.9 8.8 -13.9 10.8l-1.6 -3.1c7.7 -2.1 11.7 -6 12.3 -10.9H480.2v-3.2H495c0 1.2 -.1 2.2 -.3 3.3h6.5v-5.6h4V1644h-4v-3.6h-7.7v-3.2Zm-10 13.7c0 -4.1 4.3 -6.5 11 -6.5c6.6 0 10.9 2.4 10.9 6.5c0 4 -4.3 6.5 -10.9 6.5c-6.7 0 -11 -2.5 -11 -6.5Zm4 0c0 2.1 2.6 3.4 7 3.4c4.3 0 7 -1.3 7 -3.4c0 -2.2 -2.7 -3.4 -7 -3.4c-4.4 0 -7 1.2 -7 3.4ZM510.2 1643.4h29.5v3.2H526.8v11h-3.9v-11H510.2v-3.2Zm3 -10c0 -4.4 4.7 -7.2 11.6 -7.2c7 0 11.7 2.8 11.7 7.2c0 4.4 -4.7 7.2 -11.7 7.2c-6.9 0 -11.6 -2.8 -11.6 -7.2Zm4.1 0c0 2.6 3 4.1 7.5 4.1c4.7 0 7.6 -1.5 7.6 -4.1c0 -2.6 -2.9 -4.1 -7.6 -4.1c-4.5 0 -7.5 1.5 -7.5 4.1ZM1033.1 1630.1h6v-4.3h3.9v4.3h5.9v3.2h-15.8v-3.2Zm.9 12.6c0 -4.5 2.9 -7.7 7.1 -7.7c4.1 0 7 3.2 7 7.7c0 4.5 -2.9 7.6 -7 7.6c-4.2 0 -7.1 -3.1 -7.1 -7.6Zm3.5 0c0 2.6 1.4 4.3 3.6 4.3c2 0 3.5 -1.7 3.5 -4.3c0 -2.7 -1.5 -4.4 -3.5 -4.4c-2.2 0 -3.6 1.7 -3.6 4.4Zm12.8 13.3v-30.4h3.7v12.8h3.2v-13.5h3.7v32.6h-3.7v-15.9H1054V1656h-3.7ZM1065.2 1643.2h29.5v3.2h-12.9v11.2h-3.9v-11.2h-12.7v-3.2Zm1.6 -5.4c6.3 -.8 10.6 -4.3 10.9 -7.9h-9.8v-3.1h24v3.1h-9.7c.3 3.6 4.6 7.1 10.9 7.9l-1.4 3.1c-5.5 -.8 -9.8 -3.3 -11.7 -6.8c-2.1 3.5 -6.3 6 -11.8 6.8l-1.4 -3.1ZM1110.1 1636.2h4.6v-10.7h3.7V1656h-3.7v-16.6h-4.6v-3.2Zm-13.4 11.6c4.6 -2.7 6.8 -8.6 6.8 -14.2v-5.7h3.8v5.6c0 5.2 1.8 10.7 6.2 13.5l-2.2 3.1c-2.9 -1.8 -4.8 -4.9 -5.9 -8.5c-1.1 4 -3.2 7.3 -6.3 9.2l-2.4 -3Zm24.6 9.7v-32.6h3.8v32.6h-3.8ZM1129.3 1650.3h6.8V1642c-2.6 -1.5 -4.1 -3.8 -4.1 -6.7c0 -5.2 5.1 -8.6 12 -8.6c7 0 12 3.4 12 8.6c0 2.9 -1.5 5.2 -4 6.7v8.3h6.8v3.2h-29.5v-3.2Zm6.5 -15c0 3.4 3.4 5.5 8.2 5.5c4.8 0 8.2 -2.1 8.2 -5.5c0 -3.4 -3.4 -5.5 -8.2 -5.5c-4.8 0 -8.2 2.1 -8.2 5.5Zm4.2 15h8v-6.9c-1.2 .3 -2.6 .4 -4 .4c-1.4 0 -2.7 -.1 -4 -.4v6.9ZM1164.3 1650.9c1.3 0 2.2 .9 2.2 2.3c0 1.3 -.9 2.2 -2.2 2.2c-1.3 0 -2.3 -.9 -2.3 -2.2c0 -1.4 1 -2.3 2.3 -2.3Z" class="g3_13"/>
<path d="M606 1569.7h5.2v16.5H606V1584h-7v-3.9h7v-2.6h-6.7c-2 4.9 -6.6 7.9 -13.9 9.5l-1.6 -4.1c7.4 -1.5 10.5 -4.4 11 -8h-9.1v-4.1h14.8c0 1 0 2 -.1 2.9H606v-4Zm-16.8 21.7v-4h22v9.3H594.4v1.7h17.4v4H589.3v-9.5H606v-1.5H589.2ZM639.1 1569.7h4.8v33.1h-4.8v-33.1Zm-24.4 23.2c4.9 -3.1 6.4 -9 6.4 -14.5V1577H616v-4.1h14.7v4.1h-4.6v1.4c0 5.4 1.4 11 6.3 13.8l-3 3.7c-2.8 -1.7 -4.6 -4.4 -5.7 -7.8c-1.1 3.7 -3 6.8 -6 8.6l-3 -3.8Zm13.7 -7.9v-4.2h4v-10.7h4.7v31.2h-4.7V1585h-4ZM678.4 1569.7h5.2v24.2h-5.2v-24.2Zm-21.8 16h3.2v-9.3h-2.4v-4.1h17.8v4.1h-2.4v8.8c1.2 -.1 2.4 -.2 3.6 -.4l.4 3.7c-6.7 1.1 -14 1.3 -19.7 1.3l-.5 -4.1Zm4.7 16.5v-10.4h5.1v6.4h17.9v4h-23Zm3.5 -16.6l3 -.1v-9.1h-3v9.2Z" class="g4_13"/>
<path d="M572.9 1624.7h5.2v24.2h-5.2v-24.2Zm-21.9 16h3.3v-9.3h-2.5v-4.1h17.9v4.1h-2.5v8.8c1.3 -.1 2.5 -.2 3.7 -.4l.3 3.7c-6.6 1.1 -13.9 1.3 -19.7 1.3l-.5 -4.1Zm4.8 16.5v-10.4h5.1v6.4h17.9v4h-23Zm3.4 -16.6l3.1 -.1v-9.1h-3.1v9.2ZM591 1649.9h12.4v-6.1h5.1v6.1h12.4v4.2H591v-4.2Zm.8 -9.1c7.7 -.8 11 -4.4 11.5 -7.8h-9.8v-4.1h9.9V1625h5.1v3.9h9.9v4.1h-9.8c.5 3.4 3.8 7 11.5 7.8l-1.8 4.1c-6 -.8 -10.1 -3.1 -12.4 -6.4c-2.2 3.3 -6.3 5.6 -12.3 6.4l-1.8 -4.1ZM645.5 1624.7h5.1v33.1h-5.1v-33.1ZM623 1648.2c8.3 -4 11.8 -8.9 12.5 -16.1H624.8V1628h16c0 10.3 -3.2 18.6 -15.1 24.3l-2.7 -4.1ZM676.4 1624.7h5.2V1638h3.9v4.2h-3.9v15.6h-5.2v-33.1Zm-21.7 23.6c2.3 0 5 0 7.8 -.1v-2.6c-3.4 -.7 -5.6 -3 -5.6 -6c0 -3.7 3.4 -6.2 8.2 -6.2c4.7 0 8.1 2.5 8.1 6.2c0 3 -2.2 5.3 -5.6 6v2.5c2.5 -.2 4.9 -.4 7.2 -.7l.4 3.7c-6.9 1.3 -14.4 1.4 -19.9 1.4l-.6 -4.2Zm.6 -16.1v-4h7.2v-3.4h5.1v3.4h7.1v4H655.3Zm6.5 7.4c0 1.6 1.3 2.4 3.3 2.4c2 0 3.3 -.8 3.3 -2.4c0 -1.6 -1.3 -2.4 -3.3 -2.4c-2 0 -3.3 .8 -3.3 2.4ZM687.1 1639.4h30v3.7h-30v-3.7Zm3.3 8.6v-3.5h23.2v8.1h-18v1.5h18.8v3.5H690.5v-8.2h18V1648H690.4Zm.4 -19.4v-3.5h22.7v8.1H695.9v1.4h18.2v3.5H690.8V1630h17.6v-1.4H690.8ZM738.3 1625.9c5 0 8.7 2.9 8.7 7.2c0 4.1 -3.7 7.1 -8.7 7.1c-5.1 0 -8.8 -3 -8.8 -7.1c0 -4.3 3.7 -7.2 8.8 -7.2ZM727.7 1642c5.7 0 13.9 -.1 20.8 -1.2l.3 3.8c-2.6 .5 -5.2 .8 -7.8 1.1v11.1h-5.2V1646c-2.7 .1 -5.3 .1 -7.5 .1l-.6 -4.1Zm6.8 -8.9c0 1.9 1.6 2.9 3.8 2.9c2.2 0 3.8 -1 3.8 -2.9c0 -2 -1.6 -3 -3.8 -3c-2.2 0 -3.8 1 -3.8 3Zm15.8 24.7v-33.1h5.1v33.1h-5.1ZM759.6 1629.5H765v-4h5v4h5.3v4H759.6v-4Zm.6 13.4c0 -4.7 3.1 -8 7.3 -8c4.3 0 7.3 3.3 7.3 8c0 4.6 -3 7.9 -7.3 7.9c-4.2 0 -7.3 -3.3 -7.3 -7.9Zm4.6 0c0 2.4 1.1 3.6 2.7 3.6c1.6 0 2.8 -1.2 2.8 -3.6c0 -2.5 -1.2 -3.8 -2.8 -3.8c-1.6 0 -2.7 1.3 -2.7 3.8Zm11.6 13.5v-31.1h4.8V1638h2.1v-13.3h4.9v33.1h-4.9v-15.7h-2.1v14.3h-4.8ZM801.6 1627h17v2.2c0 2.3 0 5.6 -.7 9.7l-5 -.6c.5 -2.9 .7 -5.2 .7 -7.2h-12V1627Zm-2 14.1c1.7 0 3.7 0 5.8 0v-6.3h5.1v6.1c3.2 -.2 6.4 -.4 9.4 -.8l.3 3.6c-6.8 1.3 -14.5 1.4 -20.1 1.5l-.5 -4.1Zm4.8 16.1v-10h5.1v6h18.3v4H804.4Zm17.2 -7.8v-24.7h5.1v9.9h3.8v4.2h-3.8v10.6h-5.1ZM854.7 1624.6h5.1v33.2h-5.1v-33.2Zm-20.8 6.9v-4.1h15.7v13H839.1v5.6c5 -.1 9 -.3 13.5 -1.1l.5 4.1c-5.2 1 -10.1 1.2 -16.2 1.2h-3v-13.8h10.5v-4.9H833.9ZM864.8 1627.8H883v4.2h-6.4v1.4c0 4.9 2.4 10.8 7.9 13.3l-2.7 4.1c-3.7 -1.7 -6.2 -4.9 -7.6 -8.6c-1.5 4.1 -4 7.6 -7.8 9.4l-2.9 -4.1c5.6 -2.6 8 -8.8 8 -14.1V1632h-6.7v-4.2Zm20.3 30v-33.1h5.2v12.4H895v4.2h-4.7v16.5h-5.2ZM919.9 1624.7h4.9v33.1h-4.9v-33.1ZM896.5 1639c0 -7.6 2.8 -12.1 7.2 -12.1c3.9 0 6.6 3.6 7.1 9.8h2.3v-11.6h4.8v31.2h-4.8v-15.5h-2.2c-.4 6.5 -3.1 10.4 -7.2 10.4c-4.4 0 -7.2 -4.6 -7.2 -12.2Zm4.7 0c0 5 .9 7.3 2.5 7.3c1.7 0 2.5 -2.3 2.5 -7.3c0 -5 -.8 -7.3 -2.5 -7.3c-1.6 0 -2.5 2.3 -2.5 7.3ZM952 1624.7h4.9v33.1H952v-33.1Zm-24.2 22.7c6.5 -3.9 9.2 -8.4 9.8 -14.8h-7.9v-4.1h13c0 3.1 -.3 6 -1 8.7H945v-11.8h4.8v30.9H945v-15.1h-4.8c-1.8 3.8 -4.8 7.1 -9.5 9.8l-2.9 -3.6ZM991.4 1624.7h5.3v24.1h-5.3v-7.5h-7.1c-1.5 1.6 -3.8 2.5 -6.3 2.5c-5 0 -8.8 -3.6 -8.8 -8.6c0 -5 3.8 -8.6 8.8 -8.6c2.5 0 4.8 .9 6.3 2.5h7.1v-4.4Zm-17.3 10.5c0 2.7 1.6 4.2 3.9 4.2c2.2 0 3.9 -1.5 3.9 -4.2c0 -2.6 -1.7 -4.1 -3.9 -4.1c-2.3 0 -3.9 1.5 -3.9 4.1Zm.5 22v-10.7h5.1v6.7h17.6v4H974.6Zm11.9 -24c.2 .6 .3 1.3 .3 2c0 .7 -.1 1.4 -.3 2h4.9v-4h-4.9ZM1002 1626.5h15.2v10.3h-10.1v2.9c5.3 -.1 8.8 -.3 12.7 -1.1l.5 4.1c-4.5 .9 -8.7 1.1 -15.4 1.1H1002v-10.7h10.1v-2.6H1002v-4Zm2.8 23.8v-4H1027v11.5h-5.1v-7.5h-17.1Zm17.1 -5.5v-20.1h5.1v7.7h4.3v4.3H1027v8.1h-5.1Z" class="g5_13"/>
<path fill-rule="evenodd" d="M48.6 1792.8l9.7 2.6l5.8 -22.1c2.5 -9.6 -3 -19.3 -12.3 -21.9c-9.4 -2.5 -19 3.2 -21.5 12.7l-5.9 22.1l9.7 2.6l-1.9 7.4c-1.1 4.1 1.2 8.3 5.2 9.4c4 1.1 8.2 -1.4 9.2 -5.4l2 -7.4Zm6.1 -3.6l4.6 -17.3c1.8 -6.8 -2.2 -13.7 -8.8 -15.5c-6.7 -1.9 -13.6 2.2 -15.4 9l-4.5 17.2l9.6 2.6L37 1797.5c-.4 1.4 .4 2.8 1.7 3.2c1.4 .3 2.8 -.5 3.1 -1.9l3.3 -12.3l9.6 2.7Z" class="g4_13"/>
<image clip-path="url(#c0_13)" preserveAspectRatio="none" x="87" y="101" width="1100" height="1496" xlink:href="img/1.png"/>
<image clip-path="url(#c1_13)" preserveAspectRatio="none" x="179" y="154" width="916" height="1313" xlink:href="img/2.jpg"/>
</svg>