<?xml version="1.0" encoding="UTF-8" standalone="no"?>
<!DOCTYPE svg PUBLIC "-//W3C//DTD SVG 1.1//EN"
"http://www.w3.org/Graphics/SVG/1.1/DTD/svg11.dtd">
<svg viewBox="0 0 1274 1824" version="1.1" xmlns="http://www.w3.org/2000/svg" xmlns:xlink="http://www.w3.org/1999/xlink">
<defs>
<clipPath id="c0_15"><path d="M86.8 1596.9V100.5H1187.4V1596.9Z"/></clipPath>
<clipPath id="c1_15"><path d="M203.2 1466.7c-13.5 0 -24.4 -11 -24.4 -24.5V178.8c0 -13.6 10.9 -24.5 24.4 -24.5H1071c13.5 0 24.4 10.9 24.4 24.5V1442.2c0 13.5 -10.9 24.5 -24.4 24.5Z"/></clipPath>
<style type="text/css"><![CDATA[
.g0_15{
fill: #FFF;
}
.g1_15{
fill: #000;
fill-opacity: 0.02;
}
.g2_15{
fill: #2EA4AB;
fill-opacity: 0.01;
}
.g3_15{
fill: #D76263;
}
.g4_15{
fill: #1C1F1F;
}
.g5_15{
fill: #2EA4AB;
}
]]></style>
</defs>
<path d="M0 1824.2H1274.2V0H0V1824.2Z" class="g0_15"/>
<path d="M0 1824.2H1274.2V0H0V1824.2Z" class="g1_15"/>
<path d="M0 1824.2H1274.2V0H0V1824.2Z" class="g2_15"/>
<path d="M523.3 1569.7h5.2v16.5h-5.2V1584h-7v-3.9h7v-2.6h-6.7c-2 4.9 -6.6 7.9 -13.9 9.5l-1.7 -4.1c7.4 -1.5 10.6 -4.4 11.1 -8H503v-4.1h14.8c0 1 0 2 -.2 2.9h5.7v-4Zm-16.8 21.7v-4h22v9.3H511.7v1.7h17.4v4H506.5v-9.5h16.8v-1.5H506.5ZM556.3 1569.7h4.9v33.1h-4.9v-33.1ZM532 1592.9c4.9 -3.1 6.4 -9 6.4 -14.5V1577h-5.1v-4.1H548v4.1h-4.6v1.4c0 5.4 1.4 11 6.3 13.8l-3 3.7c-2.8 -1.7 -4.7 -4.4 -5.8 -7.8c-1.1 3.7 -2.9 6.8 -5.9 8.6l-3 -3.8Zm13.7 -7.9v-4.2h4v-10.7h4.7v31.2h-4.7V1585h-4ZM588.4 1569.7h4.9v33.1h-4.9v-33.1ZM565 1584c0 -7.6 2.8 -12.1 7.2 -12.1c4 0 6.6 3.6 7.2 9.8h2.2v-11.6h4.8v31.2h-4.8v-15.5h-2.2c-.4 6.5 -3.1 10.4 -7.2 10.4c-4.4 0 -7.2 -4.6 -7.2 -12.2Zm4.7 0c0 5 .9 7.3 2.5 7.3c1.7 0 2.6 -2.3 2.6 -7.3c0 -5 -.9 -7.3 -2.6 -7.3c-1.6 0 -2.5 2.3 -2.5 7.3ZM627.7 1569.7h5.2v16.6h-5.2v-16.6ZM605 1582.5c5.7 -1.7 7.9 -5.8 7.9 -9.6v-2.5h5.2v2.5c0 3.7 2.1 7.5 7.5 9.1l-2.4 3.9c-3.7 -1 -6.2 -3.2 -7.7 -5.9c-1.5 3 -4.1 5.4 -8 6.6l-2.5 -4.1Zm5.7 9.1v-3.9h22.2v9.2H615.7v1.7h17.9v4H610.7v-9.4h17.1v-1.6H610.7ZM661 1569.7h4.8v33.1H661v-16.4h-2.2v14.8H654v-31h4.8v12H661v-12.5Zm-24 21.6h2.4v-14h-1.8v-4h15v4h-1.9v13.4c.7 0 1.4 -.1 2.1 -.2l.3 3.7c-5 1.1 -11.6 1.2 -15.6 1.2l-.5 -4.1Zm7.1 -.1c.7 -.1 1.3 -.1 2 -.1v-13.8h-2v13.9ZM382.1 1626.5h5.2v3.3c0 3.9 2 7.7 7.3 9.3l-2.7 3.9c-3.4 -1.1 -5.7 -3.2 -7.1 -5.9c-1.5 3.1 -3.9 5.6 -7.7 6.9l-2.7 -4c5.7 -1.9 7.7 -6.3 7.7 -10.7v-2.8Zm-3.1 24.8c0 -4 4.4 -6.5 11.3 -6.5c6.9 0 11.3 2.5 11.3 6.5c0 4.1 -4.4 6.5 -11.3 6.5c-6.9 0 -11.3 -2.4 -11.3 -6.5Zm5.1 0c0 1.7 2.1 2.6 6.2 2.6c4 0 6.2 -.9 6.2 -2.6c0 -1.7 -2.2 -2.5 -6.2 -2.5c-4.1 0 -6.2 .8 -6.2 2.5Zm11.9 -7.2v-19.4h5.1v7.4h4.3v4.3h-4.3v7.7H396ZM407.1 1640.1H437v4H424.6v2.5h8.8v10.8H410.5v-10.8h8.9v-2.5H407.1v-4Zm2.5 -10.5v-4h24.8v4h-4.1v4.6h3.8v4H409.9v-4h3.8v-4.6h-4.1Zm5.9 23.8h12.9v-2.8H415.5v2.8Zm3.3 -19.2h6.4v-4.6h-6.4v4.6ZM470 1624.7h5.2v23.7H470v-23.7Zm-22 10.5c0 -5 3.9 -8.5 9 -8.5c5.2 0 9.1 3.5 9.1 8.5c0 4.9 -3.9 8.5 -9.1 8.5c-5.1 0 -9 -3.6 -9 -8.5Zm4.9 22V1646H458v7.2h17.9v4h-23Zm.1 -22c0 2.5 1.8 4 4 4c2.3 0 4.1 -1.5 4.1 -4c0 -2.6 -1.8 -4 -4.1 -4c-2.2 0 -4 1.4 -4 4ZM487.1 1626.2h5.3v3.1c0 4 2 7.9 7.5 9.5l-2.4 4.1c-3.7 -1.2 -6.2 -3.4 -7.7 -6.2c-1.5 3 -4.1 5.5 -8 6.7l-2.5 -4.1c5.7 -1.7 7.8 -6 7.8 -10v-3.1Zm-2.6 23.6v-4h22.7v12H502v-8H484.5Zm17.5 -5.4v-19.7h5.2v19.7H502ZM544 1624.7h5v33.1h-5v-33.1Zm-24.2 21.6h2.4v-13.9h-1.9v-4.1h15v4.1h-1.9v13.4c.8 -.1 1.7 -.2 2.4 -.3l.4 3.7c-5.2 1.1 -11.9 1.2 -15.9 1.2l-.5 -4.1Zm7 -.1c.6 0 1.3 -.1 2 -.1v-13.7h-2v13.8Zm7.8 -5.1v-4.5h2.8v-11.3h4.8v31h-4.8v-15.2h-2.8ZM574.5 1624.6h5.2v33.2h-5.2v-33.2ZM553 1638.7c0 -7.2 3.7 -11.8 8.8 -11.8c5 0 8.7 4.6 8.7 11.8c0 7.4 -3.7 12 -8.7 12c-5.1 0 -8.8 -4.6 -8.8 -12Zm5 0c0 4.9 1.5 7.3 3.8 7.3c2.3 0 3.8 -2.4 3.8 -7.3c0 -4.7 -1.5 -7.1 -3.8 -7.1c-2.3 0 -3.8 2.4 -3.8 7.1ZM585.2 1627.8h18.6v4.2h-6.6v1.4c0 5.3 2.4 11 8 13.3l-2.8 4.1c-3.8 -1.6 -6.3 -4.8 -7.8 -8.6c-1.4 4.2 -4 7.7 -7.9 9.4l-2.9 -4.1c5.7 -2.5 8.1 -8.6 8.1 -14.1V1632h-6.7v-4.2Zm21.4 30v-33.1h5.1v33.1h-5.1ZM616.3 1650h12.3v-4.6h-9V1634h18.3v-3.2H619.6v-4.1h23.3V1638H624.7v3.3h19v4.1h-9.9v4.6h12.4v4.2H616.3V1650ZM660.4 1625.8h22.5v4H665.5v2.2h17.7v4h-8.9v1.9h12.4v4h-30v-4h12.4V1636h-8.7v-10.2Zm-.3 21.4v-3.8h23v8.8H665.2v1.5h18.7v3.9H660.1v-9H678v-1.4H660.1ZM697.7 1626.9c5.1 0 8.8 4.6 8.8 11.8c0 7.4 -3.7 12 -8.8 12c-5.1 0 -8.8 -4.6 -8.8 -12c0 -7.2 3.7 -11.8 8.8 -11.8Zm-3.9 11.8c0 4.9 1.6 7.3 3.9 7.3c2.3 0 3.8 -2.4 3.8 -7.3c0 -4.7 -1.5 -7.1 -3.8 -7.1c-2.3 0 -3.9 2.4 -3.9 7.1Zm15.9 19.1v-33.1h5.2V1637h4.6v4.2h-4.6v16.6h-5.2ZM741.7 1624.6h5.2v12.5h4.4v4.2h-4.4v16.4h-5.2v-33.1Zm-21.3 23.7c7.5 -3.9 11.5 -8.9 12.4 -16.2H722.3V1628H738c0 10.1 -3.6 18.6 -14.7 24.2l-2.9 -3.9ZM785.2 1624.7h4.9v33.1h-4.9v-16.5h-2.3v15h-4.8v-9.4l-2.5 3.5c-2.9 -1.6 -4.8 -4.1 -6 -7.3c-1 3.7 -2.9 6.7 -5.9 8.5l-3.1 -3.9c5 -3 6.4 -8.9 6.4 -15.2v-.5h-5.3v-4.1h15v4.1H772v.5c0 5.7 1.4 11.1 6.1 13.8v-21.2h4.8v12.1h2.3v-12.5ZM816 1624.7h5.2v16.5H816V1639h-7v-3.9h7v-2.6h-6.7c-2 4.9 -6.6 7.9 -13.9 9.5l-1.7 -4.1c7.4 -1.5 10.5 -4.4 11.1 -8h-9.2v-4.1h14.9c0 1 -.1 2 -.2 2.9H816v-4Zm-16.8 21.7v-4h22v9.3H804.3v1.7h17.5v4H799.2v-9.5H816v-1.5H799.2ZM849.3 1624.7h4.9v33.1h-4.9v-16.5H847v15h-4.8v-9.4l-2.5 3.5c-2.9 -1.6 -4.8 -4.1 -6 -7.3c-1.1 3.7 -2.9 6.7 -5.9 8.5l-3.1 -3.9c5 -3 6.4 -8.9 6.4 -15.2v-.5h-5.3v-4.1h15v4.1h-4.7v.5c0 5.7 1.4 11.1 6.1 13.8v-21.2H847v12.1h2.3v-12.5Z" class="g3_15"/>
<path d="M691.2 1569.8h3.9v7.4h4.6v3.2h-4.6v7.2h-3.9v-17.8Zm-21.5 5.7v-3h7.6v-2.9h3.9v2.9h7.7v3H669.7Zm1.7 6.5c0 -3.4 3.1 -5.4 7.9 -5.4c4.7 0 7.9 2 7.9 5.4c0 3.2 -3.2 5.3 -7.9 5.3c-4.8 0 -7.9 -2.1 -7.9 -5.3Zm2.6 10v-2.9h21.1v7.8H677.9v2.4h18.3v3H674.1v-8.1h17.1V1592H674Zm1.1 -10c0 1.6 1.6 2.5 4.2 2.5c2.5 0 4.1 -.9 4.1 -2.5c0 -1.7 -1.6 -2.6 -4.1 -2.6c-2.6 0 -4.2 .9 -4.2 2.6ZM725.5 1582.2h7.7v-3.6h-7.4c-2 5.2 -6.8 8.8 -13.9 10.8l-1.5 -3.1c7.7 -2.1 11.7 -6 12.3 -10.9H712.2v-3.2H727c0 1.2 -.1 2.2 -.3 3.3h6.5v-5.6h4V1589h-4v-3.6h-7.7v-3.2Zm-10 13.7c0 -4.1 4.3 -6.5 11 -6.5c6.6 0 10.9 2.4 10.9 6.5c0 4 -4.3 6.5 -10.9 6.5c-6.7 0 -11 -2.5 -11 -6.5Zm4 0c0 2.1 2.6 3.4 7 3.4c4.3 0 7 -1.3 7 -3.4c0 -2.2 -2.7 -3.4 -7 -3.4c-4.4 0 -7 1.2 -7 3.4ZM742.2 1588.4h29.5v3.2H758.8v11h-3.9v-11H742.2v-3.2Zm3 -10c0 -4.4 4.7 -7.2 11.6 -7.2c7 0 11.6 2.8 11.6 7.2c0 4.4 -4.6 7.2 -11.6 7.2c-6.9 0 -11.6 -2.8 -11.6 -7.2Zm4.1 0c0 2.6 2.9 4.1 7.5 4.1c4.6 0 7.6 -1.5 7.6 -4.1c0 -2.6 -3 -4.1 -7.6 -4.1c-4.6 0 -7.5 1.5 -7.5 4.1ZM246.2 1627.6h3.9v5.2c0 5.8 2.9 11.7 7.9 14.2l-2.4 3.1c-3.5 -1.8 -6 -5.3 -7.4 -9.4c-1.4 4.4 -4.1 8.1 -7.8 10l-2.4 -3.2c5.2 -2.4 8.2 -8.7 8.2 -14.7v-5.2Zm13.8 29.9v-32.6h3.9v12.9h5v3.3h-5v16.4H260ZM270.6 1640.7h6.9v-4.2c-2.4 -1.1 -3.8 -2.7 -3.8 -4.9c0 -3.9 4.5 -6.1 11.7 -6.1c7.1 0 11.6 2.2 11.6 6.1c0 2.2 -1.4 3.8 -3.9 4.9v4.2h7v3.1H270.6v-3.1Zm3.5 11c0 -3.8 4.2 -5.9 11.2 -5.9c7 0 11.3 2.1 11.3 5.9c0 3.7 -4.3 5.8 -11.3 5.8c-7 0 -11.2 -2.1 -11.2 -5.8Zm3.7 -20.1c0 2 2.8 3.2 7.6 3.2c4.7 0 7.6 -1.2 7.6 -3.2c0 -2 -2.9 -3.1 -7.6 -3.1c-4.8 0 -7.6 1.1 -7.6 3.1Zm.2 20.1c0 1.9 2.6 2.8 7.3 2.8c4.7 0 7.3 -.9 7.3 -2.8c0 -1.9 -2.6 -2.9 -7.3 -2.9c-4.7 0 -7.3 1 -7.3 2.9Zm3.4 -11h7.8v-3.2c-1.2 .2 -2.4 .3 -3.8 .3c-1.5 0 -2.7 -.1 -4 -.3v3.2ZM303.3 1628.1H321v3.3h-6.8v2.8c0 5.1 3.1 10.9 8.2 13.2l-2.2 3.1c-3.7 -1.7 -6.4 -5.2 -7.9 -9.3c-1.4 4.5 -4.3 8.3 -8 10.1l-2.2 -3.1c5 -2.4 8.2 -8.5 8.2 -14v-2.8h-7v-3.3Zm20.8 29.4v-32.6H328v12.8h5v3.2h-5v16.6h-3.9ZM338.5 1626.1h3.9v8.1h18.5v3.1H338.5v-11.2Zm-3.8 18.2v-3.2h29.5v3.2H334.7Zm3.6 12.5v-9.7h3.9v6.5h18.9v3.2H338.3ZM866.1 1630.1h6v-4.3H876v4.3h5.9v3.2H866.1v-3.2Zm.9 12.6c0 -4.5 2.9 -7.7 7.1 -7.7c4.1 0 7 3.2 7 7.7c0 4.5 -2.9 7.6 -7 7.6c-4.2 0 -7.1 -3.1 -7.1 -7.6Zm3.5 0c0 2.6 1.4 4.3 3.6 4.3c2 0 3.6 -1.7 3.6 -4.3c0 -2.7 -1.6 -4.4 -3.6 -4.4c-2.2 0 -3.6 1.7 -3.6 4.4Zm12.8 13.3v-30.4H887v12.8h3.2v-13.5h3.7v32.6h-3.7v-15.9H887V1656h-3.7ZM906.9 1627.3c4.9 0 8.4 4.4 8.4 11.5c0 7.1 -3.5 11.6 -8.4 11.6c-4.9 0 -8.4 -4.5 -8.4 -11.6c0 -7.1 3.5 -11.5 8.4 -11.5Zm-4.6 11.5c0 5 1.9 8 4.6 8c2.8 0 4.6 -3 4.6 -8c0 -5 -1.8 -7.9 -4.6 -7.9c-2.7 0 -4.6 2.9 -4.6 7.9Zm17.3 18.7v-32.6h4v7.9h4.7v3.2h-4.7v6.4h4.7v3.2h-4.7v11.9h-4ZM951.8 1624.9h4v8.1h4.5v3.2h-4.5v7.8h-4v-19.1Zm-21.5 6.2V1628h7.6v-3.4h4v3.4h7.6v3.1H930.3Zm1.7 6.9c0 -3.5 3.2 -5.8 7.9 -5.8c4.7 0 7.9 2.3 7.9 5.8c0 3.5 -3.2 5.7 -7.9 5.7c-4.7 0 -7.9 -2.2 -7.9 -5.7Zm2.9 19.1v-11.8h3.8v2.9h13.1v-2.9h4v11.8H934.9Zm.8 -19.1c0 1.8 1.7 2.8 4.2 2.8c2.5 0 4.1 -1 4.1 -2.8c0 -1.8 -1.6 -2.8 -4.1 -2.8c-2.5 0 -4.2 1 -4.2 2.8Zm3 16h13.1v-2.8H938.7v2.8ZM985.3 1624.9h4v32.6h-4v-32.6Zm-21.2 24.4V1628h4v18c4.5 -.1 9.3 -.5 14.4 -1.5l.4 3.3c-5.6 1.1 -10.9 1.5 -15.9 1.5h-2.9ZM1015.7 1624.9h4v12.4h5v3.3h-5v17h-4v-32.7Zm-20 24.7V1628h15.2v3.2H999.6v15.1c5.2 0 9.1 -.2 13.5 -1.1l.4 3.3c-4.9 1 -9.3 1.1 -15.2 1.1h-2.6ZM1029.3 1650.9c1.4 0 2.3 .9 2.3 2.3c0 1.3 -.9 2.2 -2.3 2.2c-1.3 0 -2.2 -.9 -2.2 -2.2c0 -1.4 .9 -2.3 2.2 -2.3Z" class="g4_15"/>
<path fill-rule="evenodd" d="M48.6 1792.8l9.7 2.6l5.8 -22.1c2.5 -9.6 -3 -19.3 -12.3 -21.9c-9.4 -2.5 -19 3.2 -21.5 12.7l-5.9 22.1l9.7 2.6l-1.9 7.4c-1.1 4.1 1.2 8.3 5.2 9.4c4 1.1 8.2 -1.4 9.2 -5.4l2 -7.4Zm6.1 -3.6l4.6 -17.3c1.8 -6.8 -2.2 -13.7 -8.8 -15.5c-6.7 -1.9 -13.6 2.2 -15.4 9l-4.5 17.2l9.6 2.6L37 1797.5c-.4 1.4 .4 2.8 1.7 3.2c1.4 .3 2.8 -.5 3.1 -1.9l3.3 -12.3l9.6 2.7Z" class="g5_15"/>
<image clip-path="url(#c0_15)" preserveAspectRatio="none" x="87" y="101" width="1100" height="1496" xlink:href="img/1.png"/>
<image clip-path="url(#c1_15)" preserveAspectRatio="none" x="179" y="154" width="916" height="1313" xlink:href="img/2.jpg"/>
</svg>