<?xml version="1.0" encoding="UTF-8" standalone="no"?>
<!DOCTYPE svg PUBLIC "-//W3C//DTD SVG 1.1//EN"
"http://www.w3.org/Graphics/SVG/1.1/DTD/svg11.dtd">
<svg viewBox="0 0 1274 1824" version="1.1" xmlns="http://www.w3.org/2000/svg" xmlns:xlink="http://www.w3.org/1999/xlink">
<defs>
<clipPath id="c0_8"><path d="M86.8 1596.9V100.5H1187.4V1596.9Z"/></clipPath>
<clipPath id="c1_8"><path d="M203.2 1466.7c-13.5 0 -24.4 -11 -24.4 -24.5V178.8c0 -13.6 10.9 -24.5 24.4 -24.5H1071c13.5 0 24.4 10.9 24.4 24.5V1442.2c0 13.5 -10.9 24.5 -24.4 24.5Z"/></clipPath>
<style type="text/css"><![CDATA[
.g0_8{
fill: #FFF;
}
.g1_8{
fill: #000;
fill-opacity: 0.02;
}
.g2_8{
fill: #2EA4AB;
fill-opacity: 0.01;
}
.g3_8{
fill: #2EA4AB;
}
.g4_8{
fill: #1C1F1F;
}
]]></style>
</defs>
<path d="M0 1824.2H1274.2V0H0V1824.2Z" class="g0_8"/>
<path d="M0 1824.2H1274.2V0H0V1824.2Z" class="g1_8"/>
<path d="M0 1824.2H1274.2V0H0V1824.2Z" class="g2_8"/>
<path d="M509.9 1590.5c.5 -1.1 .8 -2.8 .8 -4.1c0 -5.9 -3.4 -9.7 -8.8 -9.7c-5.4 0 -8.9 3.8 -8.9 9.7c0 5.9 3.5 9.7 8.9 9.7c1.9 0 4 -.7 5.1 -1.6l-3.8 -4.1l3.6 -3.3l3.1 3.4ZM488 1586.4c0 -8.3 5.8 -14.1 13.9 -14.1c8.1 0 13.8 5.8 13.8 14.1c0 2.6 -1 5.8 -2.3 7.9l2.7 2.9l-3.6 3.3l-2.5 -2.8c-2 1.6 -5.3 2.7 -8.1 2.7c-8.1 0 -13.9 -5.8 -13.9 -14ZM531.4 1587.1c2.7 0 4.5 -2 4.5 -5.1c0 -3.1 -1.8 -5.1 -4.5 -5.1h-7v10.2h7Zm-11.9 13v-27.5h12.9c5 0 8.5 3.8 8.5 9.2c0 3.4 -1.4 6.6 -5.7 8.8l7 9.5H536l-6.4 -8.7h-5.2v8.7h-4.9ZM576.1 1569.7h5.2v16.5h-5.2V1584h-7v-3.9h7v-2.6h-6.7c-2 4.9 -6.6 7.9 -13.9 9.5l-1.7 -4.1c7.4 -1.5 10.5 -4.4 11.1 -8h-9.2v-4.1h14.9c0 1 -.1 2 -.2 2.9h5.7v-4Zm-16.8 21.7v-4h22v9.3H564.4v1.7h17.5v4H559.3v-9.5h16.8v-1.5H559.3ZM609.1 1569.7H614v33.1h-4.9v-33.1Zm-24.3 23.2c4.9 -3.1 6.4 -9 6.4 -14.5V1577H586v-4.1h14.7v4.1h-4.5v1.4c0 5.4 1.4 11 6.2 13.8l-2.9 3.7c-2.9 -1.7 -4.7 -4.4 -5.8 -7.8c-1.1 3.7 -3 6.8 -5.9 8.6l-3 -3.8Zm13.7 -7.9v-4.2h3.9v-10.7h4.8v31.2h-4.8V1585h-3.9ZM650 1569.7h4.9v33.1H650v-33.1Zm-24.3 21.6h2.4v-13.9h-1.9v-4.1h15.1v4.1h-2v13.4c.9 -.1 1.7 -.2 2.4 -.3l.4 3.7c-5.2 1.1 -11.8 1.2 -15.9 1.2l-.5 -4.1Zm7 -.1c.7 0 1.3 -.1 2 -.1v-13.7h-2v13.8Zm7.8 -5.1v-4.5h2.9v-11.3h4.7v31h-4.7v-15.2h-2.9ZM680.4 1569.6h5.2v33.2h-5.2v-33.2Zm-21.5 14.1c0 -7.2 3.7 -11.8 8.8 -11.8c5.1 0 8.7 4.6 8.7 11.8c0 7.4 -3.6 12 -8.7 12c-5.1 0 -8.8 -4.6 -8.8 -12Zm5 0c0 4.9 1.5 7.3 3.8 7.3c2.3 0 3.8 -2.4 3.8 -7.3c0 -4.7 -1.5 -7.1 -3.8 -7.1c-2.3 0 -3.8 2.4 -3.8 7.1ZM691.1 1572.8h18.6v4.2h-6.6v1.4c0 5.3 2.4 11 8.1 13.3l-2.9 4.1c-3.7 -1.6 -6.3 -4.8 -7.7 -8.6c-1.5 4.2 -4.1 7.7 -8 9.4l-2.9 -4.1c5.8 -2.5 8.2 -8.6 8.2 -14.1V1577h-6.8v-4.2Zm21.4 30v-33.1h5.2v33.1h-5.2ZM158.4 1624.7h5.2v33.2h-5.2v-33.2ZM138 1650v-22.4h16v4.1H143.1v14.1c5.7 -.1 9.2 -.2 13.1 -1l.4 4.2c-4.4 .9 -8.5 1 -15.7 1H138ZM169.6 1627.6h16V1650h-16v-22.4Zm5.1 18.4h6v-14.4h-6V1646Zm15.7 11.8v-33.2h5.2v33.2h-5.2ZM224 1624.7h4.9v33.1H224v-33.1Zm-24.2 21.6h2.4v-13.9h-1.9v-4.1h15v4.1h-1.9v13.4c.8 -.1 1.7 -.2 2.4 -.3l.4 3.7c-5.2 1.1 -11.9 1.2 -15.9 1.2l-.5 -4.1Zm7 -.1c.6 0 1.3 -.1 2 -.1v-13.7h-2v13.8Zm7.8 -5.1v-4.5h2.8v-11.3h4.8v31h-4.8v-15.2h-2.8ZM254.5 1624.6h5.2v33.2h-5.2v-33.2ZM233 1638.7c0 -7.2 3.7 -11.8 8.8 -11.8c5 0 8.7 4.6 8.7 11.8c0 7.4 -3.7 12 -8.7 12c-5.1 0 -8.8 -4.6 -8.8 -12Zm5 0c0 4.9 1.5 7.3 3.8 7.3c2.3 0 3.8 -2.4 3.8 -7.3c0 -4.7 -1.5 -7.1 -3.8 -7.1c-2.3 0 -3.8 2.4 -3.8 7.1ZM280.3 1626.4c4.4 0 7.6 3.2 7.6 7.8c0 4.5 -3.2 7.7 -7.6 7.7c-4.5 0 -7.6 -3.2 -7.6 -7.7c0 -4.6 3.1 -7.8 7.6 -7.8Zm-3 7.8c0 2.3 1.2 3.6 3 3.6c1.7 0 2.9 -1.3 2.9 -3.6c0 -2.4 -1.2 -3.6 -2.9 -3.6c-1.8 0 -3 1.2 -3 3.6Zm.9 23.2V1644h5.1v2.8h12.5V1644h5.1v13.4H278.2Zm5.1 -4.1h12.5v-2.6H283.3v2.6Zm5.7 -10.9v-17.1h4.8v6.1H296v-6.7h4.9v18H296v-7.1h-2.2v6.8H289ZM315.3 1626.8c5.2 0 9.1 3.4 9.1 8.2c0 4.8 -3.9 8.3 -9.1 8.3c-5.2 0 -9.2 -3.5 -9.2 -8.3c0 -4.8 4 -8.2 9.2 -8.2Zm-10.5 20.3c5.8 0 13.8 0 20.7 -1.1l.4 3.7c-7.1 1.4 -14.8 1.5 -20.5 1.5l-.6 -4.1Zm6.3 -12.1c0 2.5 1.8 3.9 4.2 3.9c2.3 0 4.1 -1.4 4.1 -3.9c0 -2.5 -1.8 -3.8 -4.1 -3.8c-2.4 0 -4.2 1.3 -4.2 3.8Zm16.2 22.8v-33.2h5.1v33.2h-5.1ZM368.2 1645.5c.5 -1.1 .8 -2.8 .8 -4.1c0 -5.9 -3.4 -9.7 -8.9 -9.7c-5.3 0 -8.8 3.8 -8.8 9.7c0 5.9 3.5 9.7 8.8 9.7c2 0 4 -.7 5.1 -1.6l-3.7 -4.1l3.6 -3.3l3.1 3.4Zm-21.9 -4.1c0 -8.3 5.7 -14.1 13.8 -14.1c8.2 0 13.9 5.8 13.9 14.1c-.1 2.6 -1 5.8 -2.3 7.9l2.7 2.9l-3.6 3.3l-2.5 -2.8c-2 1.6 -5.4 2.7 -8.2 2.7c-8.1 0 -13.8 -5.8 -13.8 -14ZM389.7 1642.1c2.7 0 4.5 -2 4.5 -5.1c0 -3.1 -1.8 -5.1 -4.5 -5.1h-7v10.2h7Zm-12 13v-27.5h12.9c5.1 0 8.6 3.8 8.6 9.2c0 3.4 -1.4 6.6 -5.7 8.8l7 9.5h-6.2l-6.4 -8.7h-5.2v8.7h-5ZM418.3 1625.1c7.6 0 12.1 2 12.1 5.7c0 3.6 -4.5 5.6 -12.1 5.6c-7.6 0 -12.1 -2 -12.1 -5.6c0 -3.7 4.5 -5.7 12.1 -5.7Zm-15 16.7v-4h29.9v4H403.3Zm3.4 5.5v-3.9h22.9v8.8H411.8v1.6h18.7v3.8H406.7v-9h17.9v-1.3H406.7Zm4.8 -16.5c0 1.3 2.1 1.9 6.8 1.9c4.6 0 6.7 -.6 6.7 -1.9c0 -1.4 -2.1 -2 -6.7 -2c-4.7 0 -6.8 .6 -6.8 2ZM464.7 1624.7h5.2v12.1h4.6v4.3h-4.6v16.7h-5.2v-33.1Zm-19.9 25.5v-23h5v7.9h6.1v-7.9H461v23H444.8Zm5 -4.1h6.1v-7h-6.1v7ZM479.2 1627.3h23.9v2.9c0 3.9 0 8.7 -1.6 16l-5 -.6c.5 -2.3 .8 -4.5 1.1 -6.4l-18.8 1l-.6 -4.4l19.6 -.5c.1 -1.4 .2 -2.7 .2 -3.9H479.2v-4.1Zm-3.4 26.8V1650h10.4v-7.8h5.2v7.8h14.4v4.1h-30ZM511.3 1627.3h23.2v4.1H516.4v8.4h18.3v4H511.3v-16.5Zm-3.4 26.6v-4.2h30v4.2h-30ZM570.9 1624.7H576v33.1h-5.1v-33.1Zm-22.5 23.5c8.3 -4 11.8 -8.9 12.5 -16.1H550.2V1628h16c0 10.3 -3.2 18.6 -15.1 24.3l-2.7 -4.1ZM593 1641.5h4.3v-4.1h-3.6c-1.5 5.4 -4.8 10 -11 13.6l-2.9 -3.6c6.5 -3.9 9.2 -8.4 9.8 -14.8h-7.8v-4.1h12.9c0 1.7 -.1 3.3 -.3 4.8h2.9v-7.9H602v30.9h-4.7v-10.7H593v-4.1Zm11.1 16.3v-33.1H609v33.1h-4.9ZM636.1 1624.7H641v33.1h-4.9v-33.1ZM612.7 1639c0 -7.6 2.8 -12.1 7.2 -12.1c4 0 6.6 3.6 7.1 9.8h2.3v-11.6h4.8v31.2h-4.8v-15.5h-2.2c-.4 6.5 -3.1 10.4 -7.2 10.4c-4.4 0 -7.2 -4.6 -7.2 -12.2Zm4.7 0c0 5 .9 7.3 2.5 7.3c1.7 0 2.6 -2.3 2.6 -7.3c0 -5 -.9 -7.3 -2.6 -7.3c-1.6 0 -2.5 2.3 -2.5 7.3ZM675.4 1624.7h5.2v23.7h-5.2v-23.7Zm-22 10.5c0 -5 4 -8.5 9.1 -8.5c5.1 0 9.1 3.5 9.1 8.5c0 4.9 -4 8.5 -9.1 8.5c-5.1 0 -9.1 -3.6 -9.1 -8.5Zm5 22V1646h5.1v7.2h17.9v4h-23Zm0 -22c0 2.5 1.8 4 4.1 4c2.3 0 4 -1.5 4 -4c0 -2.6 -1.7 -4 -4 -4c-2.3 0 -4.1 1.4 -4.1 4ZM692.5 1626.2h5.3v3.1c0 4 2.1 7.9 7.6 9.5l-2.5 4.1c-3.7 -1.2 -6.2 -3.4 -7.7 -6.2c-1.5 3 -4 5.5 -7.9 6.7l-2.5 -4.1c5.7 -1.7 7.7 -6 7.7 -10v-3.1Zm-2.6 23.6v-4h22.7v12h-5.2v-8H689.9Zm17.5 -5.4v-19.7h5.2v19.7h-5.2Z" class="g3_8"/>
<path d="M746.5 1569.9h3.7v32.6h-3.7v-32.6ZM722.7 1584c0 -7.2 2.8 -11.6 7 -11.6c3.9 0 6.5 3.7 6.9 9.8h3.3v-11.7h3.7V1601h-3.7v-15.6h-3.2c-.3 6.4 -3 10.3 -7 10.3c-4.2 0 -7 -4.5 -7 -11.7Zm3.6 0c0 5.1 1.3 8 3.4 8c2.2 0 3.4 -2.9 3.4 -8c0 -5.1 -1.2 -7.9 -3.4 -7.9c-2.1 0 -3.4 2.8 -3.4 7.9ZM770.8 1580.5h6.8v-10.6h3.9v32.7h-3.9v-18.9h-6.8v-3.2Zm-16.7 12.2c5.2 -2.5 8.2 -8.8 8.2 -14.9v-5.3h4v5.3c0 6 2.9 12 8 14.3l-2.3 3.2c-3.7 -1.8 -6.2 -5.3 -7.7 -9.6c-1.4 4.5 -4 8.2 -7.7 10.1l-2.5 -3.1ZM738.7 1624.9h4v13h4.9v3.3h-4.9v16.3h-4v-32.6Zm-21.6 8.2v-3.2h7.7v-4.5h4v4.5h7.5v3.2H717.1Zm1.6 9.8c0 -4.4 3.4 -7.6 8.1 -7.6c4.7 0 8.1 3.2 8.1 7.6c0 4.5 -3.4 7.7 -8.1 7.7c-4.7 0 -8.1 -3.2 -8.1 -7.7Zm3.7 0c0 2.7 1.8 4.5 4.4 4.5c2.5 0 4.3 -1.8 4.3 -4.5c0 -2.7 -1.8 -4.4 -4.3 -4.4c-2.6 0 -4.4 1.7 -4.4 4.4ZM758.1 1627.3c3 0 5.4 1.7 6.9 4.6h7.5v-7h3.9v32.7h-3.9v-12.4h-7.3c-1.4 3.3 -3.9 5.2 -7.1 5.2c-4.8 0 -8.2 -4.5 -8.2 -11.6c0 -7.1 3.4 -11.5 8.2 -11.5Zm-4.5 11.5c0 5 1.9 8 4.5 8c2.8 0 4.6 -3 4.6 -8c0 -5 -1.8 -7.9 -4.6 -7.9c-2.6 0 -4.5 2.9 -4.5 7.9Zm12.5 -3.8c.2 1.2 .3 2.4 .3 3.8c0 1.2 -.1 2.2 -.2 3.2h6.3v-7h-6.4ZM812.9 1624.9h4v16.5h-4v-2.8h-7.7v-3h7.7v-3.3h-7.3c-2 5 -6.8 8.2 -14 9.9l-1.3 -3.2c7.6 -1.7 11.5 -5.1 12 -9.5H792.1v-3.2h14.5c0 1 0 2 -.2 3h6.5v-4.4Zm-17.3 20.9v-3.1h21.3v8.6H799.6v2.8h18.1v3.1h-22v-8.9h17.2v-2.5H795.6ZM845.9 1624.9h3.8v32.6h-3.8v-32.6Zm-24.6 23.5c4.7 -3 6.7 -8.8 6.7 -14.6v-2.2h-5.6v-3.2h14.7v3.2h-5.2v2.2c0 5.5 1.9 11.1 6.5 13.8l-2.3 2.9c-3 -1.8 -5 -5 -6.1 -8.7c-1.1 4.1 -3.2 7.5 -6.3 9.4l-2.4 -2.8Zm13.4 -8.9v-3.2h4.7v-10.8h3.7v30.4h-3.7v-16.4h-4.7ZM853.9 1639.8h29.6v2.9H853.9v-2.9Zm3.4 7.7v-2.8h22.6v7.5H861.3v2.2h19.5v2.8H857.4v-7.6H876v-2.1H857.3Zm.3 -19.1v-2.7h22.2v7.3H861.6v2.1h18.8v2.8H857.7v-7.5h18.2v-2H857.6ZM895.6 1628.1h15.3v21.4H895.6v-21.4Zm3.9 18.2H907v-15.1h-7.5v15.1Zm16.3 11.2v-32.6h4v12.6h5v3.3h-5v16.7h-4ZM926.5 1643.4H956v3.2H943.1v11h-3.9v-11H926.5v-3.2Zm3.5 -3.8v-13h22.3v13H930Zm3.9 -3.1h14.6v-6.7H933.9v6.7ZM981.5 1624.9h4v32.7h-4v-32.7Zm-21.2 6.1v-3.2h15.2V1640H964.3v6.6c5.2 0 9.6 -.3 14.6 -1.1l.4 3.2c-5.5 1 -10.4 1.2 -16.1 1.2h-2.9v-13.1h11.2V1631H960.3ZM999 1630.1h6v-4.3h3.9v4.3h5.9v3.2H999v-3.2Zm.9 12.6c0 -4.5 2.9 -7.7 7 -7.7c4.2 0 7.1 3.2 7.1 7.7c0 4.5 -2.9 7.6 -7.1 7.6c-4.1 0 -7 -3.1 -7 -7.6Zm3.5 0c0 2.6 1.4 4.3 3.5 4.3c2.1 0 3.6 -1.7 3.6 -4.3c0 -2.7 -1.5 -4.4 -3.6 -4.4c-2.1 0 -3.5 1.7 -3.5 4.4Zm12.8 13.3v-30.4h3.7v12.8h3.2v-13.5h3.7v32.6h-3.7v-15.9h-3.2V1656h-3.7ZM1031.1 1643.2h29.5v3.2h-12.9v11.2h-3.9v-11.2h-12.7v-3.2Zm1.6 -5.4c6.3 -.8 10.6 -4.3 10.9 -7.9h-9.8v-3.1h24v3.1h-9.7c.3 3.6 4.6 7.1 10.9 7.9l-1.5 3.1c-5.4 -.8 -9.7 -3.3 -11.6 -6.8c-2.1 3.5 -6.4 6 -11.8 6.8l-1.4 -3.1ZM1076 1636.2h4.6v-10.7h3.6V1656h-3.6v-16.6H1076v-3.2Zm-13.4 11.6c4.6 -2.7 6.8 -8.6 6.8 -14.2v-5.7h3.8v5.6c0 5.2 1.8 10.7 6.2 13.5l-2.2 3.1c-2.9 -1.8 -4.8 -4.9 -5.9 -8.5c-1.1 4 -3.2 7.3 -6.3 9.2l-2.4 -3Zm24.6 9.7v-32.6h3.8v32.6h-3.8ZM1095.2 1650.3h6.8V1642c-2.6 -1.5 -4.1 -3.8 -4.1 -6.7c0 -5.2 5 -8.6 12 -8.6c7 0 12 3.4 12 8.6c0 2.9 -1.5 5.2 -4 6.7v8.3h6.8v3.2h-29.5v-3.2Zm6.5 -15c0 3.4 3.4 5.5 8.2 5.5c4.8 0 8.2 -2.1 8.2 -5.5c0 -3.4 -3.4 -5.5 -8.2 -5.5c-4.8 0 -8.2 2.1 -8.2 5.5Zm4.2 15h8v-6.9c-1.2 .3 -2.6 .4 -4 .4c-1.4 0 -2.7 -.1 -4 -.4v6.9ZM1130.2 1650.9c1.3 0 2.2 .9 2.2 2.3c0 1.3 -.9 2.2 -2.2 2.2c-1.3 0 -2.3 -.9 -2.3 -2.2c0 -1.4 1 -2.3 2.3 -2.3Z" class="g4_8"/>
<path fill-rule="evenodd" d="M48.6 1792.8l9.7 2.6l5.8 -22.1c2.5 -9.6 -3 -19.3 -12.3 -21.9c-9.4 -2.5 -19 3.2 -21.5 12.7l-5.9 22.1l9.7 2.6l-1.9 7.4c-1.1 4.1 1.2 8.3 5.2 9.4c4 1.1 8.2 -1.4 9.2 -5.4l2 -7.4Zm6.1 -3.6l4.6 -17.3c1.8 -6.8 -2.2 -13.7 -8.8 -15.5c-6.7 -1.9 -13.6 2.2 -15.4 9l-4.5 17.2l9.6 2.6L37 1797.5c-.4 1.4 .4 2.8 1.7 3.2c1.4 .3 2.8 -.5 3.1 -1.9l3.3 -12.3l9.6 2.7Z" class="g3_8"/>
<image clip-path="url(#c0_8)" preserveAspectRatio="none" x="87" y="101" width="1100" height="1496" xlink:href="img/1.png"/>
<image clip-path="url(#c1_8)" preserveAspectRatio="none" x="179" y="154" width="916" height="1313" xlink:href="img/2.jpg"/>
</svg>