<?xml version="1.0" encoding="UTF-8" standalone="no"?>
<!DOCTYPE svg PUBLIC "-//W3C//DTD SVG 1.1//EN"
"http://www.w3.org/Graphics/SVG/1.1/DTD/svg11.dtd">
<svg viewBox="0 0 1274 1824" version="1.1" xmlns="http://www.w3.org/2000/svg" xmlns:xlink="http://www.w3.org/1999/xlink">
<defs>
<clipPath id="c0_14"><path d="M86.8 1596.9V100.5H1187.4V1596.9Z"/></clipPath>
<clipPath id="c1_14"><path d="M203.2 1466.7c-13.5 0 -24.4 -11 -24.4 -24.5V178.8c0 -13.6 10.9 -24.5 24.4 -24.5H1071c13.5 0 24.4 10.9 24.4 24.5V1442.2c0 13.5 -10.9 24.5 -24.4 24.5Z"/></clipPath>
<style type="text/css"><![CDATA[
.g0_14{
fill: #FFF;
}
.g1_14{
fill: #000;
fill-opacity: 0.02;
}
.g2_14{
fill: #2EA4AB;
fill-opacity: 0.01;
}
.g3_14{
fill: #2EA4AB;
}
.g4_14{
fill: #1C1F1F;
}
]]></style>
</defs>
<path d="M0 1824.2H1274.2V0H0V1824.2Z" class="g0_14"/>
<path d="M0 1824.2H1274.2V0H0V1824.2Z" class="g1_14"/>
<path d="M0 1824.2H1274.2V0H0V1824.2Z" class="g2_14"/>
<path d="M522.6 1569.7h5.1v16.5h-5.1V1584h-7.1v-3.9h7.1v-2.6h-6.7c-2.1 4.9 -6.7 7.9 -13.9 9.5l-1.7 -4.1c7.4 -1.5 10.5 -4.4 11 -8h-9.1v-4.1h14.9c0 1 -.1 2 -.2 2.9h5.7v-4Zm-16.9 21.7v-4h22v9.3H510.9v1.7h17.4v4H505.8v-9.5h16.8v-1.5H505.7ZM555.6 1569.7h4.8v33.1h-4.8v-33.1Zm-24.3 23.2c4.8 -3.1 6.3 -9 6.3 -14.5V1577h-5.1v-4.1h14.7v4.1h-4.6v1.4c0 5.4 1.5 11 6.3 13.8l-3 3.7c-2.8 -1.7 -4.6 -4.4 -5.7 -7.8c-1.1 3.7 -3 6.8 -5.9 8.6l-3 -3.8Zm13.6 -7.9v-4.2h4v-10.7h4.8v31.2h-4.8V1585h-4ZM587.6 1569.7h4.9v33.1h-4.9v-33.1ZM564.3 1584c0 -7.6 2.8 -12.1 7.1 -12.1c4 0 6.7 3.6 7.2 9.8h2.3v-11.6h4.8v31.2h-4.8v-15.5h-2.2c-.5 6.5 -3.2 10.4 -7.3 10.4c-4.3 0 -7.1 -4.6 -7.1 -12.2Zm4.6 0c0 5 .9 7.3 2.5 7.3c1.7 0 2.6 -2.3 2.6 -7.3c0 -5 -.9 -7.3 -2.6 -7.3c-1.6 0 -2.5 2.3 -2.5 7.3ZM612.1 1571.4h5.2v2.6c0 4.3 1.9 8.4 7.2 10.1l-2.6 4c-3.4 -1.2 -5.7 -3.3 -7.1 -6.1c-1.5 3.2 -4.1 5.8 -8 7.1l-2.6 -4.1c5.7 -1.9 7.9 -6.4 7.9 -10.8v-2.8Zm-2.5 24.9c0 -4 4.4 -6.5 11.4 -6.5c7.1 0 11.4 2.5 11.4 6.5c0 4.1 -4.3 6.5 -11.4 6.5c-7 0 -11.4 -2.4 -11.4 -6.5Zm5.2 0c0 1.7 2.1 2.6 6.2 2.6c4.2 0 6.3 -.9 6.3 -2.6c0 -1.7 -2.1 -2.5 -6.3 -2.5c-4.1 0 -6.2 .8 -6.2 2.5Zm6.6 -16.7v-4.1h5.8v-5.8h5.1V1589h-5.1v-9.4h-5.8ZM651.4 1590.2c7.1 0 11.8 2.4 11.8 6.3c0 4 -4.7 6.3 -11.8 6.3c-7.2 0 -11.8 -2.3 -11.8 -6.3c0 -3.9 4.6 -6.3 11.8 -6.3Zm-14.7 -1.8v-4.1h10.7v-5.6h5.2v5.6h13.9v4.1H636.7Zm3.3 -13.2v-4.1h23v2.7c0 2.6 0 5.5 -.9 8.9l-5.1 -.5c.7 -2.8 .8 -4.9 .9 -7H640Zm4.7 21.3c0 1.7 2.4 2.5 6.7 2.5c4.3 0 6.7 -.8 6.7 -2.5c0 -1.6 -2.4 -2.4 -6.7 -2.4c-4.3 0 -6.7 .8 -6.7 2.4ZM156.8 1624.7h5.1v16.5h-5.1V1639h-7.1v-3.9h7.1v-2.6H150c-2 4.9 -6.6 7.9 -13.8 9.5l-1.7 -4.1c7.4 -1.5 10.5 -4.4 11 -8h-9.1v-4.1h14.9c0 1 -.1 2 -.2 2.9h5.7v-4Zm-16.9 21.7v-4h22v9.3H145.1v1.7h17.4v4H140v-9.5h16.8v-1.5H139.9ZM189.8 1624.7h4.8v33.1h-4.8v-33.1Zm-24.4 23.2c4.9 -3.1 6.4 -9 6.4 -14.5V1632h-5.1v-4.1h14.7v4.1h-4.6v1.4c0 5.4 1.4 11 6.3 13.8l-3 3.7c-2.8 -1.7 -4.6 -4.4 -5.7 -7.8c-1.1 3.7 -3 6.8 -5.9 8.6l-3.1 -3.8Zm13.7 -7.9v-4.2h4v-10.7h4.8v31.2h-4.8V1640h-4ZM214.2 1626.4h5.2v2.6c0 4.3 1.9 8.4 7.3 10.1l-2.7 4c-3.4 -1.2 -5.7 -3.3 -7.1 -6.1c-1.5 3.2 -4 5.8 -7.9 7.1l-2.7 -4.1c5.8 -1.9 7.9 -6.4 7.9 -10.8v-2.8Zm-2.5 24.9c0 -4 4.4 -6.5 11.5 -6.5c7 0 11.4 2.5 11.4 6.5c0 4.1 -4.4 6.5 -11.4 6.5c-7.1 0 -11.5 -2.4 -11.5 -6.5Zm5.2 0c0 1.7 2.1 2.6 6.3 2.6c4.1 0 6.2 -.9 6.2 -2.6c0 -1.7 -2.1 -2.5 -6.2 -2.5c-4.2 0 -6.3 .8 -6.3 2.5Zm6.6 -16.7v-4.1h5.8v-5.8h5.2V1644h-5.2v-9.4h-5.8ZM253.5 1645.2c7.2 0 11.8 2.4 11.8 6.3c0 4 -4.6 6.3 -11.8 6.3c-7.1 0 -11.8 -2.3 -11.8 -6.3c0 -3.9 4.7 -6.3 11.8 -6.3Zm-14.7 -1.8v-4.1h10.8v-5.6h5.1v5.6h13.9v4.1H238.8Zm3.3 -13.2v-4.1h23v2.7c0 2.6 0 5.5 -.9 8.9l-5 -.5c.7 -2.8 .8 -4.9 .8 -7H242.1Zm4.7 21.3c0 1.7 2.4 2.5 6.7 2.5c4.4 0 6.7 -.8 6.7 -2.5c0 -1.6 -2.3 -2.4 -6.7 -2.4c-4.3 0 -6.7 .8 -6.7 2.4ZM303.2 1624.7h4.9v33.1h-4.9v-33.1Zm-24.3 21.6h2.4v-13.9h-1.9v-4.1h15.1v4.1h-2v13.4c.9 -.1 1.7 -.2 2.5 -.3l.3 3.7c-5.2 1.1 -11.8 1.2 -15.9 1.2l-.5 -4.1Zm7 -.1c.7 0 1.4 -.1 2.1 -.1v-13.7h-2.1v13.8Zm7.8 -5.1v-4.5h2.9v-11.3h4.7v31h-4.7v-15.2h-2.9ZM333.6 1624.6h5.2v33.2h-5.2v-33.2Zm-21.5 14.1c0 -7.2 3.8 -11.8 8.8 -11.8c5.1 0 8.7 4.6 8.7 11.8c0 7.4 -3.6 12 -8.7 12c-5 0 -8.8 -4.6 -8.8 -12Zm5 0c0 4.9 1.5 7.3 3.8 7.3c2.3 0 3.8 -2.4 3.8 -7.3c0 -4.7 -1.5 -7.1 -3.8 -7.1c-2.3 0 -3.8 2.4 -3.8 7.1ZM344.3 1627.8h18.6v4.2h-6.6v1.4c0 5.3 2.4 11 8.1 13.3l-2.9 4.1c-3.7 -1.6 -6.3 -4.8 -7.7 -8.6c-1.5 4.2 -4.1 7.7 -7.9 9.4l-2.9 -4.1c5.7 -2.5 8.1 -8.6 8.1 -14.1V1632h-6.8v-4.2Zm21.4 30v-33.1h5.2v33.1h-5.2ZM654.8 1641.6h12.4v-2.5c-5.8 -.6 -9.5 -3.1 -9.5 -6.8c0 -4.2 4.9 -6.8 12.1 -6.8c7.3 0 12.1 2.6 12.1 6.8c0 3.8 -3.7 6.3 -9.6 6.8v2.5h12.5v4h-30v-4Zm3.6 15.6v-9.5h5.1v5.5h17.9v4h-23Zm4.7 -24.9c0 1.9 2.4 2.9 6.7 2.9c4.3 0 6.8 -1 6.8 -2.9c0 -1.8 -2.5 -2.8 -6.8 -2.8c-4.3 0 -6.7 1 -6.7 2.8ZM686.9 1649.9h12.4V1644H690v-17.3h5.1v4.9h13.5v-4.9h5.1V1644h-9.3v5.9h12.5v4.1h-30v-4.1Zm8.2 -10h13.5v-4.3H695.1v4.3ZM741.4 1624.7h5.1v19.6h-5.1v-19.6Zm-20.6 17.9v-15.5h15.7v4.1H725.9v7.3c5.9 0 9.4 -.2 13.1 -1l.5 4.1c-4.3 .8 -8.3 1 -15.8 1h-2.9Zm3.1 8.7c0 -4.2 4.4 -6.6 11.4 -6.6c7 0 11.4 2.4 11.4 6.6c0 4.1 -4.4 6.5 -11.4 6.5c-7 0 -11.4 -2.4 -11.4 -6.5Zm5.2 0c0 1.7 2 2.6 6.2 2.6c4.1 0 6.3 -.9 6.3 -2.6c0 -1.8 -2.2 -2.6 -6.3 -2.6c-4.2 0 -6.2 .8 -6.2 2.6ZM783.4 1624.7h4.9v33.1h-4.9v-33.1Zm-24.3 21.6h2.4v-13.9h-1.8v-4.1h15v4.1h-2v13.4c.9 -.1 1.7 -.2 2.5 -.3l.3 3.7c-5.2 1.1 -11.8 1.2 -15.9 1.2l-.5 -4.1Zm7 -.1c.7 0 1.4 -.1 2.1 -.1v-13.7h-2.1v13.8Zm7.8 -5.1v-4.5h2.9v-11.3h4.7v31h-4.7v-15.2h-2.9ZM813.9 1624.6h5.2v33.2h-5.2v-33.2Zm-21.6 14.1c0 -7.2 3.8 -11.8 8.8 -11.8c5.1 0 8.8 4.6 8.8 11.8c0 7.4 -3.7 12 -8.8 12c-5 0 -8.8 -4.6 -8.8 -12Zm5 0c0 4.9 1.5 7.3 3.8 7.3c2.3 0 3.8 -2.4 3.8 -7.3c0 -4.7 -1.5 -7.1 -3.8 -7.1c-2.3 0 -3.8 2.4 -3.8 7.1ZM824.6 1627.8h18.5v4.2h-6.6v1.4c0 5.3 2.4 11 8.1 13.3l-2.8 4.1c-3.8 -1.6 -6.4 -4.8 -7.8 -8.6c-1.4 4.2 -4.1 7.7 -7.9 9.4l-2.9 -4.1c5.7 -2.5 8.1 -8.6 8.1 -14.1V1632h-6.7v-4.2Zm21.3 30v-33.1h5.2v33.1h-5.2Z" class="g3_14"/>
<path d="M690.4 1569.8h4v7.4h4.5v3.2h-4.5v7.2h-4v-17.8Zm-21.5 5.7v-3h7.6v-2.9h4v2.9h7.6v3H668.9Zm1.7 6.5c0 -3.4 3.1 -5.4 7.9 -5.4c4.8 0 7.9 2 7.9 5.4c0 3.2 -3.1 5.3 -7.9 5.3c-4.8 0 -7.9 -2.1 -7.9 -5.3Zm2.6 10v-2.9h21.2v7.8H677.2v2.4h18.2v3H673.3v-8.1h17.1V1592H673.2Zm1.1 -10c0 1.6 1.7 2.5 4.2 2.5c2.5 0 4.1 -.9 4.1 -2.5c0 -1.7 -1.6 -2.6 -4.1 -2.6c-2.5 0 -4.2 .9 -4.2 2.6ZM724.7 1582.2h7.7v-3.6h-7.3c-2.1 5.2 -6.8 8.8 -13.9 10.8l-1.6 -3.1c7.7 -2.1 11.7 -6 12.3 -10.9H711.4v-3.2h14.8c0 1.2 -.1 2.2 -.2 3.3h6.4v-5.6h4V1589h-4v-3.6h-7.7v-3.2Zm-9.9 13.7c0 -4.1 4.3 -6.5 10.9 -6.5c6.6 0 10.9 2.4 10.9 6.5c0 4 -4.3 6.5 -10.9 6.5c-6.6 0 -10.9 -2.5 -10.9 -6.5Zm3.9 0c0 2.1 2.6 3.4 7 3.4c4.4 0 7 -1.3 7 -3.4c0 -2.2 -2.6 -3.4 -7 -3.4c-4.4 0 -7 1.2 -7 3.4ZM741.4 1588.4h29.5v3.2H758v11h-3.9v-11H741.4v-3.2Zm3 -10c0 -4.4 4.8 -7.2 11.7 -7.2c6.9 0 11.6 2.8 11.6 7.2c0 4.4 -4.7 7.2 -11.6 7.2c-6.9 0 -11.7 -2.8 -11.7 -7.2Zm4.1 0c0 2.6 3 4.1 7.6 4.1c4.6 0 7.6 -1.5 7.6 -4.1c0 -2.6 -3 -4.1 -7.6 -4.1c-4.6 0 -7.6 1.5 -7.6 4.1ZM399.7 1624.9h3.8v32.6h-3.8v-32.6ZM375.9 1639c0 -7.2 2.8 -11.6 7 -11.6c3.9 0 6.5 3.7 7 9.8h3.2v-11.7h3.7V1656h-3.7v-15.6h-3.2c-.3 6.4 -3 10.3 -7 10.3c-4.2 0 -7 -4.5 -7 -11.7Zm3.6 0c0 5.1 1.3 8 3.4 8c2.2 0 3.4 -2.9 3.4 -8c0 -5.1 -1.2 -7.9 -3.4 -7.9c-2.1 0 -3.4 2.8 -3.4 7.9ZM430.6 1640.9c2.4 1.4 3.9 4 3.9 6.2c0 4.6 -3.7 7.8 -9 7.8c-5.3 0 -9 -3.3 -9 -8h3.8c0 2.7 2.2 4.6 5.2 4.6c3.1 0 5.3 -1.9 5.3 -4.5c0 -2.7 -2.2 -4.5 -5.2 -4.5h-1.9v-3.2h1.9c2.8 0 4.8 -1.7 4.8 -4.1c0 -2.4 -1.9 -4 -4.7 -4c-2.7 0 -4.6 1.7 -4.6 4.1h-3.8c0 -4.4 3.5 -7.5 8.4 -7.5c4.9 0 8.4 3 8.4 7.2c0 2.1 -1.3 4.5 -3.5 5.9ZM437.4 1650.4h12.8v-6.8h3.9v6.8h12.8v3.2H437.4v-3.2Zm1.3 -8.8c7 -.9 11.3 -4.7 11.5 -8.8H440.1v-3.2h10.1v-4.2h3.9v4.2h10.2v3.2H454.2c.2 4.1 4.5 7.9 11.5 8.8l-1.5 3.1c-5.5 -.8 -9.9 -3.3 -12 -6.9c-2.2 3.6 -6.5 6.1 -12.1 6.9l-1.4 -3.1ZM478 1640.6h12.7v-3.1h-9.1v-11.1h22.2v3.1H485.5v4.8H504v3.2h-9.4v3.1h12.8v3.1H478v-3.1Zm3.4 11c0 -3.8 4.2 -5.9 11.2 -5.9c7 0 11.2 2.1 11.2 5.9c0 3.8 -4.2 5.9 -11.2 5.9c-7 0 -11.2 -2.1 -11.2 -5.9Zm3.9 0c0 2 2.6 2.9 7.3 2.9c4.7 0 7.3 -.9 7.3 -2.9c0 -1.9 -2.6 -2.9 -7.3 -2.9c-4.7 0 -7.3 1 -7.3 2.9ZM531.5 1624.9h4v9.6H540v3.2h-4.5v11.1h-4v-23.9Zm-21.1 10.4c0 -4.8 3.7 -8.2 8.7 -8.2c4.9 0 8.7 3.4 8.7 8.2c0 4.7 -3.8 8.1 -8.7 8.1c-5 0 -8.7 -3.4 -8.7 -8.1Zm3.8 0c0 2.9 2.1 4.7 4.9 4.7c2.7 0 4.8 -1.8 4.8 -4.7c0 -2.9 -2.1 -4.8 -4.8 -4.8c-2.8 0 -4.9 1.9 -4.9 4.8Zm.6 21.6v-10.6h3.9v7.4h18.1v3.2h-22ZM551.7 1627.9h15.2v8.5h6.7v-11.5h4v32.7h-4v-18h-6.7v9.9H551.7v-21.6Zm3.9 18.4H563V1631h-7.4v15.3ZM582.5 1638.2H612v3.1H599.2v2.6h9.1v7.9H589.9v2.5h19.3v3H586V1649h18.4v-2.2H586v-2.9h9.2v-2.6H582.5v-3.1Zm3.8 -2.2v-10.1h21.9V1636H586.3Zm3.8 -3h14.2v-4H590.1v4ZM636 1624.9h3.9v12.4h5v3.3h-5v17H636v-32.7Zm-20.1 24.7V1628h15.2v3.2H619.8v15.1c5.2 0 9.2 -.2 13.6 -1.1l.4 3.3c-5 1 -9.4 1.1 -15.2 1.1h-2.7ZM855.8 1650.5h12.8v-5.4h-9.3v-10.6H878v-4.2H859.3v-3.2h22.6v10.5H863.2v4.3h19.4v3.2H872.5v5.4h12.8v3.2H855.8v-3.2ZM919.2 1624.9h4v32.7h-4v-32.7Zm-21.9 13.9c0 -7.1 3.5 -11.5 8.5 -11.5c4.9 0 8.4 4.4 8.4 11.5c0 7.1 -3.5 11.6 -8.4 11.6c-5 0 -8.5 -4.5 -8.5 -11.6Zm3.8 0c0 5 1.9 8 4.7 8c2.7 0 4.6 -3 4.6 -8c0 -5 -1.9 -7.9 -4.6 -7.9c-2.8 0 -4.7 2.9 -4.7 7.9ZM928.4 1640.6h12.7v-3.1H932v-11.1h22.3v3.1H935.9v4.8h18.6v3.2h-9.4v3.1h12.8v3.1H928.4v-3.1Zm3.4 11c0 -3.8 4.2 -5.9 11.2 -5.9c7 0 11.3 2.1 11.3 5.9c0 3.8 -4.3 5.9 -11.3 5.9c-7 0 -11.2 -2.1 -11.2 -5.9Zm4 0c0 2 2.6 2.9 7.2 2.9c4.7 0 7.3 -.9 7.3 -2.9c0 -1.9 -2.6 -2.9 -7.3 -2.9c-4.6 0 -7.2 1 -7.2 2.9ZM981.8 1624.9h4v13h4.9v3.3h-4.9v16.3h-4v-32.6Zm-21.6 8.2v-3.2h7.7v-4.5h4v4.5h7.4v3.2H960.2Zm1.5 9.8c0 -4.4 3.5 -7.6 8.2 -7.6c4.7 0 8.1 3.2 8.1 7.6c0 4.5 -3.4 7.7 -8.1 7.7c-4.7 0 -8.2 -3.2 -8.2 -7.7Zm3.8 0c0 2.7 1.8 4.5 4.4 4.5c2.5 0 4.3 -1.8 4.3 -4.5c0 -2.7 -1.8 -4.4 -4.3 -4.4c-2.6 0 -4.4 1.7 -4.4 4.4ZM1016.6 1624.9h3.7v32.6h-3.7v-32.6Zm-24.4 22.9c6.7 -4 9.8 -9.1 10.4 -15.7h-8.8v-3.2h12.7c0 3.1 -.4 6.1 -1.3 8.9h4.5v-12.1h3.8v30.2h-3.8v-15H1004c-1.9 3.8 -5 7 -9.5 9.8l-2.3 -2.9ZM1056 1624.9h3.9v18.9H1056v-18.9Zm-23 15.2c2.6 0 5.6 0 8.7 -.1v-2.9h-5.9v-10.6h15.5v3.2h-11.5v4.2h11.8v3.2h-6v2.7c2.7 -.1 5.5 -.3 8.1 -.7l.2 2.7c-7 1.3 -14.7 1.4 -20.4 1.4l-.5 -3.1Zm5.1 17v-12h3.9v2.9h14v-2.9h3.9v12h-21.8Zm3.9 -3.1h14v-3h-14v3ZM1088 1624.9h4v32.6h-4v-32.6Zm-21.2 24.4V1628h4v18c4.5 -.1 9.3 -.5 14.4 -1.5l.4 3.3c-5.6 1.1 -10.9 1.5 -15.9 1.5h-2.9ZM1118.4 1624.9h4v12.4h5v3.3h-5v17h-4v-32.7Zm-20 24.7V1628h15.2v3.2h-11.3v15.1c5.2 0 9.1 -.2 13.5 -1.1l.4 3.3c-4.9 1 -9.3 1.1 -15.2 1.1h-2.6ZM1132.1 1650.9c1.3 0 2.2 .9 2.2 2.3c0 1.3 -.9 2.2 -2.2 2.2c-1.4 0 -2.3 -.9 -2.3 -2.2c0 -1.4 .9 -2.3 2.3 -2.3Z" class="g4_14"/>
<path fill-rule="evenodd" d="M48.6 1792.8l9.7 2.6l5.8 -22.1c2.5 -9.6 -3 -19.3 -12.3 -21.9c-9.4 -2.5 -19 3.2 -21.5 12.7l-5.9 22.1l9.7 2.6l-1.9 7.4c-1.1 4.1 1.2 8.3 5.2 9.4c4 1.1 8.2 -1.4 9.2 -5.4l2 -7.4Zm6.1 -3.6l4.6 -17.3c1.8 -6.8 -2.2 -13.7 -8.8 -15.5c-6.7 -1.9 -13.6 2.2 -15.4 9l-4.5 17.2l9.6 2.6L37 1797.5c-.4 1.4 .4 2.8 1.7 3.2c1.4 .3 2.8 -.5 3.1 -1.9l3.3 -12.3l9.6 2.7Z" class="g3_14"/>
<image clip-path="url(#c0_14)" preserveAspectRatio="none" x="87" y="101" width="1100" height="1496" xlink:href="img/1.png"/>
<image clip-path="url(#c1_14)" preserveAspectRatio="none" x="179" y="154" width="916" height="1313" xlink:href="img/2.jpg"/>
</svg>