<?xml version="1.0" encoding="UTF-8" standalone="no"?>
<!DOCTYPE svg PUBLIC "-//W3C//DTD SVG 1.1//EN"
"http://www.w3.org/Graphics/SVG/1.1/DTD/svg11.dtd">
<svg viewBox="0 0 1274 1824" version="1.1" xmlns="http://www.w3.org/2000/svg" xmlns:xlink="http://www.w3.org/1999/xlink">
<defs>
<clipPath id="c0_5"><path d="M86.8 1596.9V100.5H1187.4V1596.9Z"/></clipPath>
<clipPath id="c1_5"><path d="M203.2 1466.7c-13.5 0 -24.4 -11 -24.4 -24.5V178.8c0 -13.6 10.9 -24.5 24.4 -24.5H1071c13.5 0 24.4 10.9 24.4 24.5V1442.2c0 13.5 -10.9 24.5 -24.4 24.5Z"/></clipPath>
<style type="text/css"><![CDATA[
.g0_5{
fill: #FFF;
}
.g1_5{
fill: #000;
fill-opacity: 0.02;
}
.g2_5{
fill: #2EA4AB;
fill-opacity: 0.01;
}
.g3_5{
fill: #1C1F1F;
}
.g4_5{
fill: #2EA4AB;
}
]]></style>
</defs>
<path d="M0 1824.2H1274.2V0H0V1824.2Z" class="g0_5"/>
<path d="M0 1824.2H1274.2V0H0V1824.2Z" class="g1_5"/>
<path d="M0 1824.2H1274.2V0H0V1824.2Z" class="g2_5"/>
<path d="M397.7 1571.6h3.9v3.5c0 4.1 2.7 8 7.6 9.6l-2 3.1c-3.5 -1.2 -6 -3.6 -7.4 -6.7c-1.5 3.5 -4.1 6.2 -7.8 7.6l-2.2 -3.1c5.3 -1.8 7.9 -6.2 7.9 -10.9v-3.1Zm-3.4 24.8c0 -3.9 4.1 -6.2 10.9 -6.2c6.7 0 10.8 2.3 10.8 6.2c0 3.8 -4.1 6.1 -10.8 6.1c-6.8 0 -10.9 -2.3 -10.9 -6.1Zm3.9 0c0 2 2.5 3 7 3c4.4 0 7 -1 7 -3c0 -2.1 -2.6 -3.1 -7 -3.1c-4.5 0 -7 1 -7 3.1Zm13.6 -7v-19.5h3.9v7.9h4.5v3.3h-4.5v8.3h-3.9ZM422.2 1585.4h29.5v3.1H438.9v3.2h9.2v10.4H425.8v-10.4H435v-3.2H422.2v-3.1Zm2.7 -11.3v-3.2H449v3.2h-4.5v5.7h4.3v3.1H425.1v-3.1h4.3v-5.7h-4.5Zm4.7 24.9h14.7v-4.2H429.6v4.2Zm3.7 -19.2h7.3v-5.7h-7.3v5.7ZM484.2 1569.9h3.9v12.5h5v3.3h-5v16.8h-3.9v-32.6Zm-20.3 25v-22.3h3.9v8.2h7.7v-8.2h4v22.3H463.9Zm3.9 -3.2h7.7v-7.8h-7.7v7.8ZM498.2 1572.8h22.9v3c0 3.9 0 8.5 -1.4 15.4l-3.9 -.5c.6 -2.6 .9 -4.9 1.1 -7l-19.1 1l-.5 -3.3l19.8 -.7c.1 -1.7 .1 -3.3 .1 -4.7h-19v-3.2Zm-3.4 25.6v-3.1h10.9v-8.1h3.9v8.1h14.6v3.1H494.8ZM530.4 1572.7h22.4v3.2H534.3v9.3h18.8v3.2H530.4v-15.7Zm-3.6 25.7v-3.3h29.6v3.3H526.8ZM558.9 1584.8h29.5v2.9H558.9v-2.9Zm3.4 7.7v-2.8h22.5v7.5H566.3v2.2h19.5v2.8H562.4v-7.6H581v-2.1H562.3Zm.3 -19.1v-2.7h22.1v7.3H566.5v2.1h18.8v2.8H562.6v-7.5h18.2v-2H562.6ZM604.1 1590.9h22.7v11.6h-3.9V1594H604.1v-3.1Zm-5.2 -5.4c3.6 -1.9 4.9 -6 4.9 -9.5v-.7h-3.7v-3.1h9.5v3.1h-2.1v.7c0 2.6 .6 5.9 2.8 8.4c2.1 -2.5 2.8 -5.7 2.8 -8.4v-.7H611v-3.1h9.3v3.1h-3.5v.7c0 3.5 1.3 7.6 4.9 9.5l-2 2.9c-2.4 -1.3 -3.9 -3.5 -4.8 -5.9c-.7 2.5 -2.2 4.8 -4.6 6.2c-2.4 -1.4 -3.8 -3.7 -4.6 -6.3c-.9 2.5 -2.3 4.7 -4.7 6l-2.1 -2.9Zm24 3.9v-19.5h3.9v19.5h-3.9ZM640.2 1572.3c4.4 0 7.7 3.7 8.2 9.6h6.2v-12h3.9v32.7h-3.9v-17.5h-6.1c-.4 6.3 -3.8 10.3 -8.3 10.3c-4.8 0 -8.3 -4.5 -8.3 -11.6c0 -7.1 3.5 -11.5 8.3 -11.5Zm-4.5 11.5c0 5 1.9 8 4.5 8c2.8 0 4.6 -3 4.6 -8c0 -5 -1.8 -7.9 -4.6 -7.9c-2.6 0 -4.5 2.9 -4.5 7.9ZM694.9 1570h3.9v23.5h-3.9V1570Zm-22.4 10.3c0 -4.8 3.8 -8.2 8.7 -8.2c5 0 8.7 3.4 8.7 8.2c0 4.7 -3.7 8.1 -8.7 8.1c-4.9 0 -8.7 -3.4 -8.7 -8.1Zm3.9 0c0 2.8 2.1 4.7 4.8 4.7c2.8 0 4.9 -1.9 4.9 -4.7c0 -3 -2.1 -4.8 -4.9 -4.8c-2.7 0 -4.8 1.8 -4.8 4.8Zm1.1 21.6v-10.7h3.9v7.5h18.4v3.2H677.5ZM711.9 1571.4h4v3.2c0 4.3 2.8 8.4 7.9 10l-1.9 3.1c-3.8 -1.2 -6.4 -3.8 -7.9 -7c-1.4 3.5 -4.2 6.3 -8 7.6l-2 -3.2c5.2 -1.7 7.9 -6.1 7.9 -10.5v-3.2Zm-3.1 22.7V1591h22.1v11.5h-4v-8.4H708.8Zm18.1 -4.7v-19.5h4v19.5h-4ZM765.9 1569.9h3.9v13h5v3.3h-5v16.3h-3.9v-32.6Zm-21.6 8.2v-3.2H752v-4.5h4v4.5h7.4v3.2H744.3Zm1.5 9.8c0 -4.4 3.5 -7.6 8.2 -7.6c4.7 0 8.1 3.2 8.1 7.6c0 4.5 -3.4 7.7 -8.1 7.7c-4.7 0 -8.2 -3.2 -8.2 -7.7Zm3.8 0c0 2.7 1.8 4.5 4.4 4.5c2.5 0 4.3 -1.8 4.3 -4.5c0 -2.7 -1.8 -4.4 -4.3 -4.4c-2.6 0 -4.4 1.7 -4.4 4.4ZM784.5 1589.4h3.8v1.8c0 2.7 1.3 5.6 4.1 7.4c2.8 -1.9 4.1 -5 4.1 -7.4v-1.8h3.9v1.8c0 3.4 2 6.7 6.2 8.1l-2 2.8c-3.1 -1.1 -5.1 -3.2 -6.3 -5.8c-1 2.6 -2.9 4.9 -5.9 6.1c-3 -1.1 -4.9 -3.3 -6 -5.9c-1.1 2.5 -3.2 4.5 -6.2 5.6l-1.9 -2.8c4.2 -1.5 6.2 -5 6.2 -8.1v-1.8Zm-7.5 -10c0 -4.6 3.6 -7.8 8.5 -7.8c2.6 0 4.9 1 6.4 2.5h7.8v-4.2h3.9v18.4h-3.9v-3.8H792c-1.5 1.7 -3.8 2.7 -6.5 2.7c-4.9 0 -8.5 -3.3 -8.5 -7.8Zm3.7 0c0 2.7 2.1 4.5 4.8 4.5c2.7 0 4.7 -1.8 4.7 -4.5c0 -2.8 -2 -4.5 -4.7 -4.5c-2.7 0 -4.8 1.7 -4.8 4.5Zm13 -2.1c.2 .6 .3 1.3 .3 2.1c0 .7 -.1 1.3 -.2 1.9h5.9v-4h-6ZM830 1569.9h3.9v12.4h5v3.3h-5v17H830v-32.7Zm-20.1 24.7V1573h15.2v3.2H813.8v15.1c5.2 0 9.2 -.2 13.6 -1.1l.4 3.3c-5 1 -9.4 1.1 -15.2 1.1h-2.7ZM842 1572.6h15.2v2.7h6.6V1570h3.9v23.7h-3.9v-8.2h-6.6v2.8H842v-15.7Zm3.9 12.5h7.4v-9.3h-7.4v9.3Zm.5 16.8v-10.4h3.9v7.2h18.1v3.2h-22Zm10.8 -19.6h6.6v-3.8h-6.6v3.8ZM878 1596.2l-2.4 8.4h-2.9l1.4 -8.4H878ZM207.2 1628.1c0 9.8 -2.9 18.5 -15 24.4l-2 -3c5.6 -2.9 9 -6.2 11 -10.1l-10.3 1l-.5 -3.4l12 -.7c.5 -1.6 .8 -3.2 .9 -5H192v-3.2h15.2Zm5.5 29.4v-32.6h4v32.6h-4ZM236.5 1626.8c7 0 12.1 3.4 12.1 8.8c0 4.8 -4.2 8.1 -10.1 8.6v6.1h12.8v3.2H221.8v-3.2h12.8v-6.1c-5.9 -.5 -10.1 -3.8 -10.1 -8.6c0 -5.4 5.1 -8.8 12 -8.8Zm-8.1 8.8c0 3.4 3.4 5.6 8.1 5.6c4.8 0 8.2 -2.2 8.2 -5.6c0 -3.5 -3.4 -5.7 -8.2 -5.7c-4.7 0 -8.1 2.2 -8.1 5.7ZM266.4 1626.9h4.2v2.5c0 5.1 4.9 10.1 11.6 11.3l-1.7 3.2c-5.5 -1.1 -9.9 -4.4 -12 -8.8c-2.2 4.4 -6.6 7.7 -12 8.8l-1.7 -3.2c6.6 -1.2 11.6 -6.3 11.6 -11.3v-2.5Zm-12.6 26.4v-3.2h29.6v3.2H253.8ZM289.3 1628h22.8v3.8c0 4.8 0 9.3 -1.4 16.2l-3.9 -.4c.6 -2.8 1 -5.4 1.2 -7.7l-19.1 1l-.5 -3.2l19.7 -.8c.1 -1.7 .1 -3.4 .1 -5.1v-.6H289.3V1628Zm-3.4 25.4v-3.3h29.5v3.3H285.9ZM339.3 1624.9h4v12.8h4.8v3.2h-4.8v16.6h-4v-32.6Zm-21.5 23.7c7.9 -4 12.2 -9.6 12.9 -17.1H319.5v-3.2h15.2c0 9.6 -3.9 18 -14.6 23.3l-2.3 -3ZM367.2 1627.3c4.8 0 8.4 4.4 8.4 11.5c0 7.1 -3.6 11.6 -8.4 11.6c-4.9 0 -8.5 -4.5 -8.5 -11.6c0 -7.1 3.6 -11.5 8.5 -11.5Zm-4.7 11.5c0 5 1.9 8 4.7 8c2.7 0 4.6 -3 4.6 -8c0 -5 -1.9 -7.9 -4.6 -7.9c-2.8 0 -4.7 2.9 -4.7 7.9Zm17.3 18.7v-32.6h4v12.6h5v3.3h-5v16.7h-4ZM413.4 1624.9h4v32.7h-4v-32.7Zm-21.9 13.9c0 -7.1 3.5 -11.5 8.4 -11.5c5 0 8.5 4.4 8.5 11.5c0 7.1 -3.5 11.6 -8.5 11.6c-4.9 0 -8.4 -4.5 -8.4 -11.6Zm3.8 0c0 5 1.9 8 4.6 8c2.8 0 4.7 -3 4.7 -8c0 -5 -1.9 -7.9 -4.7 -7.9c-2.7 0 -4.6 2.9 -4.6 7.9ZM446.6 1624.9h3.8v32.6h-3.8v-16.6h-3.2v15h-3.7v-30.4h3.7v12.2h3.2v-12.8Zm-24.4 21.7h2.9v-14.7h-2.3v-3.1h14.9v3.1h-2.3v14.3l2.8 -.4l.2 2.9c-5 1 -11.7 1.2 -15.8 1.2l-.4 -3.3Zm6.5 -.1c1 0 2.1 -.1 3.1 -.1v-14.5h-3.1v14.6ZM458.2 1627.7h22.3v3.2H462.1v9.3h18.8v3.2H458.2v-15.7Zm-3.6 25.7v-3.3h29.5v3.3H454.6ZM497.1 1627.2c5.1 0 8.9 3.2 8.9 7.8c0 4.7 -3.8 7.9 -8.9 7.9c-5.1 0 -8.9 -3.2 -8.9 -7.9c0 -4.6 3.8 -7.8 8.9 -7.8Zm-10.3 20.3c5.8 0 13.9 0 20.8 -1.1l.3 2.9c-7.1 1.4 -14.9 1.4 -20.7 1.4l-.4 -3.2Zm5.3 -12.5c0 2.8 2.2 4.6 5 4.6c2.9 0 5 -1.8 5 -4.6c0 -2.7 -2.1 -4.4 -5 -4.4c-2.8 0 -5 1.7 -5 4.4Zm17.5 22.6v-32.7h3.9v32.7h-3.9ZM544.5 1633.6h5.7V1625h4v23.7h-4v-11.9h-5.7v-3.2Zm-17.4 8.2c5.1 -1.8 7.9 -6 7.9 -10.4v-.9h-6.8v-3.2h17.4v3.2H539v.9c0 4 2.6 8 7.6 9.7l-2 3.1c-3.6 -1.2 -6.1 -3.7 -7.6 -6.8c-1.4 3.4 -4.1 6.2 -8 7.5l-1.9 -3.1Zm5.9 15.1v-10.2h3.9v7H555v3.2H533ZM560.6 1627.6h15.1v2.7h6.6V1625h3.9v23.7h-3.9v-8.2h-6.6v2.8H560.6v-15.7Zm3.9 12.5h7.4v-9.3h-7.4v9.3Zm.5 16.8v-10.4h3.9v7.2H587v3.2H565Zm10.7 -19.6h6.6v-3.8h-6.6v3.8ZM616.5 1628.1c0 9.9 -2.7 18.3 -14.7 24.4l-2.1 -3c5.7 -2.9 9 -6.2 10.9 -10.1l-10.1 1L600 1637l11.8 -.7c.4 -1.6 .7 -3.2 .8 -5H601.7v-3.2h14.8Zm4.5 29.4v-32.6h4v12.8h4.8v3.2H625v16.6h-4ZM632.8 1628.4h12.6v8.5h3.9v-11.4h3.6V1656h-3.6v-15.9h-3.9v9H632.8v-20.7Zm3.6 17.6h5.4v-14.4h-5.4V1646Zm19.4 11.5v-32.6h3.8v32.6h-3.8ZM685.2 1624.9h3.9v12.6h5v3.3h-5v16.8h-3.9v-32.7ZM665 1631v-3.2h14.9V1640H669v6.6c5.2 0 9.2 -.3 13.8 -1l.3 3.2c-5 .8 -9.4 1.1 -15.3 1.1h-2.7v-13.1H676V1631H665ZM695.8 1650.5h12.8v-5.4h-9.3v-10.6H718v-4.2H699.3v-3.2h22.6v10.5H703.3v4.3h19.3v3.2H712.5v5.4h12.8v3.2H695.8v-3.2ZM887.7 1625.4c7.3 0 11.7 2 11.7 5.6c0 3.6 -4.4 5.6 -11.7 5.6c-7.3 0 -11.7 -2 -11.7 -5.6c0 -3.6 4.4 -5.6 11.7 -5.6ZM873 1641.6v-3.1h29.4v3.1H873Zm3.4 5.2v-3h22.3v7.9H880.4v2.6h19.3v3H876.5V1649h18.4v-2.2H876.4Zm3.7 -15.8c0 1.8 2.6 2.7 7.6 2.7c4.9 0 7.6 -.9 7.6 -2.7c0 -1.8 -2.7 -2.7 -7.6 -2.7c-5 0 -7.6 .9 -7.6 2.7ZM921.6 1627.6h4v5.2c0 6 3.1 12 8.3 14.3l-2.3 3.2c-3.7 -1.8 -6.4 -5.3 -7.9 -9.6c-1.5 4.6 -4.3 8.4 -8.2 10.3l-2.4 -3.3c5.3 -2.4 8.5 -8.7 8.5 -14.9v-5.2Zm14.7 30v-32.7h4v32.7h-4ZM946.3 1627h17.5v3.2h-6.7v.4c0 4 2.6 8 7.6 9.6l-2 3.2c-3.6 -1.2 -6.1 -3.7 -7.6 -6.8c-1.4 3.4 -4.1 6.1 -7.8 7.4l-2.1 -3.1c5.2 -1.8 7.9 -6 7.9 -10.3v-.4h-6.8V1627Zm3.2 22.3v-3.2H971v11.4h-3.9v-8.2H949.5Zm17.6 -4.8v-19.6H971v8.2h4.5v3.3H971v8.1h-3.9ZM999.1 1624.9h4v8.1h4.5v3.2h-4.5v7.8h-4v-19.1Zm-21.5 6.2V1628h7.6v-3.4h4v3.4h7.6v3.1H977.6Zm1.7 6.9c0 -3.5 3.2 -5.8 7.9 -5.8c4.7 0 7.9 2.3 7.9 5.8c0 3.5 -3.2 5.7 -7.9 5.7c-4.7 0 -7.9 -2.2 -7.9 -5.7Zm2.9 19.1v-11.8h3.9v2.9h13v-2.9h4v11.8H982.2ZM983 1638c0 1.8 1.7 2.8 4.2 2.8c2.5 0 4.1 -1 4.1 -2.8c0 -1.8 -1.6 -2.8 -4.1 -2.8c-2.5 0 -4.2 1 -4.2 2.8Zm3.1 16h13v-2.8h-13v2.8ZM1032.7 1624.9h3.9v32.6h-3.9v-32.6Zm-21.3 24.4V1628h4v18c4.5 -.1 9.3 -.5 14.4 -1.5l.4 3.3c-5.6 1.1 -10.9 1.5 -15.9 1.5h-2.9ZM1063.1 1624.9h3.9v12.4h5v3.3h-5v17h-3.9v-32.7Zm-20.1 24.7V1628h15.2v3.2h-11.3v15.1c5.2 0 9.1 -.2 13.5 -1.1l.5 3.3c-5 1 -9.4 1.1 -15.3 1.1H1043ZM1076.7 1650.9c1.3 0 2.2 .9 2.2 2.3c0 1.3 -.9 2.2 -2.2 2.2c-1.4 0 -2.3 -.9 -2.3 -2.2c0 -1.4 .9 -2.3 2.3 -2.3Z" class="g3_5"/>
<path d="M758.7 1624.7h5.2v16.4h-5.2v-5.9h-4.9c-1 3.3 -4.3 5.6 -8.5 5.6c-5.1 0 -8.8 -3.2 -8.8 -7.6c0 -4.5 3.7 -7.7 8.8 -7.7c4.1 0 7.4 2.2 8.4 5.6h5v-6.4Zm-17.4 8.5c0 2.2 1.7 3.5 4 3.5c2.2 0 3.8 -1.3 3.8 -3.5c0 -2.3 -1.6 -3.5 -3.8 -3.5c-2.3 0 -4 1.2 -4 3.5Zm.6 13.2v-4h22v9.3H747v1.8h17.8v3.9H741.9V1648h16.9v-1.6H741.9ZM771.8 1625.9h22.9v2.3c0 2 0 4.6 -.6 7.7h4v4H785.7v2.8h8.9v9.1h-18v1.8h18.9v4h-24v-9.2h17.9v-1.7h-18v-4h9.1v-2.8H768.2v-4H789c.4 -2.4 .6 -4.3 .6 -6H771.8v-4ZM831.1 1624.7h5.1v23.7h-5.1v-23.7ZM809 1635.2c0 -5 4 -8.5 9.1 -8.5c5.2 0 9.1 3.5 9.1 8.5c0 4.9 -3.9 8.5 -9.1 8.5c-5.1 0 -9.1 -3.6 -9.1 -8.5Zm5 22V1646h5.1v7.2H837v4H814Zm.1 -22c0 2.5 1.8 4 4 4c2.3 0 4.1 -1.5 4.1 -4c0 -2.6 -1.8 -4 -4.1 -4c-2.2 0 -4 1.4 -4 4ZM848.2 1626.2h5.2v3.1c0 4 2.1 7.9 7.6 9.5l-2.5 4.1c-3.7 -1.2 -6.2 -3.4 -7.6 -6.2c-1.5 3 -4.1 5.5 -8 6.7l-2.5 -4.1c5.7 -1.7 7.8 -6 7.8 -10v-3.1Zm-2.6 23.6v-4h22.7v12h-5.2v-8H845.6Zm17.5 -5.4v-19.7h5.2v19.7h-5.2Z" class="g4_5"/>
<path fill-rule="evenodd" d="M45.9 1788.1l8.6 2.3l5.2 -19.6c2.2 -8.5 -2.7 -17.2 -11 -19.4c-8.3 -2.3 -16.8 2.7 -19 11.2l-5.3 19.7l8.6 2.3l-1.7 6.6c-1 3.6 1.1 7.3 4.7 8.3c3.6 1 7.2 -1.2 8.2 -4.8l1.7 -6.6Zm5.5 -3.2l4 -15.3c1.6 -6 -1.9 -12.2 -7.8 -13.9c-6 -1.6 -12.1 2 -13.7 8.1l-4 15.3l8.6 2.3l-2.9 10.9c-.3 1.3 .4 2.5 1.6 2.8c1.1 .3 2.4 -.4 2.7 -1.6l2.9 -10.9l8.6 2.3Z" class="g4_5"/>
<image clip-path="url(#c0_5)" preserveAspectRatio="none" x="87" y="101" width="1100" height="1496" xlink:href="img/1.png"/>
<image clip-path="url(#c1_5)" preserveAspectRatio="none" x="179" y="154" width="916" height="1313" xlink:href="img/2.jpg"/>
</svg>