<?xml version="1.0" encoding="UTF-8" standalone="no"?>
<!DOCTYPE svg PUBLIC "-//W3C//DTD SVG 1.1//EN"
"http://www.w3.org/Graphics/SVG/1.1/DTD/svg11.dtd">
<svg viewBox="0 0 1274 1824" version="1.1" xmlns="http://www.w3.org/2000/svg" xmlns:xlink="http://www.w3.org/1999/xlink">
<defs>
<clipPath id="c0_2"><path d="M86.8 1224.1V429H1187.4v795.1Z"/></clipPath>
<clipPath id="c1_2"><path d="M203.2 1093.9c-13.5 0 -24.4 -11 -24.4 -24.5V507.2c0 -13.5 10.9 -24.4 24.4 -24.4H1071c13.5 0 24.4 10.9 24.4 24.4v562.2c0 13.5 -10.9 24.5 -24.4 24.5Z"/></clipPath>
<style type="text/css"><![CDATA[
.g0_2{
fill: #FFF;
}
.g1_2{
fill: #000;
fill-opacity: 0.02;
}
.g2_2{
fill: #2EA4AB;
fill-opacity: 0.01;
}
.g3_2{
fill: #1C1F1F;
}
.g4_2{
fill: #2EA4AB;
}
]]></style>
</defs>
<path d="M0 1824.2H1274.2V0H0V1824.2Z" class="g0_2"/>
<path d="M0 1824.2H1274.2V0H0V1824.2Z" class="g1_2"/>
<path d="M0 1824.2H1274.2V0H0V1824.2Z" class="g2_2"/>
<path d="M230.5 1237.7h5.3v12.7h6v4.3h-6v14.7h-5.3v-31.7Zm-28.2 13.8c0 -6.4 5 -10.9 11.6 -10.9c6.6 0 11.7 4.5 11.7 10.9c0 6.3 -5.1 10.9 -11.7 10.9c-6.6 0 -11.6 -4.6 -11.6 -10.9Zm5.2 0c0 3.8 2.8 6.3 6.4 6.3c3.7 0 6.5 -2.5 6.5 -6.3c0 -3.9 -2.8 -6.4 -6.5 -6.4c-3.6 0 -6.4 2.5 -6.4 6.4Zm.7 28.8v-14.1h5.2v9.8h24.1v4.3H208.2ZM247.1 1240h5.2v17.4c6.7 0 11.5 -.3 16.9 -1.4l.7 4.2c-6.2 1.2 -11.6 1.5 -19.4 1.5h-3.4V1240Zm4.3 32.8c0 -5.3 5.6 -8.3 14.7 -8.3c9.1 0 14.7 3 14.7 8.3c0 5.3 -5.6 8.3 -14.7 8.3c-9.1 0 -14.7 -3 -14.7 -8.3Zm5.2 0c0 2.8 3.4 4.2 9.5 4.2c6.1 0 9.5 -1.4 9.5 -4.2c0 -2.8 -3.4 -4.2 -9.5 -4.2c-6.1 0 -9.5 1.4 -9.5 4.2Zm7.6 -19.1v-4.1h11.2v-3.5H264.2v-4h11.2v-4.4h5.2V1264h-5.2v-10.3H264.2ZM315.8 1237.7h5.3V1255h6.6v4.4h-6.6v21.7h-5.3v-43.4ZM287 1248.5v-4.2h10.2v-6h5.4v6h9.9v4.2H287Zm2.1 13.2c0 -6 4.6 -10.2 10.8 -10.2c6.3 0 10.8 4.2 10.8 10.2c0 6 -4.5 10.2 -10.8 10.2c-6.2 0 -10.8 -4.2 -10.8 -10.2Zm5 0c0 3.6 2.4 5.9 5.8 5.9c3.3 0 5.8 -2.3 5.8 -5.9c0 -3.6 -2.5 -5.9 -5.8 -5.9c-3.4 0 -5.8 2.3 -5.8 5.9ZM347.1 1252.7h6.2v-14.2h4.9v40.6h-4.9V1257h-6.2v-4.3Zm-17.8 15.5c6.2 -3.7 9 -11.5 9 -18.9v-7.7h5.1v7.5c0 7 2.5 14.3 8.3 18.1l-2.9 4c-3.9 -2.3 -6.4 -6.4 -7.9 -11.2c-1.5 5.2 -4.3 9.6 -8.4 12.2l-3.2 -4Zm32.8 12.9v-43.4h5v43.4h-5ZM372.7 1271.6h9.1v-11.2c-3.4 -2 -5.5 -5 -5.5 -8.9c0 -7 6.8 -11.5 16.1 -11.5c9.3 0 16 4.5 16 11.5c0 3.8 -2 6.9 -5.4 8.9v11.2h9.1v4.2H372.7v-4.2Zm8.8 -20.1c0 4.6 4.4 7.3 10.9 7.3c6.4 0 10.9 -2.7 10.9 -7.3c0 -4.5 -4.5 -7.3 -10.9 -7.3c-6.5 0 -10.9 2.8 -10.9 7.3Zm5.5 20.1h10.7v-9.2c-1.7 .3 -3.4 .5 -5.3 .5c-1.9 0 -3.7 -.2 -5.4 -.5v9.2ZM438.5 1240.8c3.9 0 7.1 2.2 9 6.1h10.1v-9.3h5.2v43.6h-5.2v-16.4h-9.7c-1.9 4.3 -5.3 6.8 -9.4 6.8c-6.5 0 -11.1 -6 -11.1 -15.4c0 -9.4 4.6 -15.4 11.1 -15.4Zm-6.1 15.4c0 6.7 2.5 10.6 6.1 10.6c3.6 0 6.1 -3.9 6.1 -10.6c0 -6.7 -2.5 -10.6 -6.1 -10.6c-3.6 0 -6.1 3.9 -6.1 10.6Zm16.6 -5c.4 1.5 .5 3.1 .5 5c0 1.5 -.1 2.9 -.3 4.3h8.4v-9.3H449ZM500.3 1237.6h5.2v43.6h-5.2V1258h-7.5v-4.2h7.5v-16.2Zm-29.4 8.1v-4.2h19.5v15.9H476.2v9.2c6.5 0 11.6 -.3 17.4 -1.3l.5 4.3c-6.5 1.2 -12.2 1.4 -19.7 1.4H471v-17.8h14.2v-7.5H470.9ZM512.1 1260.2h39.4v4.2H534.9v7.5h-5.3v-7.5H512.1v-4.2Zm4.8 20.2v-12h5.2v7.6h25.1v4.4H516.9Zm.4 -23.7V1239h5.2v4.9h18.7V1239h5.2v17.7H517.3Zm5.2 -4.1h18.7v-4.7H522.5v4.7ZM562 1272.8l-3.2 11.1H555l1.8 -11.1H562ZM232.4 1292.7h5.2v43.5h-5.2v-43.5Zm-27.9 33v-29.1h20.8v4.3H209.7v20.4c8 -.1 13.1 -.3 18.8 -1.4l.5 4.4c-6.2 1.2 -11.8 1.4 -20.8 1.4h-3.7ZM246.8 1296.7h20.5v28.8H246.8v-28.8Zm5.2 24.7h10.2v-20.5H252v20.5Zm23.1 14.8v-43.6h5.3v43.6h-5.3ZM319.7 1292.7h5v43.4h-5v-43.4Zm-32.9 28.9h3.9v-19.5h-3.1v-4.3h19.8v4.3h-3.1V1321c1.3 -.2 2.7 -.3 3.9 -.5l.3 3.9c-6.8 1.4 -15.6 1.5 -21.1 1.5l-.6 -4.3Zm8.6 -.1c1.4 -.1 2.8 -.1 4.1 -.2v-19.2h-4.1v19.4Zm10.8 -8.1v-4.6h4.9v-15.2h5V1334h-5v-20.6h-4.9ZM360.5 1292.6h5.3v43.6h-5.3v-43.6Zm-29.1 18.6c0 -9.4 4.7 -15.4 11.2 -15.4c6.6 0 11.2 6 11.2 15.4c0 9.4 -4.6 15.4 -11.2 15.4c-6.5 0 -11.2 -6 -11.2 -15.4Zm5 0c0 6.7 2.5 10.6 6.2 10.6c3.7 0 6.2 -3.9 6.2 -10.6c0 -6.7 -2.5 -10.6 -6.2 -10.6c-3.7 0 -6.2 3.9 -6.2 10.6ZM407.3 1309.7l-9 23h-4.9l-9.6 -23h4.5l7.5 18.5l7 -18.5h4.5ZM410.8 1328.8c4.4 -4.4 10.1 -7.8 10.1 -11.3c0 -2.3 -1.4 -3.8 -3.4 -3.8c-1.6 0 -3.2 1.1 -4 2.7l-3.5 -1.6c1.3 -2.9 4.4 -5 7.5 -5c4.4 0 7.6 3.2 7.6 7.7c0 4.6 -4.4 8.2 -8.2 11.3h8.5v3.6H411.1l-.3 -3.6ZM462.8 1297c0 13 -3.9 24.5 -20 32.4l-2.8 -4c7.5 -3.8 12.2 -8.2 14.8 -13.4l-13.7 1.3l-.8 -4.5l16.1 -1c.7 -2.1 1 -4.3 1.2 -6.6H442.5V1297h20.3Zm7.4 39.1v-43.4h5.2v43.4h-5.2ZM501.9 1295.1c9.2 0 16 4.7 16 11.7c0 6.5 -5.5 10.9 -13.4 11.6v8.2h17.1v4.2H482.2v-4.2h17.1v-8.2c-7.9 -.7 -13.4 -5.1 -13.4 -11.6c0 -7 6.8 -11.7 16 -11.7ZM491 1306.8c0 4.7 4.5 7.6 10.9 7.6c6.3 0 10.9 -2.9 10.9 -7.6c0 -4.6 -4.6 -7.5 -10.9 -7.5c-6.4 0 -10.9 2.9 -10.9 7.5ZM541.7 1295.4h5.6v3.2c0 6.8 6.6 13.5 15.5 15l-2.3 4.4c-7.3 -1.5 -13.2 -5.9 -16 -11.8c-2.9 5.9 -8.8 10.3 -16 11.8l-2.3 -4.4c8.8 -1.5 15.5 -8.3 15.5 -15v-3.2ZM525 1330.6v-4.3h39.3v4.3H525ZM572.2 1296.7h30.5v5.2c0 6.3 0 12.3 -2 21.5l-5.2 -.5c.9 -3.8 1.4 -7.2 1.6 -10.2l-25.4 1.2l-.7 -4.2l26.4 -1c.1 -2.3 .1 -4.6 .1 -6.8v-.9H572.2v-4.3Zm-4.5 33.9v-4.3H607v4.3H567.7ZM610.4 1312.5h39.4v3.8H610.4v-3.8Zm4.6 10.2v-3.6h30v9.9H620.3v3h26v3.7H615.1v-10.2h24.8v-2.8H615Zm.4 -25.4v-3.7h29.5v9.8H620.6v2.9h25.1v3.7H615.4v-10h24.3v-2.7H615.4ZM696.4 1292.7h5v43.4h-5v-22.4h-4.7v20.4h-4.9v-40.3h4.9v15.7h4.7v-16.8Zm-32.3 30.6c9.2 -5.3 13.1 -12.1 13.8 -20.9H666v-4.3h17.1c0 11.8 -3.7 21.9 -15.9 29l-3.1 -3.8ZM708.7 1294.5h5.2v5.7h10.2v-5.7h5.2v19H708.7v-19Zm4.3 26.3v-4.1h28.2v11.4H718.3v3.5h24.3v4.2H713.1v-11.6H736v-3.4H713Zm.9 -11.5h10.2v-5.2H713.9v5.2Zm22.1 5.6v-22.2h5.2v8.8h6v4.3h-6v9.1H736ZM778.6 1292.7h5.3v13.7h6v4.4h-6v14.4h-5.3v-32.5Zm-28.7 9v-4.2h10.3v-4.8h5.2v4.8h10.2v4.2H749.9Zm2.3 10.2c0 -5 4.3 -8.3 10.5 -8.3c6.3 0 10.7 3.3 10.7 8.3c0 4.9 -4.4 8.2 -10.7 8.2c-6.2 0 -10.5 -3.3 -10.5 -8.2Zm4.1 23.4v-12.6h5.2v8.3h24.1v4.3H756.3Zm.9 -23.4c0 2.6 2.3 4.2 5.5 4.2c3.3 0 5.6 -1.6 5.6 -4.2c0 -2.7 -2.3 -4.3 -5.6 -4.3c-3.2 0 -5.5 1.6 -5.5 4.3ZM826.7 1295.3c0 11.3 -7.6 19.2 -20.5 22.5l-2 -4.2c10 -2.5 16 -7.7 16.8 -14.1H806.6v-4.2h20.1Zm-15.4 40.3V1319h28.4v16.6H811.3Zm5.1 -4.2h18.2v-8.3H816.4v8.3ZM834.5 1317v-24.3h5.2V1317h-5.2ZM871.1 1302.6h6.3v-9.9h5.2v27.8h-5.2v-5.1H871v-4.2h6.4v-4.4h-6.3v-4.2Zm-24.4 -1.5V1297h9.6v-4.7h5.3v4.7h9.2v4.1H846.7Zm2.2 9.9c0 -4.8 4.2 -8.1 10 -8.1c5.9 0 10.1 3.3 10.1 8.1c0 4.8 -4.2 8.2 -10.1 8.2c-5.8 0 -10 -3.4 -10 -8.2Zm4.6 17.6c0 -4.8 5.6 -7.6 14.7 -7.6c9.1 0 14.7 2.8 14.7 7.6c0 4.7 -5.6 7.5 -14.7 7.5c-9.1 0 -14.7 -2.8 -14.7 -7.5Zm.3 -17.6c0 2.6 2.1 4.2 5.1 4.2c3.1 0 5.2 -1.6 5.2 -4.2c0 -2.6 -2.1 -4.1 -5.2 -4.1c-3 0 -5.1 1.5 -5.1 4.1Zm5.2 17.6c0 2.3 3.4 3.5 9.2 3.5c5.8 0 9.1 -1.2 9.1 -3.5c0 -2.4 -3.3 -3.5 -9.1 -3.5c-5.8 0 -9.2 1.1 -9.2 3.5ZM911.5 1301.2h8.6v-8.5h5.3v25.8h-5.3v-13h-8.6v-4.3Zm-22.3 12.3c6.9 -2.3 10.5 -8.1 10.5 -14.3v-4.3h5.2v4.6c0 5.6 3.5 11 10.1 13.3l-2.8 4.1c-4.7 -1.7 -8 -5 -9.9 -9.2c-1.9 4.6 -5.4 8.2 -10.4 10l-2.7 -4.2Zm6.8 11.3v-4.2h29.4v15.5h-5.3v-11.3H896ZM962.7 1292.7h5.2V1316h-5.2v-23.3Zm-29.8 12c0 -5.9 4.8 -10.1 11.5 -10.1c6.7 0 11.6 4.2 11.6 10.1c0 6 -4.9 10.2 -11.6 10.2c-6.7 0 -11.5 -4.2 -11.5 -10.2Zm5.1 0c0 3.6 2.7 5.8 6.4 5.8c3.8 0 6.5 -2.2 6.5 -5.8c0 -3.5 -2.7 -5.8 -6.5 -5.8c-3.7 0 -6.4 2.3 -6.4 5.8Zm1.5 30.9V1318h5.1v4.6h18.1V1318h5.2v17.6H939.5Zm5.1 -4.2h18.1v-4.8H944.6v4.8ZM1005.6 1292.7h5.2v43.4h-5.2v-43.4Zm-28.4 32.5v-28.4h5.3v23.9c6 -.1 12.4 -.6 19.2 -1.9l.6 4.4c-7.5 1.5 -14.6 2 -21.2 2h-3.9ZM1046.1 1292.6h5.3v16.6h6.6v4.3h-6.6v22.7h-5.3v-43.6Zm-26.8 33v-28.8h20.3v4.2h-15v20.2c6.9 -.1 12.1 -.3 18 -1.4l.6 4.4c-6.6 1.2 -12.5 1.4 -20.3 1.4h-3.6ZM1064.2 1327.3c1.8 0 3 1.3 3 3c0 1.8 -1.2 3 -3 3c-1.7 0 -3 -1.2 -3 -3c0 -1.7 1.3 -3 3 -3Z" class="g3_2"/>
<path fill-rule="evenodd" d="M45.9 1788.1l8.6 2.3l5.2 -19.6c2.2 -8.5 -2.7 -17.2 -11 -19.4c-8.3 -2.3 -16.8 2.7 -19 11.2l-5.3 19.7l8.6 2.3l-1.7 6.6c-1 3.6 1.1 7.3 4.7 8.3c3.6 1 7.2 -1.2 8.2 -4.8l1.7 -6.6Zm5.5 -3.2l4 -15.3c1.6 -6 -1.9 -12.2 -7.8 -13.9c-6 -1.6 -12.1 2 -13.7 8.1l-4 15.3l8.6 2.3l-2.9 10.9c-.3 1.3 .4 2.5 1.6 2.8c1.1 .3 2.4 -.4 2.7 -1.6l2.9 -10.9l8.6 2.3Z" class="g4_2"/>
<image clip-path="url(#c0_2)" preserveAspectRatio="none" x="87" y="429" width="1100" height="795" xlink:href="img/1.png"/>
<image clip-path="url(#c1_2)" preserveAspectRatio="none" x="179" y="483" width="916" height="611" xlink:href="img/2.jpg"/>
</svg>